<svg id="Mode_Isolation" data-name="Mode Isolation" xmlns="http://www.w3.org/2000/svg" viewBox="0 0 18.5 18.5"><defs><style>.cls-1{fill:#27211f;}</style></defs><title>icon-tarifs-black</title><path class="cls-1" d="M9.25,18.5A9.25,9.25,0,1,1,18.5,9.25,9.26,9.26,0,0,1,9.25,18.5ZM9.25,2A7.25,7.25,0,1,0,16.5,9.25,7.26,7.26,0,0,0,9.25,2Z"/><path class="cls-1" d="M9.25,15.33a6.08,6.08,0,1,1,6.08-6.08,6.09,6.09,0,0,1-6.08,6.08Zm0-11.17a5.08,5.08,0,1,0,5.08,5.08A5.09,5.09,0,0,0,9.25,4.17Z"/><path class="cls-1" d="M8.26,10.22q.17,1.72,1.11,1.73a1.27,1.27,0,0,0,.64-.17,1.67,1.67,0,0,0,.56-.79,1.37,1.37,0,0,1,.3-.5.42.42,0,0,1,.27-.1.6.6,0,0,1,.45.17.64.64,0,0,1,.16.47,1.72,1.72,0,0,1-.69,1.31,2.48,2.48,0,0,1-1.68.6,2.24,2.24,0,0,1-1.61-.67,3.18,3.18,0,0,1-.82-2H6.33c-.06,0-.09,0-.09-.12a.72.72,0,0,1,.09-.3c.06-.12.11-.19.15-.19H6.9V9.44c0-.14,0-.34,0-.61H6.33c-.06,0-.09,0-.09-.12a.73.73,0,0,1,.09-.31c.06-.12.11-.18.15-.18H7q.31-2.51,2.37-2.51a2.6,2.6,0,0,1,1.56.47,1.38,1.38,0,0,1,.65,1.16.57.57,0,0,1-.15.4A.51.51,0,0,1,11,7.9a.46.46,0,0,1-.36-.12,1.36,1.36,0,0,1-.23-.38,1.49,1.49,0,0,0-.33-.52,1,1,0,0,0-.65-.18,1,1,0,0,0-.82.37,2.31,2.31,0,0,0-.37,1.16H9.82c.06,0,.1,0,.1.13a.69.69,0,0,1-.09.31c-.06.12-.11.18-.16.18H8.23V9.3c0,.15,0,.25,0,.31H9.82c.06,0,.1,0,.1.12a.69.69,0,0,1-.09.31c-.06.12-.11.18-.16.18Z"/></svg>