<svg id="Calque_1" data-name="Calque 1" xmlns="http://www.w3.org/2000/svg" viewBox="0 0 48 45"><title>icon-snapchat-black</title><g id="Icons"><g id="Black"><path id="Snapchat" d="M24.46,0h-.94A13.94,13.94,0,0,0,18,1.17a12.23,12.23,0,0,0-3.5,2.31A13.06,13.06,0,0,0,11.6,7.67c-1.07,2.4-.82,6.44-.61,9.68h0c0,.35,0,.71.07,1.06a1.88,1.88,0,0,1-.79.15A5.22,5.22,0,0,1,8.13,18a1.92,1.92,0,0,0-.81-.17,2.89,2.89,0,0,0-1.44.4,2,2,0,0,0-1,1.3,1.79,1.79,0,0,0,.68,1.68,5.86,5.86,0,0,0,1.79,1c.2.08.45.16.7.24.89.28,2.23.71,2.58,1.53a2,2,0,0,1-.23,1.63l0,.05A15.79,15.79,0,0,1,8,29.43,13.58,13.58,0,0,1,5,32,10.74,10.74,0,0,1,.94,33.6,1.12,1.12,0,0,0,0,34.77a1.48,1.48,0,0,0,.12.49h0a3,3,0,0,0,1.62,1.39,18.61,18.61,0,0,0,4.69,1.22,5.74,5.74,0,0,1,.29,1c.08.36.16.73.28,1.13A1.23,1.23,0,0,0,8.29,41a6.2,6.2,0,0,0,1.1-.15,12.47,12.47,0,0,1,2.52-.29,11.06,11.06,0,0,1,1.8.15,8.56,8.56,0,0,1,3.36,1.74C18.79,43.63,20.74,45,23.7,45h.59c3,0,4.91-1.37,6.63-2.58h0a8.57,8.57,0,0,1,3.36-1.73,11.07,11.07,0,0,1,1.8-.15,12.6,12.6,0,0,1,2.52.27,6,6,0,0,0,1.1.14h.06A1.21,1.21,0,0,0,41,40c.11-.39.2-.75.28-1.11a5.84,5.84,0,0,1,.29-1,18.64,18.64,0,0,0,4.69-1.22,3,3,0,0,0,1.62-1.38,1.43,1.43,0,0,0,.12-.49,1.12,1.12,0,0,0-.94-1.17c-6.42-1.05-9.31-7.63-9.43-7.91l0-.05A2,2,0,0,1,37.38,24c.35-.82,1.69-1.25,2.58-1.53.26-.08.5-.16.7-.24a5.4,5.4,0,0,0,1.91-1.14,1.81,1.81,0,0,0,.58-1.31A2.06,2.06,0,0,0,41.62,18a2.76,2.76,0,0,0-1-.2,2.34,2.34,0,0,0-1,.2,5.48,5.48,0,0,1-2,.57,1.81,1.81,0,0,1-.66-.15c0-.3,0-.61.06-.93v-.14c.21-3.25.46-7.29-.61-9.69a13.08,13.08,0,0,0-2.94-4.2,12.26,12.26,0,0,0-3.51-2.31A14,14,0,0,0,24.46,0" transform="translate(0)"/></g></g></svg>