<svg id="Calque_1" data-name="Calque 1" xmlns="http://www.w3.org/2000/svg" viewBox="0 0 48 40"><title>icon-twitter-black</title><g id="Icons"><g id="Black"><path id="Twitter" d="M48,4.74a19.24,19.24,0,0,1-5.65,1.59A10.08,10.08,0,0,0,46.68.74a19.4,19.4,0,0,1-6.26,2.45A9.71,9.71,0,0,0,33.23,0a10,10,0,0,0-9.84,10.1,10.3,10.3,0,0,0,.25,2.3A27.73,27.73,0,0,1,3.34,1.84,10.28,10.28,0,0,0,2,6.93a10.16,10.16,0,0,0,4.38,8.4,9.67,9.67,0,0,1-4.46-1.26v.12a10,10,0,0,0,7.9,9.9,9.39,9.39,0,0,1-2.59.36,9.57,9.57,0,0,1-1.85-.18,9.89,9.89,0,0,0,9.2,7A19.44,19.44,0,0,1,2.35,35.61,19.71,19.71,0,0,1,0,35.47,27.42,27.42,0,0,0,15.1,40c18.12,0,28-15.38,28-28.73,0-.44,0-.88,0-1.31A20.21,20.21,0,0,0,48,4.74"/></g></g></svg>