<?xml version="1.0" encoding="utf-8"?>
<!-- Generator: Adobe Illustrator 15.1.0, SVG Export Plug-In . SVG Version: 6.00 Build 0)  -->
<!DOCTYPE svg PUBLIC "-//W3C//DTD SVG 1.1//EN" "http://www.w3.org/Graphics/SVG/1.1/DTD/svg11.dtd">
<svg version="1.1" id="Calque_1" xmlns="http://www.w3.org/2000/svg" xmlns:xlink="http://www.w3.org/1999/xlink" x="0px" y="0px"
	 width="24.241px" height="25.886px" viewBox="0 0 24.241 25.886" enable-background="new 0 0 24.241 25.886" xml:space="preserve">
<g>
	<defs>
		<rect id="SVGID_1_" y="0" width="24.241" height="25.886"/>
	</defs>
	<clipPath id="SVGID_2_">
		<use xlink:href="#SVGID_1_"  overflow="visible"/>
	</clipPath>
	<path clip-path="url(#SVGID_2_)" fill="#FFFFFF" d="M7.669,13.537c0,0.506-0.41,0.916-0.916,0.916s-0.915-0.41-0.915-0.916
		s0.409-0.916,0.915-0.916S7.669,13.031,7.669,13.537"/>
	<path clip-path="url(#SVGID_2_)" fill="#FFFFFF" d="M16.914,11.966c-0.155,0-0.312-0.038-0.458-0.118
		c-1.645-0.902-3.665-1.306-5.702-1.145c-0.546,0.055-0.986-0.348-1.027-0.873C9.684,9.305,10.075,8.845,10.6,8.803
		c2.403-0.198,4.806,0.293,6.774,1.373c0.462,0.253,0.631,0.833,0.377,1.295C17.578,11.787,17.251,11.966,16.914,11.966"/>
	<path clip-path="url(#SVGID_2_)" fill="#FFFFFF" d="M14.556,10.912c-3.009,0-5.457-2.447-5.457-5.456S11.547,0,14.556,0
		s5.456,2.447,5.456,5.456S17.564,10.912,14.556,10.912 M14.556,2c-1.906,0-3.457,1.551-3.457,3.456s1.551,3.456,3.457,3.456
		c1.905,0,3.456-1.551,3.456-3.456S16.461,2,14.556,2"/>
	<path clip-path="url(#SVGID_2_)" fill="#FFFFFF" d="M14.556,8.079c-1.446,0-2.623-1.177-2.623-2.623s1.177-2.623,2.623-2.623
		s2.623,1.177,2.623,2.623S16.002,8.079,14.556,8.079 M14.556,3.833c-0.895,0-1.623,0.729-1.623,1.623
		c0,0.895,0.729,1.623,1.623,1.623c0.896,0,1.623-0.728,1.623-1.623C16.179,4.562,15.451,3.833,14.556,3.833"/>
	<path clip-path="url(#SVGID_2_)" fill="#FFFFFF" d="M17.864,25.886h-1.498c-1.076,0-1.977-0.763-2.19-1.775
		c-1.236,0.202-2.514,0.224-3.768,0.061c-0.236,0.982-1.122,1.715-2.176,1.715H6.734c-1.235,0-2.24-1.004-2.24-2.238v-1.986
		c-1.039-0.873-1.838-1.914-2.349-3.055C0.954,18.557,0,17.572,0,16.369v-1.498c0-1.202,0.954-2.187,2.145-2.236
		c0.51-1.139,1.309-2.181,2.349-3.056V8.048c0-0.352,0.195-0.676,0.506-0.842c1.115-0.593,2.441-0.437,3.366,0.305
		c0.774-0.235,1.587-0.396,2.425-0.48l0.19,1.898c-0.893,0.089-1.748,0.28-2.543,0.567c-0.382,0.142-0.814,0.018-1.07-0.3
		c-0.24-0.301-0.624-0.48-0.965-0.452v1.293c0,0.298-0.14,0.578-0.376,0.759c-1.125,0.858-1.931,1.93-2.33,3.099
		c-0.131,0.388-0.495,0.646-0.903,0.646H2.239c-0.183,0-0.331,0.147-0.331,0.33v1.498c0,0.183,0.148,0.331,0.331,0.331h0.555
		c0.408,0,0.771,0.26,0.903,0.646c0.4,1.171,1.205,2.242,2.329,3.098c0.237,0.18,0.377,0.461,0.377,0.759v2.444
		c0,0.183,0.148,0.33,0.331,0.33h1.498c0.182,0,0.331-0.147,0.331-0.33v-0.601c0-0.289,0.132-0.563,0.356-0.743
		c0.226-0.182,0.522-0.248,0.804-0.189c1.679,0.372,3.466,0.337,5.117-0.093c0.289-0.075,0.59-0.012,0.824,0.168
		c0.233,0.181,0.371,0.46,0.371,0.755v0.703c0,0.183,0.148,0.33,0.331,0.33h1.498c0.183,0,0.33-0.147,0.33-0.33v-2.79
		c0-0.277,0.121-0.541,0.331-0.722c1.443-1.246,2.238-2.849,2.238-4.515c0-0.221,0.076-0.446,0.205-0.629
		c-0.169-0.134-0.289-0.322-0.338-0.538c-0.417-1.854-1.842-3.505-3.909-4.53l0.848-1.709c1.844,0.915,3.286,2.257,4.158,3.829
		c-0.014-0.366,0.187-0.714,0.52-0.884c0.372-0.19,0.825-0.115,1.117,0.184c0.565,0.581,0.877,1.346,0.877,2.153
		c0,1.136-0.631,2.165-1.599,2.7c-0.161,1.911-1.047,3.67-2.54,5.084v2.367C20.103,24.882,19.099,25.886,17.864,25.886"/>
</g>
</svg>
