<?xml version="1.0" encoding="utf-8"?>
<!-- Generator: Adobe Illustrator 21.1.0, SVG Export Plug-In . SVG Version: 6.00 Build 0)  -->
<svg version="1.1" id="Calque_1" xmlns="http://www.w3.org/2000/svg" xmlns:xlink="http://www.w3.org/1999/xlink" x="0px" y="0px"
	 viewBox="0 0 32.5 32.5" style="enable-background:new 0 0 32.5 32.5;" xml:space="preserve">
<style type="text/css">
	.st0{enable-background:new    ;}
</style>
<title>icon-programme-black</title>
<path d="M29.7,3h-2.2V1.2c0-0.7-0.6-1.2-1.2-1.2C25.6,0,25,0.6,25,1.2V3H7.5V1.2C7.5,0.6,6.9,0,6.2,0S5,0.6,5,1.2V3H2.8
	C1.2,3,0,4.2,0,5.7v24c0,1.5,1.2,2.7,2.8,2.7h27c1.5,0,2.7-1.2,2.8-2.8v-24C32.5,4.2,31.2,3,29.7,3z M2.5,12.5H30v17.3
	c0,0.1-0.1,0.2-0.2,0.2h-27c-0.1,0-0.2-0.1-0.2-0.2L2.5,12.5z M6.2,8.5c0.7,0,1.2-0.6,1.2-1.2V5.5H25v1.8c0,0.7,0.6,1.2,1.2,1.2
	c0.7,0,1.2-0.6,1.2-1.2V5.5h2.2c0.1,0,0.2,0.1,0.2,0.2V10H2.5V5.8c0-0.1,0.1-0.3,0.2-0.3c0,0,0,0,0,0H5v1.8C5,7.9,5.6,8.5,6.2,8.5z"
	/>
<g class="st0">
	<path d="M9.3,23.5l2.8-2.3c1-0.9,1.5-1.3,1.5-2c0-0.7-0.5-1.1-1.1-1.1c-0.6,0-1.1,0.4-1.7,1.1l-1.3-1c0.8-1.1,1.6-1.7,3.1-1.7
		c1.7,0,2.9,1,2.9,2.6v0c0,1.4-0.7,2.1-2.2,3.2l-1.4,1.1h3.7v1.6H9.3V23.5z"/>
	<path d="M16.7,23.8l1.1-1.3c0.6,0.6,1.3,0.9,2,0.9c0.9,0,1.4-0.4,1.4-1.2v0c0-0.7-0.6-1.1-1.5-1.1c-0.5,0-1,0.1-1.4,0.3l-1.1-0.7
		l0.2-4.1h5.2v1.6h-3.6L19,19.6c0.3-0.1,0.6-0.1,1.1-0.1c1.6,0,2.9,0.8,2.9,2.7v0c0,1.8-1.3,2.9-3.2,2.9
		C18.5,25.1,17.5,24.6,16.7,23.8z"/>
</g>
</svg>
