<svg id="Calque_1" data-name="Calque 1" xmlns="http://www.w3.org/2000/svg" viewBox="0 0 76.54 52.5"><defs><style>.cls-1{fill:#edebeb;}</style></defs><title>icon-expo-cart</title><polygon class="cls-1" points="22.74 1.39 76.54 1.39 69.97 26.75 29.34 26.75 22.74 1.39"/><path d="M60.7,34.95l7.05-24.61A1.72,1.72,0,0,0,66.28,8.2H49.22a1.64,1.64,0,0,0-1.64,1.64h0a1.64,1.64,0,0,0,1.64,1.64H64.15L57.91,32.81H23.63L17.39,11.48H32.81a1.64,1.64,0,0,0,1.64-1.64h0A1.64,1.64,0,0,0,32.81,8.2H16.57l-1.8-7.05A1.63,1.63,0,0,0,13.13,0H1.64A1.55,1.55,0,0,0,0,1.64,1.55,1.55,0,0,0,1.64,3.28H11.81L22.48,41.34a5.8,5.8,0,0,0-3.11,8.1,5.46,5.46,0,0,0,2.31,2.35,5.77,5.77,0,0,0,8.51-5,4.63,4.63,0,0,0-.66-2.46H52a6.88,6.88,0,0,0-.66,2.46,5.79,5.79,0,0,0,6.95,5.61,5.84,5.84,0,0,0,4.54-5.71A5.53,5.53,0,0,0,57.42,41H25.92l-1.31-4.92H59.23A1.58,1.58,0,0,0,60.7,34.95ZM27.07,46.76a2.46,2.46,0,1,1-2.46-2.46A2.52,2.52,0,0,1,27.07,46.76Zm32.81,0a2.46,2.46,0,1,1-2.46-2.46A2.52,2.52,0,0,1,59.88,46.76ZM39.38,24V1.64a1.64,1.64,0,1,1,3.28,0V24l5.41-5.41a1.62,1.62,0,1,1,2.3,2.3L42.16,29a1.58,1.58,0,0,1-2.3,0l-8.2-8.2a1.62,1.62,0,1,1,2.3-2.3Z"/></svg>