<svg id="Calque_1" data-name="Calque 1" xmlns="http://www.w3.org/2000/svg" viewBox="0 0 48 34"><title>icon-youtube-black</title><g id="Icons"><g id="Black"><path id="Youtube" d="M19,23.27V9.69L32,16.5ZM47.52,7.33S47.05,4,45.61,2.54a6.83,6.83,0,0,0-4.81-2C34.09,0,24,0,24,0h0S13.91,0,7.2.49a6.83,6.83,0,0,0-4.81,2C.95,4,.48,7.33.48,7.33A73.64,73.64,0,0,0,0,15.16v3.67a73.6,73.6,0,0,0,.48,7.82S.95,30,2.39,31.45c1.83,1.93,4.23,1.87,5.29,2.07C11.52,33.89,24,34,24,34s10.09,0,16.8-.5a6.84,6.84,0,0,0,4.81-2c1.44-1.47,1.91-4.8,1.91-4.8A73.6,73.6,0,0,0,48,18.83V15.16a73.64,73.64,0,0,0-.48-7.82Z"/></g></g></svg>