<svg id="Calque_1" data-name="Calque 1" xmlns="http://www.w3.org/2000/svg" viewBox="0 0 90 59.89"><defs><style>.cls-1{fill:#27211f;}</style></defs><title>icon-speaker</title><path class="cls-1" d="M9.43,53.82h3.65v3a1.5,1.5,0,0,0,1.5,1.5h3.65l6,18.26a4.86,4.86,0,0,0,9.23-3l-5-15.24h2.77l23.45,9.28V68A5.39,5.39,0,0,0,60,73.41h2A5.39,5.39,0,0,0,67.39,68V62.54c5.3-1.06,9.27-7.61,9.27-15.8S72.7,32,67.39,30.92V25.44A5.39,5.39,0,0,0,62,20.05H60a5.39,5.39,0,0,0-5.39,5.39v.4L31.21,35.13H14.58a1.5,1.5,0,0,0-1.5,1.5v3H9.43A4.44,4.44,0,0,0,5,44.08v5.31A4.43,4.43,0,0,0,9.43,53.82ZM30.58,74.5a1.86,1.86,0,0,1-1.2,2.35,1.81,1.81,0,0,1-1.4-.1,1.84,1.84,0,0,1-.93-1.08L21.38,58.34h3.91ZM73.66,46.73c0,6.17-2.75,11.51-6.27,12.71V34C70.92,35.22,73.66,40.56,73.66,46.73Zm-16-21.29A2.39,2.39,0,0,1,60,23.05h2a2.39,2.39,0,0,1,2.39,2.39v6.77s0,0,0,0,0,0,0,0V61.16s0,0,0,0,0,0,0,0V68A2.39,2.39,0,0,1,62,70.41H60A2.39,2.39,0,0,1,57.66,68V25.44Zm-3,39L33,55.82V37.65l21.66-8.58ZM16.08,38.13H30V55.34H16.08V38.13ZM8,44.08a1.43,1.43,0,0,1,1.43-1.43h3.65v8.17H9.43A1.43,1.43,0,0,1,8,49.39Z" transform="translate(-5 -20.05)"/><path class="cls-1" d="M93.5,45.23H83.31a1.5,1.5,0,0,0,0,3H93.5a1.5,1.5,0,0,0,0-3Z" transform="translate(-5 -20.05)"/><path class="cls-1" d="M79.84,34.51a1.5,1.5,0,0,0,.64-.15L89.7,30a1.5,1.5,0,0,0-1.29-2.71l-9.22,4.37a1.5,1.5,0,0,0,.64,2.86Z" transform="translate(-5 -20.05)"/><path class="cls-1" d="M79.19,61.81l9.22,4.37a1.5,1.5,0,0,0,1.29-2.71L80.48,59.1a1.5,1.5,0,0,0-1.29,2.71Z" transform="translate(-5 -20.05)"/></svg>