<svg id="Calque_1" data-name="Calque 1" xmlns="http://www.w3.org/2000/svg" viewBox="0 0 78.03 77.98"><defs><style>.cls-1{fill:#27211f;}</style></defs><title>icon-rocket</title><path class="cls-1" d="M87,11c-9,0-20.83,3.17-31.56,9.66a62.47,62.47,0,0,0-11.91,9.28c-1.9-.21-3.7-.35-5.37-.41-5.64-.19-10.06.5-13.87,2.25-5.09,2.34-8.83,6.43-12.91,12a2,2,0,0,0,1.06,3.09l19.5,5.84L47.25,68.06l5.84,19.5a2,2,0,0,0,3.09,1c5.6-4.07,9.66-7.82,12-12.91C70.46,70.75,71,64.78,70.06,56.5,80.22,46.39,86.18,32.7,88.22,21.31a2,2,0,1,0-3.94-.72C81.39,36.7,69.75,58,49.47,64.63L35.31,50.47C39.14,38.8,47.7,30,57.5,24.09,67.61,18,79,15,87,15a2,2,0,1,0,.06-4ZM66,25a9,9,0,1,0,9,9A9,9,0,0,0,66,25Zm0,4a5,5,0,1,1-5,5A5,5,0,0,1,66,29ZM35.59,33.5c1.39,0,2.92,0,4.56.16A47.64,47.64,0,0,0,31.72,48.5L16.47,43.94c3.12-4,6-6.91,9.5-8.5A23.8,23.8,0,0,1,35.59,33.5ZM26.75,59a2,2,0,0,0-1.16.59l-6,6a2,2,0,0,0,2.76,2.9l.06-.06,6-6A2,2,0,0,0,26.75,59Zm39.59.94c.44,6.26-.17,10.61-1.78,14.13S60,80.38,56,83.5L51.47,68.28A47.81,47.81,0,0,0,66.34,59.91ZM33.75,64a2,2,0,0,0-1.16.59l-12,12a2,2,0,1,0,2.76,2.9l.06-.06,12-12A2,2,0,0,0,33.75,64Zm5,7a2,2,0,0,0-1.16.59l-6,6a2,2,0,1,0,2.76,2.9l.06-.06,6-6A2,2,0,0,0,38.75,71Z" transform="translate(-10.99 -11)"/></svg>