<?xml version="1.0" encoding="utf-8"?>
<!-- Generator: Adobe Illustrator 21.0.0, SVG Export Plug-In . SVG Version: 6.00 Build 0)  -->
<svg version="1.1" id="Calque_1" xmlns="http://www.w3.org/2000/svg" xmlns:xlink="http://www.w3.org/1999/xlink" x="0px" y="0px"
	 viewBox="0 0 24.2 25.9" style="enable-background:new 0 0 24.2 25.9;" xml:space="preserve">
<style type="text/css">
	.st0{fill:#27211F;}
</style>
<g>
	<circle class="st0" cx="6.8" cy="13.5" r="0.9"/>
	<path class="st0" d="M14.6,8.1c1.4,0,2.6-1.2,2.6-2.6S16,2.8,14.6,2.8c-1.4,0-2.6,1.2-2.6,2.6S13.1,8.1,14.6,8.1z M14.6,3.8
		c0.9,0,1.6,0.7,1.6,1.6c0,0.9-0.7,1.6-1.6,1.6c-0.9,0-1.6-0.7-1.6-1.6C12.9,4.6,13.7,3.8,14.6,3.8z"/>
	<path class="st0" d="M23.4,11.3c-0.3-0.3-0.7-0.4-1.1-0.2c-0.3,0.2-0.5,0.5-0.5,0.9c-0.7-1.2-1.7-2.3-3-3.1C19.5,8,20,6.8,20,5.5
		c0-3-2.4-5.5-5.5-5.5c-3,0-5.5,2.4-5.5,5.5c0,0.6,0.1,1.2,0.3,1.8c-0.4,0.1-0.7,0.2-1,0.3C7.4,6.8,6.1,6.6,5,7.2
		C4.7,7.4,4.5,7.7,4.5,8v1.5c-1,0.9-1.8,1.9-2.3,3.1c-1.2,0-2.1,1-2.1,2.2v1.5c0,1.2,1,2.2,2.1,2.2c0.5,1.1,1.3,2.2,2.3,3.1v2
		c0,1.2,1,2.2,2.2,2.2h1.5c1.1,0,1.9-0.7,2.2-1.7c1.3,0.2,2.5,0.1,3.8-0.1c0.2,1,1.1,1.8,2.2,1.8h1.5c1.2,0,2.2-1,2.2-2.2v-2.4
		c1.5-1.4,2.4-3.2,2.5-5.1c1-0.5,1.6-1.6,1.6-2.7C24.2,12.7,23.9,11.9,23.4,11.3z M14.6,2C16.5,2,18,3.6,18,5.5
		c0,1.9-1.6,3.5-3.5,3.5c-1.9,0-3.5-1.6-3.5-3.5C11.1,3.6,12.7,2,14.6,2z M20.8,15.6c0,1.7-0.8,3.3-2.2,4.5
		c-0.2,0.2-0.3,0.4-0.3,0.7v2.8c0,0.2-0.1,0.3-0.3,0.3h-1.5c-0.2,0-0.3-0.1-0.3-0.3v-0.7c0-0.3-0.1-0.6-0.4-0.8
		c-0.2-0.2-0.5-0.2-0.8-0.2c-1.7,0.4-3.4,0.5-5.1,0.1c-0.3-0.1-0.6,0-0.8,0.2c-0.2,0.2-0.4,0.5-0.4,0.7v0.6c0,0.2-0.1,0.3-0.3,0.3
		H6.7c-0.2,0-0.3-0.1-0.3-0.3v-2.4c0-0.3-0.1-0.6-0.4-0.8c-1.1-0.9-1.9-1.9-2.3-3.1c-0.1-0.4-0.5-0.6-0.9-0.6H2.2
		c-0.2,0-0.3-0.1-0.3-0.3v-1.5c0-0.2,0.1-0.3,0.3-0.3h0.6c0.4,0,0.8-0.3,0.9-0.6c0.4-1.2,1.2-2.2,2.3-3.1c0.2-0.2,0.4-0.5,0.4-0.8
		V8.7c0.3,0,0.7,0.2,1,0.5c0.3,0.3,0.7,0.4,1.1,0.3c0.5-0.2,1-0.3,1.6-0.4C9.8,9.3,9.7,9.5,9.7,9.8c0,0.5,0.5,0.9,1,0.9
		c2-0.2,4.1,0.2,5.7,1.1c0.1,0.1,0.3,0.1,0.5,0.1c0.3,0,0.7-0.2,0.8-0.5c0.2-0.3,0.1-0.7,0-1c1.5,1,2.6,2.4,2.9,4
		c0,0.2,0.2,0.4,0.3,0.5C20.8,15.2,20.8,15.4,20.8,15.6z"/>
</g>
</svg>
