<?xml version="1.0" encoding="utf-8"?>
<!-- Generator: Adobe Illustrator 15.1.0, SVG Export Plug-In . SVG Version: 6.00 Build 0)  -->
<!DOCTYPE svg PUBLIC "-//W3C//DTD SVG 1.1//EN" "http://www.w3.org/Graphics/SVG/1.1/DTD/svg11.dtd">
<svg version="1.1" id="Calque_1" xmlns="http://www.w3.org/2000/svg" xmlns:xlink="http://www.w3.org/1999/xlink" x="0px" y="0px"
	 width="17.952px" height="17.216px" viewBox="7.008 7.04 17.952 17.216" enable-background="new 7.008 7.04 17.952 17.216"
	 xml:space="preserve">
<g id="Layer_3">
</g>
<g id="Layer_1">
	<path id="youtube" fill="#FFFFFF" d="M22.08,24.256H9.888c-1.568,0-2.88-1.279-2.88-2.88v-3.2c0-1.568,1.28-2.88,2.88-2.88H22.08
		c1.568,0,2.88,1.28,2.88,2.88v3.232C24.928,22.977,23.648,24.256,22.08,24.256z M12.768,16.384H11.68h-1.44H9.536v0.704h1.088
		v5.023h1.088v-5.023H12.8v-0.704H12.768z M15.264,17.792H14.56v3.36c-0.256,0.063-0.768,0.576-1.088-0.129v-3.231h-0.704v3.584
		c0,0-0.032,0.992,0.704,1.088c0,0,0.416,0.097,1.088-0.608v0.608h0.704V17.792z M17.248,17.792c-0.191,0-0.352,0.063-0.544,0.224
		v-1.664H16v5.728c0,0,0.992,0.352,1.248,0.352c0.672,0,1.248-1.023,1.248-2.336C18.496,18.784,17.92,17.792,17.248,17.792z
		 M20.288,17.792c-0.8,0-1.44,1.024-1.44,2.336s0.641,2.336,1.44,2.336c0.672,0,1.248-0.769,1.407-1.792h-1.023
		c-0.064,0.607-0.096,1.088-0.352,1.088c-0.288,0-0.32-0.64-0.352-1.439h0.352h0.703h0.705c0-0.064,0-0.096,0-0.192
		C21.729,18.848,21.088,17.792,20.288,17.792z M20.288,18.527c0.256,0,0.288,0.48,0.353,1.089h-0.673
		C20.032,18.943,20.064,18.527,20.288,18.527z M17.057,21.376c-0.289,0-0.353-0.353-0.353-1.248s0.063-1.601,0.353-1.601
		c0.287,0,0.352,0.705,0.352,1.601S17.344,21.376,17.057,21.376z M19.936,13.248c-0.64,0.704-1.088,0.608-1.088,0.608
		c-0.768-0.064-0.703-1.088-0.703-1.088V8.832H19.2V12.8c0.192,0.224,0.479,0.192,0.704,0.128V8.832h1.088v5.024h-1.088v-0.608
		H19.936z M15.808,13.856c-0.896,0-1.6-1.216-1.6-2.688s0.704-2.688,1.6-2.688s1.6,1.216,1.6,2.688S16.704,13.856,15.808,13.856z
		 M15.808,9.568c-0.288,0-0.544,0.704-0.544,1.6s0.256,1.6,0.544,1.6s0.544-0.704,0.544-1.6S16.096,9.568,15.808,9.568z
		 M12.768,13.856h-0.352h-0.352h-0.352v-3.232L10.24,7.04h1.44l0.352,2.144l0.192,0.544l0.192-0.544l0.352-2.144h1.44l-1.44,3.584
		V13.856z"/>
</g>
</svg>
