<svg id="Calque_1" data-name="Calque 1" xmlns="http://www.w3.org/2000/svg" viewBox="0 0 48 48"><title>icon-instagram-black</title><g id="Icons"><g id="Black"><path id="Instagram" d="M24,0c-6.52,0-7.34,0-9.9.14A17.61,17.61,0,0,0,8.28,1.26,11.76,11.76,0,0,0,4,4,11.76,11.76,0,0,0,1.26,8.28,17.61,17.61,0,0,0,.14,14.1C0,16.66,0,17.48,0,24s0,7.34.14,9.9a17.61,17.61,0,0,0,1.12,5.83A11.76,11.76,0,0,0,4,44a11.77,11.77,0,0,0,4.25,2.77,17.62,17.62,0,0,0,5.83,1.12c2.56.12,3.38.14,9.9.14s7.34,0,9.9-.14a17.62,17.62,0,0,0,5.83-1.12,12.27,12.27,0,0,0,7-7,17.62,17.62,0,0,0,1.12-5.83C48,31.34,48,30.52,48,24s0-7.34-.14-9.9a17.62,17.62,0,0,0-1.12-5.83A11.76,11.76,0,0,0,44,4a11.76,11.76,0,0,0-4.25-2.77A17.61,17.61,0,0,0,33.9.14C31.34,0,30.52,0,24,0Zm0,4.32c6.41,0,7.17,0,9.7.14a13.28,13.28,0,0,1,4.46.83,7.43,7.43,0,0,1,2.76,1.8,7.44,7.44,0,0,1,1.8,2.76,13.28,13.28,0,0,1,.83,4.46c.12,2.53.14,3.29.14,9.7s0,7.17-.14,9.7a13.28,13.28,0,0,1-.83,4.46,7.95,7.95,0,0,1-4.55,4.55,13.28,13.28,0,0,1-4.46.83c-2.53.12-3.29.14-9.7.14s-7.17,0-9.7-.14a13.28,13.28,0,0,1-4.46-.83,7.44,7.44,0,0,1-2.76-1.8,7.44,7.44,0,0,1-1.8-2.76,13.28,13.28,0,0,1-.83-4.46c-.12-2.53-.14-3.29-.14-9.7s0-7.17.14-9.7a13.28,13.28,0,0,1,.83-4.46,7.43,7.43,0,0,1,1.8-2.76,7.44,7.44,0,0,1,2.76-1.8,13.28,13.28,0,0,1,4.46-.83C16.83,4.35,17.59,4.32,24,4.32Zm0,7.35A12.32,12.32,0,1,0,36.32,24,12.32,12.32,0,0,0,24,11.68ZM24,32a8,8,0,1,1,8-8A8,8,0,0,1,24,32ZM39.69,11.19a2.88,2.88,0,1,1-2.88-2.88A2.88,2.88,0,0,1,39.69,11.19Z"/></g></g></svg>