<svg id="Calque_1" data-name="Calque 1" xmlns="http://www.w3.org/2000/svg" viewBox="0 0 39 30"><defs><style>.cls-1{fill:#27211f;}</style></defs><title>icon-newsletter-black</title><path class="cls-1" d="M43.6,15.6,31.3,25.26,19,15.6a1.48,1.48,0,0,0-1.16-.28,1.26,1.26,0,0,0-.84.58,1.47,1.47,0,0,0-.28,1.16,1.25,1.25,0,0,0,.57.84L30.4,28.22v.28h.05v.1h.5a1.13,1.13,0,0,0,.46.1,1.21,1.21,0,0,0,.56-.12.61.61,0,0,0,.32-.21.58.58,0,0,0,.14-.16L45.5,17.9a1.46,1.46,0,0,0,.25-2.05A1.62,1.62,0,0,0,43.6,15.6Z" transform="translate(-11.8 -8.9)"/><path class="cls-1" d="M46.3,8.9h-30a4.5,4.5,0,0,0-4.5,4.5v21a4.5,4.5,0,0,0,4.5,4.5h30a4.5,4.5,0,0,0,4.5-4.5v-21A4.5,4.5,0,0,0,46.3,8.9Zm1.5,4.5v21a1.5,1.5,0,0,1-1.5,1.5h-30a1.5,1.5,0,0,1-1.5-1.5v-21a1.5,1.5,0,0,1,1.5-1.5h30A1.5,1.5,0,0,1,47.8,13.4Z" transform="translate(-11.8 -8.9)"/></svg>