<svg id="Layer_3" data-name="Layer 3" xmlns="http://www.w3.org/2000/svg" viewBox="0 0 23.83 23.83"><defs><style>.cls-1{fill:#27211f;}</style></defs><title>icon-list-expos-black</title><path class="cls-1" d="M22.83,23.83H1a1,1,0,0,1-1-1V1A1,1,0,0,1,1,0H22.83a1,1,0,0,1,1,1V22.83a1,1,0,0,1-1,1ZM2,21.83H21.83V2H2V21.83Z"/><path class="cls-1" d="M18.89,9.75H15a1,1,0,0,1,0-2h3.87a1,1,0,0,1,0,2Z"/><path class="cls-1" d="M8.39,9.75H5.17a1,1,0,0,1,0-2H8.39a1,1,0,0,1,0,2Z"/><path class="cls-1" d="M8.39,17.09H5.17a1,1,0,0,1,0-2H8.39a1,1,0,0,1,0,2Z"/><path class="cls-1" d="M12,11.42H8.67a1,1,0,0,1-1-1V7.09a1,1,0,0,1,1-1H12a1,1,0,0,1,1,1v3.33a1,1,0,0,1-1,1Zm-2.33-2H11V8.09H9.67V9.42Z"/><path class="cls-1" d="M18.89,17.09H15a1,1,0,1,1,0-2h3.87a1,1,0,0,1,0,2Z"/><path class="cls-1" d="M12,18.75H8.67a1,1,0,0,1-1-1V14.42a1,1,0,0,1,1-1H12a1,1,0,0,1,1,1v3.33a1,1,0,0,1-1,1Zm-2.33-2H11V15.42H9.67v1.33Z"/><path class="cls-1" d="M4.67,17.09a1,1,0,0,1-1-1V4.53a1,1,0,0,1,2,0V16.09a1,1,0,0,1-1,1Z"/></svg>