<?xml version="1.0" encoding="utf-8"?>
<!-- Generator: Adobe Illustrator 15.1.0, SVG Export Plug-In . SVG Version: 6.00 Build 0)  -->
<!DOCTYPE svg PUBLIC "-//W3C//DTD SVG 1.1//EN" "http://www.w3.org/Graphics/SVG/1.1/DTD/svg11.dtd">
<svg version="1.1" id="Layer_3" xmlns="http://www.w3.org/2000/svg" xmlns:xlink="http://www.w3.org/1999/xlink" x="0px" y="0px"
	 width="25.207px" height="24px" viewBox="0 0 25.207 24" enable-background="new 0 0 25.207 24" xml:space="preserve">
<g>
	<g>
		<path fill="#FFFFFF" d="M12.645,15c-0.168,0-0.336-0.043-0.488-0.128L0.512,8.35C0.195,8.173,0,7.84,0,7.478
			s0.195-0.695,0.512-0.872l11.561-6.478c0.305-0.171,0.676-0.17,0.979,0L24.695,6.65c0.316,0.177,0.512,0.51,0.512,0.872
			s-0.195,0.695-0.512,0.872l-11.561,6.478C12.982,14.957,12.814,15,12.645,15L12.645,15z M3.047,7.478l9.598,5.376l9.516-5.331
			l-9.598-5.376L3.047,7.478L3.047,7.478z"/>
	</g>
	<g>
		<path fill="#FFFFFF" d="M12.645,19.5c-0.168,0-0.336-0.043-0.488-0.128L0.512,12.85c-0.482-0.27-0.654-0.879-0.383-1.36
			c0.268-0.483,0.877-0.656,1.359-0.384l11.156,6.248l11.072-6.203c0.484-0.271,1.092-0.099,1.361,0.383
			c0.271,0.482,0.1,1.092-0.383,1.361l-11.561,6.478C12.982,19.457,12.814,19.5,12.645,19.5L12.645,19.5z"/>
	</g>
	<g>
		<path fill="#FFFFFF" d="M12.645,24c-0.168,0-0.336-0.043-0.488-0.128L0.512,17.35c-0.482-0.27-0.654-0.879-0.383-1.36
			c0.268-0.482,0.877-0.656,1.359-0.384l11.156,6.248l11.072-6.203c0.484-0.271,1.092-0.099,1.361,0.383
			c0.271,0.482,0.1,1.092-0.383,1.361l-11.561,6.478C12.982,23.957,12.814,24,12.645,24L12.645,24z"/>
	</g>
</g>
</svg>
