<svg id="Calque_1" data-name="Calque 1" xmlns="http://www.w3.org/2000/svg" viewBox="0 0 88 64.43"><defs><style>.cls-1{fill:#27211f;}</style></defs><title>icon-people</title><path class="cls-1" d="M38.86,48.93a2,2,0,0,0-1.28.41,19.05,19.05,0,0,0-7.49,15.12V80.21a2,2,0,0,0,2,2H67.92a2,2,0,0,0,2-2V64.45a19,19,0,0,0-7.51-15.12,2,2,0,0,0-2.23-.13,20.11,20.11,0,0,1-20.38,0,2,2,0,0,0-1-.28ZM39,53.33a24.12,24.12,0,0,0,21.95,0,15,15,0,0,1,5,11.12V78.22H34.08V64.46A15,15,0,0,1,39,53.33Z" transform="translate(-6 -17.79)"/><path class="cls-1" d="M50,17.79A14.07,14.07,0,1,0,64.07,31.85,14.1,14.1,0,0,0,50,17.79Zm0,4A10.07,10.07,0,1,1,39.92,31.85,10,10,0,0,1,50,21.78Z" transform="translate(-6 -17.79)"/><path class="cls-1" d="M69.44,46a2,2,0,0,0-1.27.41A15.75,15.75,0,0,0,66.44,48a2,2,0,1,0,2.82,2.84l0,0,.34-.33a19.23,19.23,0,0,0,16.89,0A11.15,11.15,0,0,1,90,58.54V68.79h-16a2,2,0,1,0-.07,4H92a2,2,0,0,0,2-2V58.54a15.21,15.21,0,0,0-6-12.09,2,2,0,0,0-2.23-.13,15.21,15.21,0,0,1-15.37,0A2,2,0,0,0,69.44,46Z" transform="translate(-6 -17.79)"/><path class="cls-1" d="M78.08,21.86A11.37,11.37,0,1,0,89.46,33.23,11.41,11.41,0,0,0,78.08,21.86Zm0,4a7.38,7.38,0,1,1-7.38,7.38A7.35,7.35,0,0,1,78.08,25.85Z" transform="translate(-6 -17.79)"/><path class="cls-1" d="M13.27,46a2,2,0,0,0-1.28.41A15.23,15.23,0,0,0,6,58.54V70.78a2,2,0,0,0,2,2H25.94a2,2,0,0,0,.07-4H10V58.54a11.17,11.17,0,0,1,3.47-8.09,19.23,19.23,0,0,0,16.88,0l.34.33A2,2,0,1,0,33.59,48l0,0a15.76,15.76,0,0,0-1.73-1.53,2,2,0,0,0-2.22-.13,15.21,15.21,0,0,1-15.37,0,2,2,0,0,0-1-.28Z" transform="translate(-6 -17.79)"/><path class="cls-1" d="M21.91,21.86A11.37,11.37,0,1,0,33.29,33.23,11.4,11.4,0,0,0,21.91,21.86Zm0,4a7.38,7.38,0,1,1-7.37,7.38A7.35,7.35,0,0,1,21.91,25.85Z" transform="translate(-6 -17.79)"/></svg>