<svg id="Calque_1" data-name="Calque 1" xmlns="http://www.w3.org/2000/svg" viewBox="0 0 90 80.03"><defs><style>.cls-1{fill:#27211f;}</style></defs><title>icon-money</title><path class="cls-1" d="M35,10c-8,0-15.23,1.57-20.66,4.28S5,21,5,26V74C5,79,8.88,83,14.31,85.7S27,90,35,90a49.64,49.64,0,0,0,17.94-3.12A29,29,0,1,0,66,32c-.34,0-.69,0-1,0V26c0-5-3.89-9-9.31-11.75S43,10,35,10Zm0,4c7.47,0,14.22,1.55,18.94,3.91S61,23.28,61,26c-.93,4.25-4,6.58-7.09,8.06C49.22,36.43,42.47,38,35,38s-14.22-1.55-18.94-3.91C12.57,32.27,9.39,29.51,9,26c0-2.74,2.38-5.74,7.09-8.09S27.53,14,35,14ZM9,34.14a23.24,23.24,0,0,0,5.34,3.59C19.77,40.45,27,42,35,42a55.92,55.92,0,0,0,9.88-.87,29.1,29.1,0,0,0-5.62,8.66c-1.38.12-2.8.22-4.25.22-7.46,0-14.2-1.55-18.91-3.91S9,40.8,9,38ZM66,36A25,25,0,1,1,41,61,25,25,0,0,1,66,36Zm1,8A17.06,17.06,0,0,0,50.75,56H47.81A2,2,0,1,0,48,60h2.06c0,.33-.06.67-.06,1a17.15,17.15,0,0,0,.13,2H47.81A2,2,0,1,0,48,67h3.13A17.06,17.06,0,0,0,67,78c5.45,0,9.21-2.42,12.38-5.59a2,2,0,1,0-2.81-2.84C73.76,72.41,71.39,74,67,74a13,13,0,0,1-11.56-7H68a2,2,0,1,0,0-4H54.16A13.16,13.16,0,0,1,54,61c0-.33,0-.67,0-1H68a2,2,0,1,0,0-4H55a13,13,0,0,1,12-8c4.36,0,6.73,1.58,9.56,4.41a2,2,0,1,0,2.81-2.84C76.24,46.41,72.48,44,67,44ZM9,46.14a23.15,23.15,0,0,0,5.31,3.56C19.74,52.42,27,54,35,54c1,0,1.92,0,2.88-.09A29,29,0,0,0,37,61c0,.32,0,.65,0,1-.67,0-1.34,0-2,0-7.46,0-14.2-1.55-18.91-3.91S9,52.8,9,50V46.14Zm0,12a23.15,23.15,0,0,0,5.31,3.56C19.74,64.42,27,66,35,66c.82,0,1.64,0,2.44-.06A28.77,28.77,0,0,0,40,73.77c-1.61.16-3.26.25-5,.25-7.46,0-14.2-1.55-18.91-3.91S9,64.8,9,62Zm0,12a23.15,23.15,0,0,0,5.31,3.56C19.74,76.42,27,78,35,78a56.92,56.92,0,0,0,7.22-.44,29.05,29.05,0,0,0,6.34,6.56A48.58,48.58,0,0,1,35,86c-7.46,0-14.2-1.55-18.91-3.91S9,76.8,9,74Z" transform="translate(-5 -9.98)"/></svg>