<svg id="Calque_1" data-name="Calque 1" xmlns="http://www.w3.org/2000/svg" viewBox="0 0 62.24 64.16"><defs><style>.cls-1{fill:#edebeb;}</style></defs><title>icon-expo-bag</title><polygon class="cls-1" points="11.4 48.59 55.09 48.59 49.77 6.5 16.47 6.5 11.4 48.59"/><path d="M26.65,56.26H5.54L9.28,18.48h6.83v1.83l-.23.09a5.37,5.37,0,1,0,3.89,0l-.23-.09V10.83A6.49,6.49,0,0,1,26,4.35h1.65a6.49,6.49,0,0,1,6.48,6.48v4.22H23.73a1.71,1.71,0,0,0,0,3.43H34.14v1.83l-.23.09a5.37,5.37,0,1,0,3.89,0l-.23-.09V10.83A9.92,9.92,0,0,0,27.66.92H26a9.92,9.92,0,0,0-9.91,9.91v4.22H7.72A1.71,1.71,0,0,0,6,16.6L1.95,57.8a1.71,1.71,0,0,0,1.71,1.89h23a1.71,1.71,0,0,0,0-3.43Zm9.27-32.74a1.78,1.78,0,0,1,1.71,1.11,1.86,1.86,0,0,1,.17.78,1.94,1.94,0,0,1-3.89,0,1.92,1.92,0,0,1,.18-.82A1.82,1.82,0,0,1,35.92,23.52Zm-18.2,0a2.12,2.12,0,0,1,1.84,1,1.94,1.94,0,1,1-3.5,0A1.92,1.92,0,0,1,17.73,23.53Z" transform="translate(-1.94 -0.92)"/><path d="M48.71,30l-.28,0L46.85,16.57a1.71,1.71,0,0,0-1.7-1.51H41.29a1.71,1.71,0,0,0,0,3.43h2.33L45,29.88l-.36,0a17.64,17.64,0,1,0,4.1,0ZM46.55,61.71A14.27,14.27,0,1,1,60.81,47.45,14.28,14.28,0,0,1,46.55,61.71Z" transform="translate(-1.94 -0.92)"/><path d="M47.42,41.47a6,6,0,0,1,4.52,2.08,1.37,1.37,0,0,0,1,.45,1.47,1.47,0,0,0,1-.38,1.38,1.38,0,0,0,.45-1,1.47,1.47,0,0,0-.38-1,8.67,8.67,0,0,0-6.57-3,8.89,8.89,0,0,0-8.48,6H37.89a1.45,1.45,0,0,0-1.45,1.45,1.42,1.42,0,0,0,1.45,1.45h.62v.11c0,.17,0,.36,0,.55h-.58a1.46,1.46,0,0,0-1.45,1.45,1.42,1.42,0,0,0,1.45,1.45h1.25a9,9,0,0,0,8.28,5.52A8.7,8.7,0,0,0,54,53.69a1.3,1.3,0,0,0,.39-1,1.27,1.27,0,0,0-.5-1,1.64,1.64,0,0,0-1-.34,1.23,1.23,0,0,0-1,.45,5.79,5.79,0,0,1-4.52,2.09,6.05,6.05,0,0,1-5.05-2.68h5.52a1.45,1.45,0,0,0,1.45-1.45,1.42,1.42,0,0,0-1.45-1.45H41.31c0-.18,0-.38,0-.55v-.11h6.58a1.45,1.45,0,0,0,1.45-1.45,1.42,1.42,0,0,0-1.45-1.45H42.08A6.13,6.13,0,0,1,47.42,41.47Z" transform="translate(-1.94 -0.92)"/></svg>