<svg xmlns="http://www.w3.org/2000/svg" xmlns:xlink="http://www.w3.org/1999/xlink" version="1.1" x="0px" y="0px" viewBox="0 0 100 125" enable-background="new 0 0 100 100" xml:space="preserve"><path d="M89.726,35.932c-0.476-0.564-1.175-0.891-1.913-0.891H75.781L64.002,14.586c-0.688-1.197-2.219-1.607-3.414-0.918  c-1.196,0.688-1.607,2.217-0.918,3.414l10.342,17.959H29.988L40.33,17.082c0.689-1.197,0.278-2.726-0.918-3.414  c-1.197-0.689-2.726-0.279-3.414,0.918L24.219,35.041H12.188c-0.738,0-1.438,0.326-1.913,0.891c-0.475,0.564-0.676,1.31-0.55,2.037  l2,11.521c0.208,1.197,1.247,2.072,2.463,2.072h1.601l6.932,33.115c0.243,1.158,1.264,1.988,2.447,1.988h49.666  c1.184,0,2.204-0.83,2.447-1.988l6.932-33.115h1.601c1.216,0,2.255-0.875,2.463-2.072l2-11.521  C90.402,37.241,90.2,36.496,89.726,35.932z M72.802,81.666H27.198l-6.302-30.104h58.207L72.802,81.666z M83.709,46.563H16.291  l-1.132-6.521h69.682L83.709,46.563z"/><text x="0" y="115" fill="#000000" font-size="5px" font-weight="bold" font-family="'Helvetica Neue', Helvetica, Arial-Unicode, Arial, Sans-serif">Created by myladkings</text><text x="0" y="120" fill="#000000" font-size="5px" font-weight="bold" font-family="'Helvetica Neue', Helvetica, Arial-Unicode, Arial, Sans-serif">from the Noun Project</text></svg>