<?xml version="1.0" encoding="utf-8"?>
<!-- Generator: Adobe Illustrator 15.1.0, SVG Export Plug-In . SVG Version: 6.00 Build 0)  -->
<!DOCTYPE svg PUBLIC "-//W3C//DTD SVG 1.1//EN" "http://www.w3.org/Graphics/SVG/1.1/DTD/svg11.dtd">
<svg version="1.1" id="Layer_3" xmlns="http://www.w3.org/2000/svg" xmlns:xlink="http://www.w3.org/1999/xlink" x="0px" y="0px"
	 width="20.504px" height="24.211px" viewBox="0 0 20.504 24.211" enable-background="new 0 0 20.504 24.211" xml:space="preserve">
<g>
	<g>
		<path fill="#FFFFFF" d="M10.252,24.25c-0.23,0-0.461-0.08-0.648-0.239C8.621,23.173,0,15.667,0,10.251C0,4.599,4.6,0,10.252,0
			c5.654,0,10.252,4.599,10.252,10.251c0,5.417-8.619,12.922-9.604,13.76C10.715,24.17,10.482,24.25,10.252,24.25L10.252,24.25z
			 M10.252,2C5.703,2,2,5.701,2,10.251c0,3.512,5.459,9.153,8.252,11.668c2.793-2.515,8.252-8.156,8.252-11.668
			C18.504,5.701,14.803,2,10.252,2L10.252,2z"/>
	</g>
	<g>
		<g>
			<path fill="#FFFFFF" d="M10.252,16.459c-3.424,0-6.209-2.785-6.209-6.208s2.785-6.208,6.209-6.208s6.209,2.785,6.209,6.208
				S13.676,16.459,10.252,16.459L10.252,16.459z M10.252,5.043c-2.871,0-5.209,2.336-5.209,5.208s2.338,5.208,5.209,5.208
				c2.873,0,5.209-2.336,5.209-5.208S13.125,5.043,10.252,5.043L10.252,5.043z"/>
		</g>
	</g>
	<g>
		<path fill="#FFFFFF" d="M10.252,6.876c-1.865,0-3.375,1.512-3.375,3.375c0,1.864,1.51,3.375,3.375,3.375
			c1.863,0,3.375-1.511,3.375-3.375C13.627,8.388,12.115,6.876,10.252,6.876L10.252,6.876z"/>
	</g>
</g>
</svg>
