<svg id="Calque_1" data-name="Calque 1" xmlns="http://www.w3.org/2000/svg" viewBox="0 0 32.5 32.5"><defs><style>.cls-1{font-size:12px;font-family:Gotham-Bold, Gotham;font-weight:700;}</style></defs><title>icon-programme-black</title><path d="M34.12,8.53H31.88V6.78a1.25,1.25,0,0,0-2.5,0V8.53H11.88V6.78a1.25,1.25,0,0,0-2.5,0V8.53H7.13a2.76,2.76,0,0,0-2.75,2.75v24A2.76,2.76,0,0,0,7.13,38h27a2.76,2.76,0,0,0,2.75-2.75v-24A2.76,2.76,0,0,0,34.12,8.53ZM6.88,18h27.5V35.28a.25.25,0,0,1-.25.25h-27a.25.25,0,0,1-.25-.25Zm3.75-4a1.25,1.25,0,0,0,1.25-1.25V11h17.5v1.75a1.25,1.25,0,0,0,2.5,0V11h2.25a.25.25,0,0,1,.25.25v4.25H6.88V11.29A.25.25,0,0,1,7.13,11H9.38v1.75A1.25,1.25,0,0,0,10.63,14Z" transform="translate(-4.38 -5.53)"/><text class="cls-1" transform="translate(8.73 24.92)">25</text></svg>