<?xml version="1.0" encoding="utf-8"?>
<!-- Generator: Adobe Illustrator 21.1.0, SVG Export Plug-In . SVG Version: 6.00 Build 0)  -->
<svg version="1.1" id="Calque_1" xmlns="http://www.w3.org/2000/svg" xmlns:xlink="http://www.w3.org/1999/xlink" x="0px" y="0px"
	 viewBox="0 0 80.6 73.3" style="enable-background:new 0 0 80.6 73.3;" xml:space="preserve">
<path d="M80,22.6c-0.5-0.6-1.2-0.9-1.9-0.9h-12L54.3,1.3c-0.7-1.2-2.2-1.6-3.4-0.9C49.7,1,49.3,2.6,50,3.7l10.3,18h-40l10.3-18
	c0.7-1.2,0.3-2.7-0.9-3.4c-1.2-0.7-2.7-0.3-3.4,0.9L14.5,21.7h-12c-0.7,0-1.4,0.3-1.9,0.9c-0.5,0.6-0.7,1.3-0.6,2l2,11.5
	c0.2,1.2,1.2,2.1,2.5,2.1h1.6L13,71.3c0.2,1.2,1.3,2,2.4,2h49.7c1.2,0,2.2-0.8,2.4-2l6.9-33.1h1.6c1.2,0,2.3-0.9,2.5-2.1l2-11.5
	C80.7,23.9,80.5,23.2,80,22.6z M63.1,68.3H17.5l-6.3-30.1h58.2L63.1,68.3z M74,33.2H6.6l-1.1-6.5h69.7L74,33.2z"/>
</svg>
