<?xml version="1.0" encoding="utf-8"?>
<!-- Generator: Adobe Illustrator 15.1.0, SVG Export Plug-In . SVG Version: 6.00 Build 0)  -->
<!DOCTYPE svg PUBLIC "-//W3C//DTD SVG 1.1//EN" "http://www.w3.org/Graphics/SVG/1.1/DTD/svg11.dtd">
<svg version="1.1" id="Calque_1" xmlns="http://www.w3.org/2000/svg" xmlns:xlink="http://www.w3.org/1999/xlink" x="0px" y="0px"
	 width="25.834px" height="23.479px" viewBox="0 0 25.834 23.479" enable-background="new 0 0 25.834 23.479" xml:space="preserve">
<g>
	<defs>
		<rect id="SVGID_1_" y="0" width="25.834" height="23.479"/>
	</defs>
	<clipPath id="SVGID_2_">
		<use xlink:href="#SVGID_1_"  overflow="visible"/>
	</clipPath>
	<path clip-path="url(#SVGID_2_)" fill="#FFFFFF" d="M21.52,12.167c-1.068,0-2.088-0.407-2.867-1.108
		c-0.781,0.701-1.799,1.108-2.867,1.108c-1.069,0-2.088-0.407-2.867-1.108c-0.781,0.701-1.799,1.108-2.868,1.108
		c-1.068,0-2.087-0.407-2.867-1.108c-0.781,0.701-1.799,1.108-2.867,1.108C1.935,12.167,0,10.231,0,7.851
		c0-0.124,0.023-0.247,0.068-0.363l2.668-6.852C2.886,0.253,3.256,0,3.668,0h18c0.391,0,0.744,0.226,0.908,0.58l3.166,6.851
		c0.061,0.132,0.092,0.276,0.092,0.42C25.834,10.231,23.898,12.167,21.52,12.167 M18.652,8.488c0.357,0,0.688,0.192,0.867,0.503
		c0.422,0.736,1.168,1.176,2,1.176c1.209,0,2.203-0.932,2.307-2.115L21.029,2H4.351L2.006,8.023c0.089,1.196,1.091,2.144,2.31,2.144
		c0.83,0,1.578-0.44,1.998-1.176c0.358-0.621,1.379-0.621,1.736,0c0.422,0.736,1.168,1.176,2,1.176c0.831,0,1.579-0.44,1.998-1.176
		c0.358-0.621,1.38-0.621,1.737,0c0.422,0.736,1.168,1.176,2,1.176c0.83,0,1.578-0.44,1.998-1.176
		C17.963,8.68,18.293,8.488,18.652,8.488"/>
	<path clip-path="url(#SVGID_2_)" fill="#FFFFFF" d="M22.084,23.479H3.752c-0.553,0-1-0.447-1-1V11.479c0-0.553,0.447-1,1-1
		c0.553,0,1,0.447,1,1v9.999h16.332v-9.999c0-0.553,0.447-1,1-1s1,0.447,1,1v10.999C23.084,23.031,22.637,23.479,22.084,23.479"/>
	<path clip-path="url(#SVGID_2_)" fill="#FFFFFF" d="M18.74,22.479H7.074c-0.277,0-0.5-0.224-0.5-0.5v-7.333
		c0-0.276,0.223-0.5,0.5-0.5H18.74c0.275,0,0.5,0.224,0.5,0.5v7.333C19.24,22.255,19.016,22.479,18.74,22.479 M7.574,21.479H18.24
		v-6.333H7.574V21.479z"/>
	<path clip-path="url(#SVGID_2_)" fill="#FFFFFF" d="M22.588,4.146H3.338c-0.277,0-0.5-0.224-0.5-0.5s0.223-0.5,0.5-0.5h19.25
		c0.275,0,0.5,0.224,0.5,0.5S22.863,4.146,22.588,4.146"/>
</g>
</svg>
