<?xml version="1.0" encoding="utf-8"?>
<!-- Generator: Adobe Illustrator 15.1.0, SVG Export Plug-In . SVG Version: 6.00 Build 0)  -->
<!DOCTYPE svg PUBLIC "-//W3C//DTD SVG 1.1//EN" "http://www.w3.org/Graphics/SVG/1.1/DTD/svg11.dtd">
<svg version="1.1" id="Calque_1" xmlns:sketch="http://www.bohemiancoding.com/sketch/ns"
	 xmlns="http://www.w3.org/2000/svg" xmlns:xlink="http://www.w3.org/1999/xlink" x="0px" y="0px" width="32.308px"
	 height="13.846px" viewBox="13.846 23.077 32.308 13.846" enable-background="new 13.846 23.077 32.308 13.846"
	 xml:space="preserve">
<title></title>
<desc></desc>
<g id="black">
	<g id="slice" transform="translate(-100.000000, -100.000000)">
	</g>
	<g id="flickr" transform="translate(13.000000, 23.000000)">
		<path fill="#FFFFFF" d="M7.769,13.923c3.824,0,6.923-3.099,6.923-6.923c0-3.824-3.1-6.923-6.923-6.923
			C3.946,0.077,0.846,3.176,0.846,7C0.846,10.824,3.946,13.923,7.769,13.923z M26.23,13.923c3.824,0,6.924-3.099,6.924-6.923
			c0-3.824-3.1-6.923-6.924-6.923c-3.823,0-6.923,3.099-6.923,6.923C19.308,10.824,22.407,13.923,26.23,13.923z"/>
	</g>
</g>
</svg>
