<?xml version="1.0" encoding="utf-8"?>
<!-- Generator: Adobe Illustrator 15.1.0, SVG Export Plug-In . SVG Version: 6.00 Build 0)  -->
<!DOCTYPE svg PUBLIC "-//W3C//DTD SVG 1.1//EN" "http://www.w3.org/Graphics/SVG/1.1/DTD/svg11.dtd">
<svg version="1.1" id="Calque_1" xmlns="http://www.w3.org/2000/svg" xmlns:xlink="http://www.w3.org/1999/xlink" x="0px" y="0px"
	 width="23.547px" height="23.552px" viewBox="0 0 23.547 23.552" enable-background="new 0 0 23.547 23.552" xml:space="preserve">
<g>
	<defs>
		<rect id="SVGID_1_" y="0" width="23.547" height="23.552"/>
	</defs>
	<clipPath id="SVGID_2_">
		<use xlink:href="#SVGID_1_"  overflow="visible"/>
	</clipPath>
	<path clip-path="url(#SVGID_2_)" fill="#FFFFFF" d="M11.752,8.265c-0.283,0-0.525-0.086-0.726-0.26
		c-0.201-0.173-0.301-0.419-0.301-0.737c0-0.287,0.103-0.524,0.308-0.71c0.207-0.186,0.445-0.279,0.719-0.279
		c0.264,0,0.496,0.084,0.699,0.252c0.203,0.169,0.305,0.415,0.305,0.737c0,0.313-0.1,0.557-0.297,0.733
		C12.26,8.177,12.026,8.265,11.752,8.265 M12.756,10.364v5.872c0,0.406-0.096,0.715-0.289,0.923
		c-0.193,0.209-0.439,0.313-0.738,0.313c-0.297,0-0.539-0.107-0.725-0.32c-0.185-0.213-0.279-0.518-0.279-0.915v-5.812
		c0-0.402,0.094-0.705,0.279-0.908c0.186-0.204,0.428-0.305,0.725-0.305c0.299,0,0.545,0.101,0.738,0.305
		C12.66,9.719,12.756,10.002,12.756,10.364"/>
	<path clip-path="url(#SVGID_2_)" fill="#FFFFFF" d="M11.773,23.552c-3.144,0-6.101-1.225-8.324-3.448
		C1.224,17.881,0,14.923,0,11.776C0,8.63,1.226,5.672,3.451,3.448C5.673,1.225,8.631,0,11.777,0c3.145,0,6.102,1.225,8.326,3.448
		c4.59,4.591,4.592,12.062,0.002,16.655C17.879,22.327,14.922,23.552,11.773,23.552 M11.777,2C9.167,2,6.711,3.017,4.865,4.862
		C3.017,6.709,2,9.165,2,11.776c0,2.613,1.015,5.068,2.863,6.914c1.846,1.846,4.299,2.862,6.91,2.862
		c2.613,0,5.07-1.018,6.918-2.864c3.811-3.812,3.809-10.014-0.002-13.826C16.844,3.017,14.389,2,11.777,2"/>
</g>
</svg>
