<?xml version="1.0" encoding="utf-8"?>
<!-- Generator: Adobe Illustrator 15.1.0, SVG Export Plug-In . SVG Version: 6.00 Build 0)  -->
<!DOCTYPE svg PUBLIC "-//W3C//DTD SVG 1.1//EN" "http://www.w3.org/Graphics/SVG/1.1/DTD/svg11.dtd">
<svg version="1.1" id="Layer_1" xmlns="http://www.w3.org/2000/svg" xmlns:xlink="http://www.w3.org/1999/xlink" x="0px" y="0px"
	 width="32px" height="32px" viewBox="0 0 32 32" enable-background="new 0 0 32 32" xml:space="preserve">
<g>
	<path fill="#FFFFFF" d="M31.563,16.063c0,2.237,0.006,4.475,0,6.719c-0.013,3.25-1.525,5.656-4.225,7.356
		c-1.582,0.987-3.338,1.425-5.2,1.425c-4.075,0-8.144,0.019-12.219-0.006c-2.832-0.02-5.269-1.02-7.2-3.119
		c-1.194-1.3-1.906-2.831-2.112-4.6c-0.044-0.375-0.05-0.744-0.05-1.119c0-4.456-0.006-8.913,0-13.369
		c0.019-3.256,1.531-5.663,4.231-7.363c1.594-0.994,3.356-1.425,5.231-1.425c4.063,0,8.125-0.019,12.188,0.006
		c2.844,0.019,5.288,1.025,7.219,3.137C30.606,5,31.313,6.531,31.513,8.281c0.081,0.688,0.044,1.375,0.05,2.056
		C31.568,12.25,31.563,14.156,31.563,16.063z M2.875,16.063c0,2.294-0.006,4.581,0,6.875c0.006,1.575,0.581,2.932,1.656,4.057
		c1.444,1.506,3.244,2.237,5.313,2.25c4.106,0.024,8.206,0.006,12.313,0.006c1.325,0,2.588-0.287,3.737-0.95
		c2.15-1.231,3.362-3.044,3.362-5.581c0-4.513,0-9.019,0-13.531c0-1.563-0.568-2.913-1.637-4.031
		c-1.432-1.513-3.238-2.256-5.301-2.269c-4.149-0.031-8.293-0.013-12.443-0.013c-1.294,0-2.519,0.306-3.644,0.944
		c-2.144,1.237-3.363,3.05-3.356,5.587C2.875,11.625,2.875,13.844,2.875,16.063z"/>
	<path fill="#FFFFFF" d="M16.081,22.688c-4.037,0-7.275-3.225-7.269-7.25c0.006-3.919,3.288-7.131,7.294-7.125
		c4.024,0,7.274,3.231,7.269,7.219C23.369,19.481,20.1,22.688,16.081,22.688z M16.081,20.375c2.744,0,4.981-2.182,4.981-4.862
		c0-2.694-2.219-4.888-4.956-4.888c-2.744,0-4.981,2.181-4.981,4.862C11.125,18.182,13.344,20.375,16.081,20.375z"/>
	<path fill="#FFFFFF" d="M22.688,7.725c0-0.888,0.682-1.6,1.531-1.6s1.531,0.719,1.531,1.6c0,0.869-0.682,1.581-1.519,1.587
		C23.381,9.319,22.688,8.612,22.688,7.725z"/>
</g>
</svg>
