<svg id="Layer_3" data-name="Layer 3" xmlns="http://www.w3.org/2000/svg" viewBox="0 0 25.21 24"><defs><style>.cls-1{fill:#27211f;}</style></defs><title>icon-plan-salon-black</title><path class="cls-1" d="M12.65,15a1,1,0,0,1-.49-.13L.51,8.35a1,1,0,0,1,0-1.74L12.07.13a1,1,0,0,1,1,0L24.7,6.65a1,1,0,0,1,0,1.74L13.13,14.87a1,1,0,0,1-.49.13ZM3,7.48l9.6,5.38,9.52-5.33-9.6-5.38L3,7.48Z" transform="translate(0 0)"/><path class="cls-1" d="M12.65,19.5a1,1,0,0,1-.49-.13L.51,12.85a1,1,0,0,1,1-1.74l11.16,6.25,11.07-6.2a1,1,0,0,1,1,1.74L13.13,19.37a1,1,0,0,1-.49.13Z" transform="translate(0 0)"/><path class="cls-1" d="M12.65,24a1,1,0,0,1-.49-.13L.51,17.35a1,1,0,0,1,1-1.74l11.16,6.25,11.07-6.2a1,1,0,0,1,1,1.74L13.13,23.87a1,1,0,0,1-.49.13Z" transform="translate(0 0)"/></svg>