<?xml version="1.0" encoding="utf-8"?>
<!-- Generator: Adobe Illustrator 15.1.0, SVG Export Plug-In . SVG Version: 6.00 Build 0)  -->
<!DOCTYPE svg PUBLIC "-//W3C//DTD SVG 1.1//EN" "http://www.w3.org/Graphics/SVG/1.1/DTD/svg11.dtd">
<svg version="1.1" id="Calque_1" xmlns="http://www.w3.org/2000/svg" xmlns:xlink="http://www.w3.org/1999/xlink" x="0px" y="0px"
	 width="17.889px" height="17.887px" viewBox="7.008 6.72 17.889 17.887" enable-background="new 7.008 6.72 17.889 17.887"
	 xml:space="preserve">
<g id="Layer_3">
</g>
<g id="Layer_1">
	<path id="gplus" fill="#FFFFFF" d="M22.336,10.112v2.56h-0.863v-2.56h-2.561V9.28h2.561V6.72h0.863v2.56h2.561v0.832H22.336z
		 M15.84,7.904c0.992,0.576,1.504,1.728,1.504,2.976c0,1.184-0.64,2.112-1.568,2.816c-0.896,0.704-1.056,0.992-1.056,1.6
		c0,0.512,1.056,1.248,1.568,1.632c1.728,1.28,2.048,2.08,2.048,3.68c0.032,2.145-2.176,4-5.664,4c-3.072,0-5.664-1.407-5.664-3.392
		c0-3.008,2.144-4,5.216-4c0.352,0,0.64,0,0.96,0c-0.416-0.416-0.768-0.768-0.768-1.376c0-0.384,0.128-0.704,0.288-1.024
		c-0.16,0-0.352,0.032-0.512,0.032c-2.528,0-4-1.76-4-4c0-2.176,2.24-4.128,4.928-4.128c1.376,0,5.312,0,5.312,0l-1.184,1.216H15.84
		V7.904z M12.704,18.624c-1.952,0-3.584,0.735-3.584,2.112c0,1.408,1.44,2.56,3.456,2.56c2.816,0,3.808-1.088,3.808-2.496
		c0-0.159,0-0.352-0.064-0.512C15.648,18.624,13.44,18.624,12.704,18.624z M15.104,11.104C14.88,9.344,13.984,8,12.64,7.968
		c-1.344-0.032-2.56,1.184-2.304,2.976c0.224,1.76,1.536,2.944,2.88,3.008C14.56,13.984,15.328,12.896,15.104,11.104z"/>
</g>
</svg>
