<?xml version="1.0" encoding="utf-8"?>
<!-- Generator: Adobe Illustrator 15.1.0, SVG Export Plug-In . SVG Version: 6.00 Build 0)  -->
<!DOCTYPE svg PUBLIC "-//W3C//DTD SVG 1.1//EN" "http://www.w3.org/Graphics/SVG/1.1/DTD/svg11.dtd">
<svg version="1.1" id="Mode_Isolation" xmlns="http://www.w3.org/2000/svg" xmlns:xlink="http://www.w3.org/1999/xlink" x="0px"
	 y="0px" width="18.5px" height="18.5px" viewBox="0 0 18.5 18.5" enable-background="new 0 0 18.5 18.5" xml:space="preserve">
<g>
	<path fill="#FFFFFF" d="M9.25,18.5C4.148,18.5,0,14.351,0,9.25S4.148,0,9.25,0c5.1,0,9.25,4.149,9.25,9.25S14.35,18.5,9.25,18.5
		L9.25,18.5z M9.25,2C5.252,2,2,5.252,2,9.25s3.252,7.25,7.25,7.25s7.25-3.252,7.25-7.25S13.248,2,9.25,2L9.25,2z"/>
</g>
<g>
	<path fill="#FFFFFF" d="M9.25,15.332c-3.355,0-6.084-2.729-6.084-6.082c0-3.354,2.729-6.084,6.084-6.084
		c3.354,0,6.082,2.729,6.082,6.084C15.332,12.604,12.604,15.332,9.25,15.332L9.25,15.332z M9.25,4.166
		c-2.803,0-5.084,2.28-5.084,5.084c0,2.802,2.281,5.082,5.084,5.082c2.802,0,5.082-2.28,5.082-5.082
		C14.332,6.446,12.052,4.166,9.25,4.166L9.25,4.166z"/>
</g>
<g>
	<path fill="#FFFFFF" d="M8.259,10.223c0.112,1.15,0.481,1.727,1.106,1.727c0.234,0,0.449-0.057,0.643-0.168
		c0.193-0.113,0.381-0.375,0.561-0.789c0.115-0.27,0.215-0.438,0.299-0.502c0.082-0.066,0.172-0.1,0.269-0.1
		c0.192,0,0.343,0.055,0.45,0.166s0.16,0.266,0.16,0.465c0,0.471-0.23,0.906-0.691,1.305c-0.463,0.4-1.021,0.6-1.68,0.6
		c-0.616,0-1.152-0.225-1.611-0.672s-0.732-1.125-0.822-2.031H6.33c-0.057,0-0.086-0.041-0.086-0.125
		c0-0.08,0.031-0.182,0.092-0.303C6.396,9.672,6.447,9.611,6.49,9.611h0.412V9.438c0-0.141,0.008-0.344,0.02-0.609H6.33
		c-0.057,0-0.086-0.041-0.086-0.121c0-0.084,0.031-0.186,0.092-0.309C6.396,8.277,6.447,8.217,6.49,8.217H6.97
		c0.209-1.672,0.997-2.506,2.366-2.506c0.604,0,1.123,0.154,1.559,0.467c0.438,0.311,0.654,0.697,0.654,1.158
		c0,0.158-0.051,0.291-0.152,0.4c-0.104,0.107-0.229,0.162-0.377,0.162c-0.162,0-0.281-0.041-0.357-0.125
		c-0.076-0.082-0.151-0.211-0.225-0.385c-0.093-0.227-0.203-0.4-0.33-0.521c-0.129-0.121-0.349-0.18-0.654-0.18
		c-0.354,0-0.625,0.123-0.817,0.369c-0.19,0.248-0.312,0.635-0.366,1.16h1.549c0.064,0,0.096,0.041,0.096,0.125
		c0,0.09-0.029,0.193-0.09,0.311C9.766,8.77,9.713,8.828,9.668,8.828H8.23L8.22,9.299c0,0.145,0.005,0.248,0.011,0.313h1.588
		c0.064,0,0.096,0.041,0.096,0.121c0,0.092-0.029,0.197-0.09,0.314c-0.059,0.117-0.111,0.176-0.156,0.176H8.259z"/>
</g>
</svg>
