<?xml version="1.0" encoding="utf-8"?>
<!-- Generator: Adobe Illustrator 15.1.0, SVG Export Plug-In . SVG Version: 6.00 Build 0)  -->
<!DOCTYPE svg PUBLIC "-//W3C//DTD SVG 1.1//EN" "http://www.w3.org/Graphics/SVG/1.1/DTD/svg11.dtd">
<svg version="1.1" id="Layer_3" xmlns="http://www.w3.org/2000/svg" xmlns:xlink="http://www.w3.org/1999/xlink" x="0px" y="0px"
	 width="23.834px" height="23.834px" viewBox="0 0 23.834 23.834" enable-background="new 0 0 23.834 23.834" xml:space="preserve">
<g>
	<g>
		<path fill="#FFFFFF" d="M22.834,23.834H1c-0.553,0-1-0.448-1-1V1c0-0.552,0.447-1,1-1h21.834c0.553,0,1,0.448,1,1v21.834
			C23.834,23.386,23.387,23.834,22.834,23.834L22.834,23.834z M2,21.834h19.834V2H2V21.834L2,21.834z"/>
	</g>
	<g>
		<path fill="#FFFFFF" d="M18.885,9.753h-3.871c-0.553,0-1-0.448-1-1s0.447-1,1-1h3.871c0.553,0,1,0.448,1,1
			S19.438,9.753,18.885,9.753L18.885,9.753z"/>
	</g>
	<g>
		<path fill="#FFFFFF" d="M8.385,9.753H5.168c-0.553,0-1-0.448-1-1s0.447-1,1-1h3.217c0.553,0,1,0.448,1,1S8.938,9.753,8.385,9.753
			L8.385,9.753z"/>
	</g>
	<g>
		<path fill="#FFFFFF" d="M8.385,17.086H5.168c-0.553,0-1-0.448-1-1s0.447-1,1-1h3.217c0.553,0,1,0.448,1,1
			S8.938,17.086,8.385,17.086L8.385,17.086z"/>
	</g>
	<g>
		<path fill="#FFFFFF" d="M12,11.419H8.668c-0.553,0-1-0.448-1-1V7.086c0-0.552,0.447-1,1-1H12c0.553,0,1,0.448,1,1v3.333
			C13,10.971,12.553,11.419,12,11.419L12,11.419z M9.668,9.419H11V8.086H9.668V9.419L9.668,9.419z"/>
	</g>
	<g>
		<path fill="#FFFFFF" d="M18.885,17.086h-3.871c-0.553,0-1-0.448-1-1s0.447-1,1-1h3.871c0.553,0,1,0.448,1,1
			S19.438,17.086,18.885,17.086L18.885,17.086z"/>
	</g>
	<g>
		<path fill="#FFFFFF" d="M12,18.752H8.668c-0.553,0-1-0.448-1-1v-3.333c0-0.552,0.447-1,1-1H12c0.553,0,1,0.448,1,1v3.333
			C13,18.305,12.553,18.752,12,18.752L12,18.752z M9.668,16.752H11v-1.333H9.668V16.752L9.668,16.752z"/>
	</g>
	<g>
		<path fill="#FFFFFF" d="M4.668,17.086c-0.553,0-1-0.448-1-1V4.533c0-0.552,0.447-1,1-1s1,0.448,1,1v11.554
			C5.668,16.639,5.221,17.086,4.668,17.086L4.668,17.086z"/>
	</g>
</g>
</svg>
