<?xml version="1.0" encoding="utf-8"?>
<!-- Generator: Adobe Illustrator 15.1.0, SVG Export Plug-In . SVG Version: 6.00 Build 0)  -->
<!DOCTYPE svg PUBLIC "-//W3C//DTD SVG 1.1//EN" "http://www.w3.org/Graphics/SVG/1.1/DTD/svg11.dtd">
<svg version="1.1" id="Calque_1" xmlns:sketch="http://www.bohemiancoding.com/sketch/ns"
	 xmlns="http://www.w3.org/2000/svg" xmlns:xlink="http://www.w3.org/1999/xlink" x="0px" y="0px" width="27.692px"
	 height="34.615px" viewBox="16.154 12.692 27.692 34.615" enable-background="new 16.154 12.692 27.692 34.615"
	 xml:space="preserve">
<title></title>
<desc></desc>
<g id="black">
	<g id="slice" transform="translate(-500.000000, 0.000000)">
	</g>
	<g id="pinterest" transform="translate(16.000000, 12.000000)">
		<path id="Pinterest" fill="#FFFFFF" d="M16.76,27.084c6.605,0,11.086-6.146,11.086-14.375c0-6.221-5.162-12.016-13.007-12.016
			c-9.763,0-14.685,7.145-14.685,13.104c0,3.607,1.337,6.817,4.208,8.014c0.47,0.196,0.892,0.007,1.028-0.524
			c0.094-0.369,0.32-1.298,0.418-1.684c0.138-0.527,0.085-0.711-0.295-1.17c-0.827-0.998-1.354-2.286-1.354-4.114
			c0-5.301,3.883-10.046,10.116-10.046c5.516,0,8.549,3.441,8.549,8.039c0,6.048-2.621,11.152-6.515,11.152
			c-2.15,0-3.758-1.814-3.244-4.04c0.617-2.657,1.815-5.526,1.815-7.444c0-1.716-0.903-3.149-2.772-3.149
			c-2.198,0-3.963,2.322-3.963,5.43c0,1.98,0.657,3.319,0.657,3.319s-2.249,9.726-2.644,11.429
			c-0.358,1.551-0.412,3.256-0.361,4.695c0.15,1.293,1.402,2.346,2.488,0.928c0.763-1.246,1.584-2.818,2.009-4.396
			c0.253-0.933,1.446-5.766,1.446-5.766C12.455,25.86,14.541,27.084,16.76,27.084z"/>
	</g>
</g>
</svg>
