<svg id="Calque_1" data-name="Calque 1" xmlns="http://www.w3.org/2000/svg" viewBox="0 0 20 30.43"><defs><style>.cls-1{fill:#fff;}</style></defs><title>icon-billet</title><path class="cls-1" d="M45.22,35.65v28.7a.87.87,0,0,0,.87.87h4.78a.89.89,0,0,0,.87-.78,3,3,0,0,1,3.09-2.78,3.08,3.08,0,0,1,3.09,2.78.89.89,0,0,0,.87.78h5.57a.87.87,0,0,0,.87-.87V35.65a.87.87,0,0,0-.87-.87H59.13a.89.89,0,0,0-.87.7,3.12,3.12,0,0,1-3,2.52,3.08,3.08,0,0,1-3-2.52.89.89,0,0,0-.87-.7H46.09A.87.87,0,0,0,45.22,35.65ZM59.57,63.48a4.85,4.85,0,0,0-4.7-3.61,4.8,4.8,0,0,0-4.7,3.61H47V46.09H63.48V63.48Zm-8.91-27a4.85,4.85,0,0,0,9.13,0h3.7v7.83H47V36.52Z" transform="translate(-45.22 -34.78)"/><path class="cls-1" d="M52.61,52.17h5.22a.87.87,0,0,0,0-1.74H52.61a.87.87,0,1,0,0,1.74Z" transform="translate(-45.22 -34.78)"/><path class="cls-1" d="M60,54.78H50a.87.87,0,1,0,0,1.74H60a.87.87,0,1,0,0-1.74Z" transform="translate(-45.22 -34.78)"/></svg>