<?xml version="1.0" encoding="utf-8"?>
<!-- Generator: Adobe Illustrator 15.1.0, SVG Export Plug-In . SVG Version: 6.00 Build 0)  -->
<!DOCTYPE svg PUBLIC "-//W3C//DTD SVG 1.1//EN" "http://www.w3.org/Graphics/SVG/1.1/DTD/svg11.dtd">
<svg version="1.1" id="Calque_1" xmlns="http://www.w3.org/2000/svg" xmlns:xlink="http://www.w3.org/1999/xlink" x="0px" y="0px"
	 width="17.952px" height="14.721px" viewBox="6.624 8.256 17.952 14.721" enable-background="new 6.624 8.256 17.952 14.721"
	 xml:space="preserve">
<g id="Layer_3">
</g>
<g id="Layer_1">
	<path id="twitter" fill="#FFFFFF" d="M24.576,10.016c-0.672,0.288-1.376,0.48-2.112,0.576c0.769-0.448,1.345-1.184,1.632-2.048
		C23.393,8.96,22.592,9.28,21.76,9.44c-0.672-0.736-1.632-1.184-2.688-1.184c-2.016,0-3.68,1.664-3.68,3.712
		c0,0.288,0.032,0.576,0.096,0.864c-3.04-0.16-5.76-1.632-7.584-3.872c-0.32,0.544-0.512,1.184-0.512,1.856
		c0,1.28,0.64,2.432,1.632,3.104c-0.608-0.032-1.184-0.192-1.664-0.48v0.032c0,1.792,1.28,3.295,2.944,3.648
		c-0.32,0.096-0.64,0.128-0.96,0.128c-0.224,0-0.48-0.032-0.704-0.064c0.48,1.473,1.824,2.561,3.424,2.592
		c-1.248,0.992-2.848,1.601-4.576,1.601c-0.288,0-0.576-0.032-0.864-0.063c1.632,1.056,3.552,1.664,5.632,1.664
		c6.752,0,10.465-5.664,10.465-10.593c0-0.16,0-0.32,0-0.48C23.488,11.424,24.096,10.784,24.576,10.016z"/>
</g>
</svg>
