<svg id="Layer_3" data-name="Layer 3" xmlns="http://www.w3.org/2000/svg" viewBox="0 0 20.5 24.25"><defs><style>.cls-1{fill:#27211f;}</style></defs><title>icon-access-black</title><path class="cls-1" d="M10.25,24.25A1,1,0,0,1,9.6,24c-1-.84-9.6-8.34-9.6-13.76a10.25,10.25,0,0,1,20.5,0c0,5.42-8.62,12.92-9.6,13.76a1,1,0,0,1-.65.24ZM10.25,2A8.26,8.26,0,0,0,2,10.25c0,3.51,5.46,9.15,8.25,11.67C13,19.4,18.5,13.76,18.5,10.25A8.26,8.26,0,0,0,10.25,2Z"/><path class="cls-1" d="M10.25,16.46a6.21,6.21,0,1,1,6.21-6.21,6.22,6.22,0,0,1-6.21,6.21ZM10.25,5a5.21,5.21,0,1,0,5.21,5.21A5.22,5.22,0,0,0,10.25,5Z"/><path class="cls-1" d="M10.25,6.88a3.37,3.37,0,1,0,3.38,3.37,3.37,3.37,0,0,0-3.37-3.37Z"/></svg>