<?xml version="1.0" encoding="utf-8"?>
<!-- Generator: Adobe Illustrator 15.1.0, SVG Export Plug-In . SVG Version: 6.00 Build 0)  -->
<!DOCTYPE svg PUBLIC "-//W3C//DTD SVG 1.1//EN" "http://www.w3.org/Graphics/SVG/1.1/DTD/svg11.dtd">
<svg version="1.1" id="panier_2_" xmlns="http://www.w3.org/2000/svg" xmlns:xlink="http://www.w3.org/1999/xlink" x="0px" y="0px"
	 width="53px" height="52px" viewBox="0 0 53 52" enable-background="new 0 0 53 52" xml:space="preserve">
<g id="Forme_8_copie">
	<g>
		<circle fill-rule="evenodd" clip-rule="evenodd" fill="#E5E5E5" cx="26.203" cy="26.047" r="25.578"/>
	</g>
</g>
<g id="panier_xA0_Image_1_">
	<path stroke="#000000" stroke-width="1.4001" stroke-miterlimit="10" d="M30.27,24.65c0.805,0,1.457,0.652,1.457,1.458
		s-0.652,1.458-1.457,1.458c-0.807,0-1.46-0.652-1.46-1.458S29.463,24.65,30.27,24.65 M26.775,26.824l2.82,2.82
		c0.516,0.518,1.362,0.518,1.88,0l16.854-16.856c0.517-0.517,0.517-1.363,0-1.879l-2.82-2.82c-0.517-0.517-1.362-0.517-1.878,0
		L26.775,24.945C26.257,25.462,26.257,26.309,26.775,26.824"/>
	<path stroke="#000000" stroke-width="1.4001" stroke-miterlimit="10" d="M20.109,37.613c0-0.732,0.449-1.331,0.997-1.331
		c0.547,0,0.996,0.599,0.996,1.331v8.005c0,0.731-0.449,1.328-0.996,1.328c-0.548,0-0.997-0.597-0.997-1.328V37.613z M27.208,37.613
		c0-0.732,0.447-1.331,0.995-1.331c0.549,0,0.997,0.599,0.997,1.331v8.005c0,0.731-0.448,1.328-0.997,1.328
		c-0.548,0-0.995-0.597-0.995-1.328V37.613z M34.306,37.613c0-0.732,0.445-1.331,0.995-1.331c0.548,0,0.995,0.599,0.995,1.331v8.005
		c0,0.731-0.447,1.328-0.995,1.328c-0.55,0-0.995-0.597-0.995-1.328V37.613z M41.401,37.613c0-0.732,0.448-1.331,0.999-1.331
		c0.547,0,0.994,0.599,0.994,1.331v8.005c0,0.731-0.447,1.328-0.994,1.328c-0.551,0-0.999-0.597-0.999-1.328V37.613z M14.275,47.428
		c0.086,1.46,1.353,2.652,2.814,2.652h29.327c1.462,0,2.729-1.192,2.812-2.652l0.915-14.945h-36.78L14.275,47.428z"/>
	<path d="M51.688,23.152H39.847l-7.434,7.431c-0.243,0.248-0.533,0.438-0.845,0.568h20.119c0.731,0,1.329-0.599,1.329-1.329V24.48
		C53.017,23.749,52.419,23.152,51.688,23.152"/>
	<path d="M28.653,30.583l-2.818-2.82c-0.502-0.499-0.777-1.167-0.777-1.877c0-0.712,0.274-1.381,0.778-1.881l0.853-0.854H11.817
		c-0.731,0-1.329,0.599-1.329,1.33v5.342c0,0.732,0.598,1.328,1.329,1.328h17.684C29.189,31.021,28.9,30.83,28.653,30.583"/>
</g>
</svg>
