<?xml version="1.0" encoding="utf-8"?>
<!-- Generator: Adobe Illustrator 15.1.0, SVG Export Plug-In . SVG Version: 6.00 Build 0)  -->
<!DOCTYPE svg PUBLIC "-//W3C//DTD SVG 1.1//EN" "http://www.w3.org/Graphics/SVG/1.1/DTD/svg11.dtd">
<svg version="1.1" id="content_1_" xmlns="http://www.w3.org/2000/svg" xmlns:xlink="http://www.w3.org/1999/xlink" x="0px" y="0px"
	 width="59px" height="57px" viewBox="0 0 59 57" enable-background="new 0 0 59 57" xml:space="preserve">
<g id="Forme_8">
	<g>
		<circle fill-rule="evenodd" clip-rule="evenodd" fill="#E5E5E5" cx="26.203" cy="26.047" r="25.578"/>
	</g>
</g>
<g id="Objet_dynamique_vectoriel_xA0_Image_1_">
	<path fill="#FFFFFF" stroke="#000000" stroke-miterlimit="10" d="M44.152,37.861c-6.201,6.129-15.459,6.129-21.662,0
		c-0.496-0.488-0.569-1.264-0.197-1.678c0.373-0.41,1.003-0.368,1.435,0.057c5.494,5.435,13.697,5.435,19.19,0
		c0.433-0.425,1.063-0.467,1.436-0.057C44.726,36.598,44.646,37.373,44.152,37.861"/>
	<path fill="none" stroke="#000000" stroke-width="1.589" stroke-miterlimit="10" d="M44.152,37.861
		c-6.201,6.129-15.459,6.129-21.662,0c-0.496-0.488-0.569-1.264-0.197-1.678c0.373-0.41,1.003-0.368,1.435,0.057
		c5.494,5.435,13.697,5.435,19.19,0c0.433-0.425,1.063-0.467,1.436-0.057C44.726,36.598,44.646,37.373,44.152,37.861z"/>
	<path fill="none" stroke="#000000" stroke-width="1.589" d="M22.443,36.593l-0.055-0.112c0,0,10.246,11.26,21.619-0.113"/>
	<circle fill="none" stroke="#000000" stroke-width="1.589" cx="26.734" cy="27.347" r="2.823"/>
	<circle fill="none" stroke="#000000" stroke-width="1.589" cx="39.742" cy="27.347" r="2.823"/>
	<circle fill="none" stroke="#000000" stroke-width="3.178" cx="33.121" cy="32.273" r="19.23"/>
</g>
</svg>
