<?xml version="1.0" encoding="utf-8"?>
<!-- Generator: Adobe Illustrator 15.1.0, SVG Export Plug-In . SVG Version: 6.00 Build 0)  -->
<!DOCTYPE svg PUBLIC "-//W3C//DTD SVG 1.1//EN" "http://www.w3.org/Graphics/SVG/1.1/DTD/svg11.dtd">
<svg version="1.1" xmlns="http://www.w3.org/2000/svg" xmlns:xlink="http://www.w3.org/1999/xlink" x="0px" y="0px" width="69px"
	 height="55px" viewBox="0 0 69 55" enable-background="new 0 0 69 55" xml:space="preserve">
<g id="visiteurs_1_" display="none">
	<g id="Objet_dynamique_vectoriel_copie_3_xA0_Image_1_" display="inline" opacity="0.102">
		
			<image overflow="visible" width="18" height="45" id="Objet_dynamique_vectoriel_copie_3_xA0_Image" xlink:href="A97A2C17.png"  transform="matrix(1 0 0 1 51 5)">
		</image>
	</g>
	<g id="Objet_dynamique_vectoriel_copie_4_xA0_Image_1_" display="inline" opacity="0.102">
		
			<image overflow="visible" width="19" height="45" id="Objet_dynamique_vectoriel_copie_4_xA0_Image" xlink:href="A97A2C12.png"  transform="matrix(1 0 0 1 0 5)">
		</image>
	</g>
	<g id="Objet_dynamique_vectoriel_copie_2_xA0_Image_1_" display="inline" opacity="0.302">
		
			<image overflow="visible" width="18" height="45" id="Objet_dynamique_vectoriel_copie_2_xA0_Image" xlink:href="A97A2C11.png"  transform="matrix(1 0 0 1 38 5)">
		</image>
	</g>
	<g id="Objet_dynamique_vectoriel_copie_xA0_Image_1_" display="inline" opacity="0.302">
		
			<image overflow="visible" width="19" height="45" id="Objet_dynamique_vectoriel_copie_xA0_Image" xlink:href="A97A2C1D.png"  transform="matrix(1 0 0 1 14 5)">
		</image>
	</g>
</g>
<g id="Objet_dynamique_vectoriel_xA0_Image_1_">
	
		<image display="none" overflow="visible" width="23" height="55" id="Objet_dynamique_vectoriel_xA0_Image" xlink:href="A97A2C1E.png"  transform="matrix(1 0 0 1 24 0)">
	</image>
	<path fill="#E5E5E5" d="M68.961,28.842l-3.232-13.519c-0.227-0.946-1.105-1.563-2.046-1.496c-0.047-0.003-0.094-0.008-0.141-0.008
		h-3.506h-0.073h-3.506c-0.047,0-0.094,0.004-0.141,0.008c-0.94-0.068-1.82,0.55-2.046,1.496l-3.233,13.519
		c-0.251,1.051,0.398,2.109,1.452,2.359c1.052,0.254,2.108-0.396,2.359-1.449l0.935-3.91v5.805c0,0.063,0.007,0.123,0.012,0.184
		c-0.029,0.131-0.044,0.268-0.044,0.406v15.867c0,1.08,0.877,1.959,1.959,1.959c1.083,0,1.96-0.879,1.96-1.959V33.998h0.293h0.073
		h0.294v14.105c0,1.08,0.876,1.959,1.959,1.959c1.082,0,1.958-0.879,1.958-1.959V32.236c0-0.139-0.014-0.275-0.043-0.406
		c0.005-0.061,0.012-0.121,0.012-0.184v-5.805l0.935,3.91c0.251,1.053,1.309,1.703,2.359,1.449
		C68.563,30.951,69.214,29.893,68.961,28.842"/>
	<path fill="#E5E5E5" d="M59.999,13.165c2.273,0,4.114-1.841,4.114-4.113s-1.841-4.115-4.114-4.115
		c-2.271,0-4.113,1.842-4.113,4.115S57.728,13.165,59.999,13.165"/>
	<path fill="#E5E5E5" d="M18.461,28.842l-3.232-13.518c-0.227-0.946-1.105-1.563-2.046-1.496c-0.047-0.003-0.094-0.008-0.141-0.008
		H9.537H9.463H5.958c-0.047,0-0.094,0.004-0.141,0.008c-0.94-0.068-1.82,0.55-2.046,1.496L0.538,28.842
		c-0.251,1.051,0.398,2.109,1.452,2.359c1.052,0.254,2.108-0.396,2.359-1.449l0.935-3.91v5.804c0,0.063,0.007,0.123,0.012,0.184
		c-0.029,0.131-0.044,0.268-0.044,0.406v15.867c0,1.08,0.877,1.959,1.959,1.959c1.083,0,1.96-0.879,1.96-1.959V33.998h0.293h0.073
		h0.294v14.105c0,1.08,0.876,1.959,1.959,1.959c1.082,0,1.958-0.879,1.958-1.959V32.236c0-0.139-0.014-0.275-0.043-0.406
		c0.005-0.061,0.012-0.121,0.012-0.184v-5.804l0.935,3.91c0.251,1.053,1.309,1.703,2.359,1.449
		C18.064,30.951,18.714,29.893,18.461,28.842"/>
	<path fill="#E5E5E5" d="M9.5,13.165c2.273,0,4.114-1.841,4.114-4.113S11.773,4.937,9.5,4.937c-2.271,0-4.113,1.842-4.113,4.115
		S7.228,13.165,9.5,13.165"/>
	<path fill="#B2B2B2" d="M32.461,28.842l-3.232-13.519c-0.227-0.946-1.105-1.563-2.046-1.496c-0.047-0.003-0.094-0.008-0.141-0.008
		h-3.506h-0.073h-3.506c-0.047,0-0.094,0.004-0.141,0.008c-0.94-0.068-1.82,0.55-2.046,1.496l-3.233,13.519
		c-0.251,1.051,0.398,2.109,1.452,2.359c1.052,0.254,2.108-0.396,2.359-1.449l0.935-3.91v5.805c0,0.063,0.007,0.123,0.012,0.184
		c-0.029,0.131-0.044,0.268-0.044,0.406v15.867c0,1.08,0.877,1.959,1.959,1.959c1.083,0,1.96-0.879,1.96-1.959V33.998h0.293h0.073
		h0.294v14.105c0,1.08,0.876,1.959,1.959,1.959c1.082,0,1.958-0.879,1.958-1.959V32.236c0-0.139-0.014-0.275-0.043-0.406
		c0.005-0.061,0.012-0.121,0.012-0.184v-5.805l0.935,3.91c0.251,1.053,1.309,1.703,2.359,1.449
		C32.064,30.951,32.714,29.893,32.461,28.842"/>
	<path fill="#B2B2B2" d="M23.5,13.165c2.273,0,4.114-1.841,4.114-4.113S25.773,4.937,23.5,4.937c-2.271,0-4.113,1.842-4.113,4.115
		S21.228,13.165,23.5,13.165"/>
	<path fill="#B2B2B2" d="M55.929,28.836l-3.222-13.468c-0.226-0.942-1.101-1.558-2.038-1.49c-0.046-0.003-0.093-0.008-0.141-0.008
		h-3.492h-0.073h-3.492c-0.048,0-0.094,0.004-0.141,0.008c-0.938-0.068-1.813,0.548-2.039,1.49L38.07,28.836
		c-0.25,1.05,0.396,2.103,1.445,2.352c1.048,0.253,2.101-0.395,2.352-1.443l0.932-3.897v5.786c0,0.06,0.006,0.12,0.012,0.18
		c-0.029,0.133-0.043,0.268-0.043,0.404v15.811c0,1.077,0.873,1.953,1.951,1.953s1.952-0.876,1.952-1.953V33.975h0.292h0.073h0.293
		v14.053c0,1.077,0.873,1.953,1.951,1.953s1.951-0.876,1.951-1.953V32.217c0-0.137-0.014-0.271-0.043-0.404
		c0.005-0.06,0.011-0.12,0.011-0.18v-5.786l0.932,3.897c0.251,1.049,1.305,1.696,2.353,1.443
		C55.531,30.938,56.18,29.886,55.929,28.836"/>
	<path fill="#B2B2B2" d="M47,13.217c2.264,0,4.099-1.834,4.099-4.098S49.264,5.02,47,5.02c-2.265,0-4.1,1.835-4.1,4.1
		S44.735,13.217,47,13.217"/>
	<path d="M45.146,29.047l-3.728-15.584c-0.261-1.091-1.274-1.804-2.359-1.725c-0.053-0.004-0.106-0.009-0.162-0.009h-4.042h-0.084
		h-4.042c-0.055,0-0.108,0.005-0.162,0.009c-1.085-0.079-2.098,0.633-2.358,1.725l-3.728,15.584
		c-0.29,1.212,0.458,2.433,1.673,2.722c1.212,0.289,2.431-0.458,2.721-1.671l1.077-4.509v6.692c0,0.072,0.007,0.142,0.013,0.211
		c-0.033,0.152-0.05,0.306-0.05,0.467v18.296c0,1.245,1.011,2.257,2.258,2.257s2.259-1.012,2.259-2.257V34.991h0.338h0.084h0.339
		v16.264c0,1.245,1.011,2.257,2.259,2.257c1.247,0,2.258-1.012,2.258-2.257V32.959c0-0.161-0.018-0.314-0.05-0.467
		c0.005-0.069,0.013-0.139,0.013-0.211v-6.692l1.077,4.509c0.29,1.213,1.51,1.96,2.722,1.671
		C44.686,31.479,45.436,30.259,45.146,29.047"/>
	<path d="M34.813,10.974c2.621,0,4.744-2.123,4.744-4.742s-2.123-4.744-4.744-4.744c-2.619,0-4.743,2.124-4.743,4.744
		S32.194,10.974,34.813,10.974"/>
</g>
</svg>
