<?xml version="1.0" standalone="no"?>
<!DOCTYPE svg PUBLIC "-//W3C//DTD SVG 20010904//EN"
 "http://www.w3.org/TR/2001/REC-SVG-20010904/DTD/svg10.dtd">
<svg version="1.0" xmlns="http://www.w3.org/2000/svg"
 width="700.000000pt" height="700.000000pt" viewBox="0 0 700.000000 700.000000"
 preserveAspectRatio="xMidYMid meet">
<metadata>
Created by potrace 1.11, written by Peter Selinger 2001-2013
</metadata>
<g transform="translate(0.000000,700.000000) scale(0.100000,-0.100000)"
fill="#000000" stroke="none">
<path d="M3290 6994 c-19 -2 -87 -9 -150 -15 -647 -61 -1294 -326 -1825 -746
-141 -111 -437 -407 -548 -548 -413 -521 -662 -1120 -744 -1785 -24 -200 -24
-600 0 -800 82 -665 331 -1264 744 -1785 111 -141 407 -437 548 -548 521 -413
1120 -662 1785 -744 200 -24 600 -24 800 0 665 82 1264 331 1785 744 141 111
437 407 548 548 413 521 662 1120 744 1785 24 200 24 600 0 800 -82 665 -331
1264 -744 1785 -111 141 -407 437 -548 548 -518 410 -1123 663 -1775 742 -126
15 -542 28 -620 19z m200 -449 c-33 -326 -100 -566 -239 -850 -113 -230 -233
-404 -411 -595 -48 -51 -36 -29 25 45 311 380 544 931 612 1441 21 163 31 133
13 -41z m126 -616 c87 -244 218 -501 399 -784 49 -77 19 -52 -55 45 -233 307
-374 623 -426 955 -19 127 -17 126 17 -4 16 -63 45 -158 65 -212z m-74 -184
c61 -83 61 -84 48 -100 -10 -12 -17 -11 -48 11 -50 33 -54 12 -13 -61 17 -30
31 -61 31 -69 0 -22 29 -46 55 -46 12 0 33 -8 45 -18 22 -18 22 -19 6 -54 -19
-39 -72 -95 -82 -85 -3 3 8 23 25 44 39 47 41 68 6 59 -14 -3 -37 -9 -52 -13
-15 -3 -47 -19 -71 -34 -24 -15 -66 -33 -94 -40 -37 -10 -53 -20 -59 -37 -5
-12 -20 -39 -34 -60 -14 -20 -25 -44 -25 -53 0 -8 18 -41 40 -73 45 -64 46
-66 25 -66 -9 0 -19 11 -24 23 -5 13 -27 45 -49 70 -38 44 -40 48 -30 81 9 27
7 43 -6 75 -9 23 -16 53 -16 66 0 28 -21 33 -39 11 -9 -10 -10 -33 -4 -78 5
-34 7 -73 5 -85 -3 -23 -62 -73 -62 -53 0 6 -11 5 -30 -5 -28 -14 -30 -14 -27
2 2 10 8 28 15 40 7 12 19 55 27 95 20 95 36 118 79 118 41 0 175 69 194 100
7 11 17 54 22 95 10 77 27 121 54 144 9 8 16 22 16 33 0 10 5 16 10 13 6 -3
10 -1 10 6 0 15 -1 16 52 -56z m70 -524 c52 -25 142 -101 160 -135 6 -12 -8
-3 -36 22 -100 92 -251 127 -363 84 -38 -15 -53 -16 -56 -7 -5 12 37 41 81 56
50 16 163 5 214 -20z m-363 -94 c-2 -1 -31 -20 -64 -40 l-60 -38 54 51 c36 33
58 47 65 40 5 -5 8 -11 5 -13z m-1969 -252 c36 -8 93 -27 128 -41 l62 -26 -36
-67 c-20 -36 -39 -69 -43 -74 -4 -4 -25 0 -47 9 -97 41 -262 57 -347 33 -54
-15 -109 -65 -105 -98 5 -42 53 -61 175 -72 233 -20 296 -37 368 -100 76 -67
101 -189 56 -276 -28 -55 -101 -118 -170 -144 -77 -30 -269 -38 -361 -15 -65
16 -223 90 -270 125 l-24 19 44 66 c25 36 50 66 55 66 6 0 24 -9 40 -21 107
-73 219 -111 325 -112 121 -1 204 47 204 118 0 71 -43 90 -244 110 -191 18
-251 36 -312 95 -87 85 -88 193 -1 290 85 94 174 128 338 129 55 0 129 -6 165
-14z m2661 -15 c197 -59 319 -223 319 -430 0 -264 -196 -450 -475 -450 -245 0
-432 152 -468 380 -34 224 95 432 311 500 82 26 225 26 313 0z m-1620 -415
c122 -231 223 -426 226 -432 4 -10 -19 -13 -94 -13 l-100 0 -55 103 -54 102
-211 3 -211 2 -54 -102 -53 -103 -104 -3 -103 -3 39 73 c22 40 125 236 228
436 l189 363 68 -3 69 -3 220 -420z m487 68 l2 -353 245 0 245 0 0 -80 0 -80
-340 0 -340 0 0 435 0 436 93 -3 92 -3 3 -352z m1912 91 l245 -267 3 267 2
266 90 0 90 0 0 -435 0 -435 -55 0 -54 0 -243 261 -243 262 -3 -262 -2 -261
-95 0 -95 0 0 428 c0 236 3 432 7 435 3 4 29 7 57 7 l51 0 245 -266z m1048
-158 c122 -52 174 -204 112 -326 -46 -90 -125 -120 -317 -120 l-133 0 0 236 0
236 148 -4 c111 -3 157 -9 190 -22z m300 -156 c2 -164 3 -176 23 -192 22 -18
108 -25 156 -12 34 9 43 59 43 232 l0 152 50 0 50 0 0 -157 c-1 -188 -9 -235
-44 -272 -35 -36 -86 -51 -177 -51 -90 0 -150 24 -179 72 -18 30 -20 50 -20
221 l0 188 48 -3 47 -3 3 -175z m-4753 -565 c92 -24 173 -73 253 -152 39 -40
72 -78 72 -85 0 -10 -128 -103 -160 -116 -3 -1 -27 24 -52 57 -36 46 -61 66
-113 92 -59 29 -76 33 -145 32 -148 -1 -266 -83 -309 -216 -20 -59 -16 -164 8
-227 76 -202 349 -263 518 -116 23 20 57 59 74 87 21 31 38 48 46 44 11 -4 86
-54 152 -101 11 -8 -56 -98 -111 -150 -114 -105 -216 -145 -378 -146 -312 -1
-533 212 -532 511 1 233 141 416 367 482 77 23 230 24 310 4z m625 -180 l0
-175 235 0 235 0 0 175 0 175 105 0 105 0 0 -485 0 -485 -105 0 -105 0 0 220
0 220 -235 0 -235 0 0 -220 0 -220 -105 0 -105 0 0 485 0 485 105 0 105 0 0
-175z m1630 85 l0 -90 -305 0 -305 0 0 -90 0 -90 190 0 190 0 0 -95 0 -95
-190 0 -190 0 0 -120 0 -120 325 0 325 0 0 -90 0 -90 -430 0 -430 0 0 485 0
485 410 0 410 0 0 -90z m440 -235 c91 -178 167 -325 170 -325 3 0 79 146 170
325 l165 325 113 0 c61 0 112 -3 112 -6 0 -3 -111 -221 -246 -485 l-246 -479
-67 0 -67 0 -244 477 c-135 262 -246 481 -248 485 -2 4 47 8 110 8 l113 0 165
-325z m1345 -151 c138 -262 252 -480 253 -485 2 -6 -42 -9 -109 -7 l-114 3
-61 115 -62 115 -235 3 -236 2 -62 -120 -62 -120 -113 0 -113 0 87 168 c48 92
161 310 252 485 l165 317 80 0 80 0 250 -476z m525 81 l0 -395 285 0 285 0 0
-90 0 -90 -390 0 -390 0 0 485 0 485 105 0 105 0 0 -395z m-291 -850 c32 -8
81 -25 109 -37 l51 -23 -40 -72 -40 -72 -42 18 c-69 29 -146 44 -232 43 -121
0 -205 -43 -205 -103 0 -40 40 -58 153 -70 267 -28 300 -37 372 -100 49 -43
75 -100 75 -167 1 -274 -437 -362 -760 -153 -30 19 -57 36 -58 37 -3 2 68 105
88 127 4 5 32 -7 61 -27 188 -125 441 -132 489 -15 31 75 -21 115 -167 130
-175 17 -244 29 -292 50 -52 23 -96 61 -117 101 -20 38 -17 125 5 173 39 83
144 153 261 174 70 13 215 6 289 -14z m-4537 -10 c156 -55 198 -267 77 -382
-55 -52 -102 -63 -265 -63 l-144 0 0 228 c0 126 3 232 8 236 13 15 273 -1 324
-19z m598 -20 l0 -45 -150 0 -150 0 0 -45 0 -45 90 0 90 0 0 -45 0 -45 -90 0
-90 0 0 -55 0 -55 160 0 160 0 0 -45 0 -45 -210 0 -210 0 0 235 0 235 200 0
200 0 0 -45z m3198 -382 l2 -423 -90 0 -90 0 0 425 0 426 88 -3 87 -3 3 -422z
m-2203 385 c91 -48 127 -110 127 -214 -1 -105 -50 -183 -144 -225 -50 -22 -67
-24 -265 -27 l-213 -3 0 -170 0 -169 -85 0 -85 0 0 421 0 420 308 -3 307 -3
50 -27z m778 -381 c119 -228 217 -417 217 -420 0 -4 -42 -7 -94 -7 l-94 0 -54
103 -55 102 -204 3 -204 2 -55 -105 -54 -105 -93 0 c-51 0 -93 3 -93 7 0 7
354 695 402 781 l29 52 68 0 67 0 217 -413z m900 407 c20 -4 61 -21 90 -38
100 -60 137 -197 83 -311 -26 -56 -53 -84 -109 -112 l-37 -19 105 -172 c58
-95 105 -175 105 -178 0 -2 -44 -4 -98 -4 l-98 0 -103 170 -103 170 -129 0
-129 0 0 -170 0 -171 -87 3 -88 3 -3 418 -2 417 282 0 c156 0 300 -3 321 -6z
m-1208 -1230 c20 -9 40 -30 50 -51 28 -58 9 -99 -92 -204 l-86 -89 97 0 c89 0
96 -1 96 -20 0 -19 -7 -20 -130 -20 -129 0 -130 0 -130 23 0 15 29 52 90 112
49 49 94 101 101 117 35 86 -61 135 -163 82 -28 -14 -28 -14 -28 15 0 26 5 32
33 40 51 15 126 12 162 -5z m371 -3 c48 -29 68 -82 69 -181 0 -69 -4 -94 -23
-132 -52 -105 -183 -105 -234 0 -47 98 -22 272 46 313 40 24 102 24 142 0z
m204 -161 l0 -180 45 0 c38 0 45 -3 45 -20 0 -19 -7 -20 -120 -20 -112 0 -120
1 -120 19 0 17 8 20 48 23 l47 3 3 149 3 149 -51 -7 c-48 -6 -50 -6 -50 18 0
20 7 25 48 34 26 5 59 10 75 11 l27 1 0 -180z m358 174 c14 -4 22 -14 22 -28
0 -22 -2 -22 -48 -13 -76 16 -131 -22 -147 -101 l-7 -33 34 21 c121 74 253
-75 173 -196 -32 -49 -118 -68 -175 -39 -59 30 -82 86 -81 197 0 145 98 227
229 192z"/>
<path d="M3723 4710 c-85 -18 -158 -73 -199 -150 -15 -27 -19 -57 -19 -130 0
-107 16 -148 77 -207 108 -104 307 -101 411 5 107 110 106 301 -1 405 -66 64
-176 96 -269 77z"/>
<path d="M1967 4490 l-58 -110 121 0 c67 0 120 3 118 8 -21 47 -111 212 -116
212 -4 0 -33 -50 -65 -110z"/>
<path d="M5530 4235 l0 -145 83 0 c133 0 192 44 192 144 -1 100 -64 146 -200
146 l-75 0 0 -145z"/>
<path d="M5000 3389 c-12 -24 -42 -81 -67 -126 l-45 -83 137 0 136 0 -62 118
c-34 64 -65 121 -70 126 -4 4 -17 -11 -29 -35z"/>
<path d="M820 2256 l0 -146 93 0 c75 0 98 4 125 20 42 26 66 80 59 137 -10 90
-55 122 -188 130 l-89 6 0 -147z"/>
<path d="M2150 2230 l0 -90 173 0 c237 0 267 11 267 95 0 25 -8 43 -25 60 -24
25 -25 25 -220 25 l-195 0 0 -90z"/>
<path d="M3076 2121 l-57 -111 115 0 c64 0 116 3 116 6 0 8 -88 177 -103 198
-12 16 -19 5 -71 -93z"/>
<path d="M3900 2229 l0 -91 194 4 c190 3 195 4 220 27 18 17 26 35 26 57 0 86
-22 94 -255 94 l-185 0 0 -91z"/>
<path d="M3373 1205 c-43 -30 -58 -177 -27 -253 26 -66 94 -78 130 -24 20 30
30 130 19 197 -11 80 -69 117 -122 80z"/>
<path d="M3924 1069 c-52 -26 -59 -106 -14 -151 26 -25 36 -29 63 -24 44 8 67
39 67 91 0 26 -7 51 -17 64 -21 25 -70 35 -99 20z"/>
</g>
</svg>
