<?xml version="1.0" encoding="utf-8"?>
<!-- Generator: Adobe Illustrator 15.1.0, SVG Export Plug-In . SVG Version: 6.00 Build 0)  -->
<!DOCTYPE svg PUBLIC "-//W3C//DTD SVG 1.1//EN" "http://www.w3.org/Graphics/SVG/1.1/DTD/svg11.dtd">
<svg version="1.1" id="Calque_1" xmlns="http://www.w3.org/2000/svg" xmlns:xlink="http://www.w3.org/1999/xlink" x="0px" y="0px"
	 width="92.379px" height="92.511px" viewBox="0 0 92.379 92.511" enable-background="new 0 0 92.379 92.511" xml:space="preserve">
<g>
	<defs>
		<rect id="SVGID_1_" x="-33.27" y="-660.318" width="240.323" height="763.985"/>
	</defs>
	<clipPath id="SVGID_2_">
		<use xlink:href="#SVGID_1_"  overflow="visible"/>
	</clipPath>
	<g clip-path="url(#SVGID_2_)">
		<defs>
			<rect id="SVGID_3_" x="-33.27" y="-660.318" width="240.323" height="763.985"/>
		</defs>
		<clipPath id="SVGID_4_">
			<use xlink:href="#SVGID_3_"  overflow="visible"/>
		</clipPath>
		<path clip-path="url(#SVGID_4_)" fill="#B10932" d="M96.219-438.65c61.213,0,110.834-49.622,110.834-110.834
			c0-61.211-49.621-110.833-110.834-110.833c-61.211,0-110.833,49.622-110.833,110.833C-14.614-488.272,35.008-438.65,96.219-438.65
			"/>
		<path clip-path="url(#SVGID_4_)" fill="#FFFFFF" d="M96.259-654.827c0,0-0.25,31.184-22.99,56.672
			C73.269-598.155,97.016-618.105,96.259-654.827"/>
		<path clip-path="url(#SVGID_4_)" fill="#FFFFFF" d="M96.773-639.49c0,0-0.034,14.692,17.79,41.031
			C114.563-598.458,96.946-616.719,96.773-639.49"/>
		<path clip-path="url(#SVGID_4_)" fill="#FFFFFF" d="M90.567-602.411c8.063-4.205,14.226,2.646,15.324,4.157
			c-3.073-4.943-9.15-9.416-15.624-4.958C90.603-602.453,90.538-602.458,90.567-602.411"/>
		<path clip-path="url(#SVGID_4_)" fill="#FFFFFF" d="M91.832-607.384c2.337-0.436,4.123-1.419,5.685-2.623
			c1.155,0.342,2.041-0.996,3.187-0.663c0.174,2.018-2.188,2.06-1.967,3.792c1.108-0.342,3.322-2.975,3.049-4.23
			c-0.281-1.295-2.026-0.686-3.022-1.392l-0.312-0.106c-0.345-2.59-2.146-3.492-2.435-6.147c0.858,0.56,1.842,0.972,2.446,1.827
			c1.817-0.702,0.647-1.535-0.176-2.593c-0.907-1.17-1.501-1.907-2.122-3.017c-0.412-0.071-0.135,0.538-0.359,0.652
			c-0.243-0.147-0.275-0.538-0.549-0.646c-0.009,0.672-0.004,0.73,0.096,1.405c-0.44,0.53-1.246,0.981-1.609,1.629
			c-0.984,1.747-0.327,4.747-1.386,6.383c-1.176,1.805-3.424,1.581-4.934,3.263c-5.067-1.879-2.518,6.264-5.456,7.488
			c0.213,0.06,0.654-0.141,0.713,0.1c-0.022,0.321-0.898,0.732-0.446,0.868c0.863-0.151,1.652-0.912,2.15-1.091
			c-0.078,0.394-0.415,0.531-0.547,0.866c1.312-0.693,2.389-1.005,2.435-2.819c0.052-1.984-1.618-4.876,0.986-4.869
			c-0.231,1.96,1.24,3.236,1.034,4.86c-0.059,0.455-0.558,0.806-0.52,1.295c0.085,1.012,1.377,1.533,1.98,2.369
			c0.49,0.681,0.798,1.352,1.055,2.156c0.336-0.068,0.946,0.135,1.104-0.112c-0.238-0.256-0.47-0.464-0.657-0.755
			c-0.401-0.618-2.048-2.895-2.059-3.557c-0.011-0.655,1.085-1.86,1.449-2.492c0.367-0.638,0.552-1.181,0.791-1.761L91.832-607.384z
			"/>
		<path clip-path="url(#SVGID_4_)" fill="#FFFFFF" d="M88.449-601.114l-0.646-0.558c-1.333,0.968-2.873,2.405-3.965,3.571
			C83.838-598.101,87.044-600.383,88.449-601.114"/>
	</g>
	<path clip-path="url(#SVGID_2_)" fill="#FFFFFF" d="M45.809-577.286h7.808l-3.931-7.392L45.809-577.286z M56.344-572.005H43.08
		l-3.532,6.778h-6.363L47.5-592.763h4.375l14.463,27.536h-6.363L56.344-572.005z"/>
	<polygon clip-path="url(#SVGID_2_)" fill="#FFFFFF" points="68.393,-592.764 74.209,-592.764 74.209,-570.463 89.799,-570.463 
		89.799,-565.227 68.393,-565.227 	"/>
	<g clip-path="url(#SVGID_2_)">
		<defs>
			<rect id="SVGID_5_" x="-33.27" y="-660.318" width="240.323" height="763.985"/>
		</defs>
		<clipPath id="SVGID_6_">
			<use xlink:href="#SVGID_5_"  overflow="visible"/>
		</clipPath>
		<path clip-path="url(#SVGID_6_)" fill="#FFFFFF" d="M96.079-578.924c0,5.377,3.977,9.069,9.191,9.069c5.271,0,9.2-3.739,9.2-9.069
			c0-5.374-3.929-9.119-9.2-9.119C100.055-588.043,96.079-584.298,96.079-578.924 M90.164-578.924
			c0-8.324,6.412-14.401,15.106-14.401c8.703,0,15.163,6.077,15.163,14.401c0,8.323-6.46,14.353-15.163,14.353
			C96.576-564.571,90.164-570.601,90.164-578.924"/>
	</g>
	<polygon clip-path="url(#SVGID_2_)" fill="#FFFFFF" points="129.417,-582.1 129.417,-565.226 123.603,-565.226 123.603,-592.763 
		127.134,-592.763 142.738,-575.886 142.738,-592.763 148.556,-592.763 148.556,-565.226 145.074,-565.226 	"/>
	<g clip-path="url(#SVGID_2_)">
		<defs>
			<rect id="SVGID_7_" x="-33.27" y="-660.318" width="240.323" height="763.985"/>
		</defs>
		<clipPath id="SVGID_8_">
			<use xlink:href="#SVGID_7_"  overflow="visible"/>
		</clipPath>
		<path clip-path="url(#SVGID_8_)" fill="#FFFFFF" d="M160.466-577.319v9.225h3.741c3.362,0,5.084-1.866,5.084-4.599
			c0-2.705-1.856-4.626-5.084-4.626H160.466z M157.324-565.258v-14.896h6.884c5.061,0,8.289,3.186,8.289,7.487
			c0,4.272-3.1,7.409-8.289,7.409H157.324z"/>
		<path clip-path="url(#SVGID_8_)" fill="#FFFFFF" d="M174.313-570.239v-9.916h3.15v9.457c0,2.432,0.509,2.934,3.497,2.934
			c2.983,0,3.497-0.502,3.497-2.934v-9.457h3.146v9.916c0,3.791-2.097,5.335-6.643,5.335
			C176.413-564.904,174.313-566.448,174.313-570.239"/>
		<path clip-path="url(#SVGID_8_)" fill="#FFFFFF" d="M5.473-541.04c0-9.35,7.199-16.181,16.962-16.181
			c6.028,0,11.219,2.627,15.067,8.301l-5.525,3.677c-2.34-4.257-5.637-6.041-9.542-6.041c-5.858,0-10.324,4.201-10.324,10.244
			c0,6.038,4.466,10.191,10.324,10.191c4.128,0,7.422-1.892,10.381-7.093l5.247,3.676c-3.574,6.355-9.042,9.35-15.628,9.35
			C12.672-524.916,5.473-531.695,5.473-541.04"/>
	</g>
	<polygon clip-path="url(#SVGID_2_)" fill="#FFFFFF" points="61.717,-539.516 46.762,-539.516 46.762,-525.652 40.183,-525.652 
		40.183,-556.589 46.762,-556.589 46.762,-545.406 61.717,-545.406 61.717,-556.589 68.246,-556.589 68.246,-525.652 
		61.717,-525.652 	"/>
	<polygon clip-path="url(#SVGID_2_)" fill="#FFFFFF" points="72.584,-556.588 98.41,-556.588 98.41,-550.709 79.113,-550.709 
		79.113,-545.032 91.168,-545.032 91.168,-539.151 79.113,-539.151 79.113,-531.535 99.634,-531.535 99.634,-525.652 
		72.584,-525.652 	"/>
	<polygon clip-path="url(#SVGID_2_)" fill="#FFFFFF" points="115.709,-525.653 99.861,-556.589 107.06,-556.589 117.773,-535.632 
		128.49,-556.589 135.744,-556.589 119.839,-525.653 	"/>
	<path clip-path="url(#SVGID_2_)" fill="#FFFFFF" d="M140.156-539.203h8.761l-4.414-8.297L140.156-539.203z M151.982-533.269
		h-14.899l-3.963,7.615h-7.143l16.073-30.935h4.908l16.244,30.935h-7.147L151.982-533.269z"/>
	<polygon clip-path="url(#SVGID_2_)" fill="#FFFFFF" points="165.031,-556.588 171.559,-556.588 171.559,-531.535 189.521,-531.535 
		189.521,-525.652 165.031,-525.652 	"/>
	<g clip-path="url(#SVGID_2_)">
		<defs>
			<rect id="SVGID_9_" x="-33.27" y="-660.318" width="240.323" height="763.985"/>
		</defs>
		<clipPath id="SVGID_10_">
			<use xlink:href="#SVGID_9_"  overflow="visible"/>
		</clipPath>
		<path clip-path="url(#SVGID_10_)" fill="#FFFFFF" d="M11.402-514.535v9.23h3.736c3.365,0,5.087-1.866,5.087-4.598
			c0-2.708-1.857-4.632-5.087-4.632H11.402z M8.251-502.47v-14.897h6.887c5.059,0,8.289,3.19,8.289,7.487
			c0,4.274-3.093,7.41-8.289,7.41H8.251z"/>
	</g>
	<polygon clip-path="url(#SVGID_2_)" fill="#FFFFFF" points="24.987,-517.367 37.74,-517.367 37.74,-514.535 28.137,-514.535 
		28.137,-511.799 33.948,-511.799 33.948,-508.973 28.137,-508.973 28.137,-505.305 38.335,-505.305 38.335,-502.47 24.987,-502.47 
			"/>
	<g clip-path="url(#SVGID_2_)">
		<defs>
			<rect id="SVGID_11_" x="-33.27" y="-660.318" width="240.323" height="763.985"/>
		</defs>
		<clipPath id="SVGID_12_">
			<use xlink:href="#SVGID_11_"  overflow="visible"/>
		</clipPath>
		<path clip-path="url(#SVGID_12_)" fill="#FFFFFF" d="M53.583-512.241v5.777h10.215c2.781,0,3.743-1.039,3.743-2.843
			c0-1.803-1.056-2.934-3.597-2.934H53.583z M53.583-501.364v10.647h-5.614v-26.578h16.021c5.565,0,9.307,2.888,9.307,7.714
			c0,4.651-3.356,8.217-8.876,8.217H53.583z"/>
	</g>
	<path clip-path="url(#SVGID_2_)" fill="#FFFFFF" d="M80.988-502.36h7.533l-3.791-7.126L80.988-502.36z M91.158-497.259H78.349
		l-3.403,6.542h-6.139l13.812-26.578h4.223l13.955,26.578h-6.141L91.158-497.259z"/>
	<g clip-path="url(#SVGID_2_)">
		<defs>
			<rect id="SVGID_13_" x="-33.27" y="-660.318" width="240.323" height="763.985"/>
		</defs>
		<clipPath id="SVGID_14_">
			<use xlink:href="#SVGID_13_"  overflow="visible"/>
		</clipPath>
		<path clip-path="url(#SVGID_14_)" fill="#FFFFFF" d="M108.936-512.241v5.777h10.215c2.784,0,3.745-1.039,3.745-2.843
			c0-1.803-1.059-2.934-3.602-2.934H108.936z M117.042-501.364h-8.106v10.647h-5.611v-26.578h16.021
			c5.611,0,9.301,2.888,9.301,7.896c0,3.479-2.108,6.409-5.51,7.584l6.716,11.098h-6.335L117.042-501.364z"/>
	</g>
	<rect x="133.183" y="-517.427" clip-path="url(#SVGID_2_)" fill="#FFFFFF" width="5.659" height="26.802"/>
	<g clip-path="url(#SVGID_2_)">
		<defs>
			<rect id="SVGID_15_" x="-33.27" y="-660.318" width="240.323" height="763.985"/>
		</defs>
		<clipPath id="SVGID_16_">
			<use xlink:href="#SVGID_15_"  overflow="visible"/>
		</clipPath>
		<path clip-path="url(#SVGID_16_)" fill="#FFFFFF" d="M155.228-512.606c-4.479,0.305-5.605,2.483-5.605,3.432
			c0,1.729,3.117,2.072,4.287,2.204c1.672,0.172,3.653,0.214,5.91,0.435c5.462,0.599,9.028,3.709,9.028,7.982
			c0,4.835-4.649,8.546-11.872,8.546c-5.01,0-9.384-1.382-14.215-4.963l3.028-4.272c4.283,3.152,7.846,4.399,11.144,4.399
			c4.421,0,6.452-1.941,6.452-3.795c0-1.299-1.128-2.804-4.645-3.07c-3.253-0.256-7.403-0.21-10.431-1.547
			c-2.568-1.166-4.104-3.239-4.104-5.789c0-4.445,4.513-8.343,10.559-8.343"/>
		<path clip-path="url(#SVGID_16_)" fill="#FFFFFF" d="M145.354-507.902c-0.53-0.636-0.787-1.569-0.5-2.699
			c0.854-3.397,3.521-6.264,9.09-7.017c4.637-0.627,9.416,0.311,13.505,2.483l-2.532,4.559c-3.563-1.815-7.723-2.336-10.777-1.938
			c-4.091,0.532-5.397,1.316-5.279,3.135"/>
		<path clip-path="url(#SVGID_16_)" fill="#FFFFFF" d="M19.319-588.246c-4.633,0.321-5.803,2.575-5.803,3.557
			c0,1.787,3.228,2.146,4.441,2.28c1.728,0.176,3.785,0.224,6.12,0.451c5.655,0.621,9.348,3.838,9.348,8.266
			c0,5.004-4.812,8.85-12.291,8.85c-5.185,0-9.717-1.434-14.716-5.144l3.125-4.42c4.443,3.264,8.134,4.556,11.547,4.556
			c4.578,0,6.678-2.011,6.678-3.931c0-1.342-1.167-2.906-4.812-3.176c-3.362-0.268-7.662-0.22-10.792-1.604
			c-2.664-1.213-4.252-3.352-4.252-5.994c0-4.603,4.674-8.641,10.932-8.641"/>
		<path clip-path="url(#SVGID_16_)" fill="#FFFFFF" d="M9.102-583.368c-0.555-0.658-0.818-1.626-0.524-2.801
			c0.89-3.513,3.651-6.488,9.412-7.262c4.805-0.651,9.753,0.322,13.987,2.569l-2.623,4.719c-3.685-1.875-7.994-2.421-11.156-2.003
			c-4.241,0.552-5.591,1.36-5.471,3.247"/>
	</g>
	<g clip-path="url(#SVGID_2_)">
		<text transform="matrix(1.0347 0 0 1 76.4482 -465.8677)"><tspan x="0" y="0" fill="#FFFFFF" font-family="'ParisineStd-Bold'" font-size="17.3064">2</tspan><tspan x="8.359" y="0" fill="#FFFFFF" font-family="'ParisineStd-Bold'" font-size="17.3064">0</tspan></text>
	</g>
	<g clip-path="url(#SVGID_2_)">
		<text transform="matrix(1.0347 0 0 1 95.4282 -465.8677)" fill="#FFFFFF" font-family="'ParisineStd-Bold'" font-size="17.3064">1</text>
	</g>
	<g clip-path="url(#SVGID_2_)">
		<text transform="matrix(1.0347 0 0 1 104.937 -465.8677)" fill="#FFFFFF" font-family="'ParisineStd-Bold'" font-size="17.3064">5</text>
	</g>
	<g clip-path="url(#SVGID_2_)">
		<defs>
			<rect id="SVGID_17_" x="-33.27" y="-660.318" width="240.323" height="763.985"/>
		</defs>
		<clipPath id="SVGID_18_">
			<use xlink:href="#SVGID_17_"  overflow="visible"/>
		</clipPath>
		<path clip-path="url(#SVGID_18_)" fill="#39A935" d="M46.188-14.857c25.525,0,46.217-20.692,46.217-46.217
			S71.713-107.29,46.188-107.29S-0.028-86.599-0.028-61.074S20.664-14.857,46.188-14.857"/>
		<path clip-path="url(#SVGID_18_)" fill="#FFFFFF" d="M76.214-73.836c0,0-0.126,15.65-11.538,28.441
			C64.676-45.395,76.593-55.406,76.214-73.836"/>
		<path clip-path="url(#SVGID_18_)" fill="#FFFFFF" d="M76.471-66.14c0,0-0.016,7.373,8.928,20.593
			C85.399-45.547,76.557-54.71,76.471-66.14"/>
		<path clip-path="url(#SVGID_18_)" fill="#FFFFFF" d="M73.357-47.53c4.047-2.11,7.139,1.327,7.69,2.084
			c-1.543-2.479-4.592-4.725-7.841-2.486C73.375-47.553,73.342-47.556,73.357-47.53"/>
		<path clip-path="url(#SVGID_18_)" fill="#FFFFFF" d="M73.992-50.026c1.173-0.218,2.068-0.713,2.852-1.316
			c0.581,0.171,1.024-0.5,1.6-0.334c0.086,1.014-1.098,1.034-0.987,1.904c0.556-0.171,1.667-1.494,1.531-2.123
			c-0.143-0.65-1.019-0.344-1.519-0.699l-0.155-0.053c-0.173-1.298-1.078-1.753-1.222-3.086c0.43,0.281,0.925,0.489,1.228,0.918
			c0.911-0.353,0.325-0.77-0.088-1.301c-0.455-0.587-0.754-0.957-1.065-1.515c-0.207-0.035-0.067,0.27-0.181,0.326
			c-0.122-0.073-0.138-0.27-0.276-0.323c-0.003,0.338-0.001,0.366,0.047,0.705c-0.22,0.266-0.625,0.491-0.807,0.817
			c-0.493,0.877-0.163,2.382-0.695,3.203c-0.589,0.906-1.718,0.794-2.476,1.638c-2.542-0.941-1.262,3.143-2.737,3.759
			c0.107,0.028,0.327-0.07,0.358,0.05c-0.011,0.159-0.452,0.366-0.224,0.435c0.432-0.075,0.83-0.457,1.078-0.546
			c-0.038,0.197-0.207,0.266-0.274,0.434c0.658-0.349,1.198-0.504,1.221-1.414c0.027-0.995-0.811-2.448,0.495-2.443
			c-0.116,0.982,0.623,1.624,0.519,2.438c-0.028,0.229-0.279,0.406-0.26,0.652c0.042,0.507,0.691,0.767,0.994,1.188
			c0.246,0.342,0.401,0.678,0.528,1.082c0.168-0.034,0.476,0.067,0.555-0.058c-0.12-0.127-0.237-0.232-0.33-0.379
			c-0.202-0.31-1.028-1.452-1.032-1.784c-0.006-0.328,0.543-0.934,0.725-1.25c0.185-0.32,0.278-0.593,0.398-0.884L73.992-50.026z"/>
		<path clip-path="url(#SVGID_18_)" fill="#FFFFFF" d="M72.294-46.88l-0.325-0.28c-0.669,0.485-1.441,1.208-1.99,1.792
			C69.979-45.368,71.589-46.515,72.294-46.88"/>
	</g>
	<polygon clip-path="url(#SVGID_2_)" fill="#FFFFFF" points="13.186,-67.824 13.186,-59.27 10.969,-59.27 10.969,-71.762 
		13.167,-71.762 21.394,-63.392 21.394,-71.762 23.609,-71.762 23.609,-59.27 21.63,-59.27 	"/>
	<g clip-path="url(#SVGID_2_)">
		<defs>
			<rect id="SVGID_19_" x="-33.27" y="-660.318" width="240.323" height="763.985"/>
		</defs>
		<clipPath id="SVGID_20_">
			<use xlink:href="#SVGID_19_"  overflow="visible"/>
		</clipPath>
		<path clip-path="url(#SVGID_20_)" fill="#FFFFFF" d="M38.038-63.794c0,1.319-0.232,2.308-0.696,2.968
			c-0.855,1.185-2.638,1.777-5.35,1.777c-1.966,0-3.462-0.318-4.488-0.953c-0.586-0.378-0.989-0.885-1.209-1.52
			c-0.232-0.636-0.348-1.394-0.348-2.272v-7.969h2.436v7.2c0,0.72,0.043,1.252,0.129,1.593c0.085,0.342,0.244,0.629,0.476,0.86
			c0.623,0.623,1.661,0.936,3.114,0.936s2.492-0.313,3.115-0.936c0.231-0.231,0.39-0.519,0.476-0.86
			c0.085-0.341,0.128-0.873,0.128-1.593v-7.2h2.217V-63.794z"/>
	</g>
	<rect x="40.356" y="-71.763" clip-path="url(#SVGID_2_)" fill="#FFFFFF" width="2.437" height="12.494"/>
	<polygon clip-path="url(#SVGID_2_)" fill="#FFFFFF" points="51.065,-69.712 51.065,-59.269 48.629,-59.269 48.629,-69.712 
		43.792,-69.712 43.792,-71.763 55.901,-71.763 55.901,-69.712 	"/>
	<g clip-path="url(#SVGID_2_)">
		<defs>
			<rect id="SVGID_21_" x="-33.27" y="-660.318" width="240.323" height="763.985"/>
		</defs>
		<clipPath id="SVGID_22_">
			<use xlink:href="#SVGID_21_"  overflow="visible"/>
		</clipPath>
		<path clip-path="url(#SVGID_22_)" fill="#FFFFFF" d="M59.034-60.295h1.785c0.563,0,0.987-0.075,1.274-0.229
			c0.611-0.316,0.916-0.939,0.916-1.869c0-0.671-0.165-1.186-0.495-1.547c-0.183-0.195-0.406-0.337-0.668-0.422
			c-0.263-0.085-0.605-0.128-1.027-0.128h-1.785V-60.295z M57.815-65.517h3.124c0.751,0,1.328,0.086,1.731,0.258
			c0.568,0.256,0.989,0.675,1.264,1.254c0.214,0.459,0.321,0.996,0.321,1.611c0,1.075-0.321,1.898-0.962,2.466
			c-0.275,0.237-0.594,0.406-0.957,0.508c-0.364,0.1-0.829,0.15-1.397,0.15h-3.124V-65.517z"/>
		<path clip-path="url(#SVGID_22_)" fill="#FFFFFF" d="M71.039-61.531c0,0.659-0.116,1.153-0.348,1.483
			c-0.428,0.593-1.32,0.889-2.675,0.889c-0.983,0-1.731-0.159-2.244-0.476c-0.293-0.189-0.495-0.443-0.605-0.761
			c-0.116-0.318-0.174-0.697-0.174-1.136v-3.985h1.219v3.6c0,0.361,0.021,0.627,0.064,0.798c0.042,0.171,0.122,0.315,0.238,0.431
			c0.311,0.311,0.83,0.467,1.558,0.467c0.726,0,1.245-0.156,1.556-0.467c0.116-0.115,0.196-0.26,0.238-0.431
			c0.043-0.171,0.064-0.437,0.064-0.798v-3.6h1.109V-61.531z"/>
		<path clip-path="url(#SVGID_22_)" fill="#FFFFFF" d="M18.518-50.659l0.705,1.229c-0.172,0.171-0.436,0.359-0.794,0.564
			c-0.726,0.427-1.335,0.713-1.825,0.857c-0.492,0.146-1.079,0.217-1.761,0.217c-1.357,0-2.468-0.323-3.329-0.973
			c-0.512-0.384-0.914-0.857-1.204-1.421c-0.342-0.64-0.512-1.349-0.512-2.125c0-1.059,0.302-1.981,0.909-2.767
			c0.913-1.169,2.292-1.753,4.136-1.753c0.682,0,1.268,0.071,1.754,0.217c0.487,0.145,1.097,0.431,1.832,0.857
			c0.349,0.196,0.614,0.394,0.794,0.589l-0.705,1.229c-0.375-0.368-0.705-0.627-0.986-0.781c-0.768-0.427-1.584-0.64-2.446-0.64
			c-1.024,0-1.844,0.252-2.458,0.755c-0.726,0.581-1.089,1.345-1.089,2.293c0,0.939,0.363,1.702,1.089,2.291
			c0.614,0.496,1.434,0.743,2.458,0.743c0.862,0,1.678-0.213,2.446-0.641C17.805-50.07,18.134-50.317,18.518-50.659"/>
	</g>
	<polygon clip-path="url(#SVGID_2_)" fill="#FFFFFF" points="27.578,-51.761 22.328,-51.761 22.328,-47.944 20.625,-47.944 
		20.625,-56.678 22.328,-56.678 22.328,-53.194 27.578,-53.194 27.578,-56.678 29.281,-56.678 29.281,-47.944 27.578,-47.944 	"/>
	<polygon clip-path="url(#SVGID_2_)" fill="#FFFFFF" points="32.784,-51.773 32.784,-49.378 39.071,-49.378 39.071,-47.944 
		31.081,-47.944 31.081,-56.678 38.917,-56.678 38.917,-55.243 32.784,-55.243 32.784,-53.169 36.997,-53.169 36.997,-51.773 	"/>
	<polygon clip-path="url(#SVGID_2_)" fill="#FFFFFF" points="44.059,-50.48 46.914,-56.677 48.643,-56.677 44.789,-47.945 
		43.278,-47.945 39.373,-56.677 41.204,-56.677 	"/>
	<path clip-path="url(#SVGID_2_)" fill="#FFFFFF" d="M52.875-51.364l-1.562-3.11l-1.588,3.11H52.875z M53.335-50.173h-4.098
		l-1.114,2.229h-1.561l4.046-8.733h1.511l4.148,8.733H54.45L53.335-50.173z"/>
	<polygon clip-path="url(#SVGID_2_)" fill="#FFFFFF" points="58.913,-49.379 64.957,-49.379 64.957,-47.945 57.21,-47.945 
		57.21,-56.678 58.913,-56.678 	"/>
	<polygon clip-path="url(#SVGID_2_)" fill="#FFFFFF" points="39.598,-78.672 41.08,-76.697 43.419,-77.485 41.999,-75.464 
		43.471,-73.484 41.111,-74.21 39.681,-72.197 39.643,-74.665 37.288,-75.405 39.624,-76.202 	"/>
	<g clip-path="url(#SVGID_2_)">
		<text transform="matrix(1 0 0 1 13.8096 -81.1455)"><tspan x="0" y="0" fill="#FFFFFF" font-family="'ParisineStd-Bold'" font-size="6.0552">S</tspan><tspan x="2.937" y="0" fill="#FFFFFF" font-family="'ParisineStd-Bold'" font-size="6.0552">P</tspan></text>
	</g>
	<g clip-path="url(#SVGID_2_)">
		<text transform="matrix(1 0 0 1 20.979 -81.1455)" fill="#FFFFFF" font-family="'ParisineStd-Bold'" font-size="6.0552">E</text>
	</g>
	<g clip-path="url(#SVGID_2_)">
		<text transform="matrix(1 0 0 1 24.5029 -81.1455)" fill="#FFFFFF" font-family="'ParisineStd-Bold'" font-size="6.0552">C</text>
	</g>
	<g clip-path="url(#SVGID_2_)">
		<text transform="matrix(1 0 0 1 28.2632 -81.1455)" fill="#FFFFFF" font-family="'ParisineStd-Bold'" font-size="6.0552">T</text>
	</g>
	<g clip-path="url(#SVGID_2_)">
		<text transform="matrix(1 0 0 1 31.2969 -81.1455)"><tspan x="0" y="0" fill="#FFFFFF" font-family="'ParisineStd-Bold'" font-size="6.0552">ACL</tspan><tspan x="9.93" y="0" fill="#FFFFFF" font-family="'ParisineStd-Bold'" font-size="6.0552">E</tspan><tspan x="12.855" y="0" fill="#FFFFFF" font-family="'ParisineStd-Bold'" font-size="6.0552"> </tspan></text>
	</g>
	<g clip-path="url(#SVGID_2_)">
		<text transform="matrix(1 0 0 1 47.543 -81.1455)" fill="#FFFFFF" font-family="'ParisineStd-Bold'" font-size="6.0552">É</text>
	</g>
	<g clip-path="url(#SVGID_2_)">
		<text transform="matrix(1 0 0 1 51.0674 -81.1455)"><tspan x="0" y="0" fill="#FFFFFF" font-family="'ParisineStd-Bold'" font-size="6.0552">Q</tspan><tspan x="4.124" y="0" fill="#FFFFFF" font-family="'ParisineStd-Bold'" font-size="6.0552">U</tspan></text>
	</g>
	<g clip-path="url(#SVGID_2_)">
		<text transform="matrix(1 0 0 1 59.9805 -81.1455)" fill="#FFFFFF" font-family="'ParisineStd-Bold'" font-size="6.0552">E</text>
	</g>
	<g clip-path="url(#SVGID_2_)">
		<text transform="matrix(1 0 0 1 63.5044 -81.1455)" fill="#FFFFFF" font-family="'ParisineStd-Bold'" font-size="6.0552">S</text>
	</g>
	<g clip-path="url(#SVGID_2_)">
		<text transform="matrix(1 0 0 1 66.8105 -81.1455)"><tspan x="0" y="0" fill="#FFFFFF" font-family="'ParisineStd-Bold'" font-size="6.0552">T</tspan><tspan x="2.961" y="0" fill="#FFFFFF" font-family="'ParisineStd-Bold'" font-size="6.0552">R</tspan></text>
	</g>
	<g clip-path="url(#SVGID_2_)">
		<text transform="matrix(1 0 0 1 74.5435 -81.1455)" fill="#FFFFFF" font-family="'ParisineStd-Bold'" font-size="6.0552">E</text>
	</g>
	<g clip-path="url(#SVGID_2_)">
		<text transform="matrix(1 0 0 1 15.499 -37.0215)" fill="#FFFFFF" font-family="'ParisineStd-Bold'" font-size="6.0552">2</text>
	</g>
	<g clip-path="url(#SVGID_2_)">
		<text transform="matrix(1 0 0 1 18.8354 -37.0215)" fill="#FFFFFF" font-family="'ParisineStd-Bold'" font-size="6.0552"> </text>
	</g>
	<g clip-path="url(#SVGID_2_)">
		<text transform="matrix(1 0 0 1 20.4644 -37.0215)" fill="#FFFFFF" font-family="'ParisineStd-Bold'" font-size="6.0552">R</text>
	</g>
	<g clip-path="url(#SVGID_2_)">
		<text transform="matrix(1 0 0 1 24.5576 -37.0215)" fill="#FFFFFF" font-family="'ParisineStd-Bold'" font-size="6.0552">E</text>
	</g>
	<g clip-path="url(#SVGID_2_)">
		<text transform="matrix(1 0 0 1 28.0815 -37.0215)" fill="#FFFFFF" font-family="'ParisineStd-Bold'" font-size="6.0552">P</text>
	</g>
	<g clip-path="url(#SVGID_2_)">
		<text transform="matrix(1 0 0 1 31.854 -37.0215)" fill="#FFFFFF" font-family="'ParisineStd-Bold'" font-size="6.0552">R</text>
	</g>
	<g clip-path="url(#SVGID_2_)">
		<text transform="matrix(1 0 0 1 35.9292 -37.0215)" fill="#FFFFFF" font-family="'ParisineStd-Bold'" font-size="6.0552">É</text>
	</g>
	<g clip-path="url(#SVGID_2_)">
		<text transform="matrix(1 0 0 1 39.4531 -37.0215)" fill="#FFFFFF" font-family="'ParisineStd-Bold'" font-size="6.0552">S</text>
	</g>
	<g clip-path="url(#SVGID_2_)">
		<text transform="matrix(1 0 0 1 42.8501 -37.0215)" fill="#FFFFFF" font-family="'ParisineStd-Bold'" font-size="6.0552">E</text>
	</g>
	<g clip-path="url(#SVGID_2_)">
		<text transform="matrix(1 0 0 1 46.3682 -37.0215)" fill="#FFFFFF" font-family="'ParisineStd-Bold'" font-size="6.0552">N</text>
	</g>
	<g clip-path="url(#SVGID_2_)">
		<text transform="matrix(1 0 0 1 50.958 -37.0215)" fill="#FFFFFF" font-family="'ParisineStd-Bold'" font-size="6.0552">T</text>
	</g>
	<g clip-path="url(#SVGID_2_)">
		<text transform="matrix(1 0 0 1 53.9917 -37.0215)" fill="#FFFFFF" font-family="'ParisineStd-Bold'" font-size="6.0552">A</text>
	</g>
	<g clip-path="url(#SVGID_2_)">
		<text transform="matrix(1 0 0 1 58.0669 -37.0215)" fill="#FFFFFF" font-family="'ParisineStd-Bold'" font-size="6.0552">T</text>
	</g>
	<g clip-path="url(#SVGID_2_)">
		<text transform="matrix(1 0 0 1 61.688 -37.0215)"><tspan x="0" y="0" fill="#FFFFFF" font-family="'ParisineStd-Bold'" font-size="6.0552">I</tspan><tspan x="1.399" y="0" fill="#FFFFFF" font-family="'ParisineStd-Bold'" font-size="6.0552">O</tspan></text>
	</g>
	<g clip-path="url(#SVGID_2_)">
		<text transform="matrix(1 0 0 1 68.0342 -37.0215)" fill="#FFFFFF" font-family="'ParisineStd-Bold'" font-size="6.0552">N</text>
	</g>
	<g clip-path="url(#SVGID_2_)">
		<text transform="matrix(1 0 0 1 72.6118 -37.0215)" fill="#FFFFFF" font-family="'ParisineStd-Bold'" font-size="6.0552">S</text>
	</g>
	<g clip-path="url(#SVGID_2_)">
		<text transform="matrix(1 0 0 1 21.5967 -30.5664)" fill="#FFFFFF" font-family="'ParisineStd-Bold'" font-size="6.0552">2</text>
	</g>
	<g clip-path="url(#SVGID_2_)">
		<text transform="matrix(1 0 0 1 24.9331 -30.5664)" fill="#FFFFFF" font-family="'ParisineStd-Bold'" font-size="6.0552">8</text>
	</g>
	<g clip-path="url(#SVGID_2_)">
		<text transform="matrix(1 0 0 1 28.2632 -30.5664)" fill="#FFFFFF" font-family="'ParisineStd-Bold'" font-size="6.0552"> </text>
	</g>
	<g clip-path="url(#SVGID_2_)">
		<text transform="matrix(1 0 0 1 29.9043 -30.5664)" fill="#FFFFFF" font-family="'ParisineStd-Bold'" font-size="6.0552">-</text>
	</g>
	<g clip-path="url(#SVGID_2_)">
		<text transform="matrix(1 0 0 1 31.5391 -30.5664)" fill="#FFFFFF" font-family="'ParisineStd-Bold'" font-size="6.0552"> </text>
	</g>
	<g clip-path="url(#SVGID_2_)">
		<text transform="matrix(1 0 0 1 33.1802 -30.5664)" fill="#FFFFFF" font-family="'ParisineStd-Bold'" font-size="6.0552">2</text>
	</g>
	<g clip-path="url(#SVGID_2_)">
		<text transform="matrix(1 0 0 1 36.5107 -30.5664)" fill="#FFFFFF" font-family="'ParisineStd-Bold'" font-size="6.0552">9</text>
	</g>
	<g clip-path="url(#SVGID_2_)">
		<text transform="matrix(1 0 0 1 39.8472 -30.5664)" fill="#FFFFFF" font-family="'ParisineStd-Bold'" font-size="6.0552"> </text>
	</g>
	<g clip-path="url(#SVGID_2_)">
		<text transform="matrix(1 0 0 1 41.4819 -30.5664)" fill="#FFFFFF" font-family="'ParisineStd-Bold'" font-size="6.0552">N</text>
	</g>
	<g clip-path="url(#SVGID_2_)">
		<text transform="matrix(1 0 0 1 46.0776 -30.5664)" fill="#FFFFFF" font-family="'ParisineStd-Bold'" font-size="6.0552">O</text>
	</g>
	<g clip-path="url(#SVGID_2_)">
		<text transform="matrix(1 0 0 1 50.3711 -30.5664)" fill="#FFFFFF" font-family="'ParisineStd-Bold'" font-size="6.0552">V</text>
	</g>
	<g clip-path="url(#SVGID_2_)">
		<text transform="matrix(1 0 0 1 53.6587 -30.5664)" fill="#FFFFFF" font-family="'ParisineStd-Bold'" font-size="6.0552">.</text>
	</g>
	<g clip-path="url(#SVGID_2_)">
		<text transform="matrix(1 0 0 1 54.9971 -30.5664)" fill="#FFFFFF" font-family="'ParisineStd-Bold'" font-size="6.0552"> </text>
	</g>
	<g clip-path="url(#SVGID_2_)">
		<text transform="matrix(1 0 0 1 56.6318 -30.5664)" fill="#FFFFFF" font-family="'ParisineStd-Bold'" font-size="6.0552">2</text>
	</g>
	<g clip-path="url(#SVGID_2_)">
		<text transform="matrix(1 0 0 1 59.9683 -30.5664)" fill="#FFFFFF" font-family="'ParisineStd-Bold'" font-size="6.0552">0</text>
	</g>
	<g clip-path="url(#SVGID_2_)">
		<text transform="matrix(1 0 0 1 63.2988 -30.5664)" fill="#FFFFFF" font-family="'ParisineStd-Bold'" font-size="6.0552">1</text>
	</g>
	<g clip-path="url(#SVGID_2_)">
		<text transform="matrix(1 0 0 1 66.6353 -30.5664)" fill="#FFFFFF" font-family="'ParisineStd-Bold'" font-size="6.0552">5</text>
	</g>
	<g clip-path="url(#SVGID_2_)">
		<defs>
			<rect id="SVGID_23_" x="-33.27" y="-660.318" width="240.323" height="763.985"/>
		</defs>
		<clipPath id="SVGID_24_">
			<use xlink:href="#SVGID_23_"  overflow="visible"/>
		</clipPath>
		<path clip-path="url(#SVGID_24_)" fill="#E95A0C" d="M46.188,92.511c25.525,0,46.217-20.691,46.217-46.217
			c0-25.523-20.692-46.216-46.217-46.216S-0.028,20.771-0.028,46.294C-0.028,71.819,20.664,92.511,46.188,92.511"/>
		<path clip-path="url(#SVGID_24_)" fill="#FFFFFF" d="M60.958,60.503c0,0,12.7-10.669,12.295-30.308
			C73.252,30.195,73.119,46.872,60.958,60.503"/>
		<path clip-path="url(#SVGID_24_)" fill="#FFFFFF" d="M83.042,60.341c0,0-9.422-9.766-9.514-21.943
			C73.527,38.397,73.509,46.255,83.042,60.341"/>
		<path clip-path="url(#SVGID_24_)" fill="#FFFFFF" d="M78.404,60.45c-1.644-2.643-4.894-5.035-8.356-2.65
			c0.18,0.405,0.145,0.401,0.16,0.428C74.521,55.979,77.816,59.643,78.404,60.45"/>
		<path clip-path="url(#SVGID_24_)" fill="#FFFFFF" d="M70.577,59.787c-0.215-0.329-1.095-1.548-1.102-1.901
			c-0.006-0.352,0.581-0.995,0.775-1.333c0.197-0.341,0.296-0.632,0.423-0.942l0.212-0.043c1.25-0.232,2.206-0.76,3.04-1.402
			c0.618,0.184,1.092-0.532,1.705-0.354c0.093,1.079-1.171,1.102-1.053,2.028c0.593-0.184,1.777-1.591,1.632-2.264
			c-0.151-0.691-1.085-0.365-1.618-0.743l-0.166-0.058c-0.184-1.385-1.148-1.867-1.302-3.287c0.459,0.3,0.986,0.521,1.308,0.977
			c0.972-0.375,0.347-0.82-0.093-1.386c-0.485-0.626-0.803-1.021-1.136-1.613c-0.219-0.038-0.072,0.287-0.192,0.349
			c-0.129-0.079-0.147-0.288-0.294-0.346c-0.004,0.359-0.001,0.391,0.051,0.752c-0.235,0.282-0.666,0.523-0.86,0.87
			c-0.527,0.935-0.174,2.54-0.741,3.414c-0.629,0.966-1.831,0.846-2.639,1.745c-2.709-1.006-1.346,3.35-2.917,4.005
			c0.114,0.031,0.349-0.075,0.381,0.054c-0.012,0.171-0.48,0.391-0.239,0.464c0.462-0.081,0.884-0.488,1.151-0.584
			c-0.043,0.211-0.222,0.284-0.293,0.463c0.702-0.37,1.277-0.537,1.303-1.507c0.027-1.061-0.866-2.608,0.526-2.604
			c-0.124,1.048,0.664,1.729,0.553,2.599c-0.031,0.243-0.298,0.431-0.278,0.693c0.046,0.541,0.737,0.818,1.06,1.267
			c0.262,0.364,0.426,0.723,0.563,1.153"/>
		<path clip-path="url(#SVGID_24_)" fill="#FFFFFF" d="M66.609,60.532c0,0,1.715-1.22,2.466-1.61l-0.346-0.3
			C68.017,59.141,67.193,59.908,66.609,60.532"/>
		<path clip-path="url(#SVGID_24_)" fill="#FFFFFF" d="M15.773,26.961l0.364,0.635c-0.088,0.088-0.225,0.186-0.41,0.291
			c-0.375,0.221-0.689,0.368-0.943,0.443c-0.254,0.075-0.557,0.113-0.91,0.113c-0.701,0-1.274-0.169-1.72-0.504
			c-0.264-0.197-0.472-0.442-0.622-0.733c-0.176-0.331-0.264-0.697-0.264-1.099c0-0.547,0.156-1.023,0.47-1.429
			c0.471-0.604,1.184-0.906,2.136-0.906c0.353,0,0.655,0.037,0.907,0.112c0.251,0.075,0.566,0.222,0.946,0.443
			c0.18,0.102,0.317,0.203,0.41,0.304l-0.364,0.635c-0.194-0.188-0.364-0.323-0.509-0.402c-0.397-0.222-0.819-0.331-1.264-0.331
			c-0.529,0-0.953,0.13-1.27,0.39c-0.375,0.3-0.563,0.695-0.563,1.185c0,0.485,0.188,0.881,0.563,1.185
			c0.317,0.256,0.741,0.384,1.27,0.384c0.445,0,0.867-0.111,1.264-0.331C15.405,27.265,15.575,27.138,15.773,26.961"/>
	</g>
	<polygon clip-path="url(#SVGID_2_)" fill="#FFFFFF" points="20.441,26.392 17.729,26.392 17.729,28.363 16.849,28.363 
		16.849,23.853 17.729,23.853 17.729,25.651 20.441,25.651 20.441,23.853 21.321,23.853 21.321,28.363 20.441,28.363 	"/>
	<path clip-path="url(#SVGID_2_)" fill="#FFFFFF" d="M25.102,26.598l-0.807-1.608l-0.821,1.608H25.102z M25.34,27.212h-2.117
		l-0.575,1.151H21.84l2.091-4.512h0.781l2.143,4.512h-0.939L25.34,27.212z"/>
	<polygon clip-path="url(#SVGID_2_)" fill="#FFFFFF" points="29.842,28.304 28.129,25.248 28.129,28.364 27.328,28.364 
		27.328,23.852 28.426,23.852 29.928,26.558 31.509,23.852 32.534,23.852 32.534,28.364 31.655,28.364 31.655,25.248 	"/>
	<g clip-path="url(#SVGID_2_)">
		<defs>
			<rect id="SVGID_25_" x="-33.27" y="-660.318" width="240.323" height="763.985"/>
		</defs>
		<clipPath id="SVGID_26_">
			<use xlink:href="#SVGID_25_"  overflow="visible"/>
		</clipPath>
		<path clip-path="url(#SVGID_26_)" fill="#FFFFFF" d="M34.331,25.79h1.561c0.309,0,0.527-0.033,0.655-0.099
			c0.089-0.04,0.158-0.106,0.209-0.199c0.05-0.092,0.076-0.194,0.076-0.304c0-0.106-0.026-0.205-0.076-0.299
			c-0.051-0.092-0.12-0.157-0.209-0.197c-0.128-0.066-0.346-0.099-0.655-0.099h-1.561V25.79z M34.331,26.531v1.832h-0.88v-4.511
			h2.554c0.326,0,0.583,0.021,0.77,0.065c0.188,0.044,0.352,0.119,0.493,0.226c0.146,0.113,0.261,0.262,0.344,0.442
			c0.08,0.19,0.12,0.391,0.12,0.603c0,0.304-0.08,0.571-0.239,0.801c-0.132,0.198-0.31,0.338-0.532,0.42
			c-0.223,0.081-0.542,0.122-0.956,0.122H34.331z"/>
	</g>
	<rect x="38.211" y="23.85" clip-path="url(#SVGID_2_)" fill="#FFFFFF" width="0.88" height="4.514"/>
	<g clip-path="url(#SVGID_2_)">
		<defs>
			<rect id="SVGID_27_" x="-33.27" y="-660.318" width="240.323" height="763.985"/>
		</defs>
		<clipPath id="SVGID_28_">
			<use xlink:href="#SVGID_27_"  overflow="visible"/>
		</clipPath>
		<path clip-path="url(#SVGID_28_)" fill="#FFFFFF" d="M42.23,24.533c-0.446,0-0.816,0.128-1.112,0.385
			c-0.353,0.304-0.529,0.7-0.529,1.189c0,0.49,0.176,0.885,0.529,1.186c0.296,0.254,0.668,0.383,1.118,0.383
			c0.446,0,0.816-0.129,1.112-0.383c0.176-0.15,0.311-0.337,0.403-0.557c0.084-0.199,0.126-0.401,0.126-0.609
			c0-0.511-0.176-0.915-0.529-1.209C43.048,24.665,42.675,24.537,42.23,24.533 M42.223,23.772c0.776,0,1.389,0.212,1.839,0.635
			c0.476,0.446,0.715,1.021,0.715,1.728c0,0.432-0.115,0.836-0.345,1.21c-0.445,0.732-1.179,1.099-2.202,1.099
			c-0.768,0-1.377-0.212-1.826-0.636c-0.239-0.229-0.422-0.502-0.549-0.82c-0.111-0.277-0.166-0.571-0.166-0.88
			c0-0.454,0.115-0.869,0.344-1.243C40.461,24.149,41.191,23.785,42.223,23.772"/>
	</g>
	<polygon clip-path="url(#SVGID_2_)" fill="#FFFFFF" points="46.183,25.274 46.183,28.363 45.382,28.363 45.382,23.852 
		46.176,23.852 49.147,26.875 49.147,23.852 49.947,23.852 49.947,28.363 49.233,28.363 	"/>
	<polygon clip-path="url(#SVGID_2_)" fill="#FFFFFF" points="51.664,25.274 51.664,28.363 50.863,28.363 50.863,23.852 
		51.657,23.852 54.628,26.875 54.628,23.852 55.428,23.852 55.428,28.363 54.714,28.363 	"/>
	<path clip-path="url(#SVGID_2_)" fill="#FFFFFF" d="M59.209,26.598l-0.807-1.608l-0.821,1.608H59.209z M59.447,27.212H57.33
		l-0.575,1.151h-0.808l2.091-4.512h0.78l2.144,4.512h-0.939L59.447,27.212z"/>
	<polygon clip-path="url(#SVGID_2_)" fill="#FFFFFF" points="63.493,24.593 63.493,28.364 62.613,28.364 62.613,24.593 
		60.866,24.593 60.866,23.852 65.24,23.852 65.24,24.593 	"/>
	<g clip-path="url(#SVGID_2_)">
		<defs>
			<rect id="SVGID_29_" x="-33.27" y="-660.318" width="240.323" height="763.985"/>
		</defs>
		<clipPath id="SVGID_30_">
			<use xlink:href="#SVGID_29_"  overflow="visible"/>
		</clipPath>
		<path clip-path="url(#SVGID_30_)" fill="#FFFFFF" d="M67.163,27.824h0.938c0.295,0,0.518-0.04,0.669-0.12
			c0.321-0.167,0.481-0.494,0.481-0.98c0-0.354-0.087-0.624-0.26-0.813c-0.096-0.103-0.213-0.177-0.351-0.222
			c-0.138-0.045-0.318-0.067-0.539-0.067h-0.938V27.824z M66.523,25.082h1.641c0.394,0,0.697,0.045,0.909,0.135
			c0.298,0.135,0.519,0.354,0.664,0.659c0.112,0.24,0.168,0.523,0.168,0.848c0,0.563-0.168,0.995-0.505,1.294
			c-0.145,0.125-0.312,0.214-0.503,0.267s-0.435,0.079-0.733,0.079h-1.641V25.082z"/>
		<path clip-path="url(#SVGID_30_)" fill="#FFFFFF" d="M73.532,27.175c0,0.347-0.061,0.606-0.183,0.779
			c-0.224,0.312-0.693,0.467-1.405,0.467c-0.517,0-0.909-0.083-1.179-0.25c-0.153-0.101-0.26-0.232-0.317-0.398
			c-0.061-0.167-0.091-0.366-0.091-0.598v-2.093h0.639v1.892c0,0.188,0.012,0.328,0.034,0.418s0.064,0.166,0.125,0.227
			c0.163,0.163,0.436,0.244,0.818,0.244s0.654-0.081,0.818-0.244c0.061-0.061,0.102-0.137,0.125-0.227
			c0.022-0.09,0.034-0.229,0.034-0.418v-1.892h0.582V27.175z"/>
	</g>
	<polygon clip-path="url(#SVGID_2_)" fill="#FFFFFF" points="17.571,39.324 13.988,32.934 13.988,39.449 12.315,39.449 
		12.315,30.016 14.611,30.016 17.751,35.673 21.057,30.016 23.201,30.016 23.201,39.449 21.361,39.449 21.361,32.934 	"/>
	<g clip-path="url(#SVGID_2_)">
		<defs>
			<rect id="SVGID_31_" x="-33.27" y="-660.318" width="240.323" height="763.985"/>
		</defs>
		<clipPath id="SVGID_32_">
			<use xlink:href="#SVGID_31_"  overflow="visible"/>
		</clipPath>
		<path clip-path="url(#SVGID_32_)" fill="#FFFFFF" d="M30.176,31.44c-0.932,0-1.706,0.267-2.324,0.802
			c-0.738,0.636-1.107,1.466-1.107,2.49c0,1.022,0.369,1.849,1.107,2.476c0.618,0.535,1.397,0.802,2.338,0.802
			c0.931,0,1.706-0.267,2.324-0.802c0.368-0.313,0.65-0.701,0.843-1.162c0.175-0.415,0.263-0.839,0.263-1.272
			c0-1.07-0.369-1.913-1.106-2.531C31.886,31.716,31.107,31.449,30.176,31.44 M30.162,29.849c1.623,0,2.905,0.443,3.845,1.328
			c0.996,0.932,1.494,2.136,1.494,3.609c0,0.905-0.24,1.749-0.719,2.533c-0.931,1.529-2.467,2.296-4.606,2.296
			c-1.605,0-2.877-0.443-3.818-1.329c-0.498-0.479-0.881-1.05-1.148-1.714c-0.231-0.581-0.346-1.195-0.346-1.84
			c0-0.95,0.24-1.817,0.719-2.602C26.478,30.637,28.004,29.877,30.162,29.849"/>
	</g>
	<polygon clip-path="url(#SVGID_2_)" fill="#FFFFFF" points="38.852,32.989 38.852,39.449 37.178,39.449 37.178,30.015 
		38.837,30.015 45.048,36.337 45.048,30.015 46.723,30.015 46.723,39.449 45.229,39.449 	"/>
	<g clip-path="url(#SVGID_2_)">
		<defs>
			<rect id="SVGID_33_" x="-33.27" y="-660.318" width="240.323" height="763.985"/>
		</defs>
		<clipPath id="SVGID_34_">
			<use xlink:href="#SVGID_33_"  overflow="visible"/>
		</clipPath>
		<path clip-path="url(#SVGID_34_)" fill="#FFFFFF" d="M50.889,37.9h2.697c0.849,0,1.489-0.114,1.923-0.347
			c0.922-0.479,1.383-1.42,1.383-2.821c0-1.015-0.249-1.794-0.747-2.339c-0.277-0.295-0.613-0.507-1.01-0.636
			c-0.396-0.129-0.913-0.193-1.549-0.193h-2.697V37.9z M49.049,30.015h4.717c1.134,0,2.006,0.129,2.614,0.388
			c0.858,0.388,1.494,1.019,1.909,1.895c0.323,0.692,0.484,1.504,0.484,2.436c0,1.623-0.484,2.862-1.452,3.721
			c-0.415,0.36-0.897,0.615-1.445,0.768c-0.549,0.152-1.252,0.229-2.11,0.229h-4.717V30.015z"/>
	</g>
	<polygon clip-path="url(#SVGID_2_)" fill="#FFFFFF" points="62.29,35.313 62.29,37.9 69.082,37.9 69.082,39.449 60.45,39.449 
		60.45,30.015 68.916,30.015 68.916,31.564 62.29,31.564 62.29,33.805 66.841,33.805 66.841,35.313 	"/>
	<g clip-path="url(#SVGID_2_)">
		<defs>
			<rect id="SVGID_35_" x="-33.27" y="-660.318" width="240.323" height="763.985"/>
		</defs>
		<clipPath id="SVGID_36_">
			<use xlink:href="#SVGID_35_"  overflow="visible"/>
		</clipPath>
		<path clip-path="url(#SVGID_36_)" fill="#FFFFFF" d="M12.044,46.947h0.938c0.295,0,0.518-0.04,0.669-0.12
			c0.321-0.167,0.481-0.493,0.481-0.98c0-0.354-0.087-0.624-0.26-0.813c-0.096-0.103-0.213-0.177-0.351-0.222
			c-0.138-0.044-0.318-0.067-0.539-0.067h-0.938V46.947z M11.404,44.206h1.641c0.394,0,0.697,0.045,0.909,0.135
			c0.298,0.134,0.52,0.354,0.664,0.659c0.112,0.239,0.168,0.522,0.168,0.847c0,0.563-0.168,0.996-0.505,1.294
			c-0.144,0.125-0.312,0.214-0.503,0.267c-0.19,0.054-0.435,0.079-0.733,0.079h-1.641V44.206z"/>
		<path clip-path="url(#SVGID_36_)" fill="#FFFFFF" d="M18.26,46.299c0,0.346-0.061,0.604-0.183,0.778
			c-0.224,0.313-0.693,0.468-1.405,0.468c-0.516,0-0.909-0.083-1.178-0.25c-0.155-0.101-0.26-0.233-0.318-0.399
			c-0.061-0.167-0.091-0.367-0.091-0.597v-2.093h0.639v1.891c0,0.188,0.012,0.329,0.034,0.418c0.023,0.09,0.064,0.166,0.125,0.227
			c0.164,0.162,0.436,0.244,0.818,0.244c0.382,0,0.655-0.082,0.818-0.244c0.061-0.061,0.103-0.137,0.125-0.227
			c0.023-0.089,0.034-0.229,0.034-0.418v-1.891h0.582V46.299z"/>
		<path clip-path="url(#SVGID_36_)" fill="#FFFFFF" d="M27.617,47.039l0.595,1.039c-0.144,0.146-0.368,0.304-0.671,0.478
			c-0.613,0.36-1.127,0.602-1.542,0.725c-0.416,0.123-0.912,0.185-1.489,0.185c-1.147,0-2.086-0.274-2.815-0.822
			c-0.433-0.326-0.772-0.727-1.017-1.202c-0.289-0.542-0.433-1.141-0.433-1.797c0-0.896,0.256-1.675,0.768-2.339
			c0.772-0.988,1.938-1.483,3.497-1.483c0.577,0,1.072,0.062,1.483,0.185c0.411,0.122,0.927,0.364,1.548,0.725
			c0.296,0.167,0.52,0.333,0.671,0.498l-0.595,1.04c-0.318-0.311-0.595-0.531-0.834-0.661c-0.649-0.36-1.338-0.541-2.067-0.541
			c-0.866,0-1.559,0.213-2.079,0.639c-0.613,0.491-0.92,1.137-0.92,1.938c0,0.794,0.307,1.438,0.92,1.937
			c0.52,0.419,1.213,0.628,2.079,0.628c0.729,0,1.418-0.18,2.067-0.541C27.014,47.537,27.292,47.328,27.617,47.039"/>
	</g>
	<polygon clip-path="url(#SVGID_2_)" fill="#FFFFFF" points="35.077,46.108 30.638,46.108 30.638,49.334 29.199,49.334 
		29.199,41.951 30.638,41.951 30.638,44.896 35.077,44.896 35.077,41.951 36.517,41.951 36.517,49.334 35.077,49.334 	"/>
	<polygon clip-path="url(#SVGID_2_)" fill="#FFFFFF" points="39.589,46.098 39.589,48.122 44.904,48.122 44.904,49.335 
		38.149,49.335 38.149,41.952 44.774,41.952 44.774,43.164 39.589,43.164 39.589,44.918 43.151,44.918 43.151,46.098 	"/>
	<polygon clip-path="url(#SVGID_2_)" fill="#FFFFFF" points="49.232,47.19 51.646,41.951 53.108,41.951 49.85,49.335 48.572,49.335 
		45.271,41.951 46.818,41.951 	"/>
	<path clip-path="url(#SVGID_2_)" fill="#FFFFFF" d="M57.373,46.443l-1.32-2.63l-1.343,2.63H57.373z M57.763,47.451h-3.464
		l-0.942,1.884h-1.321l3.421-7.383h1.277l3.508,7.383h-1.537L57.763,47.451z"/>
	<polygon clip-path="url(#SVGID_2_)" fill="#FFFFFF" points="62.167,48.122 67.277,48.122 67.277,49.335 60.728,49.335 
		60.728,41.951 62.167,41.951 	"/>
	<path clip-path="url(#SVGID_2_)" fill="#FFFFFF" d="M17.915,56.921l-1.598-3.184l-1.625,3.184H17.915z M18.387,58.14h-4.193
		l-1.14,2.28h-1.599l4.141-8.936h1.546l4.246,8.936h-1.861L18.387,58.14z"/>
	<g clip-path="url(#SVGID_2_)">
		<defs>
			<rect id="SVGID_37_" x="-33.27" y="-660.318" width="240.323" height="763.985"/>
		</defs>
		<clipPath id="SVGID_38_">
			<use xlink:href="#SVGID_37_"  overflow="visible"/>
		</clipPath>
		<path clip-path="url(#SVGID_38_)" fill="#FFFFFF" d="M23.852,55.297h3.119c0.454,0,0.775-0.014,0.963-0.04
			c0.187-0.025,0.369-0.079,0.543-0.156c0.367-0.185,0.551-0.508,0.551-0.97c0-0.473-0.184-0.796-0.551-0.971
			c-0.166-0.087-0.343-0.144-0.53-0.17c-0.188-0.025-0.514-0.039-0.976-0.039h-3.119V55.297z M23.852,56.777v3.643h-1.743v-8.937
			h5.071c0.673,0,1.206,0.04,1.599,0.118c0.393,0.079,0.734,0.214,1.022,0.405c0.323,0.229,0.568,0.538,0.734,0.932
			c0.148,0.375,0.222,0.776,0.222,1.205c0,1.459-0.834,2.311-2.502,2.555l2.555,3.722h-1.9l-2.516-3.643H23.852z"/>
	</g>
	<path clip-path="url(#SVGID_2_)" fill="#FFFFFF" d="M37.585,56.921l-1.598-3.184l-1.625,3.184H37.585z M38.058,58.14h-4.193
		l-1.14,2.28h-1.598l4.14-8.936h1.546l4.246,8.936h-1.861L38.058,58.14z"/>
	<g clip-path="url(#SVGID_2_)">
		<defs>
			<rect id="SVGID_39_" x="-33.27" y="-660.318" width="240.323" height="763.985"/>
		</defs>
		<clipPath id="SVGID_40_">
			<use xlink:href="#SVGID_39_"  overflow="visible"/>
		</clipPath>
		<path clip-path="url(#SVGID_40_)" fill="#FFFFFF" d="M43.523,58.952h3.42c0.638,0,1.101-0.087,1.389-0.262
			c0.341-0.192,0.511-0.512,0.511-0.956c0-0.446-0.17-0.77-0.511-0.971c-0.288-0.166-0.751-0.249-1.389-0.249h-3.42V58.952z
			 M43.523,55.035h3.538c0.542,0,0.926-0.075,1.153-0.224c0.254-0.175,0.38-0.445,0.38-0.813c0-0.375-0.12-0.644-0.36-0.806
			c-0.24-0.161-0.631-0.242-1.173-0.242h-3.538V55.035z M48.948,55.742c1.118,0.376,1.677,1.079,1.677,2.109
			c0,0.813-0.279,1.45-0.839,1.913c-0.288,0.236-0.62,0.404-0.995,0.504c-0.376,0.102-0.848,0.151-1.415,0.151h-5.595v-8.936h5.529
			c0.577,0,1.035,0.043,1.376,0.131c0.341,0.087,0.637,0.234,0.891,0.444c0.507,0.412,0.76,1.01,0.76,1.796
			C50.337,54.729,49.874,55.358,48.948,55.742"/>
	</g>
	<polygon clip-path="url(#SVGID_2_)" fill="#FFFFFF" points="53.286,56.502 53.286,58.952 59.72,58.952 59.72,60.42 51.544,60.42 
		51.544,51.484 59.563,51.484 59.563,52.951 53.286,52.951 53.286,55.074 57.597,55.074 57.597,56.502 	"/>
	<g clip-path="url(#SVGID_2_)">
		<defs>
			<rect id="SVGID_41_" x="-33.27" y="-660.318" width="240.323" height="763.985"/>
		</defs>
		<clipPath id="SVGID_42_">
			<use xlink:href="#SVGID_41_"  overflow="visible"/>
		</clipPath>
		<path clip-path="url(#SVGID_42_)" fill="#B10932" d="M46.188-229.487c14.192,0,25.696-11.505,25.696-25.695
			c0-14.192-11.504-25.697-25.696-25.697s-25.696,11.504-25.696,25.697C20.493-240.992,31.997-229.487,46.188-229.487"/>
	</g>
	<g clip-path="url(#SVGID_2_)">
		<text transform="matrix(1.0526 0 0 1 30.4502 -256.0537)" fill="#FFFFFF" font-family="'ParisineStd-Bold'" font-size="6.8805">À</text>
	</g>
	<g clip-path="url(#SVGID_2_)">
		<text transform="matrix(1.0526 0 0 1 35.3247 -256.0537)" fill="#FFFFFF" font-family="'ParisineStd-Bold'" font-size="6.8805"> </text>
	</g>
	<g clip-path="url(#SVGID_2_)">
		<text transform="matrix(1.0526 0 0 1 37.2729 -256.0537)" fill="#FFFFFF" font-family="'ParisineStd-Bold'" font-size="6.8805">N</text>
	</g>
	<g clip-path="url(#SVGID_2_)">
		<text transform="matrix(1.0526 0 0 1 42.7627 -256.0537)" fill="#FFFFFF" font-family="'ParisineStd-Bold'" font-size="6.8805">E</text>
	</g>
	<g clip-path="url(#SVGID_2_)">
		<text transform="matrix(1.0526 0 0 1 46.9854 -256.0537)" fill="#FFFFFF" font-family="'ParisineStd-Bold'" font-size="6.8805"> </text>
	</g>
	<g clip-path="url(#SVGID_2_)">
		<text transform="matrix(1.0526 0 0 1 48.9336 -256.0537)" fill="#FFFFFF" font-family="'ParisineStd-Bold'" font-size="6.8805">P</text>
	</g>
	<g clip-path="url(#SVGID_2_)">
		<text transform="matrix(1.0526 0 0 1 52.939 -256.0537)" fill="#FFFFFF" font-family="'ParisineStd-Bold'" font-size="6.8805">A</text>
	</g>
	<g clip-path="url(#SVGID_2_)">
		<text transform="matrix(1.0526 0 0 1 57.813 -256.0537)" fill="#FFFFFF" font-family="'ParisineStd-Bold'" font-size="6.8805">S</text>
	</g>
	<g clip-path="url(#SVGID_2_)">
		<text transform="matrix(1.0526 0 0 1 27.7705 -249.4688)" fill="#FFFFFF" font-family="'ParisineStd-Bold'" font-size="6.8805">M</text>
	</g>
	<g clip-path="url(#SVGID_2_)">
		<text transform="matrix(1.0526 0 0 1 34.4336 -249.4688)" fill="#FFFFFF" font-family="'ParisineStd-Bold'" font-size="6.8805">A</text>
	</g>
	<g clip-path="url(#SVGID_2_)">
		<text transform="matrix(1.0526 0 0 1 39.2935 -249.4688)" fill="#FFFFFF" font-family="'ParisineStd-Bold'" font-size="6.8805">N</text>
	</g>
	<g clip-path="url(#SVGID_2_)">
		<text transform="matrix(1.0526 0 0 1 44.7837 -249.4688)" fill="#FFFFFF" font-family="'ParisineStd-Bold'" font-size="6.8805">Q</text>
	</g>
	<g clip-path="url(#SVGID_2_)">
		<text transform="matrix(1.0526 0 0 1 50.0635 -249.4688)" fill="#FFFFFF" font-family="'ParisineStd-Bold'" font-size="6.8805">U</text>
	</g>
	<g clip-path="url(#SVGID_2_)">
		<text transform="matrix(1.0526 0 0 1 55.4375 -249.4688)" fill="#FFFFFF" font-family="'ParisineStd-Bold'" font-size="6.8805">E</text>
	</g>
	<g clip-path="url(#SVGID_2_)">
		<text transform="matrix(1.0526 0 0 1 59.6455 -249.4688)" fill="#FFFFFF" font-family="'ParisineStd-Bold'" font-size="6.8805">R</text>
	</g>
	<g clip-path="url(#SVGID_2_)">
		<defs>
			<rect id="SVGID_43_" x="-33.27" y="-660.318" width="240.323" height="763.985"/>
		</defs>
		<clipPath id="SVGID_44_">
			<use xlink:href="#SVGID_43_"  overflow="visible"/>
		</clipPath>
		<path clip-path="url(#SVGID_44_)" fill="#074A94" d="M46.188-122.529c25.525,0,46.217-20.692,46.217-46.217
			s-20.692-46.217-46.217-46.217s-46.217,20.692-46.217,46.217S20.664-122.529,46.188-122.529"/>
	</g>
	<g clip-path="url(#SVGID_2_)">
		<text transform="matrix(1.03 0 0 1 23.0195 -137.0117)" fill="#FFFFFF" font-family="'ParisineStd-Bold'" font-size="5.2615">1</text>
	</g>
	<g clip-path="url(#SVGID_2_)">
		<text transform="matrix(1.03 0 0 1 26 -137.0117)" fill="#FFFFFF" font-family="'ParisineStd-Bold'" font-size="5.2615"> </text>
	</g>
	<g clip-path="url(#SVGID_2_)">
		<text transform="matrix(1.03 0 0 1 27.4634 -137.0117)"><tspan x="0" y="0" fill="#FFFFFF" font-family="'ParisineStd-Bold'" font-size="5.2615">A</tspan><tspan x="3.178" y="0" fill="#FFFFFF" font-family="'ParisineStd-Bold'" font-size="5.2615">U</tspan></text>
	</g>
	<g clip-path="url(#SVGID_2_)">
		<text transform="matrix(1.03 0 0 1 35.1372 -137.0117)" fill="#FFFFFF" font-family="'ParisineStd-Bold'" font-size="5.2615"> </text>
	</g>
	<g clip-path="url(#SVGID_2_)">
		<text transform="matrix(1.03 0 0 1 36.6001 -137.0117)" fill="#FFFFFF" font-family="'ParisineStd-Bold'" font-size="5.2615">4</text>
	</g>
	<g clip-path="url(#SVGID_2_)">
		<text transform="matrix(1.03 0 0 1 39.5864 -137.0117)" fill="#FFFFFF" font-family="'ParisineStd-Bold'" font-size="5.2615"> </text>
	</g>
	<g clip-path="url(#SVGID_2_)">
		<text transform="matrix(1.03 0 0 1 41.0332 -137.0117)" fill="#FFFFFF" font-family="'ParisineStd-Bold'" font-size="5.2615">D</text>
	</g>
	<g clip-path="url(#SVGID_2_)">
		<text transform="matrix(1.03 0 0 1 45.0815 -137.0117)" fill="#FFFFFF" font-family="'ParisineStd-Bold'" font-size="5.2615">É</text>
	</g>
	<g clip-path="url(#SVGID_2_)">
		<text transform="matrix(1.03 0 0 1 48.23 -137.0117)" fill="#FFFFFF" font-family="'ParisineStd-Bold'" font-size="5.2615">C</text>
	</g>
	<g clip-path="url(#SVGID_2_)">
		<text transform="matrix(1.03 0 0 1 51.5903 -137.0117)" fill="#FFFFFF" font-family="'ParisineStd-Bold'" font-size="5.2615">.</text>
	</g>
	<g clip-path="url(#SVGID_2_)">
		<text transform="matrix(1.03 0 0 1 52.7876 -137.0117)" fill="#FFFFFF" font-family="'ParisineStd-Bold'" font-size="5.2615"> </text>
	</g>
	<g clip-path="url(#SVGID_2_)">
		<text transform="matrix(1.03 0 0 1 54.251 -137.0117)" fill="#FFFFFF" font-family="'ParisineStd-Bold'" font-size="5.2615">2</text>
	</g>
	<g clip-path="url(#SVGID_2_)">
		<text transform="matrix(1.03 0 0 1 57.2368 -137.0117)" fill="#FFFFFF" font-family="'ParisineStd-Bold'" font-size="5.2615">0</text>
	</g>
	<g clip-path="url(#SVGID_2_)">
		<text transform="matrix(1.03 0 0 1 60.2178 -137.0117)" fill="#FFFFFF" font-family="'ParisineStd-Bold'" font-size="5.2615">1</text>
	</g>
	<g clip-path="url(#SVGID_2_)">
		<text transform="matrix(1.03 0 0 1 63.2036 -137.0117)" fill="#FFFFFF" font-family="'ParisineStd-Bold'" font-size="5.2615">6</text>
	</g>
	<g clip-path="url(#SVGID_2_)">
		<defs>
			<rect id="SVGID_45_" x="-33.27" y="-660.318" width="240.323" height="763.985"/>
		</defs>
		<clipPath id="SVGID_46_">
			<use xlink:href="#SVGID_45_"  overflow="visible"/>
		</clipPath>
		<path clip-path="url(#SVGID_46_)" fill="#FFFFFF" d="M73.57-164.334l0.006-2.681l-0.622-0.003l-0.364,0.514
			c-0.557-0.44-1.305-0.683-2.047-0.683c-0.988,0-2.518,0.435-2.518,2.169c0,1.82,1.949,2.057,2.786,2.225
			c1.128,0.225,1.613,0.449,1.81,0.773c0.217,0.356,0.032,0.84-0.249,1.063c-0.298,0.234-1.075,0.401-2.102,0.099
			c-0.924-0.272-1.291-1.233-1.458-1.991h-0.698v2.812h0.554l0.39-0.553c0.109,0.176,1.049,0.79,2.304,0.79
			c1.275,0,2.658-0.557,2.658-2.21c0-1.892-2.227-2.138-2.835-2.266c-1.771-0.374-1.832-0.757-1.885-0.965
			c-0.036-0.141-0.041-0.397,0.122-0.636c0.162-0.237,0.536-0.442,1.121-0.442c1.704,0,2.091,1.175,2.293,1.99L73.57-164.334z
			 M68.653-186.786c0.115-0.458,0.029-0.786-0.336-1.301c-0.022-0.032-2.174-3.24-3.297-4.901c-1.195-1.766-2.323-3.433-2.816-4.204
			c-1.008-1.574-1.703-2.811-2.122-3.775c-0.078-0.179-0.131-0.325-0.152-0.497c-0.141-1.146,0.912-2.951,1.038-3.16
			c0.044-0.077,0.035-0.163-0.023-0.22c-0.055-0.054-0.143-0.064-0.212-0.025c-0.178,0.105-0.373,0.233-0.579,0.369
			c-0.765,0.501-1.715,1.125-2.687,1.125c-0.225,0-0.507-0.034-0.72-0.087c-0.123-0.028-0.319-0.097-0.54-0.185
			c-0.024-0.009-0.581-0.256-0.783-0.335c-2.119-0.827-4.523-1.766-8.093-1.766c-3.347,0-6.907,1.13-10.024,3.184
			c-0.96,0.632-1.87,1.308-2.881,2.066c-1.196,0.897-2.432,1.827-3.739,2.603c-1.418,0.844-3.327,1.811-5.526,1.811
			c-0.148,0-0.298-0.004-0.445-0.013c-0.193-0.012-0.599-0.062-0.894-0.116c-0.097-0.018-0.187,0.048-0.204,0.142
			c-0.017,0.094,0.046,0.185,0.139,0.2c0.383,0.07,0.596,0.09,0.803,0.109l0.135,0.012c0.361,0.037,0.722,0.056,1.074,0.056
			c3.589,0,6.464-1.867,9.85-4.308l0.092-0.065c0.799-0.576,1.794-1.293,2.706-1.824c2.149-1.254,5.542-2.921,10.175-2.921
			c3.036,0,5.448,0.682,6.937,1.254c0.095,0.037,0.62,0.264,0.674,0.286c0.174,0.071,0.348,0.134,0.546,0.191
			c0.201,0.059,0.496,0.103,0.732,0.108c1.055,0.028,1.648-0.162,2.242-0.49c-0.131,0.603-0.238,1.449-0.171,2.147
			c0.147,1.532,0.704,3.065,1.653,4.556c0.634,0.997,2.268,3.031,3.583,4.667l0.049,0.063c0.663,0.821,2.386,3.023,2.599,3.305
			c0.137,0.181,0.423,0.59,0.545,0.765l0.052,0.075c0.338,0.475,0.361,0.706,0.284,1.017c-0.019,0.073-0.05,0.151-0.095,0.232
			c-0.077,0.139-0.263,0.342-0.339,0.421l-0.034,0.037c-0.674,0.741-1.127,0.925-1.389,0.951c-0.208,0.019-0.398,0.013-0.562-0.021
			c-1.353-0.281-2.577-1.198-2.935-1.528c-0.422-0.39-1.025-0.871-1.79-1.43c-0.549-0.401-1.306-0.859-2.143-1.255
			c-0.376-0.177-1.776-0.872-2.285-1.124c-0.149-0.073-0.304-0.147-0.452-0.219c-0.118-0.058-0.234-0.115-0.341-0.166l-0.136-0.067
			c-0.865-0.424-1.76-0.861-2.372-1.609c-0.582-0.66-0.942-1.533-1.018-2.458c0.363-0.468,0.653-1.038,0.837-1.648
			c0.074-0.247,0.147-0.717,0.164-1.066c0.02-0.275,0.017-0.471-0.011-0.656c-0.01-0.073-0.044-0.12-0.102-0.145
			c-0.062-0.025-0.119-0.02-0.177,0.021c-1.099,0.745-1.737,2.141-1.672,3.648c-0.345,0.225-0.73,0.384-1.128,0.537
			c-0.324,0.127-0.813,0.232-1.332,0.346c-0.642,0.139-1.369,0.297-1.952,0.528c-1.773,0.706-3.224,1.832-4.435,3.442
			c-0.584,0.776-1.04,1.644-1.361,2.589c-0.081,0.236-0.152,0.478-0.215,0.721c-0.024,0.093,0.032,0.188,0.125,0.213
			c0.09,0.022,0.189-0.036,0.211-0.126c0.043-0.169,0.136-0.498,0.21-0.699c0.251-0.693,0.616-1.392,1.002-1.913
			c1.281-1.737,2.801-2.841,4.786-3.477c0.273-0.088,0.675-0.192,1.101-0.304c0.73-0.192,1.557-0.409,1.984-0.601
			c0.324-0.146,0.733-0.341,1.082-0.577c0.11,0.591,0.333,1.146,0.646,1.611c0.814,1.208,2.094,1.805,3.239,2.229
			c0.207,0.076,0.486,0.174,0.785,0.279l0.121,0.043c1.203,0.419,2.051,0.742,2.591,0.988c0.732,0.332,1.4,0.725,2.044,1.195
			c0.583,0.427,1.248,0.922,1.755,1.402c0.03,0.027,0.066,0.063,0.108,0.104c0.455,0.442,1.663,1.616,2.958,1.834
			c0.139,0.024,0.274,0.036,0.413,0.036c0.106,0,0.213-0.007,0.327-0.021c0.714-0.086,1.267-0.836,1.632-1.334
			c0.109-0.147,0.294-0.432,0.369-0.576C68.6-186.61,68.629-186.682,68.653-186.786 M52.357-195.754
			c0.009-0.468,0.063-0.874,0.178-1.228c0.125-0.383,0.313-0.739,0.605-1.175c-0.007,0.501-0.089,0.906-0.213,1.295
			C52.818-196.523,52.655-196.189,52.357-195.754 M23.827-163.012c-0.041,0.533-0.086,1.193-0.216,1.572
			c-0.225,0.648-1.209,0.549-2.766,0.555c0,0-0.003-4.571-0.003-4.708c0-0.188,0.006-0.28,0.083-0.389
			c0.133-0.193,0.56-0.182,1.054-0.182v-0.854h-3.68v0.854c0.142,0,0.859-0.064,0.963,0.207c0.035,0.095,0.051,0.163,0.051,0.363
			c0,0.151,0.001,4.119,0.001,4.119c0,0.144,0.011,0.31-0.039,0.397c-0.071,0.126-0.16,0.204-0.978,0.204
			c0,0.348,0.002,0.835,0.002,0.835h6.263v-2.977L23.827-163.012z M24.654-157.251h-0.937v4.556h0.755v-3.726h0.019l2.346,2.97
			l2.365-2.97h0.02v3.726h0.754v-4.556h-0.937l-2.196,2.756L24.654-157.251z M33.819-157.251l-2.409,4.556h0.824l0.528-1.02h3.064
			l0.528,1.02h0.824l-2.409-4.556H33.819z M33.133-154.4l1.164-2.202l1.157,2.202H33.133z M38.342-153.903l-0.416,0.547
			c0.661,0.521,1.555,0.768,2.712,0.768c1.616,0,2.485-0.56,2.485-1.517c0-0.761-0.542-1.15-1.674-1.295
			c-0.924-0.12-1.673-0.063-2.17-0.239c-0.264-0.094-0.396-0.233-0.396-0.441c0-0.377,0.497-0.615,1.44-0.615
			c0.717,0,1.384,0.17,2.063,0.516l0.459-0.509c-0.66-0.448-1.483-0.674-2.465-0.674c-1.478,0-2.296,0.534-2.296,1.384
			c0,0.874,0.705,1.095,2.108,1.188c1.339,0.088,2.113,0.088,2.113,0.736c0,0.491-0.579,0.806-1.661,0.806
			C39.814-153.249,39.071-153.458,38.342-153.903 M41.444-147.479h-1.379v1.739h0.289v-0.664h1.035c0.413,0,0.634-0.189,0.634-0.532
			C42.023-147.266,41.8-147.479,41.444-147.479 M41.375-147.216c0.235,0,0.353,0.092,0.353,0.284c0,0.173-0.115,0.268-0.334,0.268
			h-1.04v-0.552H41.375z M43.533-147.479l-0.921,1.739h0.315l0.202-0.39h1.169l0.202,0.39h0.315l-0.92-1.739H43.533z
			 M43.271-146.391l0.444-0.841l0.442,0.841H43.271z M47.215-147.479h-1.372v1.739h0.289v-0.664h0.879l0.471,0.664h0.334
			l-0.466-0.679c0.26-0.043,0.452-0.206,0.452-0.514C47.802-147.268,47.581-147.479,47.215-147.479 M47.146-147.216
			c0.243,0,0.36,0.092,0.36,0.284c0,0.171-0.117,0.268-0.334,0.268h-1.04v-0.552H47.146z M49.274-147.479h-0.288v1.739h0.288
			V-147.479z M50.555-146.201l-0.158,0.209c0.251,0.199,0.593,0.294,1.034,0.294c0.618,0,0.95-0.215,0.95-0.579
			c0-0.291-0.207-0.438-0.639-0.495c-0.354-0.046-0.64-0.024-0.829-0.091c-0.102-0.037-0.152-0.09-0.152-0.168
			c0-0.146,0.191-0.236,0.551-0.236c0.274,0,0.528,0.064,0.788,0.197l0.175-0.195c-0.252-0.17-0.567-0.257-0.941-0.257
			c-0.566,0-0.878,0.205-0.878,0.528c0,0.334,0.269,0.418,0.806,0.454c0.511,0.034,0.807,0.034,0.807,0.281
			c0,0.188-0.221,0.307-0.635,0.307C51.117-145.952,50.833-146.029,50.555-146.201 M50.432-152.695h4.769v-0.687h-4.013v-1.333
			h2.667v-0.686h-2.667v-1.163h3.837v-0.688h-4.593V-152.695z M28.107-178.443c0,0.096,0.078,0.173,0.174,0.173l0.215,0.001
			c0.344,0.001,0.954,0.003,1.045-0.001c3.862-0.003,7.268-0.904,10.124-2.675c1.32-0.818,2.508-1.841,3.658-2.829
			c1.676-1.443,3.409-2.934,5.559-3.781c0.212-0.085,0.795-0.279,1.619-0.279c0.834,0,2.036,0.233,3.038,1.344
			c0.261,0.289,0.483,0.754,0.594,1.063c0.751,2.101-0.532,4.996-3.27,7.372c-0.056,0.049-0.113,0.097-0.17,0.145l-0.06,0.052
			c-3.475,2.956-8.774,4.392-12.509,4.509c0.021-0.964,0.307-2.68,0.546-3.547c0.024-0.086-0.021-0.176-0.106-0.208
			c-0.088-0.032-0.192,0.016-0.224,0.102c-0.433,1.209-1.002,3.251-1.39,4.759l-0.016,0.065l0.068-0.002
			c2.809-0.075,8.344-0.878,13.854-5.411c0.08-0.066,0.158-0.134,0.235-0.201c2.845-2.469,4.168-5.513,3.369-7.752
			c-0.08-0.224-0.267-0.676-0.623-1.178c-0.961-1.359-2.296-1.73-3.007-1.83c-1.598-0.192-3.255,0.281-5.109,1.463
			c-1.244,0.793-2.365,1.755-3.45,2.688c-0.835,0.715-1.569,1.318-2.244,1.843c-0.477,0.373-4.842,3.643-10.808,3.929
			c-0.289,0.013-0.555,0.014-0.824,0.014h-0.114C28.185-178.618,28.107-178.54,28.107-178.443 M32.14-161.372
			c0.78-1.108,0.821-2.895,0.143-4.064c-0.533-0.924-1.478-1.499-2.442-1.704c-0.33-0.064-0.659-0.094-0.982-0.093
			c-1.051,0.006-2.048,0.356-2.817,1.079c-1.007,0.984-1.294,2.483-0.883,3.838c0.369,1.253,1.622,2.279,2.915,2.443
			c0.265,0.038,0.527,0.059,0.787,0.059C30.153-159.814,31.353-160.294,32.14-161.372 M31.041-163.507
			c-0.001,1.068-0.208,2.264-1.282,2.677c-0.284,0.111-0.595,0.134-0.905,0.133c-0.306-0.001-0.634-0.039-0.919-0.161
			c-0.953-0.408-1.237-1.58-1.257-2.648c-0.002-0.953,0.262-2.076,0.965-2.525c0.386-0.247,0.767-0.341,1.221-0.337
			c0.446,0,0.888,0.087,1.246,0.337C30.716-165.583,31.077-164.688,31.041-163.507 M42.217-160.221
			c0.485,0.287,1.085,0.419,1.694,0.415c0.83-0.004,1.675-0.261,2.269-0.723c0.143,0.164,0.266,0.349,0.389,0.513h0.821l0.001-2.445
			c0.012-0.635,0.244-0.5,0.924-0.511v-0.76h-3.593v0.756c0.927,0.028,1.127-0.124,1.14,0.519c-0.003,1.338-0.866,1.593-1.052,1.671
			c-0.626,0.267-1.428,0.154-1.909-0.424c-0.895-1.076-0.869-3.549,0.014-4.596c0.473-0.534,1.181-0.632,1.909-0.39
			c0.822,0.266,1.294,1.129,1.499,1.889h0.842v-2.711h-0.821l-0.287,0.555c-0.598-0.506-1.419-0.761-2.23-0.75
			c-0.443,0.006-0.883,0.09-1.281,0.257c-1.294,0.493-1.973,1.849-2.033,3.142C40.451-162.356,40.903-160.96,42.217-160.221
			 M50.805-161.293l-0.001-4.546c0-0.385,0.356-0.317,0.986-0.315v-0.863h-3.552v0.863c0.53,0,0.985-0.069,0.985,0.326l0.003,4.535
			c0,0.484-0.515,0.395-0.988,0.411v0.845h3.552l0.001-0.845C51.107-160.882,50.805-160.826,50.805-161.293 M46.834-152.695v-3.868
			h2.177v-0.688h-5.108v0.688h2.176v3.868H46.834z M34.789-161.41v-3.762c1.171,1.727,3.491,5.134,3.491,5.134h1.314v-5.71
			c0-0.17-0.031-0.411,0.296-0.411l0.751,0.004v-0.863h-3.306v0.863l0.649-0.004c0.475-0.009,0.46,0.212,0.46,0.444
			c0.007,1.167,0,3.09,0,3.09l-3.039-4.394h-2.833v0.874l0.778,0.003c0.345,0.032,0.263,0.213,0.269,0.558v4.109
			c0,0.655-0.125,0.591-1.047,0.591v0.846H36l-0.001-0.846C35.066-160.884,34.789-160.802,34.789-161.41 M54.521-161.409v-3.761
			c1.171,1.726,3.491,5.133,3.491,5.133h1.314v-5.71c0-0.162-0.008-0.409,0.296-0.409l0.751,0.002v-0.863h-3.306l-0.001,0.863
			l0.65-0.002c0.474-0.01,0.46,0.211,0.46,0.443c0.007,1.166,0,3.089,0,3.089l-3.039-4.394h-2.834v0.875l0.606,0.003
			c0.398,0,0.436,0.213,0.442,0.558v4.108c0,0.695-0.189,0.592-1.048,0.592v0.845h3.429l-0.001-0.845
			C54.766-160.882,54.521-160.778,54.521-161.409 M60.56-157.251h-3.592v4.556h0.756v-1.736h2.301l1.233,1.736h0.875l-1.221-1.774
			c0.68-0.114,1.184-0.541,1.184-1.346C62.096-156.696,61.517-157.251,60.56-157.251 M60.378-156.563
			c0.635,0,0.944,0.244,0.944,0.748c0,0.445-0.309,0.697-0.875,0.697h-2.723v-1.445H60.378z M66.711-163.01v0.846
			c-0.007,1.002-0.712,1.275-1.362,1.26l-1.876,0.006v-2.333c0,0,0.761-0.072,1.027,0.174c0.329,0.309,0.288,1.276,0.288,1.276h0.76
			v-3.553l-0.753-0.001c0,0-0.017,0.899-0.3,1.122c-0.282,0.223-1.022,0.159-1.022,0.159v-2.102l1.876,0.005
			c0.132,0,0.772-0.034,1.063,0.269c0.275,0.288,0.329,0.942,0.329,1.257c0,0.325,0.002,0.491,0.002,0.491l0.755,0.006v-2.89h-6.693
			l-0.004,0.875c0.898,0,1.154-0.096,1.153,0.412l0.002,4.373c0,0.545-0.215,0.442-1.151,0.463l-0.004,0.857h6.697v-2.976
			L66.711-163.01z M63.818-153.903l-0.414,0.547c0.66,0.521,1.553,0.768,2.711,0.768c1.616,0,2.485-0.56,2.485-1.517
			c0-0.761-0.542-1.15-1.674-1.295c-0.924-0.12-1.673-0.063-2.17-0.239c-0.264-0.094-0.396-0.233-0.396-0.441
			c0-0.377,0.497-0.615,1.44-0.615c0.717,0,1.384,0.17,2.064,0.516l0.459-0.509c-0.661-0.448-1.486-0.674-2.466-0.674
			c-1.479,0-2.296,0.534-2.296,1.384c0,0.874,0.704,1.095,2.107,1.188c1.34,0.088,2.114,0.088,2.114,0.736
			c0,0.491-0.579,0.806-1.661,0.806C65.29-153.249,64.548-153.458,63.818-153.903"/>
		<g opacity="0.7" clip-path="url(#SVGID_46_)">
			<g>
				<defs>
					<rect id="SVGID_47_" x="-26.788" y="2.925" width="22.83" height="107.846"/>
				</defs>
				<clipPath id="SVGID_48_">
					<use xlink:href="#SVGID_47_"  overflow="visible"/>
				</clipPath>
				<g clip-path="url(#SVGID_48_)">
					
						<text transform="matrix(-6.123234e-017 -1 1.1111 -6.803593e-017 -19.9858 101.7695)" fill="#1D1D1B" font-family="'HelveticaNeueLTStd-Lt'" font-size="5.4">l</text>
				</g>
				<g clip-path="url(#SVGID_48_)">
					
						<text transform="matrix(-6.123234e-017 -1 1.1111 -6.803593e-017 -19.9858 100.6094)" fill="#1D1D1B" font-family="'HelveticaNeueLTStd-Lt'" font-size="5.4">e</text>
				</g>
				<g clip-path="url(#SVGID_48_)">
					<text transform="matrix(-6.123234e-017 -1 1.1111 -6.803593e-017 -19.9858 97.6504)"><tspan x="0" y="0" fill="#1D1D1B" font-family="'HelveticaNeueLTStd-Lt'" font-size="5.4">b</tspan><tspan x="3.262" y="0" fill="#1D1D1B" font-family="'HelveticaNeueLTStd-Lt'" font-size="5.4">u</tspan></text>
				</g>
				<g clip-path="url(#SVGID_48_)">
					
						<text transform="matrix(-6.123234e-017 -1 1.1111 -6.803593e-017 -19.9858 91.3262)" fill="#1D1D1B" font-family="'HelveticaNeueLTStd-Lt'" font-size="5.4">r</text>
				</g>
				<g clip-path="url(#SVGID_48_)">
					
						<text transform="matrix(-6.123234e-017 -1 1.1111 -6.803593e-017 -19.9858 89.5605)" fill="#1D1D1B" font-family="'HelveticaNeueLTStd-Lt'" font-size="5.4">e</text>
				</g>
				<g clip-path="url(#SVGID_48_)">
					
						<text transform="matrix(-6.123234e-017 -1 1.1111 -6.803593e-017 -19.9858 86.5957)" fill="#1D1D1B" font-family="'HelveticaNeueLTStd-Lt'" font-size="5.4">a</text>
				</g>
				<g clip-path="url(#SVGID_48_)">
					<text transform="matrix(-6.123234e-017 -1 1.1111 -6.803593e-017 -19.9858 83.6367)"><tspan x="0" y="0" fill="#1D1D1B" font-family="'HelveticaNeueLTStd-Lt'" font-size="5.4">u</tspan><tspan x="3.062" y="0" fill="#1D1D1B" font-family="'HelveticaNeueLTStd-Lt'" font-size="5.4">d</tspan></text>
				</g>
				<g clip-path="url(#SVGID_48_)">
					<text transform="matrix(-6.123234e-017 -1 1.1111 -6.803593e-017 -19.9858 77.3125)"><tspan x="0" y="0" fill="#1D1D1B" font-family="'HelveticaNeueLTStd-Lt'" font-size="5.4">a</tspan><tspan x="2.954" y="0" fill="#1D1D1B" font-family="'HelveticaNeueLTStd-Lt'" font-size="5.4">c</tspan><tspan x="5.913" y="0" fill="#1D1D1B" font-family="'HelveticaNeueLTStd-Lt'" font-size="5.4">o</tspan></text>
				</g>
				<g clip-path="url(#SVGID_48_)">
					<text transform="matrix(-6.123234e-017 -1 1.1111 -6.803593e-017 -19.9858 68.2363)"><tspan x="0" y="0" fill="#1D1D1B" font-family="'HelveticaNeueLTStd-Lt'" font-size="5.4">t</tspan><tspan x="1.761" y="0" fill="#1D1D1B" font-family="'HelveticaNeueLTStd-Lt'" font-size="5.4">e.</tspan><tspan x="6.378" y="0" fill="#1D1D1B" font-family="'HelveticaNeueLTStd-Lt'" font-size="5.4">f</tspan></text>
				</g>
				<g clip-path="url(#SVGID_48_)">
					
						<text transform="matrix(-6.123234e-017 -1 1.1111 -6.803593e-017 -19.9858 60.2871)" fill="#1D1D1B" font-family="'HelveticaNeueLTStd-Lt'" font-size="5.4">r</text>
				</g>
			</g>
		</g>
	</g>
</g>
</svg>
