<?xml version="1.0" encoding="utf-8"?>
<!-- Generator: Adobe Illustrator 15.1.0, SVG Export Plug-In . SVG Version: 6.00 Build 0)  -->
<!DOCTYPE svg PUBLIC "-//W3C//DTD SVG 1.1//EN" "http://www.w3.org/Graphics/SVG/1.1/DTD/svg11.dtd">
<svg version="1.1" id="Calque_1" xmlns="http://www.w3.org/2000/svg" xmlns:xlink="http://www.w3.org/1999/xlink" x="0px" y="0px"
	 width="130.394px" height="130.394px" viewBox="0 0 130.394 130.394" enable-background="new 0 0 130.394 130.394"
	 xml:space="preserve">
<g>
	<defs>
		<rect id="SVGID_1_" width="130.394" height="130.394"/>
	</defs>
	<clipPath id="SVGID_2_">
		<use xlink:href="#SVGID_1_"  overflow="visible"/>
	</clipPath>
	<path clip-path="url(#SVGID_2_)" fill="#008BCD" d="M65.197,130.394c36.006,0,65.197-29.19,65.197-65.197
		C130.395,29.19,101.203,0,65.197,0C29.19,0,0,29.19,0,65.197C0,101.204,29.19,130.394,65.197,130.394"/>
	<path clip-path="url(#SVGID_2_)" fill="#FFFFFF" d="M111.236,42.755c0,0-0.178,22.077-16.274,40.12
		C94.962,82.875,111.771,68.752,111.236,42.755"/>
	<path clip-path="url(#SVGID_2_)" fill="#FFFFFF" d="M111.6,53.612c0,0-0.022,10.401,12.595,29.05
		C124.194,82.662,111.72,69.736,111.6,53.612"/>
	<path clip-path="url(#SVGID_2_)" fill="#FFFFFF" d="M107.207,79.864c5.709-2.978,10.07,1.872,10.849,2.939
		c-2.177-3.496-6.479-6.664-11.062-3.508C107.232,79.833,107.186,79.829,107.207,79.864"/>
	<path clip-path="url(#SVGID_2_)" fill="#FFFFFF" d="M108.103,76.342c1.653-0.308,2.918-1.005,4.022-1.856
		c0.82,0.242,1.445-0.705,2.258-0.471c0.121,1.43-1.549,1.459-1.393,2.687c0.785-0.243,2.35-2.108,2.159-2.996
		c-0.199-0.917-1.437-0.484-2.144-0.985l-0.218-0.074c-0.245-1.832-1.52-2.474-1.724-4.354c0.607,0.396,1.306,0.689,1.732,1.295
		c1.285-0.498,0.457-1.086-0.125-1.836c-0.642-0.828-1.063-1.35-1.502-2.136c-0.293-0.051-0.095,0.38-0.255,0.46
		c-0.172-0.104-0.195-0.381-0.389-0.458c-0.005,0.479-0.001,0.52,0.065,0.995c-0.31,0.375-0.883,0.694-1.138,1.154
		c-0.698,1.236-0.231,3.36-0.981,4.519c-0.83,1.278-2.424,1.119-3.492,2.311c-3.585-1.329-1.78,4.433-3.862,5.302
		c0.152,0.041,0.463-0.1,0.507,0.07c-0.016,0.226-0.638,0.517-0.317,0.614c0.61-0.105,1.171-0.646,1.521-0.771
		c-0.054,0.278-0.293,0.376-0.387,0.612c0.93-0.491,1.69-0.711,1.722-1.995c0.04-1.404-1.143-3.453,0.699-3.446
		c-0.163,1.386,0.88,2.29,0.731,3.438c-0.04,0.324-0.393,0.573-0.365,0.92c0.059,0.716,0.975,1.082,1.401,1.677
		c0.347,0.48,0.565,0.955,0.744,1.523c0.238-0.048,0.672,0.097,0.784-0.079c-0.17-0.182-0.334-0.329-0.467-0.535
		c-0.283-0.438-1.449-2.048-1.456-2.517c-0.008-0.464,0.766-1.317,1.023-1.764c0.262-0.452,0.393-0.836,0.563-1.247L108.103,76.342z
		"/>
	<path clip-path="url(#SVGID_2_)" fill="#FFFFFF" d="M105.707,80.782l-0.459-0.396c-0.942,0.685-2.032,1.703-2.807,2.528
		C102.441,82.915,104.712,81.297,105.707,80.782"/>
	<path clip-path="url(#SVGID_2_)" fill="#FFFFFF" d="M32.496,108.27v-0.704c0.137-0.62,0.75-1.188,1.461-1.809
		c0.355-0.311,0.742-0.696,0.742-1.211c0-0.462-0.303-0.848-0.886-0.848c-0.469,0-0.795,0.342-0.923,0.484l-0.56-0.742
		c0.515-0.446,0.991-0.658,1.71-0.658c0.938,0,1.824,0.545,1.824,1.635c0,0.916-0.583,1.348-1.226,1.93
		c-0.272,0.25-0.81,0.72-0.878,1.029h2.203v0.894H32.496z"/>
	<path clip-path="url(#SVGID_2_)" fill="#FFFFFF" d="M38.585,108.399c-1.46,0-1.983-1.015-1.983-2.43
		c0-1.854,0.87-3.187,2.581-3.187c0.303,0,0.575,0.038,0.802,0.091l-0.166,0.907c-0.144-0.06-0.424-0.127-0.735-0.127
		c-0.749,0-1.293,0.598-1.37,1.672c0.182-0.158,0.531-0.363,1.106-0.363c0.885,0,1.596,0.583,1.596,1.582
		C40.417,107.612,39.706,108.399,38.585,108.399 M38.479,105.802c-0.341,0-0.613,0.129-0.719,0.296
		c-0.06,0.091-0.06,0.303-0.06,0.462c0,0.507,0.295,0.998,0.84,0.998c0.529,0,0.802-0.431,0.802-0.893
		C39.342,106.166,39.009,105.802,38.479,105.802"/>
	<path clip-path="url(#SVGID_2_)" fill="#FFFFFF" d="M46.814,108.27l-1.922-2.656c-0.273-0.371-0.417-0.696-0.462-0.817h-0.015
		v3.474h-1.098v-5.343H44.4l1.892,2.754c0.288,0.417,0.461,0.727,0.492,0.855h0.015v-3.609h1.09v5.343H46.814z"/>
	<path clip-path="url(#SVGID_2_)" fill="#FFFFFF" d="M51.29,108.414c-1.332,0-2.482-0.719-2.482-2.822
		c0-2.082,1.354-2.823,2.497-2.823c1.332,0,2.483,0.719,2.483,2.823C53.788,107.672,52.433,108.414,51.29,108.414 M51.298,103.729
		c-0.977,0-1.271,0.862-1.271,1.862c0,0.998,0.31,1.861,1.271,1.861c0.976,0,1.271-0.863,1.271-1.861
		C52.569,104.591,52.259,103.729,51.298,103.729"/>
	<path clip-path="url(#SVGID_2_)" fill="#FFFFFF" d="M57.151,108.278H55.91l-1.892-5.351h1.263l0.962,2.912
		c0.181,0.562,0.272,0.985,0.31,1.189h0.015c0.038-0.204,0.122-0.59,0.311-1.173l0.968-2.929h1.188L57.151,108.278z"/>
	<path clip-path="url(#SVGID_2_)" fill="#FFFFFF" d="M59.184,108.316c-0.394,0-0.644-0.258-0.644-0.604
		c0-0.35,0.25-0.606,0.644-0.606s0.636,0.257,0.636,0.606C59.82,108.058,59.578,108.316,59.184,108.316"/>
	<path clip-path="url(#SVGID_2_)" fill="#FFFFFF" d="M65.825,108.27l-0.333-1.015h-1.975l-0.333,1.015h-1.166l1.892-5.351h1.279
		l1.898,5.351H65.825z M64.75,104.97c-0.113-0.341-0.204-0.779-0.227-0.977h-0.015c-0.023,0.197-0.129,0.636-0.242,0.977l-0.454,1.4
		h1.392L64.75,104.97z"/>
	<path clip-path="url(#SVGID_2_)" fill="#FFFFFF" d="M69.982,108.399c-1.559,0-2.309-0.72-2.309-2.157v-3.314h1.182v3.276
		c0,0.704,0.312,1.233,1.15,1.233c0.832,0,1.12-0.529,1.12-1.233v-3.276h1.15v3.314C72.276,107.679,71.564,108.399,69.982,108.399"
		/>
	<path clip-path="url(#SVGID_2_)" fill="#FFFFFF" d="M78.483,107.158v1.112h-1.06v-1.112h-2.407v-0.992l2.073-3.237h1.394v3.396
		h0.628v0.833H78.483z M77.424,103.865h-0.016c-0.022,0.092-0.173,0.417-0.386,0.75l-1.09,1.71h1.491V103.865z"/>
	<path clip-path="url(#SVGID_2_)" fill="#FFFFFF" d="M83.412,108.27h-1.506v-5.343h1.559c1.021,0,3.239,0.037,3.239,2.55
		C86.704,107.816,85.047,108.27,83.412,108.27 M83.631,103.858h-0.545v3.489h0.584c1.029,0,1.816-0.395,1.816-1.794
		C85.486,104.054,84.358,103.858,83.631,103.858"/>
	<path clip-path="url(#SVGID_2_)" fill="#FFFFFF" d="M87.624,108.27v-5.343h3.306v0.961h-2.127v1.097h2.051v0.924h-2.051v1.4h2.241
		v0.961H87.624z M89.614,102.631h-0.818l0.847-1.173h1.211L89.614,102.631z"/>
	<path clip-path="url(#SVGID_2_)" fill="#FFFFFF" d="M94.432,108.399c-1.629,0-2.649-1.166-2.649-2.74
		c0-1.491,0.854-2.876,2.649-2.876c0.658,0,1.144,0.138,1.527,0.311l-0.384,0.977c-0.35-0.189-0.735-0.288-1.077-0.288
		c-1.111,0-1.49,0.999-1.49,1.847c0,1.113,0.735,1.771,1.574,1.771c0.424,0,0.803-0.129,1.067-0.288l0.317,0.916
		C95.581,108.224,94.953,108.399,94.432,108.399"/>
	<path clip-path="url(#SVGID_2_)" fill="#FFFFFF" d="M97.311,108.316c-0.395,0-0.645-0.258-0.645-0.604
		c0-0.35,0.25-0.606,0.645-0.606c0.394,0,0.636,0.257,0.636,0.606C97.946,108.058,97.704,108.316,97.311,108.316"/>
	<polygon clip-path="url(#SVGID_2_)" fill="#FFFFFF" points="18.398,54.291 18.398,65.234 15.843,65.234 15.843,49.252 
		18.377,49.252 27.858,59.961 27.858,49.252 30.414,49.252 30.414,65.234 28.132,65.234 	"/>
	<rect x="10.951" y="49.252" clip-path="url(#SVGID_2_)" fill="#FFFFFF" width="2.809" height="15.983"/>
	<path clip-path="url(#SVGID_2_)" fill="#FFFFFF" d="M57.575,51.854c-1.518,0-2.78,0.439-3.787,1.315
		c-1.203,1.04-1.804,2.398-1.804,4.073c0,1.673,0.601,3.024,1.804,4.05c1.007,0.876,2.276,1.313,3.809,1.313
		c1.518,0,2.78-0.437,3.786-1.313c0.602-0.512,1.061-1.146,1.377-1.901c0.284-0.68,0.427-1.373,0.427-2.081
		c0-1.75-0.601-3.131-1.804-4.141C60.362,52.308,59.093,51.872,57.575,51.854 M57.552,49.252c2.644,0,4.734,0.726,6.267,2.174
		c1.622,1.524,2.434,3.493,2.434,5.907c0,1.477-0.392,2.857-1.172,4.14c-1.519,2.505-4.02,3.755-7.506,3.755
		c-2.616,0-4.689-0.724-6.222-2.172c-0.811-0.784-1.436-1.719-1.871-2.805c-0.376-0.951-0.564-1.954-0.564-3.009
		c0-1.554,0.392-2.974,1.173-4.255C51.548,50.543,54.036,49.298,57.552,49.252"/>
	<path clip-path="url(#SVGID_2_)" fill="#FFFFFF" d="M76.416,51.854c-1.517,0-2.779,0.439-3.787,1.315
		c-1.203,1.04-1.803,2.398-1.803,4.073c0,1.673,0.6,3.024,1.803,4.05c1.008,0.876,2.277,1.313,3.811,1.313
		c1.518,0,2.779-0.437,3.785-1.313c0.603-0.512,1.062-1.146,1.378-1.901c0.282-0.68,0.427-1.373,0.427-2.081
		c0-1.75-0.602-3.131-1.805-4.141C79.204,52.308,77.935,51.872,76.416,51.854 M76.394,49.252c2.645,0,4.733,0.726,6.268,2.174
		c1.622,1.524,2.433,3.493,2.433,5.907c0,1.477-0.39,2.857-1.172,4.14c-1.518,2.505-4.019,3.755-7.506,3.755
		c-2.615,0-4.688-0.724-6.221-2.172c-0.813-0.784-1.438-1.719-1.871-2.805c-0.376-0.951-0.564-1.954-0.564-3.009
		c0-1.554,0.393-2.974,1.172-4.255C70.389,50.543,72.877,49.298,76.394,49.252"/>
	<path clip-path="url(#SVGID_2_)" fill="#FFFFFF" d="M35.328,62.607h4.116c1.295,0,2.273-0.195,2.936-0.586
		c1.406-0.812,2.11-2.405,2.11-4.779c0-1.719-0.379-3.039-1.14-3.961c-0.422-0.5-0.937-0.858-1.541-1.076
		c-0.605-0.219-1.393-0.329-2.365-0.329h-4.116V62.607z M32.52,49.252h7.199c1.731,0,3.062,0.218,3.99,0.655
		c1.309,0.656,2.28,1.726,2.913,3.211c0.494,1.171,0.74,2.545,0.74,4.124c0,2.749-0.74,4.85-2.217,6.302
		c-0.633,0.61-1.369,1.042-2.206,1.3c-0.837,0.259-1.911,0.387-3.22,0.387H32.52V49.252z"/>
	<path clip-path="url(#SVGID_2_)" fill="#FFFFFF" d="M89.989,56.074h5.026c0.731,0,1.248-0.024,1.551-0.072
		c0.303-0.047,0.595-0.139,0.875-0.281c0.593-0.327,0.889-0.905,0.889-1.733c0-0.844-0.296-1.421-0.889-1.736
		c-0.267-0.156-0.551-0.257-0.854-0.302c-0.302-0.048-0.828-0.072-1.572-0.072h-5.026V56.074z M89.989,58.721v6.516h-2.81V49.252
		h8.172c1.084,0,1.943,0.072,2.576,0.212c0.635,0.14,1.182,0.383,1.648,0.725c0.52,0.407,0.915,0.963,1.183,1.665
		c0.239,0.674,0.358,1.392,0.358,2.156c0,2.609-1.346,4.133-4.033,4.57l4.117,6.657h-3.061l-4.056-6.516H89.989z"/>
	<path clip-path="url(#SVGID_2_)" fill="#FFFFFF" d="M12.458,77.381h1.857c0.828,0,1.44-0.185,1.832-0.561
		c0.393-0.386,0.592-0.94,0.592-1.661c0-0.713-0.199-1.264-0.592-1.651c-0.204-0.198-0.454-0.343-0.744-0.428
		c-0.29-0.088-0.653-0.132-1.088-0.132h-1.857V77.381z M11.008,71.68h3.542c0.827,0,1.478,0.107,1.954,0.322
		c0.655,0.3,1.128,0.792,1.414,1.479c0.205,0.482,0.308,1.04,0.308,1.678c0,1.192-0.34,2.092-1.021,2.707
		c-0.303,0.275-0.665,0.47-1.082,0.591c-0.418,0.119-0.943,0.179-1.573,0.179h-3.542V71.68z"/>
	<polygon clip-path="url(#SVGID_2_)" fill="#FFFFFF" points="20.887,75.68 20.887,77.381 25.88,77.381 25.88,78.636 19.436,78.636 
		19.436,71.68 25.694,71.68 25.694,72.949 20.887,72.949 20.887,74.476 24.107,74.476 24.107,75.68 	"/>
	<path clip-path="url(#SVGID_2_)" fill="#FFFFFF" d="M52.607,76.687l-2.335-4.042l-2.222,4.042H52.607z M53.319,78.444h-5.942
		l-1.423,3.142h-2.442L49.47,69h2.005l6.227,12.585h-2.626L53.319,78.444z"/>
	<path clip-path="url(#SVGID_2_)" fill="#FFFFFF" d="M61.969,74.158h4.675c0.71,0,1.236-0.071,1.579-0.224
		c0.532-0.212,0.803-0.614,0.803-1.214c0-0.527-0.188-0.891-0.56-1.098c-0.372-0.21-0.979-0.316-1.822-0.316h-4.675V74.158z
		 M61.969,76.433v5.164h-2.623V69.012h7.274c1.037,0,1.827,0.059,2.37,0.17c0.538,0.112,1.025,0.306,1.454,0.596
		c0.832,0.584,1.244,1.549,1.244,2.899c0,1.015-0.253,1.815-0.777,2.376c-0.519,0.572-1.464,0.984-2.847,1.244l3.649,5.3h-2.959
		l-3.538-5.164H61.969z"/>
	<rect x="74.53" y="69.012" clip-path="url(#SVGID_2_)" fill="#FFFFFF" width="2.623" height="12.585"/>
	<path clip-path="url(#SVGID_2_)" fill="#FFFFFF" d="M90.927,70.633l-1.108,1.885c-0.609-0.495-1.334-0.867-2.186-1.105
		c-0.842-0.255-1.691-0.372-2.555-0.372c-0.74,0-1.401,0.101-1.979,0.311c-0.877,0.284-1.315,0.701-1.315,1.257
		c0,0.38,0.212,0.636,0.649,0.789c0.426,0.147,1.2,0.267,2.312,0.359l1.76,0.13c1.528,0.125,2.675,0.426,3.444,0.901
		c0.415,0.266,0.757,0.633,1.027,1.079c0.354,0.571,0.532,1.21,0.532,1.917c0,1.267-0.538,2.279-1.62,3.029
		c-1.07,0.701-2.518,1.056-4.343,1.056c-1.928,0.048-3.879-0.494-5.853-1.621l0.804-1.888c0.604,0.361,1.372,0.653,2.291,0.891
		c0.92,0.23,1.829,0.348,2.739,0.348c0.797,0,1.522-0.105,2.176-0.318c0.845-0.253,1.271-0.665,1.271-1.23
		c0-0.466-0.304-0.79-0.914-0.968c-0.367-0.117-1.031-0.218-1.981-0.295l-1.735-0.154c-0.947-0.075-1.666-0.17-2.146-0.292
		c-0.482-0.12-0.902-0.29-1.256-0.514c-0.445-0.301-0.795-0.714-1.044-1.228c-0.256-0.519-0.379-1.085-0.379-1.694
		c0-1.381,0.554-2.437,1.668-3.175c1.035-0.658,2.326-0.988,3.867-0.988c0.851,0,1.727,0.122,2.639,0.363
		C88.601,69.341,89.683,69.854,90.927,70.633"/>
	<path clip-path="url(#SVGID_2_)" fill="#FFFFFF" d="M34.397,74.158h4.425c0.8,0,1.372-0.071,1.712-0.224
		c0.505-0.226,0.758-0.624,0.758-1.214c0-0.585-0.261-0.979-0.779-1.191c-0.311-0.148-0.877-0.223-1.691-0.223h-4.425V74.158z
		 M34.397,76.433v5.164h-2.629V69.012h7.23c1.573,0,2.753,0.247,3.54,0.742c0.441,0.284,0.792,0.69,1.045,1.214
		c0.252,0.523,0.377,1.108,0.377,1.752c0,1.259-0.404,2.192-1.209,2.798c-0.808,0.609-2.066,0.915-3.753,0.915H34.397z"/>
	<path clip-path="url(#SVGID_2_)" fill="#FFFFFF" d="M21.575,87.155c-0.385,0-0.704,0.124-0.956,0.369
		c-0.226,0.228-0.338,0.513-0.338,0.855c0,0.341,0.112,0.625,0.338,0.854c0.252,0.244,0.572,0.367,0.963,0.367
		c0.386,0,0.704-0.123,0.956-0.367c0.225-0.224,0.338-0.504,0.338-0.837c0-0.362-0.113-0.652-0.338-0.873
		C22.286,87.284,21.965,87.162,21.575,87.155 M21.575,86.459c0.564,0,1.035,0.149,1.413,0.448c0.45,0.358,0.676,0.859,0.676,1.505
		c0,0.599-0.226,1.08-0.676,1.438c-0.375,0.296-0.843,0.447-1.406,0.447c-0.568,0-1.039-0.151-1.412-0.447
		c-0.451-0.358-0.676-0.851-0.676-1.472c0-0.628,0.225-1.117,0.676-1.472C20.547,86.618,21.015,86.469,21.575,86.459"/>
	<path clip-path="url(#SVGID_2_)" fill="#FFFFFF" d="M16,88.001h1.366c0.209,0,0.362-0.021,0.462-0.066
		c0.157-0.062,0.235-0.179,0.235-0.354c0-0.154-0.055-0.26-0.163-0.321c-0.108-0.061-0.287-0.092-0.534-0.092H16V88.001z M16,88.667
		v1.51h-0.768v-3.68h2.127c0.305,0,0.535,0.017,0.694,0.05c0.157,0.032,0.3,0.089,0.426,0.174c0.243,0.171,0.364,0.453,0.364,0.849
		c0,0.297-0.075,0.53-0.228,0.693c-0.152,0.168-0.429,0.288-0.832,0.364l1.066,1.55h-0.864l-1.034-1.51H16z"/>
	<path clip-path="url(#SVGID_2_)" fill="#FFFFFF" d="M27.514,87.012l-0.324,0.551c-0.178-0.145-0.39-0.253-0.639-0.321
		c-0.246-0.076-0.495-0.11-0.747-0.11c-0.217,0-0.41,0.029-0.579,0.091c-0.256,0.083-0.385,0.205-0.385,0.368
		c0,0.11,0.063,0.186,0.19,0.23c0.124,0.043,0.351,0.078,0.676,0.104l0.515,0.038c0.447,0.037,0.782,0.125,1.007,0.264
		c0.121,0.077,0.221,0.186,0.3,0.316c0.104,0.167,0.156,0.353,0.156,0.56c0,0.37-0.158,0.667-0.474,0.888
		c-0.313,0.204-0.736,0.307-1.27,0.307c-0.563,0.014-1.134-0.144-1.711-0.473l0.235-0.553c0.177,0.105,0.401,0.191,0.67,0.262
		c0.269,0.065,0.535,0.101,0.801,0.101c0.233,0,0.445-0.031,0.636-0.094c0.247-0.073,0.372-0.194,0.372-0.36
		c0-0.136-0.089-0.229-0.268-0.283c-0.107-0.033-0.301-0.063-0.579-0.086l-0.507-0.045c-0.278-0.021-0.487-0.049-0.627-0.085
		c-0.142-0.035-0.265-0.085-0.368-0.148c-0.13-0.089-0.232-0.209-0.305-0.36c-0.075-0.152-0.111-0.317-0.111-0.496
		c0-0.404,0.162-0.712,0.488-0.928c0.303-0.193,0.68-0.289,1.13-0.289c0.249,0,0.506,0.035,0.772,0.106
		C26.833,86.634,27.15,86.785,27.514,87.012"/>
	<path clip-path="url(#SVGID_2_)" fill="#FFFFFF" d="M11.708,88.006h1.294c0.234,0,0.401-0.022,0.501-0.066
		c0.147-0.065,0.221-0.182,0.221-0.354c0-0.171-0.076-0.286-0.228-0.348c-0.091-0.046-0.256-0.065-0.494-0.065h-1.294V88.006z
		 M11.708,88.671v1.51h-0.769v-3.68h2.114c0.46,0,0.806,0.072,1.036,0.217c0.129,0.083,0.231,0.202,0.305,0.355
		c0.074,0.152,0.11,0.323,0.11,0.512c0,0.368-0.118,0.641-0.353,0.819c-0.237,0.178-0.604,0.267-1.098,0.267H11.708z"/>
	<path clip-path="url(#SVGID_2_)" fill="#FFFFFF" d="M99.386,87.155c-0.386,0-0.703,0.124-0.955,0.369
		c-0.228,0.228-0.338,0.513-0.338,0.855c0,0.341,0.11,0.625,0.338,0.854c0.252,0.244,0.571,0.367,0.963,0.367
		c0.386,0,0.703-0.123,0.956-0.367c0.224-0.224,0.338-0.504,0.338-0.837c0-0.362-0.114-0.652-0.338-0.873
		C100.097,87.284,99.776,87.162,99.386,87.155 M99.386,86.459c0.563,0,1.034,0.149,1.413,0.448c0.449,0.358,0.677,0.859,0.677,1.505
		c0,0.599-0.228,1.08-0.677,1.438c-0.375,0.296-0.844,0.447-1.405,0.447c-0.569,0-1.039-0.151-1.412-0.447
		c-0.451-0.358-0.676-0.851-0.676-1.472c0-0.628,0.225-1.117,0.676-1.472C98.358,86.618,98.825,86.469,99.386,86.459"/>
	<polygon clip-path="url(#SVGID_2_)" fill="#FFFFFF" points="103.04,87.753 103.04,90.176 102.35,90.176 102.35,86.497 
		103.024,86.497 105.451,88.863 105.451,86.497 106.143,86.497 106.143,90.176 105.537,90.176 	"/>
	<path clip-path="url(#SVGID_2_)" fill="#FFFFFF" d="M118.623,87.004l-0.319,0.545c-0.175-0.144-0.385-0.25-0.63-0.319
		c-0.243-0.074-0.488-0.108-0.737-0.108c-0.213,0-0.405,0.029-0.571,0.09c-0.254,0.082-0.379,0.202-0.379,0.363
		c0,0.108,0.062,0.184,0.188,0.228c0.123,0.043,0.346,0.076,0.667,0.104l0.507,0.037c0.439,0.036,0.771,0.124,0.994,0.26
		c0.119,0.077,0.218,0.184,0.296,0.313c0.103,0.164,0.153,0.348,0.153,0.553c0,0.365-0.155,0.657-0.469,0.874
		c-0.308,0.202-0.725,0.303-1.252,0.303c-0.555,0.015-1.119-0.142-1.688-0.467l0.232-0.544c0.174,0.104,0.396,0.188,0.66,0.257
		c0.266,0.066,0.528,0.101,0.789,0.101c0.231,0,0.441-0.031,0.629-0.093c0.244-0.072,0.367-0.191,0.367-0.354
		c0-0.134-0.088-0.229-0.264-0.279c-0.107-0.034-0.299-0.063-0.571-0.085l-0.501-0.045c-0.275-0.021-0.482-0.049-0.619-0.084
		c-0.139-0.034-0.26-0.083-0.363-0.148c-0.127-0.087-0.228-0.206-0.301-0.353c-0.074-0.151-0.107-0.314-0.107-0.49
		c0-0.397,0.158-0.702,0.479-0.915c0.299-0.19,0.672-0.286,1.117-0.286c0.245,0,0.498,0.036,0.76,0.105
		C117.951,86.632,118.265,86.78,118.623,87.004"/>
	<polygon clip-path="url(#SVGID_2_)" fill="#FFFFFF" points="107.811,88.613 107.811,89.513 110.453,89.513 110.453,90.175 
		107.043,90.175 107.043,86.497 110.354,86.497 110.354,87.167 107.811,87.167 107.811,87.976 109.514,87.976 109.514,88.613 	"/>
	<path clip-path="url(#SVGID_2_)" fill="#FFFFFF" d="M93.777,87.982h1.296c0.232,0,0.399-0.022,0.5-0.066
		c0.146-0.065,0.222-0.182,0.222-0.354c0-0.171-0.077-0.286-0.229-0.349c-0.092-0.045-0.256-0.064-0.493-0.064h-1.296V87.982z
		 M93.777,88.647v1.51h-0.769v-3.68h2.115c0.46,0,0.805,0.071,1.035,0.217c0.13,0.083,0.231,0.202,0.306,0.354
		c0.074,0.153,0.11,0.324,0.11,0.513c0,0.368-0.118,0.641-0.354,0.818c-0.236,0.179-0.603,0.268-1.097,0.268H93.777z"/>
	<polygon clip-path="url(#SVGID_2_)" fill="#FFFFFF" points="114.019,86.459 112.942,87.899 112.928,87.899 111.846,86.459 
		110.908,86.459 112.521,88.533 112.521,90.176 113.343,90.176 113.343,88.533 114.971,86.459 	"/>
	<polygon clip-path="url(#SVGID_2_)" fill="#FFFFFF" points="90.511,89.768 90.343,91.109 90.777,91.109 91.147,89.768 	"/>
	<polygon clip-path="url(#SVGID_2_)" fill="#FFFFFF" points="74.223,89.475 76.592,89.475 76.592,90.139 73.455,90.139 
		73.455,86.459 74.223,86.459 	"/>
	<path clip-path="url(#SVGID_2_)" fill="#FFFFFF" d="M82.477,89.475h1.404c0.474,0,0.709-0.161,0.709-0.486
		c0-0.319-0.235-0.479-0.709-0.479h-1.404V89.475z M82.477,87.839h1.372c0.217,0,0.376-0.025,0.474-0.079
		c0.101-0.051,0.151-0.145,0.151-0.276c0-0.13-0.048-0.223-0.147-0.274c-0.097-0.054-0.255-0.079-0.478-0.079h-1.372V87.839z
		 M84.676,88.163c0.238,0.083,0.396,0.167,0.476,0.25c0.15,0.155,0.227,0.368,0.227,0.636c0,0.357-0.128,0.64-0.384,0.834
		c-0.229,0.173-0.548,0.257-0.957,0.257h-2.33v-3.68h2.291c0.435,0,0.75,0.081,0.949,0.245c0.209,0.17,0.314,0.402,0.314,0.7
		c0,0.177-0.036,0.32-0.108,0.433C85.082,87.948,84.922,88.058,84.676,88.163"/>
	<path clip-path="url(#SVGID_2_)" fill="#FFFFFF" d="M89.231,87.004l-0.32,0.545c-0.174-0.144-0.385-0.25-0.629-0.319
		c-0.244-0.074-0.488-0.108-0.738-0.108c-0.213,0-0.404,0.029-0.571,0.09c-0.253,0.082-0.379,0.202-0.379,0.363
		c0,0.108,0.062,0.184,0.188,0.228c0.123,0.043,0.345,0.076,0.666,0.104l0.508,0.037c0.441,0.036,0.771,0.124,0.994,0.26
		c0.119,0.077,0.218,0.184,0.295,0.313c0.103,0.164,0.154,0.348,0.154,0.553c0,0.365-0.156,0.657-0.469,0.874
		c-0.309,0.202-0.725,0.303-1.252,0.303c-0.555,0.015-1.119-0.142-1.688-0.467l0.231-0.544c0.175,0.104,0.396,0.188,0.661,0.257
		c0.266,0.066,0.527,0.101,0.789,0.101c0.23,0,0.441-0.031,0.628-0.093c0.244-0.072,0.368-0.191,0.368-0.354
		c0-0.134-0.088-0.229-0.264-0.279c-0.107-0.034-0.299-0.063-0.571-0.085l-0.501-0.045c-0.275-0.021-0.482-0.049-0.62-0.084
		c-0.138-0.034-0.259-0.083-0.362-0.148c-0.128-0.087-0.229-0.206-0.302-0.353c-0.073-0.151-0.106-0.314-0.106-0.49
		c0-0.397,0.157-0.702,0.479-0.915c0.299-0.19,0.671-0.286,1.117-0.286c0.244,0,0.498,0.036,0.76,0.105
		C88.56,86.632,88.872,86.78,89.231,87.004"/>
	<path clip-path="url(#SVGID_2_)" fill="#FFFFFF" d="M72.363,89.096l0.261,0.578c-0.285,0.216-0.592,0.377-0.919,0.49
		c-0.329,0.112-0.639,0.167-0.929,0.167c-0.582,0-1.058-0.143-1.425-0.428c-0.209-0.167-0.373-0.372-0.494-0.617
		c-0.131-0.267-0.195-0.56-0.195-0.873c0-0.43,0.12-0.811,0.357-1.145c0.383-0.517,0.965-0.777,1.748-0.777
		c0.293,0,0.586,0.052,0.884,0.156c0.297,0.104,0.622,0.298,0.973,0.581l-0.307,0.524c-0.162-0.158-0.366-0.295-0.606-0.402
		c-0.242-0.106-0.507-0.161-0.798-0.161c-0.408,0-0.744,0.105-1.008,0.316c-0.306,0.235-0.456,0.537-0.456,0.907
		s0.15,0.677,0.456,0.912c0.268,0.211,0.604,0.316,1.008,0.316C71.451,89.593,71.934,89.412,72.363,89.096"/>
	<path clip-path="url(#SVGID_2_)" fill="#FFFFFF" d="M78.995,90.266c1.128,0,1.809-0.614,1.809-1.59v-2.217h-0.771v2.169
		c0,0.646-0.434,1.034-1.038,1.034c-0.648,0-1.03-0.436-1.03-1.034v-2.169h-0.764v2.217C77.201,89.689,77.927,90.266,78.995,90.266"
		/>
	<polygon clip-path="url(#SVGID_2_)" fill="#FFFFFF" points="66.275,89.768 66.106,91.109 66.54,91.109 66.91,89.768 	"/>
	<polygon clip-path="url(#SVGID_2_)" fill="#FFFFFF" points="28.806,89.768 28.636,91.109 29.071,91.109 29.441,89.768 	"/>
	<path clip-path="url(#SVGID_2_)" fill="#FFFFFF" d="M58.113,88.001h1.366c0.209,0,0.362-0.021,0.462-0.066
		c0.157-0.062,0.235-0.179,0.235-0.354c0-0.154-0.055-0.26-0.163-0.321c-0.108-0.061-0.287-0.092-0.534-0.092h-1.366V88.001z
		 M58.113,88.667v1.51h-0.768v-3.68h2.127c0.305,0,0.535,0.017,0.694,0.05c0.157,0.032,0.3,0.089,0.426,0.174
		c0.243,0.171,0.364,0.453,0.364,0.849c0,0.297-0.075,0.53-0.228,0.693c-0.152,0.168-0.429,0.288-0.832,0.364l1.066,1.55h-0.864
		l-1.034-1.51H58.113z"/>
	<path clip-path="url(#SVGID_2_)" fill="#FFFFFF" d="M64.917,87.004l-0.32,0.545c-0.175-0.144-0.385-0.25-0.63-0.319
		c-0.243-0.074-0.488-0.108-0.737-0.108c-0.213,0-0.404,0.029-0.571,0.09c-0.253,0.082-0.379,0.202-0.379,0.363
		c0,0.108,0.061,0.184,0.187,0.228c0.123,0.043,0.346,0.076,0.667,0.104l0.507,0.037c0.441,0.036,0.772,0.124,0.994,0.26
		c0.119,0.077,0.218,0.184,0.296,0.313c0.103,0.164,0.154,0.348,0.154,0.553c0,0.365-0.156,0.657-0.468,0.874
		c-0.309,0.202-0.726,0.303-1.252,0.303c-0.556,0.015-1.119-0.142-1.689-0.467l0.233-0.544c0.174,0.104,0.395,0.188,0.661,0.257
		c0.265,0.066,0.527,0.101,0.789,0.101c0.23,0,0.44-0.031,0.628-0.093c0.244-0.072,0.367-0.191,0.367-0.354
		c0-0.134-0.088-0.229-0.264-0.279c-0.106-0.034-0.298-0.063-0.571-0.085l-0.501-0.045c-0.274-0.021-0.481-0.049-0.619-0.084
		c-0.139-0.034-0.26-0.083-0.362-0.148c-0.128-0.087-0.229-0.206-0.302-0.353c-0.073-0.151-0.108-0.314-0.108-0.49
		c0-0.397,0.159-0.702,0.48-0.915c0.299-0.19,0.671-0.286,1.116-0.286c0.245,0,0.498,0.036,0.761,0.105
		C64.247,86.632,64.559,86.78,64.917,87.004"/>
	<polygon clip-path="url(#SVGID_2_)" fill="#FFFFFF" points="49.717,88.576 49.717,89.476 52.359,89.476 52.359,90.138 
		48.949,90.138 48.949,86.459 52.26,86.459 52.26,87.129 49.717,87.129 49.717,87.939 51.421,87.939 51.421,88.576 	"/>
	<path clip-path="url(#SVGID_2_)" fill="#FFFFFF" d="M33.875,88.707l-0.684-1.182l-0.65,1.182H33.875z M34.082,89.221h-1.736
		l-0.417,0.919h-0.716l1.744-3.681h0.585l1.822,3.681h-0.767L34.082,89.221z"/>
	<path clip-path="url(#SVGID_2_)" fill="#FFFFFF" d="M43.896,88.707l-0.684-1.182l-0.65,1.182H43.896z M44.104,89.221h-1.736
		l-0.417,0.919h-0.716l1.744-3.681h0.585l1.822,3.681h-0.767L44.104,89.221z"/>
	<polygon clip-path="url(#SVGID_2_)" fill="#FFFFFF" points="38.26,90.017 36.88,87.709 36.88,90.127 36.191,90.127 36.191,86.448 
		36.991,86.448 38.331,88.602 39.671,86.448 40.484,86.448 40.484,90.127 39.716,90.127 39.716,87.709 	"/>
	<path clip-path="url(#SVGID_2_)" fill="#FFFFFF" d="M54.738,90.266c1.127,0,1.807-0.614,1.807-1.59v-2.217h-0.769v2.169
		c0,0.646-0.433,1.034-1.038,1.034c-0.649,0-1.031-0.436-1.031-1.034v-2.169h-0.763v2.217
		C52.944,89.689,53.669,90.266,54.738,90.266"/>
	<polygon clip-path="url(#SVGID_2_)" fill="#FFFFFF" points="46.275,90.176 47.035,90.176 47.035,87.025 48.316,87.025 
		48.316,86.459 45.012,86.459 45.012,87.025 46.275,87.025 	"/>
	<path clip-path="url(#SVGID_2_)" fill="#FFFFFF" d="M21.324,36.217c-1.936,0-3.151-1.387-3.151-3.259
		c0-1.774,1.017-3.422,3.151-3.422c0.783,0,1.359,0.162,1.818,0.369l-0.459,1.163c-0.414-0.226-0.873-0.343-1.278-0.343
		c-1.324,0-1.774,1.188-1.774,2.197c0,1.323,0.874,2.107,1.873,2.107c0.504,0,0.954-0.154,1.269-0.342l0.378,1.089
		C22.692,36.01,21.945,36.217,21.324,36.217"/>
	<path clip-path="url(#SVGID_2_)" fill="#FFFFFF" d="M26.795,36.235c-1.584,0-2.952-0.855-2.952-3.357
		c0-2.477,1.611-3.359,2.97-3.359c1.585,0,2.953,0.856,2.953,3.359C29.766,35.353,28.155,36.235,26.795,36.235 M26.804,30.663
		c-1.161,0-1.512,1.026-1.512,2.215c0,1.187,0.369,2.214,1.512,2.214c1.162,0,1.513-1.027,1.513-2.214
		C28.317,31.688,27.948,30.663,26.804,30.663"/>
	<path clip-path="url(#SVGID_2_)" fill="#FFFFFF" d="M35.022,36.064l-2.287-3.16c-0.324-0.442-0.495-0.828-0.549-0.972h-0.018v4.132
		h-1.305v-6.355h1.287l2.251,3.276c0.342,0.495,0.549,0.864,0.585,1.017h0.018v-4.293H36.3v6.355H35.022z"/>
	<path clip-path="url(#SVGID_2_)" fill="#FFFFFF" d="M40.548,36.217c-1.936,0-3.151-1.387-3.151-3.259
		c0-1.774,1.017-3.422,3.151-3.422c0.783,0,1.359,0.162,1.818,0.369l-0.459,1.163c-0.414-0.226-0.873-0.343-1.278-0.343
		c-1.324,0-1.774,1.188-1.774,2.197c0,1.323,0.874,2.107,1.873,2.107c0.504,0,0.954-0.154,1.269-0.342l0.378,1.089
		C41.916,36.01,41.169,36.217,40.548,36.217"/>
	<path clip-path="url(#SVGID_2_)" fill="#FFFFFF" d="M46.02,36.235c-1.584,0-2.953-0.855-2.953-3.357
		c0-2.477,1.612-3.359,2.971-3.359c1.585,0,2.953,0.856,2.953,3.359C48.99,35.353,47.379,36.235,46.02,36.235 M46.028,30.663
		c-1.161,0-1.512,1.026-1.512,2.215c0,1.187,0.369,2.214,1.512,2.214c1.162,0,1.513-1.027,1.513-2.214
		C47.542,31.688,47.172,30.663,46.028,30.663"/>
	<path clip-path="url(#SVGID_2_)" fill="#FFFFFF" d="M52.743,36.217c-1.854,0-2.746-0.855-2.746-2.566v-3.943h1.405v3.898
		c0,0.838,0.369,1.467,1.368,1.467c0.99,0,1.332-0.629,1.332-1.467v-3.898h1.369v3.943C55.471,35.362,54.624,36.217,52.743,36.217"
		/>
	<path clip-path="url(#SVGID_2_)" fill="#FFFFFF" d="M60.492,36.064l-1.27-2.161c-0.207-0.351-0.405-0.378-0.549-0.378h-0.414v2.539
		h-1.404v-6.356h2.061c0.927,0,2.737,0.063,2.737,1.827c0,1.063-0.828,1.539-1.386,1.63c0.26,0.459,1.341,2.07,1.926,2.899H60.492z
		 M58.943,30.797h-0.684v1.684h0.765c0.541,0,1.17-0.163,1.17-0.865C60.194,30.887,59.502,30.797,58.943,30.797"/>
	<path clip-path="url(#SVGID_2_)" fill="#FFFFFF" d="M64.425,36.217c-0.756,0-1.369-0.217-1.783-0.424l0.387-1.097
		c0.352,0.215,0.937,0.414,1.468,0.414c0.594,0,1.044-0.235,1.044-0.766c0-0.468-0.45-0.666-0.819-0.819l-0.468-0.198
		c-0.847-0.36-1.513-0.819-1.513-1.864c0-1.098,0.9-1.927,2.296-1.927c0.566,0,1.215,0.1,1.737,0.361l-0.414,1.071
		c-0.369-0.216-0.828-0.351-1.323-0.351c-0.738,0-0.927,0.423-0.927,0.703c0,0.44,0.441,0.629,0.801,0.792l0.468,0.207
		c0.819,0.36,1.54,0.81,1.54,1.827C66.919,35.658,65.729,36.217,64.425,36.217"/>
	<polygon clip-path="url(#SVGID_2_)" fill="#FFFFFF" points="74.614,36.064 74.614,33.264 71.984,33.264 71.984,36.064 
		70.581,36.064 70.581,29.709 71.984,29.709 71.984,32.129 74.614,32.129 74.614,29.709 76.018,29.709 76.018,36.064 	"/>
	<rect x="77.528" y="29.708" clip-path="url(#SVGID_2_)" fill="#FFFFFF" width="1.403" height="6.355"/>
	<path clip-path="url(#SVGID_2_)" fill="#FFFFFF" d="M82.497,33.832h-0.649v2.233h-1.403v-6.356h1.953
		c0.504,0,2.728-0.081,2.728,1.971C85.125,33.525,83.586,33.832,82.497,33.832 M82.479,30.797h-0.631v1.954h0.649
		c0.521,0,1.206-0.162,1.206-0.981C83.703,30.905,82.946,30.797,82.479,30.797"/>
	<path clip-path="url(#SVGID_2_)" fill="#FFFFFF" d="M88.185,33.832h-0.649v2.233h-1.403v-6.356h1.953
		c0.504,0,2.728-0.081,2.728,1.971C90.813,33.525,89.273,33.832,88.185,33.832 M88.166,30.797h-0.631v1.954h0.649
		c0.521,0,1.206-0.162,1.206-0.981C89.391,30.905,88.634,30.797,88.166,30.797"/>
	<rect x="91.856" y="29.708" clip-path="url(#SVGID_2_)" fill="#FFFFFF" width="1.403" height="6.355"/>
	<path clip-path="url(#SVGID_2_)" fill="#FFFFFF" d="M98.616,35.965c0.358,0.45,0.979,1.08,1.187,1.269l-1.403,0.253
		c-0.233-0.271-0.693-0.911-0.908-1.252h-0.146c-1.584,0-2.953-0.846-2.953-3.349c0-2.476,1.611-3.35,2.972-3.35
		c1.585,0,2.953,0.847,2.953,3.35C100.317,34.596,99.543,35.541,98.616,35.965 M97.355,30.68c-1.161,0-1.514,1.018-1.514,2.206
		c0,1.189,0.369,2.205,1.514,2.205c1.16,0,1.513-1.016,1.513-2.205C98.868,31.698,98.499,30.68,97.355,30.68"/>
	<path clip-path="url(#SVGID_2_)" fill="#FFFFFF" d="M104.07,36.217c-1.854,0-2.745-0.855-2.745-2.566v-3.943h1.403v3.898
		c0,0.838,0.369,1.467,1.368,1.467c0.991,0,1.333-0.629,1.333-1.467v-3.898h1.368v3.943
		C106.798,35.362,105.952,36.217,104.07,36.217"/>
	<polygon clip-path="url(#SVGID_2_)" fill="#FFFFFF" points="108.182,36.064 108.182,29.709 112.116,29.709 112.116,30.851 
		109.586,30.851 109.586,32.157 112.026,32.157 112.026,33.255 109.586,33.255 109.586,34.92 112.251,34.92 112.251,36.064 	"/>
</g>
</svg>
