<?xml version="1.0" encoding="utf-8"?>
<!-- Generator: Adobe Illustrator 15.1.0, SVG Export Plug-In . SVG Version: 6.00 Build 0)  -->
<!DOCTYPE svg PUBLIC "-//W3C//DTD SVG 1.1//EN" "http://www.w3.org/Graphics/SVG/1.1/DTD/svg11.dtd">
<svg version="1.1" id="Calque_1" xmlns="http://www.w3.org/2000/svg" xmlns:xlink="http://www.w3.org/1999/xlink" x="0px" y="0px"
	 width="92.379px" height="92.398px" viewBox="0 0 92.379 92.398" enable-background="new 0 0 92.379 92.398" xml:space="preserve">
<g>
	<defs>
		<rect id="SVGID_1_" x="-33.27" y="-445.364" width="240.323" height="763.985"/>
	</defs>
	<clipPath id="SVGID_2_">
		<use xlink:href="#SVGID_1_"  overflow="visible"/>
	</clipPath>
	<g clip-path="url(#SVGID_2_)">
		<defs>
			<rect id="SVGID_3_" x="-33.27" y="-445.364" width="240.323" height="763.985"/>
		</defs>
		<clipPath id="SVGID_4_">
			<use xlink:href="#SVGID_3_"  overflow="visible"/>
		</clipPath>
		<path clip-path="url(#SVGID_4_)" fill="#B10932" d="M96.219-223.696c61.213,0,110.834-49.622,110.834-110.834
			c0-61.211-49.621-110.833-110.834-110.833c-61.211,0-110.833,49.622-110.833,110.833
			C-14.614-273.318,35.008-223.696,96.219-223.696"/>
		<path clip-path="url(#SVGID_4_)" fill="#FFFFFF" d="M96.259-439.873c0,0-0.25,31.184-22.99,56.672
			C73.269-383.201,97.016-403.151,96.259-439.873"/>
		<path clip-path="url(#SVGID_4_)" fill="#FFFFFF" d="M96.773-424.536c0,0-0.034,14.692,17.79,41.031
			C114.563-383.504,96.946-401.765,96.773-424.536"/>
		<path clip-path="url(#SVGID_4_)" fill="#FFFFFF" d="M90.567-387.457c8.063-4.205,14.226,2.646,15.324,4.157
			c-3.073-4.943-9.15-9.416-15.624-4.958C90.603-387.499,90.538-387.504,90.567-387.457"/>
		<path clip-path="url(#SVGID_4_)" fill="#FFFFFF" d="M91.832-392.43c2.337-0.436,4.123-1.419,5.685-2.623
			c1.155,0.342,2.041-0.996,3.187-0.663c0.174,2.018-2.188,2.06-1.967,3.792c1.108-0.342,3.322-2.975,3.049-4.23
			c-0.281-1.295-2.026-0.686-3.022-1.392l-0.312-0.106c-0.345-2.59-2.146-3.492-2.435-6.147c0.858,0.56,1.842,0.972,2.446,1.827
			c1.817-0.702,0.647-1.535-0.176-2.593c-0.907-1.17-1.501-1.907-2.122-3.017c-0.412-0.071-0.135,0.538-0.359,0.652
			c-0.243-0.147-0.275-0.538-0.549-0.646c-0.009,0.672-0.004,0.73,0.096,1.405c-0.44,0.53-1.246,0.981-1.609,1.629
			c-0.984,1.747-0.327,4.747-1.386,6.383c-1.176,1.805-3.424,1.581-4.934,3.263c-5.067-1.879-2.518,6.264-5.456,7.488
			c0.213,0.06,0.654-0.141,0.713,0.1c-0.022,0.321-0.898,0.732-0.446,0.868c0.863-0.151,1.652-0.912,2.15-1.091
			c-0.078,0.394-0.415,0.531-0.547,0.866c1.312-0.693,2.389-1.005,2.435-2.819c0.052-1.984-1.618-4.876,0.986-4.869
			c-0.231,1.96,1.24,3.236,1.034,4.86c-0.059,0.455-0.558,0.806-0.52,1.295c0.085,1.012,1.377,1.533,1.98,2.369
			c0.49,0.681,0.798,1.352,1.055,2.156c0.336-0.068,0.946,0.135,1.104-0.112c-0.238-0.256-0.47-0.464-0.657-0.755
			c-0.401-0.618-2.048-2.895-2.059-3.557c-0.011-0.655,1.085-1.86,1.449-2.492c0.367-0.638,0.552-1.181,0.791-1.761L91.832-392.43z"
			/>
		<path clip-path="url(#SVGID_4_)" fill="#FFFFFF" d="M88.449-386.16l-0.646-0.558c-1.333,0.968-2.873,2.405-3.965,3.571
			C83.838-383.147,87.044-385.429,88.449-386.16"/>
	</g>
	<path clip-path="url(#SVGID_2_)" fill="#FFFFFF" d="M45.809-362.332h7.808l-3.931-7.392L45.809-362.332z M56.344-357.051H43.08
		l-3.532,6.778h-6.363L47.5-377.809h4.375l14.463,27.536h-6.363L56.344-357.051z"/>
	<polygon clip-path="url(#SVGID_2_)" fill="#FFFFFF" points="68.393,-377.81 74.209,-377.81 74.209,-355.509 89.799,-355.509 
		89.799,-350.272 68.393,-350.272 	"/>
	<g clip-path="url(#SVGID_2_)">
		<defs>
			<rect id="SVGID_5_" x="-33.27" y="-445.364" width="240.323" height="763.985"/>
		</defs>
		<clipPath id="SVGID_6_">
			<use xlink:href="#SVGID_5_"  overflow="visible"/>
		</clipPath>
		<path clip-path="url(#SVGID_6_)" fill="#FFFFFF" d="M96.079-363.97c0,5.377,3.977,9.069,9.191,9.069c5.271,0,9.2-3.739,9.2-9.069
			c0-5.374-3.929-9.119-9.2-9.119C100.055-373.089,96.079-369.344,96.079-363.97 M90.164-363.97c0-8.324,6.412-14.401,15.106-14.401
			c8.703,0,15.163,6.077,15.163,14.401c0,8.323-6.46,14.353-15.163,14.353C96.576-349.617,90.164-355.646,90.164-363.97"/>
	</g>
	<polygon clip-path="url(#SVGID_2_)" fill="#FFFFFF" points="129.417,-367.146 129.417,-350.272 123.603,-350.272 123.603,-377.809 
		127.134,-377.809 142.738,-360.932 142.738,-377.809 148.556,-377.809 148.556,-350.272 145.074,-350.272 	"/>
	<g clip-path="url(#SVGID_2_)">
		<defs>
			<rect id="SVGID_7_" x="-33.27" y="-445.364" width="240.323" height="763.985"/>
		</defs>
		<clipPath id="SVGID_8_">
			<use xlink:href="#SVGID_7_"  overflow="visible"/>
		</clipPath>
		<path clip-path="url(#SVGID_8_)" fill="#FFFFFF" d="M160.466-362.365v9.225h3.741c3.362,0,5.084-1.866,5.084-4.599
			c0-2.705-1.856-4.626-5.084-4.626H160.466z M157.324-350.304V-365.2h6.884c5.061,0,8.289,3.186,8.289,7.487
			c0,4.272-3.1,7.409-8.289,7.409H157.324z"/>
		<path clip-path="url(#SVGID_8_)" fill="#FFFFFF" d="M174.313-355.285v-9.916h3.15v9.457c0,2.432,0.509,2.934,3.497,2.934
			c2.983,0,3.497-0.502,3.497-2.934v-9.457h3.146v9.916c0,3.791-2.097,5.335-6.643,5.335
			C176.413-349.95,174.313-351.494,174.313-355.285"/>
		<path clip-path="url(#SVGID_8_)" fill="#FFFFFF" d="M5.473-326.085c0-9.35,7.199-16.181,16.962-16.181
			c6.028,0,11.219,2.627,15.067,8.301l-5.525,3.677c-2.34-4.257-5.637-6.041-9.542-6.041c-5.858,0-10.324,4.201-10.324,10.244
			c0,6.038,4.466,10.191,10.324,10.191c4.128,0,7.422-1.892,10.381-7.093l5.247,3.676c-3.574,6.355-9.042,9.35-15.628,9.35
			C12.672-309.961,5.473-316.741,5.473-326.085"/>
	</g>
	<polygon clip-path="url(#SVGID_2_)" fill="#FFFFFF" points="61.717,-324.562 46.762,-324.562 46.762,-310.698 40.183,-310.698 
		40.183,-341.635 46.762,-341.635 46.762,-330.452 61.717,-330.452 61.717,-341.635 68.246,-341.635 68.246,-310.698 
		61.717,-310.698 	"/>
	<polygon clip-path="url(#SVGID_2_)" fill="#FFFFFF" points="72.584,-341.634 98.41,-341.634 98.41,-335.755 79.113,-335.755 
		79.113,-330.078 91.168,-330.078 91.168,-324.197 79.113,-324.197 79.113,-316.581 99.634,-316.581 99.634,-310.698 
		72.584,-310.698 	"/>
	<polygon clip-path="url(#SVGID_2_)" fill="#FFFFFF" points="115.709,-310.699 99.861,-341.635 107.06,-341.635 117.773,-320.678 
		128.49,-341.635 135.744,-341.635 119.839,-310.699 	"/>
	<path clip-path="url(#SVGID_2_)" fill="#FFFFFF" d="M140.156-324.249h8.761l-4.414-8.297L140.156-324.249z M151.982-318.314
		h-14.899l-3.963,7.615h-7.143l16.073-30.935h4.908l16.244,30.935h-7.147L151.982-318.314z"/>
	<polygon clip-path="url(#SVGID_2_)" fill="#FFFFFF" points="165.031,-341.634 171.559,-341.634 171.559,-316.581 189.521,-316.581 
		189.521,-310.698 165.031,-310.698 	"/>
	<g clip-path="url(#SVGID_2_)">
		<defs>
			<rect id="SVGID_9_" x="-33.27" y="-445.364" width="240.323" height="763.985"/>
		</defs>
		<clipPath id="SVGID_10_">
			<use xlink:href="#SVGID_9_"  overflow="visible"/>
		</clipPath>
		<path clip-path="url(#SVGID_10_)" fill="#FFFFFF" d="M11.402-299.581v9.23h3.736c3.365,0,5.087-1.866,5.087-4.598
			c0-2.708-1.857-4.632-5.087-4.632H11.402z M8.251-287.516v-14.897h6.887c5.059,0,8.289,3.19,8.289,7.487
			c0,4.274-3.093,7.41-8.289,7.41H8.251z"/>
	</g>
	<polygon clip-path="url(#SVGID_2_)" fill="#FFFFFF" points="24.987,-302.413 37.74,-302.413 37.74,-299.581 28.137,-299.581 
		28.137,-296.845 33.948,-296.845 33.948,-294.019 28.137,-294.019 28.137,-290.351 38.335,-290.351 38.335,-287.516 
		24.987,-287.516 	"/>
	<g clip-path="url(#SVGID_2_)">
		<defs>
			<rect id="SVGID_11_" x="-33.27" y="-445.364" width="240.323" height="763.985"/>
		</defs>
		<clipPath id="SVGID_12_">
			<use xlink:href="#SVGID_11_"  overflow="visible"/>
		</clipPath>
		<path clip-path="url(#SVGID_12_)" fill="#FFFFFF" d="M53.583-297.287v5.777h10.215c2.781,0,3.743-1.039,3.743-2.843
			c0-1.803-1.056-2.934-3.597-2.934H53.583z M53.583-286.41v10.647h-5.614v-26.578h16.021c5.565,0,9.307,2.888,9.307,7.714
			c0,4.651-3.356,8.217-8.876,8.217H53.583z"/>
	</g>
	<path clip-path="url(#SVGID_2_)" fill="#FFFFFF" d="M80.988-287.406h7.533l-3.791-7.126L80.988-287.406z M91.158-282.305H78.349
		l-3.403,6.542h-6.139l13.812-26.578h4.223l13.955,26.578h-6.141L91.158-282.305z"/>
	<g clip-path="url(#SVGID_2_)">
		<defs>
			<rect id="SVGID_13_" x="-33.27" y="-445.364" width="240.323" height="763.985"/>
		</defs>
		<clipPath id="SVGID_14_">
			<use xlink:href="#SVGID_13_"  overflow="visible"/>
		</clipPath>
		<path clip-path="url(#SVGID_14_)" fill="#FFFFFF" d="M108.936-297.287v5.777h10.215c2.784,0,3.745-1.039,3.745-2.843
			c0-1.803-1.059-2.934-3.602-2.934H108.936z M117.042-286.41h-8.106v10.647h-5.611v-26.578h16.021c5.611,0,9.301,2.888,9.301,7.896
			c0,3.479-2.108,6.409-5.51,7.584l6.716,11.098h-6.335L117.042-286.41z"/>
	</g>
	<rect x="133.183" y="-302.473" clip-path="url(#SVGID_2_)" fill="#FFFFFF" width="5.659" height="26.802"/>
	<g clip-path="url(#SVGID_2_)">
		<defs>
			<rect id="SVGID_15_" x="-33.27" y="-445.364" width="240.323" height="763.985"/>
		</defs>
		<clipPath id="SVGID_16_">
			<use xlink:href="#SVGID_15_"  overflow="visible"/>
		</clipPath>
		<path clip-path="url(#SVGID_16_)" fill="#FFFFFF" d="M155.228-297.652c-4.479,0.305-5.605,2.483-5.605,3.432
			c0,1.729,3.117,2.072,4.287,2.204c1.672,0.172,3.653,0.214,5.91,0.435c5.462,0.599,9.028,3.709,9.028,7.982
			c0,4.835-4.649,8.546-11.872,8.546c-5.01,0-9.384-1.382-14.215-4.963l3.028-4.272c4.283,3.152,7.846,4.399,11.144,4.399
			c4.421,0,6.452-1.941,6.452-3.795c0-1.299-1.128-2.804-4.645-3.07c-3.253-0.256-7.403-0.21-10.431-1.547
			c-2.568-1.166-4.104-3.239-4.104-5.789c0-4.445,4.513-8.343,10.559-8.343"/>
		<path clip-path="url(#SVGID_16_)" fill="#FFFFFF" d="M145.354-292.948c-0.53-0.636-0.787-1.569-0.5-2.699
			c0.854-3.397,3.521-6.264,9.09-7.017c4.637-0.627,9.416,0.311,13.505,2.483l-2.532,4.559c-3.563-1.815-7.723-2.336-10.777-1.938
			c-4.091,0.532-5.397,1.316-5.279,3.135"/>
		<path clip-path="url(#SVGID_16_)" fill="#FFFFFF" d="M19.319-373.292c-4.633,0.321-5.803,2.575-5.803,3.557
			c0,1.787,3.228,2.146,4.441,2.28c1.728,0.176,3.785,0.224,6.12,0.451c5.655,0.621,9.348,3.838,9.348,8.266
			c0,5.004-4.812,8.85-12.291,8.85c-5.185,0-9.717-1.434-14.716-5.144l3.125-4.42c4.443,3.264,8.134,4.556,11.547,4.556
			c4.578,0,6.678-2.011,6.678-3.931c0-1.342-1.167-2.906-4.812-3.176c-3.362-0.268-7.662-0.22-10.792-1.604
			c-2.664-1.213-4.252-3.352-4.252-5.994c0-4.603,4.674-8.641,10.932-8.641"/>
		<path clip-path="url(#SVGID_16_)" fill="#FFFFFF" d="M9.102-368.414c-0.555-0.658-0.818-1.626-0.524-2.801
			c0.89-3.513,3.651-6.488,9.412-7.262c4.805-0.651,9.753,0.322,13.987,2.569l-2.623,4.719c-3.685-1.875-7.994-2.421-11.156-2.003
			c-4.241,0.552-5.591,1.36-5.471,3.247"/>
	</g>
	<g clip-path="url(#SVGID_2_)">
		<text transform="matrix(1.0347 0 0 1 76.4482 -250.9136)"><tspan x="0" y="0" fill="#FFFFFF" font-family="'ParisineStd-Bold'" font-size="17.3064">2</tspan><tspan x="8.359" y="0" fill="#FFFFFF" font-family="'ParisineStd-Bold'" font-size="17.3064">0</tspan></text>
	</g>
	<g clip-path="url(#SVGID_2_)">
		<text transform="matrix(1.0347 0 0 1 95.4282 -250.9136)" fill="#FFFFFF" font-family="'ParisineStd-Bold'" font-size="17.3064">1</text>
	</g>
	<g clip-path="url(#SVGID_2_)">
		<text transform="matrix(1.0347 0 0 1 104.937 -250.9136)" fill="#FFFFFF" font-family="'ParisineStd-Bold'" font-size="17.3064">5</text>
	</g>
	<g clip-path="url(#SVGID_2_)">
		<defs>
			<rect id="SVGID_17_" x="-33.27" y="-445.364" width="240.323" height="763.985"/>
		</defs>
		<clipPath id="SVGID_18_">
			<use xlink:href="#SVGID_17_"  overflow="visible"/>
		</clipPath>
		<path clip-path="url(#SVGID_18_)" fill="#39A935" d="M46.188,200.097c25.525,0,46.217-20.692,46.217-46.217
			s-20.692-46.216-46.217-46.216S-0.028,128.355-0.028,153.88S20.664,200.097,46.188,200.097"/>
		<path clip-path="url(#SVGID_18_)" fill="#FFFFFF" d="M76.214,141.118c0,0-0.126,15.65-11.538,28.441
			C64.676,169.56,76.593,159.548,76.214,141.118"/>
		<path clip-path="url(#SVGID_18_)" fill="#FFFFFF" d="M76.471,148.814c0,0-0.016,7.373,8.928,20.593
			C85.399,169.407,76.557,160.244,76.471,148.814"/>
		<path clip-path="url(#SVGID_18_)" fill="#FFFFFF" d="M73.357,167.424c4.047-2.11,7.139,1.327,7.69,2.084
			c-1.543-2.479-4.592-4.725-7.841-2.486C73.375,167.401,73.342,167.398,73.357,167.424"/>
		<path clip-path="url(#SVGID_18_)" fill="#FFFFFF" d="M73.992,164.928c1.173-0.218,2.068-0.713,2.852-1.316
			c0.581,0.171,1.024-0.5,1.6-0.334c0.086,1.014-1.098,1.034-0.987,1.904c0.556-0.171,1.667-1.494,1.531-2.123
			c-0.143-0.65-1.019-0.344-1.519-0.699l-0.155-0.053c-0.173-1.298-1.078-1.753-1.222-3.086c0.43,0.281,0.925,0.489,1.228,0.918
			c0.911-0.353,0.325-0.77-0.088-1.301c-0.455-0.587-0.754-0.957-1.065-1.515c-0.207-0.035-0.067,0.27-0.181,0.326
			c-0.122-0.073-0.138-0.27-0.276-0.323c-0.003,0.338-0.001,0.366,0.047,0.705c-0.22,0.266-0.625,0.491-0.807,0.817
			c-0.493,0.877-0.163,2.382-0.695,3.203c-0.589,0.906-1.718,0.794-2.476,1.638c-2.542-0.941-1.262,3.143-2.737,3.759
			c0.107,0.028,0.327-0.07,0.358,0.05c-0.011,0.159-0.452,0.366-0.224,0.435c0.432-0.075,0.83-0.457,1.078-0.546
			c-0.038,0.197-0.207,0.266-0.274,0.434c0.658-0.349,1.198-0.504,1.221-1.414c0.027-0.995-0.811-2.448,0.495-2.443
			c-0.116,0.982,0.623,1.624,0.519,2.438c-0.028,0.229-0.279,0.406-0.26,0.652c0.042,0.507,0.691,0.767,0.994,1.188
			c0.246,0.342,0.401,0.678,0.528,1.082c0.168-0.034,0.476,0.067,0.555-0.058c-0.12-0.127-0.237-0.232-0.33-0.379
			c-0.202-0.31-1.028-1.452-1.032-1.784c-0.006-0.328,0.543-0.934,0.725-1.25c0.185-0.32,0.278-0.593,0.398-0.884L73.992,164.928z"
			/>
		<path clip-path="url(#SVGID_18_)" fill="#FFFFFF" d="M72.294,168.074l-0.325-0.28c-0.669,0.485-1.441,1.208-1.99,1.792
			C69.979,169.586,71.589,168.439,72.294,168.074"/>
	</g>
	<polygon clip-path="url(#SVGID_2_)" fill="#FFFFFF" points="13.186,147.13 13.186,155.685 10.969,155.685 10.969,143.192 
		13.167,143.192 21.394,151.563 21.394,143.192 23.609,143.192 23.609,155.685 21.63,155.685 	"/>
	<g clip-path="url(#SVGID_2_)">
		<defs>
			<rect id="SVGID_19_" x="-33.27" y="-445.364" width="240.323" height="763.985"/>
		</defs>
		<clipPath id="SVGID_20_">
			<use xlink:href="#SVGID_19_"  overflow="visible"/>
		</clipPath>
		<path clip-path="url(#SVGID_20_)" fill="#FFFFFF" d="M38.038,151.16c0,1.319-0.232,2.308-0.696,2.968
			c-0.855,1.185-2.638,1.777-5.35,1.777c-1.966,0-3.462-0.318-4.488-0.953c-0.586-0.378-0.989-0.885-1.209-1.52
			c-0.232-0.636-0.348-1.394-0.348-2.272v-7.969h2.436v7.2c0,0.72,0.043,1.252,0.129,1.593c0.085,0.342,0.244,0.629,0.476,0.86
			c0.623,0.623,1.661,0.936,3.114,0.936s2.492-0.313,3.115-0.936c0.231-0.231,0.39-0.519,0.476-0.86
			c0.085-0.341,0.128-0.873,0.128-1.593v-7.2h2.217V151.16z"/>
	</g>
	<rect x="40.356" y="143.191" clip-path="url(#SVGID_2_)" fill="#FFFFFF" width="2.437" height="12.494"/>
	<polygon clip-path="url(#SVGID_2_)" fill="#FFFFFF" points="51.065,145.242 51.065,155.686 48.629,155.686 48.629,145.242 
		43.792,145.242 43.792,143.191 55.901,143.191 55.901,145.242 	"/>
	<g clip-path="url(#SVGID_2_)">
		<defs>
			<rect id="SVGID_21_" x="-33.27" y="-445.364" width="240.323" height="763.985"/>
		</defs>
		<clipPath id="SVGID_22_">
			<use xlink:href="#SVGID_21_"  overflow="visible"/>
		</clipPath>
		<path clip-path="url(#SVGID_22_)" fill="#FFFFFF" d="M59.034,154.659h1.785c0.563,0,0.987-0.075,1.274-0.229
			c0.611-0.316,0.916-0.939,0.916-1.869c0-0.671-0.165-1.186-0.495-1.547c-0.183-0.195-0.406-0.337-0.668-0.422
			c-0.263-0.085-0.605-0.128-1.027-0.128h-1.785V154.659z M57.815,149.438h3.124c0.751,0,1.328,0.086,1.731,0.258
			c0.568,0.256,0.989,0.675,1.264,1.254c0.214,0.459,0.321,0.996,0.321,1.611c0,1.075-0.321,1.898-0.962,2.466
			c-0.275,0.237-0.594,0.406-0.957,0.508c-0.364,0.1-0.829,0.15-1.397,0.15h-3.124V149.438z"/>
		<path clip-path="url(#SVGID_22_)" fill="#FFFFFF" d="M71.039,153.423c0,0.659-0.116,1.153-0.348,1.483
			c-0.428,0.593-1.32,0.889-2.675,0.889c-0.983,0-1.731-0.159-2.244-0.476c-0.293-0.189-0.495-0.443-0.605-0.761
			c-0.116-0.318-0.174-0.697-0.174-1.136v-3.985h1.219v3.6c0,0.361,0.021,0.627,0.064,0.798c0.042,0.171,0.122,0.315,0.238,0.431
			c0.311,0.311,0.83,0.467,1.558,0.467c0.726,0,1.245-0.156,1.556-0.467c0.116-0.115,0.196-0.26,0.238-0.431
			c0.043-0.171,0.064-0.437,0.064-0.798v-3.6h1.109V153.423z"/>
		<path clip-path="url(#SVGID_22_)" fill="#FFFFFF" d="M18.518,164.295l0.705,1.229c-0.172,0.171-0.436,0.359-0.794,0.564
			c-0.726,0.427-1.335,0.713-1.825,0.857c-0.492,0.146-1.079,0.217-1.761,0.217c-1.357,0-2.468-0.323-3.329-0.973
			c-0.512-0.384-0.914-0.857-1.204-1.421c-0.342-0.64-0.512-1.349-0.512-2.125c0-1.059,0.302-1.981,0.909-2.767
			c0.913-1.169,2.292-1.753,4.136-1.753c0.682,0,1.268,0.071,1.754,0.217c0.487,0.145,1.097,0.431,1.832,0.857
			c0.349,0.196,0.614,0.394,0.794,0.589l-0.705,1.229c-0.375-0.368-0.705-0.627-0.986-0.781c-0.768-0.427-1.584-0.64-2.446-0.64
			c-1.024,0-1.844,0.252-2.458,0.755c-0.726,0.581-1.089,1.345-1.089,2.293c0,0.939,0.363,1.702,1.089,2.291
			c0.614,0.496,1.434,0.743,2.458,0.743c0.862,0,1.678-0.213,2.446-0.641C17.805,164.884,18.134,164.637,18.518,164.295"/>
	</g>
	<polygon clip-path="url(#SVGID_2_)" fill="#FFFFFF" points="27.578,163.193 22.328,163.193 22.328,167.01 20.625,167.01 
		20.625,158.276 22.328,158.276 22.328,161.76 27.578,161.76 27.578,158.276 29.281,158.276 29.281,167.01 27.578,167.01 	"/>
	<polygon clip-path="url(#SVGID_2_)" fill="#FFFFFF" points="32.784,163.181 32.784,165.576 39.071,165.576 39.071,167.01 
		31.081,167.01 31.081,158.276 38.917,158.276 38.917,159.711 32.784,159.711 32.784,161.785 36.997,161.785 36.997,163.181 	"/>
	<polygon clip-path="url(#SVGID_2_)" fill="#FFFFFF" points="44.059,164.474 46.914,158.277 48.643,158.277 44.789,167.009 
		43.278,167.009 39.373,158.277 41.204,158.277 	"/>
	<path clip-path="url(#SVGID_2_)" fill="#FFFFFF" d="M52.875,163.59l-1.562-3.11l-1.588,3.11H52.875z M53.335,164.781h-4.098
		l-1.114,2.229h-1.561l4.046-8.733h1.511l4.148,8.733H54.45L53.335,164.781z"/>
	<polygon clip-path="url(#SVGID_2_)" fill="#FFFFFF" points="58.913,165.575 64.957,165.575 64.957,167.009 57.21,167.009 
		57.21,158.276 58.913,158.276 	"/>
	<polygon clip-path="url(#SVGID_2_)" fill="#FFFFFF" points="39.598,136.282 41.08,138.257 43.419,137.469 41.999,139.49 
		43.471,141.47 41.111,140.744 39.681,142.757 39.643,140.289 37.288,139.549 39.624,138.752 	"/>
	<g clip-path="url(#SVGID_2_)">
		<text transform="matrix(1 0 0 1 13.8096 133.8086)"><tspan x="0" y="0" fill="#FFFFFF" font-family="'ParisineStd-Bold'" font-size="6.0552">S</tspan><tspan x="2.937" y="0" fill="#FFFFFF" font-family="'ParisineStd-Bold'" font-size="6.0552">P</tspan></text>
	</g>
	<g clip-path="url(#SVGID_2_)">
		<text transform="matrix(1 0 0 1 20.979 133.8086)" fill="#FFFFFF" font-family="'ParisineStd-Bold'" font-size="6.0552">E</text>
	</g>
	<g clip-path="url(#SVGID_2_)">
		<text transform="matrix(1 0 0 1 24.5029 133.8086)" fill="#FFFFFF" font-family="'ParisineStd-Bold'" font-size="6.0552">C</text>
	</g>
	<g clip-path="url(#SVGID_2_)">
		<text transform="matrix(1 0 0 1 28.2632 133.8086)" fill="#FFFFFF" font-family="'ParisineStd-Bold'" font-size="6.0552">T</text>
	</g>
	<g clip-path="url(#SVGID_2_)">
		<text transform="matrix(1 0 0 1 31.2969 133.8086)"><tspan x="0" y="0" fill="#FFFFFF" font-family="'ParisineStd-Bold'" font-size="6.0552">ACL</tspan><tspan x="9.93" y="0" fill="#FFFFFF" font-family="'ParisineStd-Bold'" font-size="6.0552">E</tspan><tspan x="12.855" y="0" fill="#FFFFFF" font-family="'ParisineStd-Bold'" font-size="6.0552"> </tspan></text>
	</g>
	<g clip-path="url(#SVGID_2_)">
		<text transform="matrix(1 0 0 1 47.543 133.8086)" fill="#FFFFFF" font-family="'ParisineStd-Bold'" font-size="6.0552">É</text>
	</g>
	<g clip-path="url(#SVGID_2_)">
		<text transform="matrix(1 0 0 1 51.0674 133.8086)"><tspan x="0" y="0" fill="#FFFFFF" font-family="'ParisineStd-Bold'" font-size="6.0552">Q</tspan><tspan x="4.124" y="0" fill="#FFFFFF" font-family="'ParisineStd-Bold'" font-size="6.0552">U</tspan></text>
	</g>
	<g clip-path="url(#SVGID_2_)">
		<text transform="matrix(1 0 0 1 59.9805 133.8086)" fill="#FFFFFF" font-family="'ParisineStd-Bold'" font-size="6.0552">E</text>
	</g>
	<g clip-path="url(#SVGID_2_)">
		<text transform="matrix(1 0 0 1 63.5044 133.8086)" fill="#FFFFFF" font-family="'ParisineStd-Bold'" font-size="6.0552">S</text>
	</g>
	<g clip-path="url(#SVGID_2_)">
		<text transform="matrix(1 0 0 1 66.8105 133.8086)"><tspan x="0" y="0" fill="#FFFFFF" font-family="'ParisineStd-Bold'" font-size="6.0552">T</tspan><tspan x="2.961" y="0" fill="#FFFFFF" font-family="'ParisineStd-Bold'" font-size="6.0552">R</tspan></text>
	</g>
	<g clip-path="url(#SVGID_2_)">
		<text transform="matrix(1 0 0 1 74.5435 133.8086)" fill="#FFFFFF" font-family="'ParisineStd-Bold'" font-size="6.0552">E</text>
	</g>
	<g clip-path="url(#SVGID_2_)">
		<text transform="matrix(1 0 0 1 15.499 177.9326)" fill="#FFFFFF" font-family="'ParisineStd-Bold'" font-size="6.0552">2</text>
	</g>
	<g clip-path="url(#SVGID_2_)">
		<text transform="matrix(1 0 0 1 18.8354 177.9326)" fill="#FFFFFF" font-family="'ParisineStd-Bold'" font-size="6.0552"> </text>
	</g>
	<g clip-path="url(#SVGID_2_)">
		<text transform="matrix(1 0 0 1 20.4644 177.9326)" fill="#FFFFFF" font-family="'ParisineStd-Bold'" font-size="6.0552">R</text>
	</g>
	<g clip-path="url(#SVGID_2_)">
		<text transform="matrix(1 0 0 1 24.5576 177.9326)" fill="#FFFFFF" font-family="'ParisineStd-Bold'" font-size="6.0552">E</text>
	</g>
	<g clip-path="url(#SVGID_2_)">
		<text transform="matrix(1 0 0 1 28.0815 177.9326)" fill="#FFFFFF" font-family="'ParisineStd-Bold'" font-size="6.0552">P</text>
	</g>
	<g clip-path="url(#SVGID_2_)">
		<text transform="matrix(1 0 0 1 31.854 177.9326)" fill="#FFFFFF" font-family="'ParisineStd-Bold'" font-size="6.0552">R</text>
	</g>
	<g clip-path="url(#SVGID_2_)">
		<text transform="matrix(1 0 0 1 35.9292 177.9326)" fill="#FFFFFF" font-family="'ParisineStd-Bold'" font-size="6.0552">É</text>
	</g>
	<g clip-path="url(#SVGID_2_)">
		<text transform="matrix(1 0 0 1 39.4531 177.9326)" fill="#FFFFFF" font-family="'ParisineStd-Bold'" font-size="6.0552">S</text>
	</g>
	<g clip-path="url(#SVGID_2_)">
		<text transform="matrix(1 0 0 1 42.8501 177.9326)" fill="#FFFFFF" font-family="'ParisineStd-Bold'" font-size="6.0552">E</text>
	</g>
	<g clip-path="url(#SVGID_2_)">
		<text transform="matrix(1 0 0 1 46.3682 177.9326)" fill="#FFFFFF" font-family="'ParisineStd-Bold'" font-size="6.0552">N</text>
	</g>
	<g clip-path="url(#SVGID_2_)">
		<text transform="matrix(1 0 0 1 50.958 177.9326)" fill="#FFFFFF" font-family="'ParisineStd-Bold'" font-size="6.0552">T</text>
	</g>
	<g clip-path="url(#SVGID_2_)">
		<text transform="matrix(1 0 0 1 53.9917 177.9326)" fill="#FFFFFF" font-family="'ParisineStd-Bold'" font-size="6.0552">A</text>
	</g>
	<g clip-path="url(#SVGID_2_)">
		<text transform="matrix(1 0 0 1 58.0669 177.9326)" fill="#FFFFFF" font-family="'ParisineStd-Bold'" font-size="6.0552">T</text>
	</g>
	<g clip-path="url(#SVGID_2_)">
		<text transform="matrix(1 0 0 1 61.688 177.9326)"><tspan x="0" y="0" fill="#FFFFFF" font-family="'ParisineStd-Bold'" font-size="6.0552">I</tspan><tspan x="1.399" y="0" fill="#FFFFFF" font-family="'ParisineStd-Bold'" font-size="6.0552">O</tspan></text>
	</g>
	<g clip-path="url(#SVGID_2_)">
		<text transform="matrix(1 0 0 1 68.0342 177.9326)" fill="#FFFFFF" font-family="'ParisineStd-Bold'" font-size="6.0552">N</text>
	</g>
	<g clip-path="url(#SVGID_2_)">
		<text transform="matrix(1 0 0 1 72.6118 177.9326)" fill="#FFFFFF" font-family="'ParisineStd-Bold'" font-size="6.0552">S</text>
	</g>
	<g clip-path="url(#SVGID_2_)">
		<text transform="matrix(1 0 0 1 21.5967 184.3877)" fill="#FFFFFF" font-family="'ParisineStd-Bold'" font-size="6.0552">2</text>
	</g>
	<g clip-path="url(#SVGID_2_)">
		<text transform="matrix(1 0 0 1 24.9331 184.3877)" fill="#FFFFFF" font-family="'ParisineStd-Bold'" font-size="6.0552">8</text>
	</g>
	<g clip-path="url(#SVGID_2_)">
		<text transform="matrix(1 0 0 1 28.2632 184.3877)" fill="#FFFFFF" font-family="'ParisineStd-Bold'" font-size="6.0552"> </text>
	</g>
	<g clip-path="url(#SVGID_2_)">
		<text transform="matrix(1 0 0 1 29.9043 184.3877)" fill="#FFFFFF" font-family="'ParisineStd-Bold'" font-size="6.0552">-</text>
	</g>
	<g clip-path="url(#SVGID_2_)">
		<text transform="matrix(1 0 0 1 31.5391 184.3877)" fill="#FFFFFF" font-family="'ParisineStd-Bold'" font-size="6.0552"> </text>
	</g>
	<g clip-path="url(#SVGID_2_)">
		<text transform="matrix(1 0 0 1 33.1802 184.3877)" fill="#FFFFFF" font-family="'ParisineStd-Bold'" font-size="6.0552">2</text>
	</g>
	<g clip-path="url(#SVGID_2_)">
		<text transform="matrix(1 0 0 1 36.5107 184.3877)" fill="#FFFFFF" font-family="'ParisineStd-Bold'" font-size="6.0552">9</text>
	</g>
	<g clip-path="url(#SVGID_2_)">
		<text transform="matrix(1 0 0 1 39.8472 184.3877)" fill="#FFFFFF" font-family="'ParisineStd-Bold'" font-size="6.0552"> </text>
	</g>
	<g clip-path="url(#SVGID_2_)">
		<text transform="matrix(1 0 0 1 41.4819 184.3877)" fill="#FFFFFF" font-family="'ParisineStd-Bold'" font-size="6.0552">N</text>
	</g>
	<g clip-path="url(#SVGID_2_)">
		<text transform="matrix(1 0 0 1 46.0776 184.3877)" fill="#FFFFFF" font-family="'ParisineStd-Bold'" font-size="6.0552">O</text>
	</g>
	<g clip-path="url(#SVGID_2_)">
		<text transform="matrix(1 0 0 1 50.3711 184.3877)" fill="#FFFFFF" font-family="'ParisineStd-Bold'" font-size="6.0552">V</text>
	</g>
	<g clip-path="url(#SVGID_2_)">
		<text transform="matrix(1 0 0 1 53.6587 184.3877)" fill="#FFFFFF" font-family="'ParisineStd-Bold'" font-size="6.0552">.</text>
	</g>
	<g clip-path="url(#SVGID_2_)">
		<text transform="matrix(1 0 0 1 54.9971 184.3877)" fill="#FFFFFF" font-family="'ParisineStd-Bold'" font-size="6.0552"> </text>
	</g>
	<g clip-path="url(#SVGID_2_)">
		<text transform="matrix(1 0 0 1 56.6318 184.3877)" fill="#FFFFFF" font-family="'ParisineStd-Bold'" font-size="6.0552">2</text>
	</g>
	<g clip-path="url(#SVGID_2_)">
		<text transform="matrix(1 0 0 1 59.9683 184.3877)" fill="#FFFFFF" font-family="'ParisineStd-Bold'" font-size="6.0552">0</text>
	</g>
	<g clip-path="url(#SVGID_2_)">
		<text transform="matrix(1 0 0 1 63.2988 184.3877)" fill="#FFFFFF" font-family="'ParisineStd-Bold'" font-size="6.0552">1</text>
	</g>
	<g clip-path="url(#SVGID_2_)">
		<text transform="matrix(1 0 0 1 66.6353 184.3877)" fill="#FFFFFF" font-family="'ParisineStd-Bold'" font-size="6.0552">5</text>
	</g>
	<g clip-path="url(#SVGID_2_)">
		<defs>
			<rect id="SVGID_23_" x="-33.27" y="-445.364" width="240.323" height="763.985"/>
		</defs>
		<clipPath id="SVGID_24_">
			<use xlink:href="#SVGID_23_"  overflow="visible"/>
		</clipPath>
		<path clip-path="url(#SVGID_24_)" fill="#E95A0C" d="M46.188,307.465c25.525,0,46.217-20.691,46.217-46.217
			c0-25.523-20.692-46.216-46.217-46.216s-46.217,20.692-46.217,46.216C-0.028,286.773,20.664,307.465,46.188,307.465"/>
		<path clip-path="url(#SVGID_24_)" fill="#FFFFFF" d="M60.958,275.457c0,0,12.7-10.669,12.295-30.308
			C73.252,245.149,73.119,261.826,60.958,275.457"/>
		<path clip-path="url(#SVGID_24_)" fill="#FFFFFF" d="M83.042,275.295c0,0-9.422-9.766-9.514-21.943
			C73.527,253.352,73.509,261.209,83.042,275.295"/>
		<path clip-path="url(#SVGID_24_)" fill="#FFFFFF" d="M78.404,275.404c-1.644-2.643-4.894-5.035-8.356-2.65
			c0.18,0.405,0.145,0.401,0.16,0.428C74.521,270.933,77.816,274.597,78.404,275.404"/>
		<path clip-path="url(#SVGID_24_)" fill="#FFFFFF" d="M70.577,274.741c-0.215-0.329-1.095-1.548-1.102-1.901
			c-0.006-0.352,0.581-0.995,0.775-1.333c0.197-0.341,0.296-0.632,0.423-0.942l0.212-0.043c1.25-0.232,2.206-0.76,3.04-1.402
			c0.618,0.184,1.092-0.532,1.705-0.354c0.093,1.079-1.171,1.102-1.053,2.028c0.593-0.184,1.777-1.591,1.632-2.264
			c-0.151-0.691-1.085-0.365-1.618-0.743l-0.166-0.058c-0.184-1.385-1.148-1.867-1.302-3.287c0.459,0.3,0.986,0.521,1.308,0.977
			c0.972-0.375,0.347-0.82-0.093-1.386c-0.485-0.626-0.803-1.021-1.136-1.613c-0.219-0.038-0.072,0.287-0.192,0.349
			c-0.129-0.079-0.147-0.288-0.294-0.346c-0.004,0.359-0.001,0.391,0.051,0.752c-0.235,0.282-0.666,0.523-0.86,0.87
			c-0.527,0.935-0.174,2.54-0.741,3.414c-0.629,0.966-1.831,0.846-2.639,1.745c-2.709-1.006-1.346,3.35-2.917,4.005
			c0.114,0.031,0.349-0.075,0.381,0.054c-0.012,0.171-0.48,0.391-0.239,0.464c0.462-0.081,0.884-0.488,1.151-0.584
			c-0.043,0.211-0.222,0.284-0.293,0.463c0.702-0.37,1.277-0.537,1.303-1.507c0.027-1.061-0.866-2.608,0.526-2.604
			c-0.124,1.048,0.664,1.729,0.553,2.599c-0.031,0.243-0.298,0.431-0.278,0.693c0.046,0.541,0.737,0.818,1.06,1.267
			c0.262,0.364,0.426,0.723,0.563,1.153"/>
		<path clip-path="url(#SVGID_24_)" fill="#FFFFFF" d="M66.609,275.486c0,0,1.715-1.22,2.466-1.61l-0.346-0.3
			C68.017,274.095,67.193,274.862,66.609,275.486"/>
		<path clip-path="url(#SVGID_24_)" fill="#FFFFFF" d="M15.773,241.915l0.364,0.635c-0.088,0.088-0.225,0.186-0.41,0.291
			c-0.375,0.221-0.689,0.368-0.943,0.443c-0.254,0.075-0.557,0.113-0.91,0.113c-0.701,0-1.274-0.169-1.72-0.504
			c-0.264-0.197-0.472-0.442-0.622-0.733c-0.176-0.331-0.264-0.697-0.264-1.099c0-0.547,0.156-1.023,0.47-1.429
			c0.471-0.604,1.184-0.906,2.136-0.906c0.353,0,0.655,0.037,0.907,0.112c0.251,0.075,0.566,0.222,0.946,0.443
			c0.18,0.102,0.317,0.203,0.41,0.304l-0.364,0.635c-0.194-0.188-0.364-0.323-0.509-0.402c-0.397-0.222-0.819-0.331-1.264-0.331
			c-0.529,0-0.953,0.13-1.27,0.39c-0.375,0.3-0.563,0.695-0.563,1.185c0,0.485,0.188,0.881,0.563,1.185
			c0.317,0.256,0.741,0.384,1.27,0.384c0.445,0,0.867-0.111,1.264-0.331C15.405,242.219,15.575,242.092,15.773,241.915"/>
	</g>
	<polygon clip-path="url(#SVGID_2_)" fill="#FFFFFF" points="20.441,241.346 17.729,241.346 17.729,243.317 16.849,243.317 
		16.849,238.807 17.729,238.807 17.729,240.605 20.441,240.605 20.441,238.807 21.321,238.807 21.321,243.317 20.441,243.317 	"/>
	<path clip-path="url(#SVGID_2_)" fill="#FFFFFF" d="M25.102,241.552l-0.807-1.608l-0.821,1.608H25.102z M25.34,242.166h-2.117
		l-0.575,1.151H21.84l2.091-4.512h0.781l2.143,4.512h-0.939L25.34,242.166z"/>
	<polygon clip-path="url(#SVGID_2_)" fill="#FFFFFF" points="29.842,243.258 28.129,240.202 28.129,243.318 27.328,243.318 
		27.328,238.806 28.426,238.806 29.928,241.512 31.509,238.806 32.534,238.806 32.534,243.318 31.655,243.318 31.655,240.202 	"/>
	<g clip-path="url(#SVGID_2_)">
		<defs>
			<rect id="SVGID_25_" x="-33.27" y="-445.364" width="240.323" height="763.985"/>
		</defs>
		<clipPath id="SVGID_26_">
			<use xlink:href="#SVGID_25_"  overflow="visible"/>
		</clipPath>
		<path clip-path="url(#SVGID_26_)" fill="#FFFFFF" d="M34.331,240.744h1.561c0.309,0,0.527-0.033,0.655-0.099
			c0.089-0.04,0.158-0.106,0.209-0.199c0.05-0.092,0.076-0.194,0.076-0.304c0-0.106-0.026-0.205-0.076-0.299
			c-0.051-0.092-0.12-0.157-0.209-0.197c-0.128-0.066-0.346-0.099-0.655-0.099h-1.561V240.744z M34.331,241.485v1.832h-0.88v-4.511
			h2.554c0.326,0,0.583,0.021,0.77,0.065c0.188,0.044,0.352,0.119,0.493,0.226c0.146,0.113,0.261,0.262,0.344,0.442
			c0.08,0.19,0.12,0.391,0.12,0.603c0,0.304-0.08,0.571-0.239,0.801c-0.132,0.198-0.31,0.338-0.532,0.42
			c-0.223,0.081-0.542,0.122-0.956,0.122H34.331z"/>
	</g>
	<rect x="38.211" y="238.804" clip-path="url(#SVGID_2_)" fill="#FFFFFF" width="0.88" height="4.514"/>
	<g clip-path="url(#SVGID_2_)">
		<defs>
			<rect id="SVGID_27_" x="-33.27" y="-445.364" width="240.323" height="763.985"/>
		</defs>
		<clipPath id="SVGID_28_">
			<use xlink:href="#SVGID_27_"  overflow="visible"/>
		</clipPath>
		<path clip-path="url(#SVGID_28_)" fill="#FFFFFF" d="M42.23,239.487c-0.446,0-0.816,0.128-1.112,0.385
			c-0.353,0.304-0.529,0.7-0.529,1.189c0,0.49,0.176,0.885,0.529,1.186c0.296,0.254,0.668,0.383,1.118,0.383
			c0.446,0,0.816-0.129,1.112-0.383c0.176-0.15,0.311-0.337,0.403-0.557c0.084-0.199,0.126-0.401,0.126-0.609
			c0-0.511-0.176-0.915-0.529-1.209C43.048,239.619,42.675,239.491,42.23,239.487 M42.223,238.727c0.776,0,1.389,0.212,1.839,0.635
			c0.476,0.446,0.715,1.021,0.715,1.728c0,0.432-0.115,0.836-0.345,1.21c-0.445,0.732-1.179,1.099-2.202,1.099
			c-0.768,0-1.377-0.212-1.826-0.636c-0.239-0.229-0.422-0.502-0.549-0.82c-0.111-0.277-0.166-0.571-0.166-0.88
			c0-0.454,0.115-0.869,0.344-1.243C40.461,239.104,41.191,238.739,42.223,238.727"/>
	</g>
	<polygon clip-path="url(#SVGID_2_)" fill="#FFFFFF" points="46.183,240.229 46.183,243.317 45.382,243.317 45.382,238.806 
		46.176,238.806 49.147,241.829 49.147,238.806 49.947,238.806 49.947,243.317 49.233,243.317 	"/>
	<polygon clip-path="url(#SVGID_2_)" fill="#FFFFFF" points="51.664,240.229 51.664,243.317 50.863,243.317 50.863,238.806 
		51.657,238.806 54.628,241.829 54.628,238.806 55.428,238.806 55.428,243.317 54.714,243.317 	"/>
	<path clip-path="url(#SVGID_2_)" fill="#FFFFFF" d="M59.209,241.552l-0.807-1.608l-0.821,1.608H59.209z M59.447,242.166H57.33
		l-0.575,1.151h-0.808l2.091-4.512h0.78l2.144,4.512h-0.939L59.447,242.166z"/>
	<polygon clip-path="url(#SVGID_2_)" fill="#FFFFFF" points="63.493,239.547 63.493,243.318 62.613,243.318 62.613,239.547 
		60.866,239.547 60.866,238.806 65.24,238.806 65.24,239.547 	"/>
	<g clip-path="url(#SVGID_2_)">
		<defs>
			<rect id="SVGID_29_" x="-33.27" y="-445.364" width="240.323" height="763.985"/>
		</defs>
		<clipPath id="SVGID_30_">
			<use xlink:href="#SVGID_29_"  overflow="visible"/>
		</clipPath>
		<path clip-path="url(#SVGID_30_)" fill="#FFFFFF" d="M67.163,242.778h0.938c0.295,0,0.518-0.04,0.669-0.12
			c0.321-0.167,0.481-0.494,0.481-0.98c0-0.354-0.087-0.624-0.26-0.813c-0.096-0.103-0.213-0.177-0.351-0.222
			c-0.138-0.045-0.318-0.067-0.539-0.067h-0.938V242.778z M66.523,240.036h1.641c0.394,0,0.697,0.045,0.909,0.135
			c0.298,0.135,0.519,0.354,0.664,0.659c0.112,0.24,0.168,0.523,0.168,0.848c0,0.563-0.168,0.995-0.505,1.294
			c-0.145,0.125-0.312,0.214-0.503,0.267s-0.435,0.079-0.733,0.079h-1.641V240.036z"/>
		<path clip-path="url(#SVGID_30_)" fill="#FFFFFF" d="M73.532,242.129c0,0.347-0.061,0.606-0.183,0.779
			c-0.224,0.312-0.693,0.467-1.405,0.467c-0.517,0-0.909-0.083-1.179-0.25c-0.153-0.101-0.26-0.232-0.317-0.398
			c-0.061-0.167-0.091-0.366-0.091-0.598v-2.093h0.639v1.892c0,0.188,0.012,0.328,0.034,0.418s0.064,0.166,0.125,0.227
			c0.163,0.163,0.436,0.244,0.818,0.244s0.654-0.081,0.818-0.244c0.061-0.061,0.102-0.137,0.125-0.227
			c0.022-0.09,0.034-0.229,0.034-0.418v-1.892h0.582V242.129z"/>
	</g>
	<polygon clip-path="url(#SVGID_2_)" fill="#FFFFFF" points="17.571,254.278 13.988,247.888 13.988,254.403 12.315,254.403 
		12.315,244.97 14.611,244.97 17.751,250.627 21.057,244.97 23.201,244.97 23.201,254.403 21.361,254.403 21.361,247.888 	"/>
	<g clip-path="url(#SVGID_2_)">
		<defs>
			<rect id="SVGID_31_" x="-33.27" y="-445.364" width="240.323" height="763.985"/>
		</defs>
		<clipPath id="SVGID_32_">
			<use xlink:href="#SVGID_31_"  overflow="visible"/>
		</clipPath>
		<path clip-path="url(#SVGID_32_)" fill="#FFFFFF" d="M30.176,246.395c-0.932,0-1.706,0.267-2.324,0.802
			c-0.738,0.636-1.107,1.466-1.107,2.49c0,1.022,0.369,1.849,1.107,2.476c0.618,0.535,1.397,0.802,2.338,0.802
			c0.931,0,1.706-0.267,2.324-0.802c0.368-0.313,0.65-0.701,0.843-1.162c0.175-0.415,0.263-0.839,0.263-1.272
			c0-1.07-0.369-1.913-1.106-2.531C31.886,246.67,31.107,246.403,30.176,246.395 M30.162,244.803c1.623,0,2.905,0.443,3.845,1.328
			c0.996,0.932,1.494,2.136,1.494,3.609c0,0.905-0.24,1.749-0.719,2.533c-0.931,1.529-2.467,2.296-4.606,2.296
			c-1.605,0-2.877-0.443-3.818-1.329c-0.498-0.479-0.881-1.05-1.148-1.714c-0.231-0.581-0.346-1.195-0.346-1.84
			c0-0.95,0.24-1.817,0.719-2.602C26.478,245.591,28.004,244.831,30.162,244.803"/>
	</g>
	<polygon clip-path="url(#SVGID_2_)" fill="#FFFFFF" points="38.852,247.943 38.852,254.403 37.178,254.403 37.178,244.969 
		38.837,244.969 45.048,251.291 45.048,244.969 46.723,244.969 46.723,254.403 45.229,254.403 	"/>
	<g clip-path="url(#SVGID_2_)">
		<defs>
			<rect id="SVGID_33_" x="-33.27" y="-445.364" width="240.323" height="763.985"/>
		</defs>
		<clipPath id="SVGID_34_">
			<use xlink:href="#SVGID_33_"  overflow="visible"/>
		</clipPath>
		<path clip-path="url(#SVGID_34_)" fill="#FFFFFF" d="M50.889,252.854h2.697c0.849,0,1.489-0.114,1.923-0.347
			c0.922-0.479,1.383-1.42,1.383-2.821c0-1.015-0.249-1.794-0.747-2.339c-0.277-0.295-0.613-0.507-1.01-0.636
			c-0.396-0.129-0.913-0.193-1.549-0.193h-2.697V252.854z M49.049,244.969h4.717c1.134,0,2.006,0.129,2.614,0.388
			c0.858,0.388,1.494,1.019,1.909,1.895c0.323,0.692,0.484,1.504,0.484,2.436c0,1.623-0.484,2.862-1.452,3.721
			c-0.415,0.36-0.897,0.615-1.445,0.768c-0.549,0.152-1.252,0.229-2.11,0.229h-4.717V244.969z"/>
	</g>
	<polygon clip-path="url(#SVGID_2_)" fill="#FFFFFF" points="62.29,250.268 62.29,252.854 69.082,252.854 69.082,254.403 
		60.45,254.403 60.45,244.969 68.916,244.969 68.916,246.519 62.29,246.519 62.29,248.759 66.841,248.759 66.841,250.268 	"/>
	<g clip-path="url(#SVGID_2_)">
		<defs>
			<rect id="SVGID_35_" x="-33.27" y="-445.364" width="240.323" height="763.985"/>
		</defs>
		<clipPath id="SVGID_36_">
			<use xlink:href="#SVGID_35_"  overflow="visible"/>
		</clipPath>
		<path clip-path="url(#SVGID_36_)" fill="#FFFFFF" d="M12.044,261.901h0.938c0.295,0,0.518-0.04,0.669-0.12
			c0.321-0.167,0.481-0.493,0.481-0.98c0-0.354-0.087-0.624-0.26-0.813c-0.096-0.103-0.213-0.177-0.351-0.222
			c-0.138-0.044-0.318-0.067-0.539-0.067h-0.938V261.901z M11.404,259.16h1.641c0.394,0,0.697,0.045,0.909,0.135
			c0.298,0.134,0.52,0.354,0.664,0.659c0.112,0.239,0.168,0.522,0.168,0.847c0,0.563-0.168,0.996-0.505,1.294
			c-0.144,0.125-0.312,0.214-0.503,0.267c-0.19,0.054-0.435,0.079-0.733,0.079h-1.641V259.16z"/>
		<path clip-path="url(#SVGID_36_)" fill="#FFFFFF" d="M18.26,261.253c0,0.346-0.061,0.604-0.183,0.778
			c-0.224,0.313-0.693,0.468-1.405,0.468c-0.516,0-0.909-0.083-1.178-0.25c-0.155-0.101-0.26-0.233-0.318-0.399
			c-0.061-0.167-0.091-0.367-0.091-0.597v-2.093h0.639v1.891c0,0.188,0.012,0.329,0.034,0.418c0.023,0.09,0.064,0.166,0.125,0.227
			c0.164,0.162,0.436,0.244,0.818,0.244c0.382,0,0.655-0.082,0.818-0.244c0.061-0.061,0.103-0.137,0.125-0.227
			c0.023-0.089,0.034-0.229,0.034-0.418v-1.891h0.582V261.253z"/>
		<path clip-path="url(#SVGID_36_)" fill="#FFFFFF" d="M27.617,261.993l0.595,1.039c-0.144,0.146-0.368,0.304-0.671,0.478
			c-0.613,0.36-1.127,0.602-1.542,0.725c-0.416,0.123-0.912,0.185-1.489,0.185c-1.147,0-2.086-0.274-2.815-0.822
			c-0.433-0.326-0.772-0.727-1.017-1.202c-0.289-0.542-0.433-1.141-0.433-1.797c0-0.896,0.256-1.675,0.768-2.339
			c0.772-0.988,1.938-1.483,3.497-1.483c0.577,0,1.072,0.062,1.483,0.185c0.411,0.122,0.927,0.364,1.548,0.725
			c0.296,0.167,0.52,0.333,0.671,0.498l-0.595,1.04c-0.318-0.311-0.595-0.531-0.834-0.661c-0.649-0.36-1.338-0.541-2.067-0.541
			c-0.866,0-1.559,0.213-2.079,0.639c-0.613,0.491-0.92,1.137-0.92,1.938c0,0.794,0.307,1.438,0.92,1.937
			c0.52,0.419,1.213,0.628,2.079,0.628c0.729,0,1.418-0.18,2.067-0.541C27.014,262.491,27.292,262.282,27.617,261.993"/>
	</g>
	<polygon clip-path="url(#SVGID_2_)" fill="#FFFFFF" points="35.077,261.063 30.638,261.063 30.638,264.288 29.199,264.288 
		29.199,256.905 30.638,256.905 30.638,259.851 35.077,259.851 35.077,256.905 36.517,256.905 36.517,264.288 35.077,264.288 	"/>
	<polygon clip-path="url(#SVGID_2_)" fill="#FFFFFF" points="39.589,261.052 39.589,263.076 44.904,263.076 44.904,264.289 
		38.149,264.289 38.149,256.906 44.774,256.906 44.774,258.118 39.589,258.118 39.589,259.872 43.151,259.872 43.151,261.052 	"/>
	<polygon clip-path="url(#SVGID_2_)" fill="#FFFFFF" points="49.232,262.145 51.646,256.905 53.108,256.905 49.85,264.289 
		48.572,264.289 45.271,256.905 46.818,256.905 	"/>
	<path clip-path="url(#SVGID_2_)" fill="#FFFFFF" d="M57.373,261.397l-1.32-2.63l-1.343,2.63H57.373z M57.763,262.405h-3.464
		l-0.942,1.884h-1.321l3.421-7.383h1.277l3.508,7.383h-1.537L57.763,262.405z"/>
	<polygon clip-path="url(#SVGID_2_)" fill="#FFFFFF" points="62.167,263.076 67.277,263.076 67.277,264.289 60.728,264.289 
		60.728,256.905 62.167,256.905 	"/>
	<path clip-path="url(#SVGID_2_)" fill="#FFFFFF" d="M17.915,271.875l-1.598-3.184l-1.625,3.184H17.915z M18.387,273.094h-4.193
		l-1.14,2.28h-1.599l4.141-8.936h1.546l4.246,8.936h-1.861L18.387,273.094z"/>
	<g clip-path="url(#SVGID_2_)">
		<defs>
			<rect id="SVGID_37_" x="-33.27" y="-445.364" width="240.323" height="763.985"/>
		</defs>
		<clipPath id="SVGID_38_">
			<use xlink:href="#SVGID_37_"  overflow="visible"/>
		</clipPath>
		<path clip-path="url(#SVGID_38_)" fill="#FFFFFF" d="M23.852,270.251h3.119c0.454,0,0.775-0.014,0.963-0.04
			c0.187-0.025,0.369-0.079,0.543-0.156c0.367-0.185,0.551-0.508,0.551-0.97c0-0.473-0.184-0.796-0.551-0.971
			c-0.166-0.087-0.343-0.144-0.53-0.17c-0.188-0.025-0.514-0.039-0.976-0.039h-3.119V270.251z M23.852,271.731v3.643h-1.743v-8.937
			h5.071c0.673,0,1.206,0.04,1.599,0.118c0.393,0.079,0.734,0.214,1.022,0.405c0.323,0.229,0.568,0.538,0.734,0.932
			c0.148,0.375,0.222,0.776,0.222,1.205c0,1.459-0.834,2.311-2.502,2.555l2.555,3.722h-1.9l-2.516-3.643H23.852z"/>
	</g>
	<path clip-path="url(#SVGID_2_)" fill="#FFFFFF" d="M37.585,271.875l-1.598-3.184l-1.625,3.184H37.585z M38.058,273.094h-4.193
		l-1.14,2.28h-1.598l4.14-8.936h1.546l4.246,8.936h-1.861L38.058,273.094z"/>
	<g clip-path="url(#SVGID_2_)">
		<defs>
			<rect id="SVGID_39_" x="-33.27" y="-445.364" width="240.323" height="763.985"/>
		</defs>
		<clipPath id="SVGID_40_">
			<use xlink:href="#SVGID_39_"  overflow="visible"/>
		</clipPath>
		<path clip-path="url(#SVGID_40_)" fill="#FFFFFF" d="M43.523,273.906h3.42c0.638,0,1.101-0.087,1.389-0.262
			c0.341-0.192,0.511-0.512,0.511-0.956c0-0.446-0.17-0.77-0.511-0.971c-0.288-0.166-0.751-0.249-1.389-0.249h-3.42V273.906z
			 M43.523,269.989h3.538c0.542,0,0.926-0.075,1.153-0.224c0.254-0.175,0.38-0.445,0.38-0.813c0-0.375-0.12-0.644-0.36-0.806
			c-0.24-0.161-0.631-0.242-1.173-0.242h-3.538V269.989z M48.948,270.696c1.118,0.376,1.677,1.079,1.677,2.109
			c0,0.813-0.279,1.45-0.839,1.913c-0.288,0.236-0.62,0.404-0.995,0.504c-0.376,0.102-0.848,0.151-1.415,0.151h-5.595v-8.936h5.529
			c0.577,0,1.035,0.043,1.376,0.131c0.341,0.087,0.637,0.234,0.891,0.444c0.507,0.412,0.76,1.01,0.76,1.796
			C50.337,269.683,49.874,270.313,48.948,270.696"/>
	</g>
	<polygon clip-path="url(#SVGID_2_)" fill="#FFFFFF" points="53.286,271.456 53.286,273.906 59.72,273.906 59.72,275.374 
		51.544,275.374 51.544,266.438 59.563,266.438 59.563,267.905 53.286,267.905 53.286,270.028 57.597,270.028 57.597,271.456 	"/>
	<g clip-path="url(#SVGID_2_)">
		<defs>
			<rect id="SVGID_41_" x="-33.27" y="-445.364" width="240.323" height="763.985"/>
		</defs>
		<clipPath id="SVGID_42_">
			<use xlink:href="#SVGID_41_"  overflow="visible"/>
		</clipPath>
		<path clip-path="url(#SVGID_42_)" fill="#B10932" d="M46.188-14.533c14.192,0,25.696-11.505,25.696-25.695
			c0-14.192-11.504-25.697-25.696-25.697S20.493-54.421,20.493-40.229C20.493-26.038,31.997-14.533,46.188-14.533"/>
	</g>
	<g clip-path="url(#SVGID_2_)">
		<text transform="matrix(1.0526 0 0 1 30.4502 -41.0996)" fill="#FFFFFF" font-family="'ParisineStd-Bold'" font-size="6.8805">À</text>
	</g>
	<g clip-path="url(#SVGID_2_)">
		<text transform="matrix(1.0526 0 0 1 35.3247 -41.0996)" fill="#FFFFFF" font-family="'ParisineStd-Bold'" font-size="6.8805"> </text>
	</g>
	<g clip-path="url(#SVGID_2_)">
		<text transform="matrix(1.0526 0 0 1 37.2729 -41.0996)" fill="#FFFFFF" font-family="'ParisineStd-Bold'" font-size="6.8805">N</text>
	</g>
	<g clip-path="url(#SVGID_2_)">
		<text transform="matrix(1.0526 0 0 1 42.7627 -41.0996)" fill="#FFFFFF" font-family="'ParisineStd-Bold'" font-size="6.8805">E</text>
	</g>
	<g clip-path="url(#SVGID_2_)">
		<text transform="matrix(1.0526 0 0 1 46.9854 -41.0996)" fill="#FFFFFF" font-family="'ParisineStd-Bold'" font-size="6.8805"> </text>
	</g>
	<g clip-path="url(#SVGID_2_)">
		<text transform="matrix(1.0526 0 0 1 48.9336 -41.0996)" fill="#FFFFFF" font-family="'ParisineStd-Bold'" font-size="6.8805">P</text>
	</g>
	<g clip-path="url(#SVGID_2_)">
		<text transform="matrix(1.0526 0 0 1 52.939 -41.0996)" fill="#FFFFFF" font-family="'ParisineStd-Bold'" font-size="6.8805">A</text>
	</g>
	<g clip-path="url(#SVGID_2_)">
		<text transform="matrix(1.0526 0 0 1 57.813 -41.0996)" fill="#FFFFFF" font-family="'ParisineStd-Bold'" font-size="6.8805">S</text>
	</g>
	<g clip-path="url(#SVGID_2_)">
		<text transform="matrix(1.0526 0 0 1 27.7705 -34.5146)" fill="#FFFFFF" font-family="'ParisineStd-Bold'" font-size="6.8805">M</text>
	</g>
	<g clip-path="url(#SVGID_2_)">
		<text transform="matrix(1.0526 0 0 1 34.4336 -34.5146)" fill="#FFFFFF" font-family="'ParisineStd-Bold'" font-size="6.8805">A</text>
	</g>
	<g clip-path="url(#SVGID_2_)">
		<text transform="matrix(1.0526 0 0 1 39.2935 -34.5146)" fill="#FFFFFF" font-family="'ParisineStd-Bold'" font-size="6.8805">N</text>
	</g>
	<g clip-path="url(#SVGID_2_)">
		<text transform="matrix(1.0526 0 0 1 44.7837 -34.5146)" fill="#FFFFFF" font-family="'ParisineStd-Bold'" font-size="6.8805">Q</text>
	</g>
	<g clip-path="url(#SVGID_2_)">
		<text transform="matrix(1.0526 0 0 1 50.0635 -34.5146)" fill="#FFFFFF" font-family="'ParisineStd-Bold'" font-size="6.8805">U</text>
	</g>
	<g clip-path="url(#SVGID_2_)">
		<text transform="matrix(1.0526 0 0 1 55.4375 -34.5146)" fill="#FFFFFF" font-family="'ParisineStd-Bold'" font-size="6.8805">E</text>
	</g>
	<g clip-path="url(#SVGID_2_)">
		<text transform="matrix(1.0526 0 0 1 59.6455 -34.5146)" fill="#FFFFFF" font-family="'ParisineStd-Bold'" font-size="6.8805">R</text>
	</g>
	<g clip-path="url(#SVGID_2_)">
		<defs>
			<rect id="SVGID_43_" x="-33.27" y="-445.364" width="240.323" height="763.985"/>
		</defs>
		<clipPath id="SVGID_44_">
			<use xlink:href="#SVGID_43_"  overflow="visible"/>
		</clipPath>
		<path clip-path="url(#SVGID_44_)" fill="#074A94" d="M46.188,92.425c25.525,0,46.217-20.692,46.217-46.217
			S71.713-0.009,46.188-0.009S-0.028,20.684-0.028,46.208S20.664,92.425,46.188,92.425"/>
	</g>
	<g clip-path="url(#SVGID_2_)">
		<text transform="matrix(1.03 0 0 1 23.0195 77.9424)" fill="#FFFFFF" font-family="'ParisineStd-Bold'" font-size="5.2615">1</text>
	</g>
	<g clip-path="url(#SVGID_2_)">
		<text transform="matrix(1.03 0 0 1 26 77.9424)" fill="#FFFFFF" font-family="'ParisineStd-Bold'" font-size="5.2615"> </text>
	</g>
	<g clip-path="url(#SVGID_2_)">
		<text transform="matrix(1.03 0 0 1 27.4634 77.9424)"><tspan x="0" y="0" fill="#FFFFFF" font-family="'ParisineStd-Bold'" font-size="5.2615">A</tspan><tspan x="3.178" y="0" fill="#FFFFFF" font-family="'ParisineStd-Bold'" font-size="5.2615">U</tspan></text>
	</g>
	<g clip-path="url(#SVGID_2_)">
		<text transform="matrix(1.03 0 0 1 35.1372 77.9424)" fill="#FFFFFF" font-family="'ParisineStd-Bold'" font-size="5.2615"> </text>
	</g>
	<g clip-path="url(#SVGID_2_)">
		<text transform="matrix(1.03 0 0 1 36.6001 77.9424)" fill="#FFFFFF" font-family="'ParisineStd-Bold'" font-size="5.2615">4</text>
	</g>
	<g clip-path="url(#SVGID_2_)">
		<text transform="matrix(1.03 0 0 1 39.5864 77.9424)" fill="#FFFFFF" font-family="'ParisineStd-Bold'" font-size="5.2615"> </text>
	</g>
	<g clip-path="url(#SVGID_2_)">
		<text transform="matrix(1.03 0 0 1 41.0332 77.9424)" fill="#FFFFFF" font-family="'ParisineStd-Bold'" font-size="5.2615">D</text>
	</g>
	<g clip-path="url(#SVGID_2_)">
		<text transform="matrix(1.03 0 0 1 45.0815 77.9424)" fill="#FFFFFF" font-family="'ParisineStd-Bold'" font-size="5.2615">É</text>
	</g>
	<g clip-path="url(#SVGID_2_)">
		<text transform="matrix(1.03 0 0 1 48.23 77.9424)" fill="#FFFFFF" font-family="'ParisineStd-Bold'" font-size="5.2615">C</text>
	</g>
	<g clip-path="url(#SVGID_2_)">
		<text transform="matrix(1.03 0 0 1 51.5903 77.9424)" fill="#FFFFFF" font-family="'ParisineStd-Bold'" font-size="5.2615">.</text>
	</g>
	<g clip-path="url(#SVGID_2_)">
		<text transform="matrix(1.03 0 0 1 52.7876 77.9424)" fill="#FFFFFF" font-family="'ParisineStd-Bold'" font-size="5.2615"> </text>
	</g>
	<g clip-path="url(#SVGID_2_)">
		<text transform="matrix(1.03 0 0 1 54.251 77.9424)" fill="#FFFFFF" font-family="'ParisineStd-Bold'" font-size="5.2615">2</text>
	</g>
	<g clip-path="url(#SVGID_2_)">
		<text transform="matrix(1.03 0 0 1 57.2368 77.9424)" fill="#FFFFFF" font-family="'ParisineStd-Bold'" font-size="5.2615">0</text>
	</g>
	<g clip-path="url(#SVGID_2_)">
		<text transform="matrix(1.03 0 0 1 60.2178 77.9424)" fill="#FFFFFF" font-family="'ParisineStd-Bold'" font-size="5.2615">1</text>
	</g>
	<g clip-path="url(#SVGID_2_)">
		<text transform="matrix(1.03 0 0 1 63.2036 77.9424)" fill="#FFFFFF" font-family="'ParisineStd-Bold'" font-size="5.2615">6</text>
	</g>
	<g clip-path="url(#SVGID_2_)">
		<defs>
			<rect id="SVGID_45_" x="-33.27" y="-445.364" width="240.323" height="763.985"/>
		</defs>
		<clipPath id="SVGID_46_">
			<use xlink:href="#SVGID_45_"  overflow="visible"/>
		</clipPath>
		<path clip-path="url(#SVGID_46_)" fill="#FFFFFF" d="M73.57,50.62l0.006-2.681l-0.622-0.003L72.59,48.45
			c-0.557-0.44-1.305-0.683-2.047-0.683c-0.988,0-2.518,0.435-2.518,2.169c0,1.82,1.949,2.057,2.786,2.225
			c1.128,0.225,1.613,0.449,1.81,0.773c0.217,0.356,0.032,0.84-0.249,1.063c-0.298,0.234-1.075,0.401-2.102,0.099
			c-0.924-0.272-1.291-1.233-1.458-1.991h-0.698v2.812h0.554l0.39-0.553c0.109,0.176,1.049,0.79,2.304,0.79
			c1.275,0,2.658-0.557,2.658-2.21c0-1.892-2.227-2.138-2.835-2.266c-1.771-0.374-1.832-0.757-1.885-0.965
			c-0.036-0.141-0.041-0.397,0.122-0.636c0.162-0.237,0.536-0.442,1.121-0.442c1.704,0,2.091,1.175,2.293,1.99L73.57,50.62z
			 M68.653,28.168c0.115-0.458,0.029-0.786-0.336-1.301c-0.022-0.032-2.174-3.24-3.297-4.901c-1.195-1.766-2.323-3.433-2.816-4.204
			c-1.008-1.574-1.703-2.811-2.122-3.775c-0.078-0.179-0.131-0.325-0.152-0.497c-0.141-1.146,0.912-2.951,1.038-3.16
			c0.044-0.077,0.035-0.163-0.023-0.22c-0.055-0.054-0.143-0.064-0.212-0.025c-0.178,0.105-0.373,0.233-0.579,0.369
			c-0.765,0.501-1.715,1.125-2.687,1.125c-0.225,0-0.507-0.034-0.72-0.087c-0.123-0.028-0.319-0.097-0.54-0.185
			c-0.024-0.009-0.581-0.256-0.783-0.335c-2.119-0.827-4.523-1.766-8.093-1.766c-3.347,0-6.907,1.13-10.024,3.184
			c-0.96,0.632-1.87,1.308-2.881,2.066c-1.196,0.897-2.432,1.827-3.739,2.603c-1.418,0.844-3.327,1.811-5.526,1.811
			c-0.148,0-0.298-0.004-0.445-0.013c-0.193-0.012-0.599-0.062-0.894-0.116c-0.097-0.018-0.187,0.048-0.204,0.142
			c-0.017,0.094,0.046,0.185,0.139,0.2c0.383,0.07,0.596,0.09,0.803,0.109l0.135,0.012c0.361,0.037,0.722,0.056,1.074,0.056
			c3.589,0,6.464-1.867,9.85-4.308l0.092-0.065c0.799-0.576,1.794-1.293,2.706-1.824c2.149-1.254,5.542-2.921,10.175-2.921
			c3.036,0,5.448,0.682,6.937,1.254c0.095,0.037,0.62,0.264,0.674,0.286c0.174,0.071,0.348,0.134,0.546,0.191
			c0.201,0.059,0.496,0.103,0.732,0.108c1.055,0.028,1.648-0.162,2.242-0.49c-0.131,0.603-0.238,1.449-0.171,2.147
			c0.147,1.532,0.704,3.065,1.653,4.556c0.634,0.997,2.268,3.031,3.583,4.667l0.049,0.063c0.663,0.821,2.386,3.023,2.599,3.305
			c0.137,0.181,0.423,0.59,0.545,0.765l0.052,0.075c0.338,0.475,0.361,0.706,0.284,1.017c-0.019,0.073-0.05,0.151-0.095,0.232
			c-0.077,0.139-0.263,0.342-0.339,0.421l-0.034,0.037c-0.674,0.741-1.127,0.925-1.389,0.951c-0.208,0.019-0.398,0.013-0.562-0.021
			c-1.353-0.281-2.577-1.198-2.935-1.528c-0.422-0.39-1.025-0.871-1.79-1.43c-0.549-0.401-1.306-0.859-2.143-1.255
			c-0.376-0.177-1.776-0.872-2.285-1.124c-0.149-0.073-0.304-0.147-0.452-0.219c-0.118-0.058-0.234-0.115-0.341-0.166l-0.136-0.067
			c-0.865-0.424-1.76-0.861-2.372-1.609c-0.582-0.66-0.942-1.533-1.018-2.458c0.363-0.468,0.653-1.038,0.837-1.648
			c0.074-0.247,0.147-0.717,0.164-1.066c0.02-0.275,0.017-0.471-0.011-0.656c-0.01-0.073-0.044-0.12-0.102-0.145
			c-0.062-0.025-0.119-0.02-0.177,0.021c-1.099,0.745-1.737,2.141-1.672,3.648c-0.345,0.225-0.73,0.384-1.128,0.537
			c-0.324,0.127-0.813,0.232-1.332,0.346c-0.642,0.139-1.369,0.297-1.952,0.528c-1.773,0.706-3.224,1.832-4.435,3.442
			c-0.584,0.776-1.04,1.644-1.361,2.589c-0.081,0.236-0.152,0.478-0.215,0.721c-0.024,0.093,0.032,0.188,0.125,0.213
			c0.09,0.022,0.189-0.036,0.211-0.126c0.043-0.169,0.136-0.498,0.21-0.699c0.251-0.693,0.616-1.392,1.002-1.913
			c1.281-1.737,2.801-2.841,4.786-3.477c0.273-0.088,0.675-0.192,1.101-0.304c0.73-0.192,1.557-0.409,1.984-0.601
			c0.324-0.146,0.733-0.341,1.082-0.577c0.11,0.591,0.333,1.146,0.646,1.611c0.814,1.208,2.094,1.805,3.239,2.229
			c0.207,0.076,0.486,0.174,0.785,0.279l0.121,0.043c1.203,0.419,2.051,0.742,2.591,0.988c0.732,0.332,1.4,0.725,2.044,1.195
			c0.583,0.427,1.248,0.922,1.755,1.402c0.03,0.027,0.066,0.063,0.108,0.104c0.455,0.442,1.663,1.616,2.958,1.834
			c0.139,0.024,0.274,0.036,0.413,0.036c0.106,0,0.213-0.007,0.327-0.021c0.714-0.086,1.267-0.836,1.632-1.334
			c0.109-0.147,0.294-0.432,0.369-0.576C68.6,28.344,68.629,28.272,68.653,28.168 M52.357,19.2c0.009-0.468,0.063-0.874,0.178-1.228
			c0.125-0.383,0.313-0.739,0.605-1.175c-0.007,0.501-0.089,0.906-0.213,1.295C52.818,18.431,52.655,18.765,52.357,19.2
			 M23.827,51.942c-0.041,0.533-0.086,1.193-0.216,1.572c-0.225,0.648-1.209,0.549-2.766,0.555c0,0-0.003-4.571-0.003-4.708
			c0-0.188,0.006-0.28,0.083-0.389c0.133-0.193,0.56-0.182,1.054-0.182v-0.854h-3.68v0.854c0.142,0,0.859-0.064,0.963,0.207
			c0.035,0.095,0.051,0.163,0.051,0.363c0,0.151,0.001,4.119,0.001,4.119c0,0.144,0.011,0.31-0.039,0.397
			c-0.071,0.126-0.16,0.204-0.978,0.204c0,0.348,0.002,0.835,0.002,0.835h6.263V51.94L23.827,51.942z M24.654,57.703h-0.937v4.556
			h0.755v-3.726h0.019l2.346,2.97l2.365-2.97h0.02v3.726h0.754v-4.556h-0.937l-2.196,2.756L24.654,57.703z M33.819,57.703
			l-2.409,4.556h0.824l0.528-1.02h3.064l0.528,1.02h0.824l-2.409-4.556H33.819z M33.133,60.554l1.164-2.202l1.157,2.202H33.133z
			 M38.342,61.051l-0.416,0.547c0.661,0.521,1.555,0.768,2.712,0.768c1.616,0,2.485-0.56,2.485-1.517
			c0-0.761-0.542-1.15-1.674-1.295c-0.924-0.12-1.673-0.063-2.17-0.239c-0.264-0.094-0.396-0.233-0.396-0.441
			c0-0.377,0.497-0.615,1.44-0.615c0.717,0,1.384,0.17,2.063,0.516l0.459-0.509c-0.66-0.448-1.483-0.674-2.465-0.674
			c-1.478,0-2.296,0.534-2.296,1.384c0,0.874,0.705,1.095,2.108,1.188c1.339,0.088,2.113,0.088,2.113,0.736
			c0,0.491-0.579,0.806-1.661,0.806C39.814,61.705,39.071,61.496,38.342,61.051 M41.444,67.476h-1.379v1.739h0.289v-0.664h1.035
			c0.413,0,0.634-0.189,0.634-0.532C42.023,67.688,41.8,67.476,41.444,67.476 M41.375,67.738c0.235,0,0.353,0.092,0.353,0.284
			c0,0.173-0.115,0.268-0.334,0.268h-1.04v-0.552H41.375z M43.533,67.476l-0.921,1.739h0.315l0.202-0.39h1.169l0.202,0.39h0.315
			l-0.92-1.739H43.533z M43.271,68.563l0.444-0.841l0.442,0.841H43.271z M47.215,67.476h-1.372v1.739h0.289v-0.664h0.879
			l0.471,0.664h0.334l-0.466-0.679c0.26-0.043,0.452-0.206,0.452-0.514C47.802,67.687,47.581,67.476,47.215,67.476 M47.146,67.738
			c0.243,0,0.36,0.092,0.36,0.284c0,0.171-0.117,0.268-0.334,0.268h-1.04v-0.552H47.146z M49.274,67.476h-0.288v1.739h0.288V67.476z
			 M50.555,68.753l-0.158,0.209c0.251,0.199,0.593,0.294,1.034,0.294c0.618,0,0.95-0.215,0.95-0.579
			c0-0.291-0.207-0.438-0.639-0.495c-0.354-0.046-0.64-0.024-0.829-0.091c-0.102-0.037-0.152-0.09-0.152-0.168
			c0-0.146,0.191-0.236,0.551-0.236c0.274,0,0.528,0.064,0.788,0.197l0.175-0.195c-0.252-0.17-0.567-0.257-0.941-0.257
			c-0.566,0-0.878,0.205-0.878,0.528c0,0.334,0.269,0.418,0.806,0.454c0.511,0.034,0.807,0.034,0.807,0.281
			c0,0.188-0.221,0.307-0.635,0.307C51.117,69.002,50.833,68.925,50.555,68.753 M50.432,62.259h4.769v-0.687h-4.013v-1.333h2.667
			v-0.686h-2.667v-1.163h3.837v-0.688h-4.593V62.259z M28.107,36.511c0,0.096,0.078,0.173,0.174,0.173l0.215,0.001
			c0.344,0.001,0.954,0.003,1.045-0.001c3.862-0.003,7.268-0.904,10.124-2.675c1.32-0.818,2.508-1.841,3.658-2.829
			c1.676-1.443,3.409-2.934,5.559-3.781c0.212-0.085,0.795-0.279,1.619-0.279c0.834,0,2.036,0.233,3.038,1.344
			c0.261,0.289,0.483,0.754,0.594,1.063c0.751,2.101-0.532,4.996-3.27,7.372c-0.056,0.049-0.113,0.097-0.17,0.145l-0.06,0.052
			c-3.475,2.956-8.774,4.392-12.509,4.509c0.021-0.964,0.307-2.68,0.546-3.547c0.024-0.086-0.021-0.176-0.106-0.208
			c-0.088-0.032-0.192,0.016-0.224,0.102c-0.433,1.209-1.002,3.251-1.39,4.759l-0.016,0.065l0.068-0.002
			c2.809-0.075,8.344-0.878,13.854-5.411c0.08-0.066,0.158-0.134,0.235-0.201c2.845-2.469,4.168-5.513,3.369-7.752
			c-0.08-0.224-0.267-0.676-0.623-1.178c-0.961-1.359-2.296-1.73-3.007-1.83c-1.598-0.192-3.255,0.281-5.109,1.463
			c-1.244,0.793-2.365,1.755-3.45,2.688c-0.835,0.715-1.569,1.318-2.244,1.843c-0.477,0.373-4.842,3.643-10.808,3.929
			c-0.289,0.013-0.555,0.014-0.824,0.014h-0.114C28.185,36.336,28.107,36.414,28.107,36.511 M32.14,53.582
			c0.78-1.108,0.821-2.895,0.143-4.064c-0.533-0.924-1.478-1.499-2.442-1.704c-0.33-0.064-0.659-0.094-0.982-0.093
			c-1.051,0.006-2.048,0.356-2.817,1.079c-1.007,0.984-1.294,2.483-0.883,3.838c0.369,1.253,1.622,2.279,2.915,2.443
			c0.265,0.038,0.527,0.059,0.787,0.059C30.153,55.14,31.353,54.66,32.14,53.582 M31.041,51.447
			c-0.001,1.068-0.208,2.264-1.282,2.677c-0.284,0.111-0.595,0.134-0.905,0.133c-0.306-0.001-0.634-0.039-0.919-0.161
			c-0.953-0.408-1.237-1.58-1.257-2.648c-0.002-0.953,0.262-2.076,0.965-2.525c0.386-0.247,0.767-0.341,1.221-0.337
			c0.446,0,0.888,0.087,1.246,0.337C30.716,49.371,31.077,50.266,31.041,51.447 M42.217,54.733c0.485,0.287,1.085,0.419,1.694,0.415
			c0.83-0.004,1.675-0.261,2.269-0.723c0.143,0.164,0.266,0.349,0.389,0.513h0.821l0.001-2.445c0.012-0.635,0.244-0.5,0.924-0.511
			v-0.76h-3.593v0.756c0.927,0.028,1.127-0.124,1.14,0.519c-0.003,1.338-0.866,1.593-1.052,1.671
			c-0.626,0.267-1.428,0.154-1.909-0.424c-0.895-1.076-0.869-3.549,0.014-4.596c0.473-0.534,1.181-0.632,1.909-0.39
			c0.822,0.266,1.294,1.129,1.499,1.889h0.842v-2.711h-0.821l-0.287,0.555c-0.598-0.506-1.419-0.761-2.23-0.75
			c-0.443,0.006-0.883,0.09-1.281,0.257c-1.294,0.493-1.973,1.849-2.033,3.142C40.451,52.598,40.903,53.994,42.217,54.733
			 M50.805,53.661l-0.001-4.546c0-0.385,0.356-0.317,0.986-0.315v-0.863h-3.552V48.8c0.53,0,0.985-0.069,0.985,0.326l0.003,4.535
			c0,0.484-0.515,0.395-0.988,0.411v0.845h3.552l0.001-0.845C51.107,54.072,50.805,54.128,50.805,53.661 M46.834,62.259v-3.868
			h2.177v-0.688h-5.108v0.688h2.176v3.868H46.834z M34.789,53.544v-3.762c1.171,1.727,3.491,5.134,3.491,5.134h1.314v-5.71
			c0-0.17-0.031-0.411,0.296-0.411l0.751,0.004v-0.863h-3.306v0.863l0.649-0.004c0.475-0.009,0.46,0.212,0.46,0.444
			c0.007,1.167,0,3.09,0,3.09l-3.039-4.394h-2.833v0.874l0.778,0.003c0.345,0.032,0.263,0.213,0.269,0.558v4.109
			c0,0.655-0.125,0.591-1.047,0.591v0.846H36l-0.001-0.846C35.066,54.07,34.789,54.152,34.789,53.544 M54.521,53.545v-3.761
			c1.171,1.726,3.491,5.133,3.491,5.133h1.314v-5.71c0-0.162-0.008-0.409,0.296-0.409l0.751,0.002v-0.863h-3.306L57.066,48.8
			l0.65-0.002c0.474-0.01,0.46,0.211,0.46,0.443c0.007,1.166,0,3.089,0,3.089l-3.039-4.394h-2.834v0.875l0.606,0.003
			c0.398,0,0.436,0.213,0.442,0.558v4.108c0,0.695-0.189,0.592-1.048,0.592v0.845h3.429l-0.001-0.845
			C54.766,54.072,54.521,54.176,54.521,53.545 M60.56,57.703h-3.592v4.556h0.756v-1.736h2.301l1.233,1.736h0.875l-1.221-1.774
			c0.68-0.114,1.184-0.541,1.184-1.346C62.096,58.258,61.517,57.703,60.56,57.703 M60.378,58.391c0.635,0,0.944,0.244,0.944,0.748
			c0,0.445-0.309,0.697-0.875,0.697h-2.723v-1.445H60.378z M66.711,51.944v0.846c-0.007,1.002-0.712,1.275-1.362,1.26l-1.876,0.006
			v-2.333c0,0,0.761-0.072,1.027,0.174c0.329,0.309,0.288,1.276,0.288,1.276h0.76V49.62l-0.753-0.001c0,0-0.017,0.899-0.3,1.122
			c-0.282,0.223-1.022,0.159-1.022,0.159v-2.102l1.876,0.005c0.132,0,0.772-0.034,1.063,0.269c0.275,0.288,0.329,0.942,0.329,1.257
			c0,0.325,0.002,0.491,0.002,0.491l0.755,0.006v-2.89h-6.693l-0.004,0.875c0.898,0,1.154-0.096,1.153,0.412l0.002,4.373
			c0,0.545-0.215,0.442-1.151,0.463l-0.004,0.857h6.697v-2.976L66.711,51.944z M63.818,61.051l-0.414,0.547
			c0.66,0.521,1.553,0.768,2.711,0.768c1.616,0,2.485-0.56,2.485-1.517c0-0.761-0.542-1.15-1.674-1.295
			c-0.924-0.12-1.673-0.063-2.17-0.239c-0.264-0.094-0.396-0.233-0.396-0.441c0-0.377,0.497-0.615,1.44-0.615
			c0.717,0,1.384,0.17,2.064,0.516l0.459-0.509c-0.661-0.448-1.486-0.674-2.466-0.674c-1.479,0-2.296,0.534-2.296,1.384
			c0,0.874,0.704,1.095,2.107,1.188c1.34,0.088,2.114,0.088,2.114,0.736c0,0.491-0.579,0.806-1.661,0.806
			C65.29,61.705,64.548,61.496,63.818,61.051"/>
		<g opacity="0.7" clip-path="url(#SVGID_46_)">
			<g>
				<defs>
					<rect id="SVGID_47_" x="-26.788" y="217.879" width="22.83" height="107.846"/>
				</defs>
				<clipPath id="SVGID_48_">
					<use xlink:href="#SVGID_47_"  overflow="visible"/>
				</clipPath>
				<g clip-path="url(#SVGID_48_)">
					
						<text transform="matrix(-6.123234e-017 -1 1.1111 -6.803593e-017 -19.9858 316.7236)" fill="#1D1D1B" font-family="'HelveticaNeueLTStd-Lt'" font-size="5.4">l</text>
				</g>
				<g clip-path="url(#SVGID_48_)">
					
						<text transform="matrix(-6.123234e-017 -1 1.1111 -6.803593e-017 -19.9858 315.5635)" fill="#1D1D1B" font-family="'HelveticaNeueLTStd-Lt'" font-size="5.4">e</text>
				</g>
				<g clip-path="url(#SVGID_48_)">
					<text transform="matrix(-6.123234e-017 -1 1.1111 -6.803593e-017 -19.9858 312.6045)"><tspan x="0" y="0" fill="#1D1D1B" font-family="'HelveticaNeueLTStd-Lt'" font-size="5.4">b</tspan><tspan x="3.262" y="0" fill="#1D1D1B" font-family="'HelveticaNeueLTStd-Lt'" font-size="5.4">u</tspan></text>
				</g>
				<g clip-path="url(#SVGID_48_)">
					
						<text transform="matrix(-6.123234e-017 -1 1.1111 -6.803593e-017 -19.9858 306.2803)" fill="#1D1D1B" font-family="'HelveticaNeueLTStd-Lt'" font-size="5.4">r</text>
				</g>
				<g clip-path="url(#SVGID_48_)">
					
						<text transform="matrix(-6.123234e-017 -1 1.1111 -6.803593e-017 -19.9858 304.5146)" fill="#1D1D1B" font-family="'HelveticaNeueLTStd-Lt'" font-size="5.4">e</text>
				</g>
				<g clip-path="url(#SVGID_48_)">
					
						<text transform="matrix(-6.123234e-017 -1 1.1111 -6.803593e-017 -19.9858 301.5498)" fill="#1D1D1B" font-family="'HelveticaNeueLTStd-Lt'" font-size="5.4">a</text>
				</g>
				<g clip-path="url(#SVGID_48_)">
					<text transform="matrix(-6.123234e-017 -1 1.1111 -6.803593e-017 -19.9858 298.5908)"><tspan x="0" y="0" fill="#1D1D1B" font-family="'HelveticaNeueLTStd-Lt'" font-size="5.4">u</tspan><tspan x="3.062" y="0" fill="#1D1D1B" font-family="'HelveticaNeueLTStd-Lt'" font-size="5.4">d</tspan></text>
				</g>
				<g clip-path="url(#SVGID_48_)">
					<text transform="matrix(-6.123234e-017 -1 1.1111 -6.803593e-017 -19.9858 292.2666)"><tspan x="0" y="0" fill="#1D1D1B" font-family="'HelveticaNeueLTStd-Lt'" font-size="5.4">a</tspan><tspan x="2.954" y="0" fill="#1D1D1B" font-family="'HelveticaNeueLTStd-Lt'" font-size="5.4">c</tspan><tspan x="5.913" y="0" fill="#1D1D1B" font-family="'HelveticaNeueLTStd-Lt'" font-size="5.4">o</tspan></text>
				</g>
				<g clip-path="url(#SVGID_48_)">
					<text transform="matrix(-6.123234e-017 -1 1.1111 -6.803593e-017 -19.9858 283.1904)"><tspan x="0" y="0" fill="#1D1D1B" font-family="'HelveticaNeueLTStd-Lt'" font-size="5.4">t</tspan><tspan x="1.761" y="0" fill="#1D1D1B" font-family="'HelveticaNeueLTStd-Lt'" font-size="5.4">e.</tspan><tspan x="6.378" y="0" fill="#1D1D1B" font-family="'HelveticaNeueLTStd-Lt'" font-size="5.4">f</tspan></text>
				</g>
				<g clip-path="url(#SVGID_48_)">
					
						<text transform="matrix(-6.123234e-017 -1 1.1111 -6.803593e-017 -19.9858 275.2412)" fill="#1D1D1B" font-family="'HelveticaNeueLTStd-Lt'" font-size="5.4">r</text>
				</g>
			</g>
		</g>
	</g>
</g>
</svg>
