<?xml version="1.0" encoding="utf-8"?>
<!-- Generator: Adobe Illustrator 16.0.0, SVG Export Plug-In . SVG Version: 6.00 Build 0)  -->
<!DOCTYPE svg PUBLIC "-//W3C//DTD SVG 1.1//EN" "http://www.w3.org/Graphics/SVG/1.1/DTD/svg11.dtd">
<svg version="1.1" id="Calque_1" xmlns="http://www.w3.org/2000/svg" xmlns:xlink="http://www.w3.org/1999/xlink" x="0px" y="0px"
	 width="130.394px" height="130.394px" viewBox="0 0 130.394 130.394" enable-background="new 0 0 130.394 130.394"
	 xml:space="preserve">
<g>
	<path fill="#3AAA35" d="M65.197,130.394c36.006,0,65.197-29.19,65.197-65.197S101.204,0,65.197,0C29.19,0,0,29.189,0,65.196
		S29.19,130.394,65.197,130.394"/>
	<path fill="#FFFFFF" d="M107.553,50.657c0,0-0.178,22.077-16.275,40.12C91.278,90.777,108.088,76.654,107.553,50.657"/>
	<path fill="#FFFFFF" d="M107.917,61.514c0,0-0.023,10.401,12.594,29.05C120.51,90.563,108.038,77.638,107.917,61.514"/>
	<path fill="#FFFFFF" d="M103.524,87.766c5.709-2.978,10.07,1.871,10.848,2.939c-2.177-3.496-6.478-6.664-11.06-3.508
		C103.549,87.735,103.502,87.73,103.524,87.766"/>
	<path fill="#FFFFFF" d="M104.418,84.244c1.654-0.308,2.918-1.005,4.023-1.856c0.82,0.242,1.445-0.704,2.258-0.472
		c0.121,1.431-1.549,1.459-1.393,2.688c0.785-0.243,2.351-2.108,2.158-2.996c-0.199-0.917-1.436-0.485-2.142-0.986l-0.22-0.073
		c-0.244-1.832-1.52-2.474-1.724-4.354c0.608,0.396,1.306,0.689,1.733,1.295c1.285-0.498,0.458-1.086-0.125-1.836
		c-0.643-0.828-1.063-1.35-1.502-2.136c-0.293-0.051-0.096,0.38-0.256,0.46c-0.172-0.105-0.194-0.381-0.389-0.458
		c-0.005,0.478,0,0.519,0.066,0.996c-0.311,0.374-0.883,0.692-1.139,1.152c-0.696,1.237-0.23,3.361-0.98,4.52
		c-0.831,1.278-2.423,1.12-3.493,2.31c-3.585-1.328-1.78,4.434-3.862,5.303c0.152,0.041,0.463-0.1,0.508,0.07
		c-0.016,0.226-0.639,0.517-0.317,0.614c0.61-0.105,1.17-0.646,1.521-0.771c-0.053,0.278-0.293,0.376-0.387,0.612
		c0.93-0.492,1.691-0.711,1.723-1.996c0.039-1.403-1.144-3.453,0.699-3.445c-0.164,1.386,0.879,2.29,0.731,3.438
		c-0.04,0.324-0.394,0.573-0.366,0.92c0.059,0.715,0.975,1.082,1.402,1.676c0.346,0.481,0.564,0.955,0.744,1.524
		c0.238-0.048,0.672,0.096,0.783-0.079c-0.17-0.181-0.334-0.329-0.467-0.535c-0.283-0.438-1.449-2.048-1.455-2.517
		c-0.009-0.463,0.766-1.317,1.023-1.764c0.261-0.452,0.393-0.836,0.563-1.247L104.418,84.244z"/>
	<path fill="#FFFFFF" d="M102.024,88.684l-0.459-0.396c-0.943,0.686-2.033,1.704-2.807,2.528
		C98.758,90.815,101.028,89.199,102.024,88.684"/>
</g>
<polygon fill="#FFFFFF" points="18.641,59.137 18.641,71.205 15.514,71.205 15.514,53.581 18.615,53.581 30.219,65.391 
	30.219,53.581 33.346,53.581 33.346,71.205 30.555,71.205 "/>
<g>
	<path fill="#FFFFFF" d="M53.699,64.823c0,1.86-0.328,3.256-0.982,4.186c-1.207,1.672-3.721,2.507-7.547,2.507
		c-2.773,0-4.884-0.447-6.331-1.344c-0.827-0.533-1.396-1.249-1.706-2.144c-0.327-0.896-0.491-1.966-0.491-3.205V53.581h3.437
		v10.157c0,1.016,0.061,1.766,0.182,2.248c0.12,0.481,0.344,0.887,0.671,1.214c0.879,0.879,2.343,1.318,4.394,1.318
		c2.049,0,3.514-0.439,4.393-1.318c0.327-0.327,0.551-0.732,0.672-1.214c0.12-0.482,0.181-1.232,0.181-2.248V53.581h3.127V64.823z"
		/>
</g>
<rect x="56.969" y="53.58" fill="#FFFFFF" width="3.437" height="17.627"/>
<polygon fill="#FFFFFF" points="72.077,56.475 72.077,71.207 68.639,71.207 68.639,56.475 61.816,56.475 61.816,53.581 
	78.899,53.581 78.899,56.475 "/>
<g>
	<path fill="#FFFFFF" d="M83.317,69.758h2.52c0.793,0,1.393-0.107,1.797-0.322c0.861-0.447,1.292-1.327,1.292-2.637
		c0-0.946-0.233-1.676-0.698-2.183c-0.258-0.276-0.572-0.475-0.942-0.595s-0.853-0.181-1.448-0.181h-2.52V69.758z M81.598,62.394
		h4.407c1.06,0,1.873,0.121,2.442,0.361c0.801,0.362,1.395,0.952,1.783,1.771c0.301,0.646,0.451,1.404,0.451,2.273
		c0,1.517-0.451,2.676-1.355,3.477c-0.389,0.336-0.838,0.575-1.352,0.717c-0.512,0.142-1.168,0.214-1.97,0.214h-4.407V62.394z"/>
	<path fill="#FFFFFF" d="M100.252,68.015c0,0.93-0.164,1.629-0.491,2.093c-0.604,0.836-1.86,1.254-3.774,1.254
		c-1.385,0-2.441-0.225-3.164-0.673c-0.414-0.268-0.698-0.624-0.854-1.072c-0.164-0.448-0.246-0.981-0.246-1.602v-5.622h1.719v5.079
		c0,0.509,0.03,0.883,0.09,1.124c0.061,0.241,0.174,0.444,0.336,0.607c0.439,0.44,1.173,0.658,2.199,0.658
		c1.023,0,1.756-0.218,2.195-0.658c0.163-0.163,0.276-0.366,0.336-0.607c0.061-0.241,0.09-0.615,0.09-1.124v-5.079h1.564V68.015z"/>
	<path fill="#FFFFFF" d="M26.162,83.352l0.994,1.734c-0.241,0.24-0.615,0.505-1.12,0.794c-1.024,0.604-1.883,1.006-2.575,1.21
		c-0.693,0.205-1.521,0.307-2.483,0.307c-1.915,0-3.481-0.456-4.697-1.372c-0.722-0.542-1.289-1.21-1.697-2.005
		c-0.483-0.903-0.723-1.902-0.723-2.997c0-1.494,0.427-2.795,1.283-3.903c1.287-1.649,3.233-2.474,5.834-2.474
		c0.962,0,1.788,0.102,2.474,0.306c0.687,0.206,1.548,0.609,2.584,1.211c0.493,0.277,0.867,0.554,1.12,0.831l-0.994,1.734
		c-0.53-0.519-0.994-0.886-1.39-1.103c-1.084-0.602-2.235-0.903-3.451-0.903c-1.446,0-2.602,0.355-3.468,1.065
		c-1.025,0.82-1.536,1.897-1.536,3.235c0,1.323,0.511,2.4,1.536,3.231c0.866,0.699,2.022,1.048,3.468,1.048
		c1.216,0,2.367-0.301,3.451-0.902C25.157,84.183,25.62,83.833,26.162,83.352"/>
</g>
<polygon fill="#FFFFFF" points="38.943,81.798 31.538,81.798 31.538,87.181 29.134,87.181 29.134,74.861 31.538,74.861 
	31.538,79.774 38.943,79.774 38.943,74.861 41.345,74.861 41.345,87.181 38.943,87.181 "/>
<polygon fill="#FFFFFF" points="46.287,81.779 46.287,85.158 55.156,85.158 55.156,87.181 43.885,87.181 43.885,74.861 
	54.939,74.861 54.939,76.885 46.287,76.885 46.287,79.811 52.229,79.811 52.229,81.779 "/>
<polygon fill="#FFFFFF" points="62.193,83.604 66.221,74.862 68.661,74.862 63.223,87.181 61.091,87.181 55.583,74.862 
	58.166,74.862 "/>
<path fill="#FFFFFF" d="M74.629,82.357l-2.204-4.389l-2.239,4.389H74.629z M75.28,84.037H69.5l-1.572,3.144h-2.202l5.707-12.319
	h2.131l5.854,12.319h-2.564L75.28,84.037z"/>
<polygon fill="#FFFFFF" points="83.148,85.157 91.674,85.157 91.674,87.181 80.746,87.181 80.746,74.861 83.148,74.861 "/>
<polygon fill="#FFFFFF" points="55.9,43.835 57.99,46.621 61.292,45.511 59.287,48.359 61.364,51.155 58.035,50.13 56.017,52.969 
	55.964,49.486 52.642,48.443 55.936,47.318 "/>
<g>
	<path fill="#FFFFFF" d="M23.29,36.217c-0.756,0-1.369-0.217-1.783-0.424l0.387-1.098c0.351,0.216,0.936,0.414,1.467,0.414
		c0.594,0,1.044-0.234,1.044-0.766c0-0.468-0.45-0.666-0.819-0.819l-0.468-0.197c-0.846-0.36-1.512-0.819-1.512-1.864
		c0-1.098,0.9-1.927,2.295-1.927c0.567,0,1.215,0.1,1.738,0.36l-0.414,1.071c-0.369-0.216-0.829-0.351-1.324-0.351
		c-0.738,0-0.927,0.423-0.927,0.702c0,0.44,0.441,0.63,0.801,0.792l0.468,0.207c0.819,0.36,1.54,0.811,1.54,1.827
		C25.784,35.658,24.595,36.217,23.29,36.217z"/>
	<path fill="#FFFFFF" d="M28.978,33.831H28.33v2.232h-1.404v-6.355h1.954c0.504,0,2.728-0.081,2.728,1.971
		C31.606,33.524,30.067,33.831,28.978,33.831z M28.96,30.797h-0.63v1.954h0.648c0.522,0,1.206-0.162,1.206-0.981
		C30.184,30.905,29.428,30.797,28.96,30.797z"/>
	<path fill="#FFFFFF" d="M35.188,36.234c-1.584,0-2.953-0.855-2.953-3.357c0-2.477,1.611-3.358,2.971-3.358
		c1.584,0,2.953,0.855,2.953,3.358C38.159,35.353,36.547,36.234,35.188,36.234z M35.197,30.662c-1.161,0-1.512,1.026-1.512,2.215
		c0,1.188,0.369,2.214,1.512,2.214c1.162,0,1.513-1.026,1.513-2.214C36.709,31.688,36.34,30.662,35.197,30.662z"/>
	<path fill="#FFFFFF" d="M42.893,36.063l-1.27-2.16c-0.207-0.352-0.405-0.379-0.549-0.379H40.66v2.539h-1.404v-6.355h2.062
		c0.927,0,2.737,0.063,2.737,1.827c0,1.063-0.828,1.539-1.386,1.63c0.261,0.459,1.341,2.07,1.926,2.898H42.893z M41.344,30.797
		H40.66v1.684h0.765c0.541,0,1.17-0.162,1.17-0.864C42.595,30.887,41.902,30.797,41.344,30.797z"/>
	<path fill="#FFFFFF" d="M47.824,30.851v5.213h-1.405v-5.213h-1.954v-1.143h5.312v1.143H47.824z"/>
	<path fill="#FFFFFF" d="M57.364,36.063l-0.531-0.478c-0.504,0.369-1.089,0.604-1.765,0.604c-1.314,0-2.287-0.711-2.287-1.936
		c0-0.882,0.504-1.413,1.117-1.746c-0.279-0.36-0.522-0.702-0.522-1.351c0-1.009,0.874-1.639,1.828-1.639
		c0.801,0,1.755,0.423,1.755,1.558c0,0.891-0.675,1.323-1.396,1.665c0.352,0.414,0.783,0.855,1.216,1.288
		c0.207-0.315,0.297-0.702,0.297-1.18c0-0.09,0-0.189-0.009-0.279l1.152-0.027c0.009,0.091,0.018,0.226,0.018,0.315
		c0,0.783-0.234,1.387-0.639,1.954c0.459,0.423,0.963,0.864,1.405,1.251H57.364z M54.483,33.236
		c-0.252,0.145-0.468,0.441-0.468,0.928c0,0.549,0.531,0.981,1.053,0.981c0.432,0,0.756-0.153,0.963-0.298
		C55.5,34.344,54.924,33.759,54.483,33.236z M55.194,30.383c-0.36,0-0.63,0.271-0.63,0.693c0,0.45,0.234,0.738,0.441,0.981
		c0.468-0.243,0.811-0.522,0.811-1.054C55.816,30.688,55.555,30.383,55.194,30.383z"/>
	<path fill="#FFFFFF" d="M63.753,36.217c-0.756,0-1.368-0.217-1.782-0.424l0.387-1.098c0.351,0.216,0.936,0.414,1.467,0.414
		c0.594,0,1.044-0.234,1.044-0.766c0-0.468-0.45-0.666-0.819-0.819l-0.468-0.197c-0.846-0.36-1.512-0.819-1.512-1.864
		c0-1.098,0.9-1.927,2.295-1.927c0.567,0,1.215,0.1,1.738,0.36l-0.414,1.071c-0.369-0.216-0.829-0.351-1.324-0.351
		c-0.738,0-0.927,0.423-0.927,0.702c0,0.44,0.441,0.63,0.801,0.792l0.468,0.207c0.819,0.36,1.539,0.811,1.539,1.827
		C66.247,35.658,65.059,36.217,63.753,36.217z"/>
	<path fill="#FFFFFF" d="M69.442,33.831h-0.648v2.232h-1.404v-6.355h1.953c0.504,0,2.728-0.081,2.728,1.971
		C72.07,33.524,70.531,33.831,69.442,33.831z M69.423,30.797h-0.63v1.954h0.648c0.521,0,1.205-0.162,1.205-0.981
		C70.647,30.905,69.891,30.797,69.423,30.797z"/>
	<path fill="#FFFFFF" d="M73.077,36.063v-6.355h3.934v1.143h-2.529v1.306h2.439v1.099h-2.439v1.665h2.665v1.144H73.077z"/>
	<path fill="#FFFFFF" d="M81.178,36.217c-1.936,0-3.152-1.387-3.152-3.259c0-1.774,1.018-3.422,3.152-3.422
		c0.783,0,1.359,0.162,1.818,0.369l-0.459,1.162c-0.414-0.226-0.874-0.343-1.279-0.343c-1.323,0-1.773,1.188-1.773,2.197
		c0,1.323,0.873,2.106,1.873,2.106c0.504,0,0.954-0.153,1.27-0.342l0.377,1.089C82.545,36.01,81.799,36.217,81.178,36.217z"/>
	<path fill="#FFFFFF" d="M86.785,30.851v5.213h-1.405v-5.213h-1.953v-1.143h5.313v1.143H86.785z"/>
	<path fill="#FFFFFF" d="M92.518,36.063l-0.396-1.206h-2.35l-0.396,1.206h-1.387l2.251-6.365h1.521l2.26,6.365H92.518z
		 M91.239,32.139c-0.135-0.405-0.242-0.928-0.27-1.162h-0.018c-0.027,0.234-0.154,0.757-0.289,1.162l-0.54,1.665h1.657
		L91.239,32.139z"/>
	<path fill="#FFFFFF" d="M97.584,36.217c-1.936,0-3.15-1.387-3.15-3.259c0-1.774,1.017-3.422,3.15-3.422
		c0.783,0,1.359,0.162,1.818,0.369l-0.459,1.162c-0.414-0.226-0.873-0.343-1.278-0.343c-1.323,0-1.774,1.188-1.774,2.197
		c0,1.323,0.874,2.106,1.873,2.106c0.504,0,0.955-0.153,1.27-0.342l0.378,1.089C98.953,36.01,98.206,36.217,97.584,36.217z"/>
	<path fill="#FFFFFF" d="M100.481,36.063v-6.355h1.404v5.212h2.575v1.144H100.481z"/>
	<path fill="#FFFFFF" d="M105.377,36.063v-6.355h3.934v1.143h-2.529v1.306h2.439v1.099h-2.439v1.665h2.664v1.144H105.377z"/>
</g>
<g>
</g>
<g>
</g>
<g>
</g>
<g>
</g>
<g>
</g>
<g>
</g>
</svg>
