<svg id="Calque_1" data-name="Calque 1" xmlns="http://www.w3.org/2000/svg" viewBox="0 0 144.58 62.07"><defs><style>.cls-1{fill:#fff;}</style></defs><title>logo-indoor</title><path class="cls-1" d="M160.83,25.48s-.23,28.18-20.77,51.2c0,0,21.45-18,20.77-51.2" transform="translate(-32.78 -25.48)"/><path class="cls-1" d="M161.3,39.33s0,13.27,16.07,37.07c0,0-15.92-16.5-16.07-37.07" transform="translate(-32.78 -25.48)"/><path class="cls-1" d="M155.69,72.83c7.29-3.8,12.85,2.39,13.84,3.75-2.78-4.46-8.27-8.5-14.12-4.48a3.39,3.39,0,0,1,.27.72" transform="translate(-32.78 -25.48)"/><path class="cls-1" d="M156.83,68.34A11.69,11.69,0,0,0,162,66c1,.31,1.84-.9,2.88-.6.15,1.82-2,1.86-1.78,3.43,1-.31,3-2.69,2.76-3.82s-1.83-.62-2.73-1.26l-.28-.1c-.31-2.34-1.94-3.16-2.2-5.56a7.31,7.31,0,0,1,2.21,1.65c1.64-.64.58-1.39-.16-2.34a20.22,20.22,0,0,1-1.92-2.73c-.37-.07-.12.49-.33.59-.22-.13-.25-.49-.5-.58a5.9,5.9,0,0,0,.09,1.27c-.4.48-1.13.89-1.45,1.47-.89,1.58-.29,4.29-1.25,5.77-1.06,1.63-3.09,1.43-4.46,2.95-4.58-1.7-2.27,5.66-4.93,6.77.19.05.59-.13.65.09s-.82.66-.41.78c.78-.13,1.49-.82,1.94-1-.07.36-.37.48-.49.78,1.19-.63,2.16-.91,2.2-2.55.05-1.79-1.46-4.41.89-4.4-.21,1.77,1.12,2.92.93,4.39-.05.41-.5.73-.47,1.17.07.91,1.24,1.38,1.79,2.14a6.58,6.58,0,0,1,1,1.94c.3-.06.86.12,1-.1a4.74,4.74,0,0,1-.6-.68c-.36-.56-1.85-2.61-1.86-3.21s1-1.68,1.31-2.25a12.15,12.15,0,0,0,.72-1.59l.36-.07" transform="translate(-32.78 -25.48)"/><path class="cls-1" d="M153.77,74l-.59-.51a28,28,0,0,0-3.58,3.23s2.9-2.06,4.17-2.72" transform="translate(-32.78 -25.48)"/><polygon class="cls-1" points="9.57 14.72 9.57 28.69 6.31 28.69 6.31 8.29 9.54 8.29 21.64 21.96 21.64 8.29 24.9 8.29 24.9 28.69 21.99 28.69 9.57 14.72"/><rect class="cls-1" x="0.06" y="8.29" width="3.58" height="20.4"/><path class="cls-1" d="M92.32,33.77a11.18,11.18,0,0,1,8,2.77,10.45,10.45,0,0,1,1.61,12.82q-2.91,4.8-9.58,4.79a11.09,11.09,0,0,1-7.94-2.77A10.19,10.19,0,0,1,82,47.81,10.37,10.37,0,0,1,81.3,44a10.23,10.23,0,0,1,1.5-5.43q2.79-4.68,9.52-4.77m0,3.32a7.1,7.1,0,0,0-4.83,1.68,6.54,6.54,0,0,0-2.3,5.2,6.46,6.46,0,0,0,2.3,5.17,7.85,7.85,0,0,0,9.69,0A6.35,6.35,0,0,0,99,46.71a6.84,6.84,0,0,0,.54-2.66,6.53,6.53,0,0,0-2.3-5.28,7.4,7.4,0,0,0-4.86-1.68" transform="translate(-32.78 -25.48)"/><path class="cls-1" d="M116.36,33.77a11.18,11.18,0,0,1,8,2.77A10.45,10.45,0,0,1,126,49.36q-2.91,4.8-9.58,4.79a11.09,11.09,0,0,1-7.94-2.77,10.17,10.17,0,0,1-2.39-3.58,10.61,10.61,0,0,1,.78-9.27q2.79-4.68,9.52-4.77m0,3.32a7.1,7.1,0,0,0-4.83,1.68,6.54,6.54,0,0,0-2.3,5.2,6.46,6.46,0,0,0,2.3,5.17,7.85,7.85,0,0,0,9.69,0A6.37,6.37,0,0,0,123,46.71a6.86,6.86,0,0,0,.54-2.66,6.53,6.53,0,0,0-2.3-5.28,7.41,7.41,0,0,0-4.86-1.68" transform="translate(-32.78 -25.48)"/><path class="cls-1" d="M60.37,33.77h9.19a12.3,12.3,0,0,1,5.09.84,7.8,7.8,0,0,1,3.72,4.1A13.48,13.48,0,0,1,79.31,44q0,5.26-2.83,8a6.94,6.94,0,0,1-2.82,1.66,14.22,14.22,0,0,1-4.11.5H60.37V33.77m3.58,17h5.25A7.49,7.49,0,0,0,73,50.06q2.69-1.55,2.69-6.1a7.75,7.75,0,0,0-1.46-5.05,4.57,4.57,0,0,0-2-1.37,9.05,9.05,0,0,0-3-.42H64Z" transform="translate(-32.78 -25.48)"/><path class="cls-1" d="M133.71,45.85v8.31h-3.58V33.77h10.43a15.87,15.87,0,0,1,3.29.27,5.51,5.51,0,0,1,2.1.93,4.79,4.79,0,0,1,1.51,2.13,8.15,8.15,0,0,1,.46,2.75q0,5-5.15,5.83L148,54.17h-3.9l-5.18-8.31h-5.23m0-3.38h6.42a14.59,14.59,0,0,0,2-.09,3.75,3.75,0,0,0,1.12-.36,2.31,2.31,0,0,0,1.13-2.21,2.28,2.28,0,0,0-1.13-2.21,3.06,3.06,0,0,0-1.09-.39,14.85,14.85,0,0,0-2-.09h-6.42Z" transform="translate(-32.78 -25.48)"/><path class="cls-1" d="M32.92,62.39h4.52a6.18,6.18,0,0,1,2.49.41,3.46,3.46,0,0,1,1.81,1.89,5.42,5.42,0,0,1,.39,2.14,4.41,4.41,0,0,1-1.3,3.45,3.44,3.44,0,0,1-1.38.75,7.38,7.38,0,0,1-2,.23H32.92V62.39m1.85,7.28h2.37A3.28,3.28,0,0,0,39.48,69a3.34,3.34,0,0,0,0-4.23,2.27,2.27,0,0,0-1-.55A4.9,4.9,0,0,0,37.14,64H34.77Z" transform="translate(-32.78 -25.48)"/><polygon class="cls-1" points="12.74 42.02 12.74 44.19 19.11 44.19 19.11 45.79 10.89 45.79 10.89 36.91 18.88 36.91 18.88 38.53 12.74 38.53 12.74 40.48 16.85 40.48 16.85 42.02 12.74 42.02"/><path class="cls-1" d="M86.92,71H79.33l-1.82,4H74.4L82,59h2.56L92.51,75H89.16ZM86,68.78l-3-5.16-2.84,5.16Z" transform="translate(-32.78 -25.48)"/><path class="cls-1" d="M98,68.46V75H94.61V59h9.28a16.06,16.06,0,0,1,3,.22,5.14,5.14,0,0,1,1.86.76,4.2,4.2,0,0,1,1.59,3.7,4.28,4.28,0,0,1-1,3,6.49,6.49,0,0,1-3.63,1.59L110.39,75h-3.78l-4.51-6.59H98m0-2.9h6a5.27,5.27,0,0,0,2-.28,1.53,1.53,0,0,0,1-1.55,1.46,1.46,0,0,0-.71-1.4,5,5,0,0,0-2.32-.4H98Z" transform="translate(-32.78 -25.48)"/><rect class="cls-1" x="81.2" y="33.51" width="3.35" height="16.06"/><path class="cls-1" d="M134.91,61.05l-1.42,2.41A7.59,7.59,0,0,0,130.71,62a11.14,11.14,0,0,0-3.26-.48,7.38,7.38,0,0,0-2.53.4c-1.12.36-1.68.89-1.68,1.6a1,1,0,0,0,.83,1,14,14,0,0,0,3,.46l2.25.16a10.1,10.1,0,0,1,4.4,1.15A4.16,4.16,0,0,1,135,67.73a4.53,4.53,0,0,1,.68,2.45A4.48,4.48,0,0,1,133.59,74,10,10,0,0,1,128,75.39a14.26,14.26,0,0,1-7.47-2.07l1-2.41a11.18,11.18,0,0,0,2.92,1.14,14.32,14.32,0,0,0,3.49.44,9,9,0,0,0,2.78-.41c1.08-.32,1.62-.85,1.62-1.57s-.39-1-1.17-1.24a13,13,0,0,0-2.53-.38l-2.22-.2a17.67,17.67,0,0,1-2.74-.37,5.46,5.46,0,0,1-1.6-.65,3.92,3.92,0,0,1-1.33-1.57,4.83,4.83,0,0,1-.48-2.16,4.56,4.56,0,0,1,2.13-4.05,9,9,0,0,1,4.94-1.26,13.12,13.12,0,0,1,3.37.46,15.56,15.56,0,0,1,4.13,1.95" transform="translate(-32.78 -25.48)"/><path class="cls-1" d="M62.77,68.46V75H59.41V59h9.23a8.62,8.62,0,0,1,4.52.95,3.73,3.73,0,0,1,1.33,1.55A5.08,5.08,0,0,1,75,63.72a4.18,4.18,0,0,1-1.54,3.57,8,8,0,0,1-4.79,1.17H62.77m0-2.9h5.65a5.86,5.86,0,0,0,2.18-.28,1.55,1.55,0,0,0,1-1.55,1.5,1.5,0,0,0-1-1.52,5.63,5.63,0,0,0-2.16-.28H62.77Z" transform="translate(-32.78 -25.48)"/><path class="cls-1" d="M32.78,86.38h1.07V84.26h2c.93,0,2.45,0,2.45-1.67s-1.52-1.68-2.45-1.68h-3v5.47m1.07-3V81.83h2.21c.61,0,1.15.05,1.15.75s-.54.76-1.15.76Zm6.31,0V81.8h2.06c.88,0,1.32.13,1.32.77s-.44.78-1.32.78Zm-1.07,3h1.07V84.23h1.69l1.59,2.15h1.32l-1.68-2.23a1.55,1.55,0,0,0,1.53-1.61c0-1.34-.93-1.63-2.23-1.63H39.09Zm9.64-.78c-1,0-2.19-.42-2.19-2,0-1.32.94-1.94,2.19-1.94s2.19.62,2.19,1.94c0,1.55-1.17,2-2.19,2m-3.26-1.91c0,1.14.67,2.83,3.26,2.83S52,84.82,52,83.69c0-1.5-.85-2.91-3.26-2.91s-3.26,1.41-3.26,2.91m7,2.69h.44l-.41,1.16H53l.48-1.12V85.31h-1Zm6.32-2.17,1.15-2.44L61,84.21Zm-2.16,2.17h1.14l.58-1.26h3.16L62,86.38h1.13L60.5,80.91H59.28Zm10,0h.85l1.75-4.15h0v4.15h.95V80.91H68.76L67,85l-1.71-4.06H63.88v5.47h.95V82.23h0ZM73,84.21l1.14-2.44,1.14,2.44Zm-2.16,2.17H72l.58-1.26h3.15l.57,1.26h1.13L74.8,80.91H73.58Zm8.3,0h1.07V81.83H82.7v-.92h-6v.92h2.45Zm4.35,0h5v-.92H84.61V84h3.31V83.1H84.61V81.83h3.84v-.92H83.54Zm11.71-5.47H94.18V84c0,.9-.32,1.64-1.84,1.64S90.5,84.86,90.5,84V80.91H89.43V84c0,1.76,1.12,2.48,2.91,2.48s2.91-.72,2.91-2.48Zm2.4,2.43V81.8h2.06c.87,0,1.32.13,1.32.77s-.44.78-1.32.78Zm-1.07,3h1.07V84.23h1.69l1.59,2.15h1.32l-1.68-2.23a1.55,1.55,0,0,0,1.53-1.61c0-1.34-.93-1.63-2.23-1.63H96.58Zm6.94,0H104l-.41,1.16h.5l.48-1.12V85.31h-1Zm9.71-1.95a1.83,1.83,0,0,1-1.91,1.17,2,2,0,1,1,.06-3.91,1.73,1.73,0,0,1,1.76,1h1.07c-.08-.29-.44-1.88-2.89-1.88-2.18,0-3.18,1.19-3.18,2.78a2.81,2.81,0,0,0,3.09,3c2.51,0,3-1.48,3.06-2.08Zm2,1.95h5v-.95h-4V80.91h-1.07ZM127,80.91h-1.07V84c0,.9-.32,1.64-1.84,1.64s-1.84-.74-1.84-1.64V80.91h-1.07V84c0,1.76,1.12,2.48,2.91,2.48S127,85.8,127,84Zm1.33,5.47h3.5c1.33,0,2.15-.56,2.15-1.59a1.46,1.46,0,0,0-.84-1.35,1.19,1.19,0,0,0,.63-1.14c0-1-.86-1.4-2.14-1.4h-3.3Zm1.07-.89V84h2.33c.72,0,1.19.18,1.19.75s-.51.78-1.19.78Zm0-2.42V81.8h2.3c.7,0,1,.17,1,.64s-.31.63-1,.63Zm5.32,3.31h.44l-.4,1.16h.5l.47-1.12V85.31h-1Zm5,0h1.07V84.26h2c.92,0,2.45,0,2.45-1.67s-1.52-1.68-2.45-1.68h-3Zm1.07-3V81.83H143c.61,0,1.15.05,1.15.75s-.54.76-1.15.76Zm8.15,2.26c-1,0-2.19-.42-2.19-2,0-1.32.94-1.94,2.19-1.94s2.19.62,2.19,1.94c0,1.55-1.17,2-2.19,2m-3.26-1.91c0,1.14.67,2.83,3.26,2.83s3.26-1.69,3.26-2.83c0-1.5-.85-2.91-3.26-2.91s-3.26,1.41-3.26,2.91m7.5,2.69h1V82.29L158,86.38h1V80.91h-1v4l-3.66-4h-1.13Zm7.15,0h5v-.92h-3.93V84h3.3V83.1h-3.3V81.83h3.84v-.92h-4.91Zm8.06,0h1.07V84.19l2.67-3.28H170.8l-1.89,2.32L167,80.91h-1.31l2.67,3.28Z" transform="translate(-32.78 -25.48)"/></svg>