<svg id="Calque_1" data-name="Calque 1" xmlns="http://www.w3.org/2000/svg" viewBox="0 0 143.11 82.29"><defs><style>.cls-1{fill:#fff;}</style></defs><title>logo-cmca</title><path class="cls-1" d="M153.29,31.35S153,64.3,129,91.24c0,0,25.1-21.08,24.3-59.89" transform="translate(-30.67 -17.91)"/><path class="cls-1" d="M153.83,47.56s0,15.53,18.8,43.36c0,0-18.62-19.3-18.8-43.36" transform="translate(-30.67 -17.91)"/><path class="cls-1" d="M147.27,86.74c8.52-4.44,15,2.8,16.2,4.39-3.25-5.22-9.67-10-16.51-5.24a3.3,3.3,0,0,1,.32.84" transform="translate(-30.67 -17.91)"/><path class="cls-1" d="M148.61,81.49a13.66,13.66,0,0,0,6-2.77c1.22.36,2.16-1.05,3.37-.7.18,2.13-2.31,2.18-2.08,4,1.17-.36,3.51-3.14,3.22-4.47s-2.14-.72-3.19-1.47l-.33-.11c-.36-2.74-2.27-3.69-2.57-6.49a8.56,8.56,0,0,1,2.58,1.93c1.92-.74.68-1.62-.18-2.74a24,24,0,0,1-2.24-3.19c-.43-.07-.14.57-.38.69-.25-.15-.29-.57-.58-.68a6.65,6.65,0,0,0,.1,1.49c-.46.56-1.32,1-1.7,1.72-1,1.85-.35,5-1.46,6.75-1.24,1.91-3.62,1.67-5.22,3.45-5.35-2-2.66,6.62-5.76,7.91.23.06.69-.15.75.1s-.95.77-.47.92a10.69,10.69,0,0,0,2.27-1.15c-.08.42-.44.56-.58.92,1.39-.73,2.53-1.07,2.57-3,.05-2.1-1.71-5.15,1-5.15-.24,2.07,1.31,3.42,1.09,5.14-.06.48-.59.85-.55,1.37.09,1.07,1.46,1.62,2.1,2.5a7.77,7.77,0,0,1,1.11,2.28c.35-.07,1,.14,1.17-.12a5.48,5.48,0,0,1-.69-.8c-.43-.65-2.16-3.06-2.18-3.76s1.15-2,1.53-2.63a13.85,13.85,0,0,0,.84-1.86l.42-.09" transform="translate(-30.67 -17.91)"/><path class="cls-1" d="M145,88.11l-.68-.59a32.55,32.55,0,0,0-4.19,3.77s3.39-2.41,4.87-3.19" transform="translate(-30.67 -17.91)"/><path class="cls-1" d="M39.81,24.22l.72,1.26a4,4,0,0,1-.81.58,8.82,8.82,0,0,1-1.87.88,6.38,6.38,0,0,1-1.8.22,5.5,5.5,0,0,1-3.4-1,4.2,4.2,0,0,1-1.23-1.45,4.57,4.57,0,0,1-.52-2.17,4.48,4.48,0,0,1,.93-2.83,5,5,0,0,1,4.23-1.79,6.3,6.3,0,0,1,1.79.22,9.23,9.23,0,0,1,1.87.88,3.2,3.2,0,0,1,.81.6l-.72,1.26a4.88,4.88,0,0,0-1-.8,5.09,5.09,0,0,0-2.5-.65,3.84,3.84,0,0,0-2.51.77,3,3,0,0,0,0,4.69,3.89,3.89,0,0,0,2.51.76,5.07,5.07,0,0,0,2.5-.66,6,6,0,0,0,1-.76" transform="translate(-30.67 -17.91)"/><polygon class="cls-1" points="18.39 5.18 13.02 5.18 13.02 9.09 11.28 9.09 11.28 0.16 13.02 0.16 13.02 3.72 18.39 3.72 18.39 0.16 20.13 0.16 20.13 9.09 18.39 9.09 18.39 5.18"/><path class="cls-1" d="M58.28,23.5l-1.6-3.18L55.05,23.5Zm.47,1.22H54.56L53.42,27h-1.6L56,18.06H57.5L61.75,27H59.89Z" transform="translate(-30.67 -17.91)"/><polygon class="cls-1" points="36.99 8.97 33.6 2.92 33.6 9.09 32.02 9.09 32.02 0.16 34.19 0.16 37.16 5.51 40.29 0.16 42.32 0.16 42.32 9.09 40.58 9.09 40.58 2.92 36.99 8.97"/><path class="cls-1" d="M76.54,21.9h3.09a3,3,0,0,0,1.3-.2.87.87,0,0,0,.41-.39,1.22,1.22,0,0,0,.15-.6,1.19,1.19,0,0,0-.15-.59.88.88,0,0,0-.41-.39,3.11,3.11,0,0,0-1.3-.2H76.54V21.9m0,1.47V27H74.8V18.07h5.05a7,7,0,0,1,1.52.13,2.65,2.65,0,0,1,1,.45,2.34,2.34,0,0,1,.68.88,3.06,3.06,0,0,1,.24,1.19,2.7,2.7,0,0,1-.47,1.58,2.1,2.1,0,0,1-1.05.83,5.73,5.73,0,0,1-1.89.24Z" transform="translate(-30.67 -17.91)"/><rect class="cls-1" x="53.55" y="0.16" width="1.74" height="8.93"/><path class="cls-1" d="M92.17,19.41a3.24,3.24,0,0,0-2.2.76,3,3,0,0,0-1,2.36,2.92,2.92,0,0,0,1,2.34,3.58,3.58,0,0,0,4.41,0,2.88,2.88,0,0,0,.8-1.1,3.07,3.07,0,0,0,.25-1.21,3,3,0,0,0-1-2.39,3.38,3.38,0,0,0-2.21-.76m0-1.51a5.1,5.1,0,0,1,3.64,1.26A4.72,4.72,0,0,1,96.53,25a4.7,4.7,0,0,1-4.36,2.17,5.06,5.06,0,0,1-3.61-1.26,4.59,4.59,0,0,1-1.09-1.62,4.78,4.78,0,0,1,.35-4.2,4.72,4.72,0,0,1,4.34-2.16" transform="translate(-30.67 -17.91)"/><polygon class="cls-1" points="69.33 2.97 69.33 9.09 67.74 9.09 67.74 0.16 69.31 0.16 75.19 6.14 75.19 0.16 76.78 0.16 76.78 9.09 75.36 9.09 69.33 2.97"/><polygon class="cls-1" points="80.17 2.97 80.17 9.09 78.59 9.09 78.59 0.16 80.16 0.16 86.04 6.14 86.04 0.16 87.62 0.16 87.62 9.09 86.21 9.09 80.17 2.97"/><path class="cls-1" d="M125.77,23.5l-1.6-3.18-1.62,3.18Zm.47,1.22h-4.19L120.91,27h-1.6l4.14-8.93H125L129.24,27h-1.86Z" transform="translate(-30.67 -17.91)"/><polygon class="cls-1" points="103.58 1.62 103.58 9.09 101.84 9.09 101.84 1.62 98.38 1.62 98.38 0.16 107.04 0.16 107.04 1.62 103.58 1.62"/><path class="cls-1" d="M141.51,25.93h1.86a2.9,2.9,0,0,0,1.32-.24,2,2,0,0,0,1-1.94,2.29,2.29,0,0,0-.51-1.61,1.62,1.62,0,0,0-.7-.44,3.46,3.46,0,0,0-1.07-.13h-1.86v4.36m-1.27-5.43h3.25a4.74,4.74,0,0,1,1.8.27,2.61,2.61,0,0,1,1.32,1.3,4,4,0,0,1,.33,1.68,3.23,3.23,0,0,1-1,2.56,2.51,2.51,0,0,1-1,.53,5.54,5.54,0,0,1-1.45.16h-3.25Z" transform="translate(-30.67 -17.91)"/><path class="cls-1" d="M154.11,24.64a2.68,2.68,0,0,1-.36,1.54q-.66.93-2.78.92a4.47,4.47,0,0,1-2.33-.49,1.51,1.51,0,0,1-.63-.79,3.45,3.45,0,0,1-.18-1.18V20.5h1.27v3.74a3.69,3.69,0,0,0,.07.83.93.93,0,0,0,.25.45,2.94,2.94,0,0,0,3.23,0,.94.94,0,0,0,.25-.45,3.75,3.75,0,0,0,.07-.83V20.5h1.15v4.14" transform="translate(-30.67 -17.91)"/><polygon class="cls-1" points="11.66 31.02 4.5 18.26 4.5 31.27 1.16 31.27 1.16 12.43 5.75 12.43 12.02 23.73 18.62 12.43 22.91 12.43 22.91 31.27 19.23 31.27 19.23 18.26 11.66 31.02"/><path class="cls-1" d="M67.5,33.18a6.85,6.85,0,0,0-4.64,1.6,6.25,6.25,0,0,0-2.21,5,6.18,6.18,0,0,0,2.21,4.95,7.56,7.56,0,0,0,9.31,0,6.09,6.09,0,0,0,1.69-2.32,6.51,6.51,0,0,0,.52-2.54,6.24,6.24,0,0,0-2.21-5.06,7.13,7.13,0,0,0-4.67-1.6m0-3.18a10.76,10.76,0,0,1,7.68,2.65A10,10,0,0,1,76.7,44.93q-2.79,4.59-9.2,4.59a10.68,10.68,0,0,1-7.63-2.65,9.73,9.73,0,0,1-2.29-3.43,10.11,10.11,0,0,1,.75-8.87Q61,30.09,67.48,30" transform="translate(-30.67 -17.91)"/><polygon class="cls-1" points="54.17 18.37 54.17 31.27 50.83 31.27 50.83 12.43 54.14 12.43 66.55 25.06 66.55 12.43 69.89 12.43 69.89 31.27 66.91 31.27 54.17 18.37"/><path class="cls-1" d="M108.88,46.09h5.39a8.43,8.43,0,0,0,3.84-.69q2.76-1.44,2.76-5.64a6.68,6.68,0,0,0-1.49-4.67,4.73,4.73,0,0,0-2-1.27,10.22,10.22,0,0,0-3.1-.39h-5.39V46.09M105.2,30.34h9.42a13.86,13.86,0,0,1,5.22.77,7.55,7.55,0,0,1,3.81,3.79,11.37,11.37,0,0,1,1,4.86q0,4.86-2.9,7.43a7.35,7.35,0,0,1-2.89,1.53,16.07,16.07,0,0,1-4.21.46H105.2Z" transform="translate(-30.67 -17.91)"/><polygon class="cls-1" points="100.99 23.01 100.99 28.18 114.56 28.18 114.56 31.27 97.31 31.27 97.31 12.43 114.22 12.43 114.22 15.52 100.99 15.52 100.99 20 110.08 20 110.08 23.01 100.99 23.01"/><path class="cls-1" d="M32.79,64.12h1.85A2.89,2.89,0,0,0,36,63.89,2,2,0,0,0,36.91,62a2.29,2.29,0,0,0-.51-1.6,1.61,1.61,0,0,0-.69-.44,3.53,3.53,0,0,0-1.06-.13H32.79v4.34m-1.26-5.4h3.23a4.72,4.72,0,0,1,1.79.27,2.59,2.59,0,0,1,1.31,1.3A3.92,3.92,0,0,1,38.2,62a3.23,3.23,0,0,1-1,2.55,2.5,2.5,0,0,1-1,.52,5.45,5.45,0,0,1-1.45.16H31.53Z" transform="translate(-30.67 -17.91)"/><path class="cls-1" d="M45,62.85a2.67,2.67,0,0,1-.36,1.54q-.66.92-2.77.92a4.45,4.45,0,0,1-2.32-.49A1.5,1.5,0,0,1,39,64a3.44,3.44,0,0,1-.18-1.18V58.72H40v3.72a3.72,3.72,0,0,0,.07.83.93.93,0,0,0,.25.45A2.23,2.23,0,0,0,42,64.2a2.23,2.23,0,0,0,1.61-.48,1,1,0,0,0,.25-.45,3.82,3.82,0,0,0,.07-.83V58.72H45v4.12" transform="translate(-30.67 -17.91)"/><path class="cls-1" d="M63.48,64.31l1.17,2a6.32,6.32,0,0,1-1.32.94,14.32,14.32,0,0,1-3,1.43,10.44,10.44,0,0,1-2.93.36,9,9,0,0,1-5.55-1.62,6.85,6.85,0,0,1-2-2.37,7.77,7.77,0,0,1,.66-8.15Q52.75,54,57.35,54a10.37,10.37,0,0,1,2.92.36,15,15,0,0,1,3,1.43,5.29,5.29,0,0,1,1.32,1l-1.17,2a8,8,0,0,0-1.64-1.3,8.27,8.27,0,0,0-4.07-1.07,6.27,6.27,0,0,0-4.1,1.26,4.93,4.93,0,0,0,0,7.64,6.34,6.34,0,0,0,4.1,1.24,8.27,8.27,0,0,0,4.07-1.07,10,10,0,0,0,1.64-1.24" transform="translate(-30.67 -17.91)"/><polygon class="cls-1" points="47.51 44.56 38.77 44.56 38.77 50.92 35.93 50.92 35.93 36.37 38.77 36.37 38.77 42.17 47.51 42.17 47.51 36.37 50.35 36.37 50.35 50.92 47.51 50.92 47.51 44.56"/><polygon class="cls-1" points="56.4 44.54 56.4 48.53 66.87 48.53 66.87 50.92 53.56 50.92 53.56 36.37 66.61 36.37 66.61 38.76 56.4 38.76 56.4 42.22 63.41 42.22 63.41 44.54 56.4 44.54"/><polygon class="cls-1" points="75.4 46.7 80.15 36.37 83.03 36.37 76.61 50.92 74.1 50.92 67.59 36.37 70.64 36.37 75.4 46.7"/><path class="cls-1" d="M122.1,63.13l-2.6-5.18-2.64,5.18Zm.77,2H116l-1.86,3.71h-2.6l6.74-14.55h2.52l6.91,14.55h-3Z" transform="translate(-30.67 -17.91)"/><polygon class="cls-1" points="100.88 48.53 110.95 48.53 110.95 50.92 98.05 50.92 98.05 36.37 100.88 36.37 100.88 48.53"/><path class="cls-1" d="M43.54,84.07l-3.17-6.32-3.23,6.32Zm.94,2.42H36.15L33.89,91H30.72l8.22-17.74H42L50.43,91H46.74Z" transform="translate(-30.67 -17.91)"/><path class="cls-1" d="M55.33,80.85h6.19a15.86,15.86,0,0,0,1.91-.08,4,4,0,0,0,1.08-.31,2,2,0,0,0,1.09-1.92,1.94,1.94,0,0,0-1.09-1.92,3.18,3.18,0,0,0-1.05-.34,15.93,15.93,0,0,0-1.94-.08H55.33v4.66m0,2.94V91H51.87V73.28H61.93a16.92,16.92,0,0,1,3.17.24,5.61,5.61,0,0,1,2,.8,4.19,4.19,0,0,1,1.46,1.85A6.48,6.48,0,0,1,69,78.56q0,4.34-5,5.07L69.14,91H65.37l-5-7.23Z" transform="translate(-30.67 -17.91)"/><path class="cls-1" d="M82.59,84.07l-3.17-6.32-3.23,6.32Zm.94,2.42H75.2L72.94,91H69.76L78,73.28h3.07L89.48,91H85.78Z" transform="translate(-30.67 -17.91)"/><path class="cls-1" d="M94.37,88.1h6.79a5.51,5.51,0,0,0,2.76-.52,2,2,0,0,0,1-1.9,2.07,2.07,0,0,0-1-1.92,5.78,5.78,0,0,0-2.76-.49H94.37V88.1m0-7.78h7a4.37,4.37,0,0,0,2.29-.44,1.82,1.82,0,0,0,.75-1.61,1.79,1.79,0,0,0-.71-1.6,4.32,4.32,0,0,0-2.33-.48h-7Zm10.77,1.4q3.33,1.12,3.33,4.19a4.66,4.66,0,0,1-1.66,3.8,5.23,5.23,0,0,1-2,1A11.09,11.09,0,0,1,102,91H90.91V73.28h11a11.43,11.43,0,0,1,2.73.26,4.49,4.49,0,0,1,1.77.88A4.32,4.32,0,0,1,107.9,78a3.89,3.89,0,0,1-2.76,3.74" transform="translate(-30.67 -17.91)"/><polygon class="cls-1" points="83.09 65.33 83.09 70.19 95.86 70.19 95.86 73.11 79.63 73.11 79.63 55.37 95.54 55.37 95.54 58.28 83.09 58.28 83.09 62.5 91.64 62.5 91.64 65.33 83.09 65.33"/><polygon class="cls-1" points="63.48 79.41 62.32 82.2 61.71 82.2 60.22 78.18 61.04 78.18 62.05 80.67 63.07 78.18 63.94 78.18 64.94 80.67 65.92 78.18 66.76 78.18 65.24 82.2 64.56 82.2 63.48 79.41"/><path class="cls-1" d="M100.22,96.77a1.44,1.44,0,0,0-1,.4,1.37,1.37,0,0,0,0,1.87,1.57,1.57,0,0,0,2.09,0,1.24,1.24,0,0,0,.37-.91,1.27,1.27,0,0,0-.37-1,1.49,1.49,0,0,0-1.05-.4m0-.76a2.42,2.42,0,0,1,1.54.49,2,2,0,0,1,.74,1.64,1.91,1.91,0,0,1-.74,1.57,2.67,2.67,0,0,1-3.07,0,2.12,2.12,0,0,1,0-3.21,2.52,2.52,0,0,1,1.53-.49" transform="translate(-30.67 -17.91)"/><path class="cls-1" d="M104.29,97.73h1.49a1.33,1.33,0,0,0,.5-.07.38.38,0,0,0,.26-.39.37.37,0,0,0-.18-.35,1.25,1.25,0,0,0-.58-.1h-1.49v.91m0,.73v1.65h-.84v-4h2.32a4,4,0,0,1,.76.05,1.3,1.3,0,0,1,.47.19,1.06,1.06,0,0,1,.4.93,1.08,1.08,0,0,1-.25.76,1.64,1.64,0,0,1-.91.4l1.16,1.69h-.95l-1.13-1.65Z" transform="translate(-30.67 -17.91)"/><polygon class="cls-1" points="78.61 81.48 81.2 81.48 81.2 82.2 77.78 82.2 77.78 78.18 78.61 78.18 78.61 81.48"/><path class="cls-1" d="M113.45,99.38h1.07a1.49,1.49,0,0,0,1.06-.32,1.51,1.51,0,0,0,0-1.91,1,1,0,0,0-.43-.25,2.23,2.23,0,0,0-.63-.08h-1.07v2.56m-.84-3.29h2a2.8,2.8,0,0,1,1.13.19,1.56,1.56,0,0,1,.82.85,2.45,2.45,0,0,1,.18,1,2,2,0,0,1-.59,1.56,1.56,1.56,0,0,1-.62.34,3.37,3.37,0,0,1-.91.1h-2Z" transform="translate(-30.67 -17.91)"/><path class="cls-1" d="M33.57,98.55l-.75-1.29-.71,1.29Zm.23.56H31.9l-.46,1h-.78l1.9-4h.64l2,4h-.84Z" transform="translate(-30.67 -17.91)"/><path class="cls-1" d="M36.91,97.73H38.4a1.33,1.33,0,0,0,.5-.07.38.38,0,0,0,.26-.39.37.37,0,0,0-.18-.35,1.24,1.24,0,0,0-.58-.1H36.91v.91m0,.73v1.65h-.84v-4H38.4a4,4,0,0,1,.76.05,1.3,1.3,0,0,1,.46.19,1.05,1.05,0,0,1,.4.93,1.07,1.07,0,0,1-.25.76,1.62,1.62,0,0,1-.91.4L40,100.11h-.94l-1.13-1.65Z" transform="translate(-30.67 -17.91)"/><path class="cls-1" d="M43.6,98.55l-.75-1.29-.71,1.29Zm.23.56h-1.9l-.46,1H40.7l1.9-4h.64l2,4h-.84Z" transform="translate(-30.67 -17.91)"/><path class="cls-1" d="M46.95,99.39h1.53q.77,0,.77-.53c0-.35-.26-.52-.77-.52H46.95v1.05m0-1.79h1.5a1.16,1.16,0,0,0,.52-.09.36.36,0,0,0,0-.6,1.16,1.16,0,0,0-.52-.09h-1.5Zm2.4.35a1.35,1.35,0,0,1,.52.27,1,1,0,0,1,.25.69,1.08,1.08,0,0,1-.42.91,1.7,1.7,0,0,1-1,.28H46.11v-4h2.5a1.62,1.62,0,0,1,1,.27.93.93,0,0,1,.34.76.85.85,0,0,1-.12.47,1.13,1.13,0,0,1-.52.35" transform="translate(-30.67 -17.91)"/><rect class="cls-1" x="20.36" y="78.19" width="0.84" height="4.02"/><path class="cls-1" d="M55.67,98.55l-.75-1.29-.71,1.29Zm.23.56H54l-.45,1h-.78l1.9-4h.64l2,4h-.84Z" transform="translate(-30.67 -17.91)"/><polygon class="cls-1" points="28.26 79.56 28.26 82.2 27.51 82.2 27.51 78.18 28.25 78.18 30.89 80.77 30.89 78.18 31.65 78.18 31.65 82.2 30.99 82.2 28.26 79.56"/><polygon class="cls-1" points="37.89 80.46 35.56 80.46 35.56 82.2 34.72 82.2 34.72 78.18 35.56 78.18 35.56 79.73 37.89 79.73 37.89 78.18 38.73 78.18 38.73 82.2 37.89 82.2 37.89 80.46"/><path class="cls-1" d="M72.61,96.77a1.44,1.44,0,0,0-1,.4,1.36,1.36,0,0,0,0,1.87,1.57,1.57,0,0,0,2.1,0,1.24,1.24,0,0,0,.37-.91,1.27,1.27,0,0,0-.37-1,1.49,1.49,0,0,0-1.05-.4m0-.76a2.41,2.41,0,0,1,1.54.49,2,2,0,0,1,.74,1.64,1.91,1.91,0,0,1-.74,1.57,2.67,2.67,0,0,1-3.08,0,2.12,2.12,0,0,1,0-3.21A2.53,2.53,0,0,1,72.61,96" transform="translate(-30.67 -17.91)"/><path class="cls-1" d="M76.68,97.73h1.49a1.32,1.32,0,0,0,.5-.07.38.38,0,0,0,.26-.39.36.36,0,0,0-.18-.35,1.24,1.24,0,0,0-.58-.1H76.68v.91m0,.73v1.65h-.84v-4h2.32a4,4,0,0,1,.76.05,1.3,1.3,0,0,1,.46.19,1.05,1.05,0,0,1,.4.93,1.07,1.07,0,0,1-.25.76,1.63,1.63,0,0,1-.91.4l1.16,1.69h-.94l-1.13-1.65Z" transform="translate(-30.67 -17.91)"/><path class="cls-1" d="M84.21,96.61l-.35.6a1.9,1.9,0,0,0-.7-.35,2.77,2.77,0,0,0-.82-.12,1.84,1.84,0,0,0-.63.1c-.28.09-.42.22-.42.4a.26.26,0,0,0,.21.25,3.52,3.52,0,0,0,.74.11l.56,0a2.53,2.53,0,0,1,1.1.29,1,1,0,0,1,.33.34,1.13,1.13,0,0,1,.17.61,1.12,1.12,0,0,1-.52,1,2.5,2.5,0,0,1-1.39.34,3.57,3.57,0,0,1-1.87-.52l.26-.6a2.78,2.78,0,0,0,.73.28,3.55,3.55,0,0,0,.87.11,2.26,2.26,0,0,0,.7-.1c.27-.08.41-.21.41-.39s-.1-.25-.29-.31a3.24,3.24,0,0,0-.63-.09l-.55,0a4.41,4.41,0,0,1-.68-.09,1.34,1.34,0,0,1-.4-.16,1,1,0,0,1-.33-.39,1.2,1.2,0,0,1-.12-.54,1.14,1.14,0,0,1,.53-1A2.25,2.25,0,0,1,82.33,96a3.25,3.25,0,0,1,.84.12,3.89,3.89,0,0,1,1,.49" transform="translate(-30.67 -17.91)"/><polygon class="cls-1" points="55.48 80.49 55.48 81.48 58.37 81.48 58.37 82.2 54.65 82.2 54.65 78.18 58.26 78.18 58.26 78.92 55.48 78.92 55.48 79.8 57.34 79.8 57.34 80.49 55.48 80.49"/><path class="cls-1" d="M123,98.85l.28.63a3.61,3.61,0,0,1-1,.54,3.16,3.16,0,0,1-1,.18,2.47,2.47,0,0,1-1.56-.47,2,2,0,0,1-.54-.67,2.17,2.17,0,0,1-.21-1,2.08,2.08,0,0,1,.39-1.25,2.22,2.22,0,0,1,1.91-.85,2.91,2.91,0,0,1,1,.17,3.73,3.73,0,0,1,1.06.64l-.33.57a2.24,2.24,0,0,0-.66-.44,2.14,2.14,0,0,0-.87-.18,1.71,1.71,0,0,0-1.1.35,1.24,1.24,0,0,0,0,2,1.73,1.73,0,0,0,1.1.34,3.07,3.07,0,0,0,1.58-.6" transform="translate(-30.67 -17.91)"/><polygon class="cls-1" points="96.84 80.46 94.51 80.46 94.51 82.2 93.68 82.2 93.68 78.18 94.51 78.18 94.51 79.73 96.84 79.73 96.84 78.18 97.68 78.18 97.68 82.2 96.84 82.2 96.84 80.46"/><path class="cls-1" d="M132.15,98.55l-.75-1.29-.71,1.29Zm.23.56h-1.9l-.46,1h-.78l1.9-4h.64l2,4h-.84Z" transform="translate(-30.67 -17.91)"/><polygon class="cls-1" points="106.25 82.08 104.75 79.56 104.75 82.2 103.99 82.2 103.99 78.18 104.87 78.18 106.33 80.53 107.79 78.18 108.68 78.18 108.68 82.2 107.84 82.2 107.84 79.56 106.25 82.08"/><path class="cls-1" d="M141.45,97.73h1.41a1.48,1.48,0,0,0,.55-.07.39.39,0,0,0,.24-.39.37.37,0,0,0-.25-.38,1.42,1.42,0,0,0-.54-.07h-1.41v.91m0,.73v1.65h-.84v-4h2.31a2.17,2.17,0,0,1,1.13.24.93.93,0,0,1,.33.39,1.28,1.28,0,0,1,.12.56,1,1,0,0,1-.39.89,2,2,0,0,1-1.2.29Z" transform="translate(-30.67 -17.91)"/><rect class="cls-1" x="114.68" y="78.19" width="0.84" height="4.02"/><path class="cls-1" d="M149.4,96.77a1.43,1.43,0,0,0-1,.4,1.37,1.37,0,0,0,0,1.87,1.57,1.57,0,0,0,2.09,0,1.24,1.24,0,0,0,.37-.91,1.28,1.28,0,0,0-.37-1,1.49,1.49,0,0,0-1.05-.4m0-.76a2.41,2.41,0,0,1,1.54.49,2,2,0,0,1,.74,1.64,1.9,1.9,0,0,1-.74,1.57,2.67,2.67,0,0,1-3.08,0,2.12,2.12,0,0,1,0-3.21A2.53,2.53,0,0,1,149.4,96" transform="translate(-30.67 -17.91)"/><polygon class="cls-1" points="122.72 79.56 122.72 82.2 121.97 82.2 121.97 78.18 122.7 78.18 125.35 80.77 125.35 78.18 126.1 78.18 126.1 82.2 125.44 82.2 122.72 79.56"/><path class="cls-1" d="M161.41,96.61l-.36.6a1.89,1.89,0,0,0-.69-.35,2.79,2.79,0,0,0-.82-.12,1.86,1.86,0,0,0-.63.1c-.28.09-.42.22-.42.4a.26.26,0,0,0,.21.25,3.58,3.58,0,0,0,.74.11l.56,0a2.53,2.53,0,0,1,1.1.29,1,1,0,0,1,.33.34,1.17,1.17,0,0,1-.35,1.58,2.49,2.49,0,0,1-1.38.34,3.56,3.56,0,0,1-1.87-.52l.26-.6a2.78,2.78,0,0,0,.73.28,3.55,3.55,0,0,0,.87.11,2.26,2.26,0,0,0,.7-.1c.27-.08.4-.21.4-.39s-.1-.25-.29-.31a3.22,3.22,0,0,0-.63-.09l-.55,0a4.39,4.39,0,0,1-.68-.09,1.34,1.34,0,0,1-.4-.16,1,1,0,0,1-.33-.39,1.2,1.2,0,0,1-.12-.54,1.14,1.14,0,0,1,.53-1,2.27,2.27,0,0,1,1.24-.32,3.25,3.25,0,0,1,.84.12,3.86,3.86,0,0,1,1,.49" transform="translate(-30.67 -17.91)"/><polygon class="cls-1" points="135.01 80.46 132.68 80.46 132.68 82.2 131.84 82.2 131.84 78.18 132.68 78.18 132.68 79.73 135.01 79.73 135.01 78.18 135.85 78.18 135.85 82.2 135.01 82.2 135.01 80.46"/><rect class="cls-1" x="137.12" y="78.19" width="0.84" height="4.02"/><path class="cls-1" d="M170.72,97.73h1.41a1.48,1.48,0,0,0,.55-.07.39.39,0,0,0,.24-.39.38.38,0,0,0-.25-.38,1.41,1.41,0,0,0-.54-.07h-1.41v.91m0,.73v1.65h-.84v-4h2.31a2.17,2.17,0,0,1,1.13.24.94.94,0,0,1,.33.39,1.28,1.28,0,0,1,.12.56,1,1,0,0,1-.39.89,2,2,0,0,1-1.2.29Z" transform="translate(-30.67 -17.91)"/></svg>