<svg id="Calque_1" data-name="Calque 1" xmlns="http://www.w3.org/2000/svg" viewBox="0 0 135.72 88.88"><defs><style>.cls-1{fill:#fff;}</style></defs><title>logo-longine</title><path class="cls-1" d="M128.47,32.11a1.38,1.38,0,0,0-.33-1.27L124.91,26c-1.17-1.73-2.28-3.37-2.76-4.12a28.09,28.09,0,0,1-2.08-3.7,1.6,1.6,0,0,1-.15-.49,6.46,6.46,0,0,1,1-3.1l0-.22-.21,0-.57.36a5.21,5.21,0,0,1-2.63,1.1,3.24,3.24,0,0,1-.71-.08,4.42,4.42,0,0,1-.53-.18s-.57-.25-.77-.33a20,20,0,0,0-7.93-1.73,18.19,18.19,0,0,0-9.83,3.12c-.94.62-1.83,1.28-2.82,2a41.58,41.58,0,0,1-3.66,2.55A10.74,10.74,0,0,1,85.84,23H85.4a8.44,8.44,0,0,1-.88-.11.17.17,0,0,0-.2.14.17.17,0,0,0,.13.2c.38.07.59.09.79.1h.13a10.2,10.2,0,0,0,1.06.05c3.52,0,6.33-1.83,9.65-4.22l.09-.07c.79-.56,1.76-1.26,2.65-1.79a19.33,19.33,0,0,1,10-2.86,19.07,19.07,0,0,1,6.8,1.23l.66.28a4.92,4.92,0,0,0,.54.19,3.21,3.21,0,0,0,.72.11,3.92,3.92,0,0,0,2.2-.48,7.39,7.39,0,0,0-.17,2.1,10.13,10.13,0,0,0,1.62,4.46c.62,1,2.22,3,3.51,4.57l0,.06c.65.81,2.34,3,2.55,3.24l.53.75,0,.07c.33.46.36.69.28,1l-.09.23a2.6,2.6,0,0,1-.33.41l0,0c-.66.73-1.1.91-1.36.93a1.87,1.87,0,0,1-.55,0,7,7,0,0,1-2.88-1.5,20.16,20.16,0,0,0-1.75-1.4,13.48,13.48,0,0,0-2.1-1.23l-2.24-1.1-.44-.21L116,28l-.13-.07a6.64,6.64,0,0,1-2.32-1.58,4.17,4.17,0,0,1-1-2.41,5,5,0,0,0,.82-1.62,5.29,5.29,0,0,0,.16-1,3,3,0,0,0,0-.64l-.1-.14-.18,0a4.08,4.08,0,0,0-1.64,3.58,6.08,6.08,0,0,1-1.11.52,9.46,9.46,0,0,1-1.3.34,12.59,12.59,0,0,0-1.91.52A9.91,9.91,0,0,0,103,28.86a9.09,9.09,0,0,0-1.33,2.54c-.08.23-.15.47-.21.71a.17.17,0,0,0,.12.21l.21-.12c0-.16.13-.49.21-.69a7.67,7.67,0,0,1,1-1.88,9,9,0,0,1,4.69-3.41c.27-.09.66-.19,1.08-.3a16,16,0,0,0,1.95-.59,7,7,0,0,0,1.06-.57,4.26,4.26,0,0,0,.63,1.58,6.23,6.23,0,0,0,3.18,2.18l.77.27.12,0c1.18.41,2,.73,2.54,1a11.23,11.23,0,0,1,2,1.17,18.88,18.88,0,0,1,1.72,1.38l.11.1a6.24,6.24,0,0,0,2.9,1.8,2.5,2.5,0,0,0,.4,0l.32,0c.7-.09,1.24-.82,1.6-1.31a5.79,5.79,0,0,0,.36-.56,1.27,1.27,0,0,0,.12-.3m-16-8.79a4.2,4.2,0,0,1,.17-1.2,4.53,4.53,0,0,1,.59-1.15,4.16,4.16,0,0,1-.21,1.27,4.09,4.09,0,0,1-.56,1.09m-42.21,65,1.29-2.48H79l1.29,2.48h2l-5.87-11.1H74.15l-5.87,11.1Zm2.19-4.15,2.83-5.36,2.82,5.36Zm12.69,1.21-1,1.33a10.32,10.32,0,0,0,6.6,1.87c3.94,0,6.05-1.36,6.05-3.69,0-1.85-1.32-2.8-4.08-3.15-2.25-.29-4.07-.15-5.29-.59-.64-.23-1-.56-1-1.07,0-.92,1.21-1.5,3.51-1.5a10.83,10.83,0,0,1,5,1.26l1.12-1.24a10.49,10.49,0,0,0-6-1.64c-3.6,0-5.59,1.3-5.59,3.37s1.71,2.67,5.13,2.89c3.26.22,5.15.22,5.15,1.79,0,1.19-1.41,2-4,2a10.39,10.39,0,0,1-5.61-1.59m7.56,12.72H89.36v4.23h.7v-1.61h2.52c1,0,1.54-.46,1.54-1.3a1.28,1.28,0,0,0-1.41-1.32m-.17.64c.57,0,.86.23.86.7s-.28.65-.82.65H90.06V98.7Zm5.26-.64-2.24,4.23h.77l.49-.95h2.85l.49.95h.77l-2.24-4.23Zm-.64,2.65,1.08-2.05,1.07,2.05Zm9.61-2.65h-3.34v4.23h.7v-1.61h2.14l1.15,1.61h.81l-1.13-1.65a1.2,1.2,0,0,0,1.1-1.25,1.28,1.28,0,0,0-1.43-1.33m-.17.64c.6,0,.88.23.88.7s-.29.65-.82.65h-2.53V98.7Zm5.19-.64h-.7v4.23h.7Zm3.12,3.11-.39.51a4,4,0,0,0,2.52.71c1.51,0,2.31-.52,2.31-1.41,0-.71-.5-1.07-1.55-1.21a14.56,14.56,0,0,1-2-.22c-.25-.09-.37-.22-.37-.41,0-.35.47-.57,1.34-.57a4.14,4.14,0,0,1,1.92.48l.42-.47A4,4,0,0,0,116.8,98c-1.37,0-2.13.5-2.13,1.29s.65,1,2,1.11,2,.08,2,.68-.54.75-1.54.75a4,4,0,0,1-2.14-.61M88.73,40.28a.17.17,0,0,0,.17.17h1.24a18.54,18.54,0,0,0,9.92-2.62,29.25,29.25,0,0,0,3.59-2.77,19.67,19.67,0,0,1,5.45-3.71,4.46,4.46,0,0,1,1.59-.27,3.92,3.92,0,0,1,3,1.32,3.41,3.41,0,0,1,.58,1c.74,2.06-.52,4.9-3.2,7.23l-.17.14-.06,0c-3.4,2.9-8.6,4.31-12.26,4.42a18.13,18.13,0,0,1,.53-3.48l-.1-.2-.22.1c-.42,1.19-1,3.19-1.36,4.67l0,.07h.07A22.44,22.44,0,0,0,111,41.12l.23-.2c2.79-2.42,4.09-5.4,3.3-7.6a4.93,4.93,0,0,0-.61-1.15A4.31,4.31,0,0,0,111,30.37a7.55,7.55,0,0,0-5,1.43,30.24,30.24,0,0,0-3.38,2.63c-.82.7-1.54,1.29-2.2,1.81a20.06,20.06,0,0,1-10.6,3.85H88.9a.17.17,0,0,0-.17.17M94.6,69.95a8.06,8.06,0,0,0,4.13,1,9.27,9.27,0,0,0,5.52-1.76c.35.4.65.85.95,1.25h2v-6c0-1.55.59-1.22,2.25-1.25V61.4H100.7v1.84c2.26.07,2.75-.3,2.78,1.26,0,3.26-2.11,3.88-2.56,4.07a4,4,0,0,1-4.65-1c-2.18-2.62-2.12-8.65,0-11.2a4.16,4.16,0,0,1,4.65-1c2,.65,3.15,2.75,3.65,4.6h2.05v-6.6h-2l-.7,1.35a8.64,8.64,0,0,0-8.55-1.2c-3.15,1.2-4.8,4.5-5,7.65-.15,3.55.95,7,4.15,8.75m11.24,18.33V78.86h5.3V77.19H98.71v1.67H104v9.42ZM55.2,55.5A9.28,9.28,0,0,0,53,64.85a8.89,8.89,0,0,0,7.1,6,13.68,13.68,0,0,0,1.92.14,9.52,9.52,0,0,0,8-3.79,9.88,9.88,0,0,0,.35-9.9,9,9,0,0,0-6-4.15,12.27,12.27,0,0,0-2.39-.22A9.93,9.93,0,0,0,55.2,55.5m1.55,6.45c0-2.32.64-5.06,2.35-6.15a5.08,5.08,0,0,1,3-.82,5.22,5.22,0,0,1,3,.82c1.47,1.09,2.35,3.27,2.27,6.15,0,2.6-.51,5.51-3.12,6.52a6,6,0,0,1-2.21.32,5.79,5.79,0,0,1-2.24-.39c-2.32-1-3-3.85-3.06-6.45M51.82,77.19H49.54v11.1h1.84V79.21h0l5.72,7.23,5.76-7.23h0v9.07h1.84V77.19H62.5L57.15,83.9Zm-9.28-8.85s0-11.13,0-11.47a1.42,1.42,0,0,1,.21-.95c.32-.47,1.36-.44,2.57-.44V53.39h-9v2.08c.34,0,2.09-.16,2.34.5a2.1,2.1,0,0,1,.13.88v10a2.37,2.37,0,0,1-.09,1c-.17.31-.39.5-2.38.5,0,.85,0,2,0,2H51.6V63.15H49.81A18.49,18.49,0,0,1,49.28,67c-.54,1.58-2.94,1.34-6.74,1.35M85.41,56.57c0,2.84,0,7.53,0,7.53L78,53.39h-6.9v2.13H73c.84.08.64.52.65,1.36v10c0,1.6-.3,1.44-2.55,1.44V70.4h8.35V68.34c-2.27,0-2.95.2-2.95-1.28V57.89L85,70.4h3.2V56.49c0-.42-.08-1,.72-1h1.83v-2.1H82.71v2.1h1.58c1.16,0,1.12.51,1.12,1.08m30.11,10.77V56.27c0-.94.87-.78,2.4-.77v-2.1h-8.65v2.1c1.29,0,2.4-.17,2.4.8v11c0,1.18-1.25,1-2.4,1V70.4h8.65V68.34c-1.67,0-2.4.14-2.4-1m-.91,20.94h11.61V86.61h-9.77V83.36h6.5V81.69h-6.5V78.86h9.35V77.19H114.61Zm10-21.22V57.9l8.5,12.5h3.2V56.49c0-.4,0-1,.72-1h1.83v-2.1h-8.05v2.1h1.58c1.15,0,1.12.51,1.12,1.08,0,2.84,0,7.53,0,7.53l-7.4-10.7h-6.9v2.13h1.48c1,0,1.06.52,1.08,1.36v10c0,1.69-.46,1.44-2.55,1.44V70.4h8.35V68.34c-2.35,0-2.95.25-2.95-1.28m15.3,3.34h16.31V63.15h-1.92v2.06c0,2.44-1.74,3.11-3.32,3.07h-4.57V62.62s1.85-.18,2.5.42c.8.75.7,3.11.7,3.11h1.85V57.5H149.6s0,2.19-.73,2.73a4.76,4.76,0,0,1-2.49.39V55.49h4.57c.32,0,1.88-.08,2.59.65a5.15,5.15,0,0,1,.8,3.06c0,.79,0,1.19,0,1.19l1.84,0v-7H139.87v2.13c2.19,0,2.81-.23,2.81,1V67.18c0,1.33-.52,1.08-2.81,1.13Zm19,14.45c0-1.85-1.32-2.8-4.07-3.15-2.25-.29-4.07-.15-5.29-.59-.64-.23-1-.56-1-1.07,0-.92,1.21-1.5,3.51-1.5a10.81,10.81,0,0,1,5,1.26l1.12-1.24a10.5,10.5,0,0,0-6-1.64c-3.6,0-5.59,1.3-5.59,3.37s1.72,2.67,5.13,2.89,5.15.22,5.15,1.79c0,1.19-1.41,2-4,2a10.4,10.4,0,0,1-5.61-1.59l-1,1.33a10.31,10.31,0,0,0,6.6,1.87c3.94,0,6.05-1.36,6.05-3.69m1.71-27.12a2,2,0,0,1,.3-1.55,3.2,3.2,0,0,1,2.73-1.08c4.15,0,5.09,2.87,5.59,4.85H171V53.4h-1.52l-.89,1.25a8.14,8.14,0,0,0-5-1.66c-2.41,0-6.13,1.06-6.13,5.28,0,4.43,4.75,5,6.79,5.42,2.75.55,3.93,1.09,4.41,1.89a2.11,2.11,0,0,1-.61,2.59c-.72.57-2.62,1-5.12.24-2.25-.66-3.15-3-3.55-4.85h-1.7V70.4H159l1-1.35A8.34,8.34,0,0,0,165.59,71c3.11,0,6.47-1.36,6.47-5.39,0-4.61-5.42-5.21-6.9-5.52-4.31-.91-4.46-1.84-4.59-2.35M139.28,77.19h-8.75v11.1h1.84V84H138l3,4.23h2.13l-3-4.32A3.13,3.13,0,0,0,143,80.68c0-2.15-1.41-3.49-3.74-3.49m-.44,1.67c1.55,0,2.3.6,2.3,1.82s-.75,1.7-2.13,1.7h-6.63V78.86Z" transform="translate(-36.34 -13.52)"/></svg>