<svg id="Calque_1" data-name="Calque 1" xmlns="http://www.w3.org/2000/svg" viewBox="0 0 141.62 62.39"><defs><style>.cls-1{fill:#fff;}</style></defs><title>logo-nuitcheval</title><path class="cls-1" d="M157.92,32.12s-.24,29.32-21.61,53.28c0,0,22.32-18.75,21.61-53.28" transform="translate(-33.51 -23.06)"/><path class="cls-1" d="M158.4,46.54s0,13.81,16.72,38.58c0,0-16.56-17.17-16.72-38.58" transform="translate(-33.51 -23.06)"/><path class="cls-1" d="M152.57,81.4c7.58-4,13.37,2.49,14.4,3.9-2.89-4.64-8.6-8.85-14.69-4.66a3.36,3.36,0,0,1,.28.75" transform="translate(-33.51 -23.06)"/><path class="cls-1" d="M153.76,76.72a12.17,12.17,0,0,0,5.34-2.47c1.09.32,1.92-.93,3-.62.16,1.9-2.06,1.94-1.85,3.57,1-.32,3.12-2.8,2.87-4s-1.91-.65-2.85-1.31l-.29-.1c-.32-2.43-2-3.28-2.29-5.78a7.58,7.58,0,0,1,2.3,1.72c1.71-.66.61-1.44-.17-2.44a21.32,21.32,0,0,1-2-2.84c-.39-.07-.13.5-.34.61-.23-.14-.26-.51-.52-.61a6.12,6.12,0,0,0,.09,1.32c-.41.5-1.17.92-1.51,1.53-.93,1.64-.31,4.46-1.3,6-1.1,1.7-3.22,1.49-4.64,3.07-4.76-1.76-2.36,5.89-5.13,7,.2.06.61-.13.67.1s-.85.68-.42.82a9.48,9.48,0,0,0,2-1c-.07.37-.39.5-.51.81,1.23-.65,2.25-.94,2.29-2.65,0-1.86-1.52-4.59.93-4.58-.22,1.84,1.17,3,1,4.57-.05.43-.52.76-.49,1.22.08.95,1.29,1.44,1.86,2.23a6.82,6.82,0,0,1,1,2c.31-.06.89.13,1-.11a4.94,4.94,0,0,1-.62-.71c-.38-.58-1.93-2.72-1.93-3.34s1-1.75,1.36-2.34a12.61,12.61,0,0,0,.75-1.66l.37-.07" transform="translate(-33.51 -23.06)"/><path class="cls-1" d="M150.58,82.62l-.61-.53a29.25,29.25,0,0,0-3.73,3.36s3-2.15,4.34-2.83" transform="translate(-33.51 -23.06)"/><polygon class="cls-1" points="6.35 20.32 6.35 36.34 2.19 36.34 2.19 12.94 6.31 12.94 21.72 28.62 21.72 12.94 25.87 12.94 25.87 36.34 22.17 36.34 6.35 20.32"/><path class="cls-1" d="M86.41,50.93a9.69,9.69,0,0,1-1.3,5.56q-2.4,3.33-10,3.33-5.52,0-8.41-1.78a5.43,5.43,0,0,1-2.27-2.85,12.44,12.44,0,0,1-.65-4.26V36h4.56V49.49a13.36,13.36,0,0,0,.24,3,3.38,3.38,0,0,0,.89,1.61q1.75,1.75,5.83,1.75t5.83-1.75A3.39,3.39,0,0,0,82,52.48a13.43,13.43,0,0,0,.24-3V36h4.15V50.93" transform="translate(-33.51 -23.06)"/><rect class="cls-1" x="57.24" y="12.94" width="4.56" height="23.4"/><polygon class="cls-1" points="77.3 16.79 77.3 36.35 72.74 36.35 72.74 16.79 63.68 16.79 63.68 12.94 86.36 12.94 86.36 16.79 77.3 16.79"/><path class="cls-1" d="M125.74,57.49h3.35a5.23,5.23,0,0,0,2.39-.43q1.71-.89,1.72-3.5a4.15,4.15,0,0,0-.93-2.9,2.94,2.94,0,0,0-1.25-.79,6.36,6.36,0,0,0-1.92-.24h-3.35v7.86m-2.28-9.78h5.85a8.58,8.58,0,0,1,3.24.48,4.69,4.69,0,0,1,2.37,2.35,7.08,7.08,0,0,1,.6,3,5.85,5.85,0,0,1-1.8,4.62,4.57,4.57,0,0,1-1.79,1,10,10,0,0,1-2.62.28h-5.85Z" transform="translate(-33.51 -23.06)"/><path class="cls-1" d="M148.23,55.17a4.84,4.84,0,0,1-.65,2.78q-1.2,1.66-5,1.66a8.06,8.06,0,0,1-4.2-.89,2.72,2.72,0,0,1-1.13-1.42,6.19,6.19,0,0,1-.33-2.13V47.71h2.28v6.74a6.71,6.71,0,0,0,.12,1.49,1.69,1.69,0,0,0,.45.81,5.3,5.3,0,0,0,5.83,0,1.69,1.69,0,0,0,.45-.81,6.65,6.65,0,0,0,.12-1.49V47.71h2.08v7.46" transform="translate(-33.51 -23.06)"/><path class="cls-1" d="M49.84,75.54l1.32,2.3a7.31,7.31,0,0,1-1.49,1.05,16.17,16.17,0,0,1-3.42,1.61,11.73,11.73,0,0,1-3.3.41,10.09,10.09,0,0,1-6.24-1.82,7.7,7.7,0,0,1-2.25-2.66,8.32,8.32,0,0,1-1-4,8.23,8.23,0,0,1,1.7-5.18Q37.78,64,43,64a11.62,11.62,0,0,1,3.28.41A16.87,16.87,0,0,1,49.68,66a6,6,0,0,1,1.49,1.11l-1.32,2.3A9.06,9.06,0,0,0,48,67.93a9.3,9.3,0,0,0-4.58-1.2,7,7,0,0,0-4.61,1.42,5.54,5.54,0,0,0,0,8.59,7.12,7.12,0,0,0,4.61,1.39A9.29,9.29,0,0,0,48,76.93a11.32,11.32,0,0,0,1.85-1.39" transform="translate(-33.51 -23.06)"/><polygon class="cls-1" points="33.31 50.41 23.47 50.41 23.47 57.56 20.28 57.56 20.28 41.2 23.47 41.2 23.47 47.72 33.31 47.72 33.31 41.2 36.5 41.2 36.5 57.56 33.31 57.56 33.31 50.41"/><polygon class="cls-1" points="43.06 50.39 43.06 54.87 54.84 54.87 54.84 57.56 39.87 57.56 39.87 41.2 54.55 41.2 54.55 43.89 43.06 43.89 43.06 47.77 50.95 47.77 50.95 50.39 43.06 50.39"/><polygon class="cls-1" points="64.18 52.81 69.53 41.2 72.77 41.2 65.55 57.56 62.72 57.56 55.4 41.2 58.83 41.2 64.18 52.81"/><path class="cls-1" d="M114.2,74.22l-2.93-5.83-3,5.83Zm.86,2.23h-7.68l-2.09,4.17h-2.93L110,64.26h2.83l7.77,16.36h-3.41Z" transform="translate(-33.51 -23.06)"/><polygon class="cls-1" points="92 54.87 103.33 54.87 103.33 57.56 88.81 57.56 88.81 41.2 92 41.2 92 54.87"/><polygon class="cls-1" points="55.82 0 58.6 3.7 62.98 2.23 60.32 6.01 63.08 9.72 58.66 8.36 55.98 12.13 55.91 7.5 51.5 6.12 55.87 4.63 55.82 0"/></svg>