<?xml version="1.0" encoding="utf-8"?>
<!-- Generator: Adobe Illustrator 16.0.0, SVG Export Plug-In . SVG Version: 6.00 Build 0)  -->
<!DOCTYPE svg PUBLIC "-//W3C//DTD SVG 1.1//EN" "http://www.w3.org/Graphics/SVG/1.1/DTD/svg11.dtd">
<svg version="1.1" id="Calque_1" xmlns="http://www.w3.org/2000/svg" xmlns:xlink="http://www.w3.org/1999/xlink" x="0px" y="0px"
	 width="841.89px" height="595.276px" viewBox="0 0 841.89 595.276" enable-background="new 0 0 841.89 595.276"
	 xml:space="preserve">
<g>
	<defs>
		<rect id="SVGID_1_" width="841.89" height="595.276"/>
	</defs>
	<clipPath id="SVGID_2_">
		<use xlink:href="#SVGID_1_"  overflow="visible"/>
	</clipPath>
	<path clip-path="url(#SVGID_2_)" fill="#FFFFFF" d="M657.264,450.116l-5.554,7.313c8.828,6.976,20.763,10.251,36.233,10.251
		c21.6,0,33.2-7.48,33.2-20.252c0-10.177-7.228-15.386-22.354-17.321c-12.363-1.591-22.363-0.837-29.005-3.19
		c-3.526-1.256-5.294-3.106-5.294-5.89c0-5.042,6.643-8.231,19.247-8.231c9.582,0,18.493,2.27,27.572,6.893l6.14-6.809
		c-8.827-5.974-19.842-8.995-32.949-8.995c-19.758,0-30.688,7.143-30.688,18.493c0,11.684,9.414,14.623,28.158,15.888
		c17.907,1.173,28.243,1.173,28.243,9.833c0,6.558-7.73,10.762-22.188,10.762C676.929,458.86,667.012,456.08,657.264,450.116
		 M730.502,298.635c-0.475-1.879-0.54-5.311,1.637-8.502c2.168-3.181,7.163-5.916,14.978-5.916
		c22.772,0,27.953,15.702,30.651,26.604l9.805-0.073l0.075-35.833l-8.316-0.028l-4.856,6.856
		c-7.451-5.898-17.442-9.135-27.358-9.135c-13.2,0-33.656,5.833-33.656,28.996c0,24.335,26.056,27.488,37.238,29.721
		c15.069,3.005,21.562,6.01,24.195,10.346c2.893,4.771,0.418,11.218-3.341,14.204c-3.98,3.135-14.353,5.366-28.084,1.33
		c-12.353-3.646-17.256-16.483-19.479-26.614h-9.331v37.582h7.396l5.229-7.404c1.442,2.354,14.01,10.586,30.782,10.586
		c17.042,0,35.507-7.461,35.507-29.563c0-25.274-29.749-28.558-37.87-30.27C732.027,306.524,731.228,301.407,730.502,298.635
		 M695.915,328.432v11.312c-0.093,13.386-9.526,17.042-18.196,16.827l-25.069,0.083v-31.181c0,0,10.158-0.968,13.712,2.326
		c4.399,4.111,3.852,17.051,3.852,17.051h10.149v-47.461l-10.047-0.019c0,0-0.242,12.019-4.011,14.987
		c-3.776,2.967-13.655,2.14-13.655,2.14v-28.094l25.052,0.057c1.776,0,10.316-0.456,14.215,3.599
		c3.674,3.843,4.399,12.605,4.399,16.801c0,4.335,0.027,6.548,0.027,6.548l10.084,0.076v-38.597h-89.442l-0.047,11.684
		c12,0,15.433-1.284,15.414,5.517l0.028,58.419c0,7.293-2.884,5.926-15.396,6.195l-0.047,11.47h89.489v-39.777L695.915,328.432z
		 M611.291,414.563c8.484,0,12.604,3.274,12.604,10c0,5.963-4.12,9.33-11.684,9.33h-36.4v-19.33H611.291z M613.719,405.4h-47.991
		v60.856h10.084v-23.2h30.764l16.475,23.2h11.692l-16.307-23.702c9.069-1.517,15.795-7.237,15.795-17.991
		C634.23,412.795,626.501,405.4,613.719,405.4 M581.857,292.31c0.103,15.591,0,41.294,0,41.294l-40.609-58.718h-37.862v11.684
		l8.099,0.037c5.313,0,5.818,2.847,5.894,7.47v54.885c0,9.293-2.521,7.916-13.992,7.916v11.293h45.821l-0.01-11.293
		c-12.889,0-16.173,1.377-16.173-7.032v-50.271c15.643,23.043,46.639,68.597,46.639,68.597h17.571v-76.298
		c0-2.177-0.111-5.489,3.944-5.489l10.038,0.028v-11.526h-44.168l-0.01,11.526l8.67-0.028
		C582.052,286.263,581.857,289.194,581.857,292.31 M539.75,405.4h-61.358v60.856h63.713v-9.163H488.48V439.27h35.642v-9.163H488.48
		v-15.544h51.27V405.4z M483.359,351.38l-0.01-60.745c0-5.135,4.754-4.251,13.182-4.223v-11.526H449.07v11.526
		c7.079,0,13.163-0.912,13.163,4.363l0.026,60.605c0,6.465-6.874,5.273-13.189,5.498v11.293h47.461l0.022-11.293
		C487.405,356.878,483.359,357.623,483.359,351.38 M318.194,292.291c0.09,15.591,0,41.284,0,41.284l-40.608-58.716h-37.865v11.684
		l10.402,0.038c4.612,0.437,3.516,2.855,3.591,7.46v54.903c0,8.753-1.672,7.908-13.993,7.908v11.302h45.824l-0.014-11.302
		c-12.466,0-16.175,1.088-16.175-7.033v-50.271c15.642,23.052,46.642,68.605,46.642,68.605h17.561v-76.309
		c0-2.269-0.409-5.488,3.953-5.488l10.04,0.028v-11.526h-44.175l-0.005,11.526l8.668-0.028
		C318.389,286.235,318.194,289.175,318.194,292.291 M219.274,321.79c-0.023,14.27-2.782,30.252-17.138,35.785
		c-3.8,1.462-7.958,1.769-12.095,1.749c-4.093-0.018-8.484-0.511-12.275-2.13c-12.725-5.46-16.523-21.135-16.797-35.404
		c-0.026-12.726,3.5-27.73,12.893-33.74c5.162-3.312,10.244-4.558,16.316-4.493c5.963,0.009,11.875,1.144,16.656,4.493
		C214.916,294.059,219.746,306.003,219.274,321.79 M235.872,296.003c-7.133-12.345-19.757-20.028-32.65-22.763
		c-4.395-0.856-8.786-1.265-13.111-1.237c-14.045,0.074-27.373,4.753-37.649,14.399c-13.448,13.172-17.289,33.202-11.799,51.313
		c4.94,16.734,21.675,30.447,38.962,32.643c3.527,0.512,7.044,0.771,10.505,0.771c17.276,0,33.307-6.399,43.823-20.8
		C244.379,335.51,244.927,311.65,235.872,296.003 M417.314,335.818c-0.033,17.897-11.57,21.284-14.056,22.345
		c-8.359,3.553-19.084,2.056-25.51-5.666c-11.958-14.372-11.612-47.433,0.186-61.424c6.312-7.134,15.784-8.437,25.519-5.209
		c10.974,3.563,17.286,15.088,20.023,25.238h11.259v-36.215h-10.981l-3.845,7.405c-7.982-6.744-18.951-10.158-29.786-10.018
		c-5.922,0.074-11.799,1.209-17.124,3.432c-17.288,6.586-26.342,24.697-27.165,41.982c-0.826,19.479,5.214,38.14,22.775,48.02
		c6.493,3.822,14.502,5.6,22.628,5.554c11.098-0.066,22.4-3.489,30.321-9.675c1.918,2.194,3.567,4.66,5.209,6.856h10.972
		l0.01-32.663c0.158-8.482,3.251-6.688,12.344-6.845v-10.149h-48.01v10.112C414.469,329.268,417.141,327.24,417.314,335.818
		 M336.231,189.511c0,0.962,0.781,1.748,1.746,1.748h1.317c1.028,0.005,2.433,0.01,3.563,0.01c1.051,0,1.681-0.005,1.851-0.01
		c20.781-0.023,39.119-4.869,54.503-14.414c7.11-4.4,13.477-9.883,19.642-15.191c8.901-7.651,18.105-15.567,29.455-20.051
		c1.093-0.428,4.083-1.428,8.344-1.428c4.288,0,10.466,1.196,15.619,6.902c1.312,1.456,2.438,3.824,3.005,5.406
		c3.897,10.906-2.865,26.009-17.224,38.479c-0.274,0.237-0.559,0.474-0.842,0.716l-0.381,0.326
		c-18.075,15.381-45.816,23.04-65.425,23.858c0.247-5.228,1.69-13.668,2.854-17.881c0.241-0.87-0.221-1.777-1.077-2.093
		c-0.186-0.07-0.381-0.108-0.582-0.108c-0.732,0-1.418,0.47-1.667,1.14c-2.323,6.484-5.367,17.417-7.444,25.491l-0.356,1.405
		l1.446-0.038c15.112-0.409,44.883-4.725,74.492-29.09c0.433-0.359,0.852-0.722,1.266-1.084
		c15.455-13.414,22.613-30.019,18.232-42.299c-0.438-1.237-1.47-3.735-3.423-6.488c-5.317-7.516-12.703-9.563-16.643-10.112
		c-8.73-1.055-17.749,1.508-27.819,7.93c-6.693,4.261-12.703,9.424-18.519,14.419c-4.458,3.819-8.368,7.033-11.949,9.824
		c-2.535,1.972-25.654,19.298-57.264,20.805c-1.53,0.069-2.935,0.079-4.362,0.079h-0.613
		C337.017,187.762,336.231,188.544,336.231,189.511 M391.132,414.563h29.086v51.693h10.083v-51.693h29.084V405.4h-68.253V414.563z
		 M347.51,467.68c21.599,0,33.201-7.48,33.201-20.252c0-10.177-7.231-15.386-22.361-17.321c-12.356-1.591-22.358-0.837-28.996-3.19
		c-3.53-1.256-5.297-3.106-5.297-5.89c0-5.042,6.639-8.231,19.246-8.231c9.584,0,18.496,2.27,27.573,6.893l6.135-6.809
		c-8.826-5.974-19.838-8.995-32.949-8.995c-19.752,0-30.677,7.143-30.677,18.493c0,11.684,9.409,14.623,28.156,15.888
		c17.905,1.173,28.244,1.173,28.244,9.833c0,6.558-7.735,10.762-22.195,10.762c-11.091,0-21.012-2.78-30.764-8.744l-5.548,7.313
		C320.103,464.405,332.045,467.68,347.51,467.68 M247.232,443.475l15.547-29.424l15.47,29.424H247.232z M256.391,405.4
		l-32.192,60.856h11.012l7.058-13.618h40.936l7.061,13.618h11.012L269.084,405.4H256.391z M131.742,416.498l31.354,39.666
		l31.603-39.666h0.251v49.759h10.089V405.4h-12.528l-29.333,36.819l-29.25-36.819h-12.525v60.856h10.088v-49.759H131.742z
		 M83.028,356.833c0,0-0.042-61.071-0.042-62.913c0-2.53,0.091-3.73,1.109-5.191c1.777-2.567,7.477-2.428,14.084-2.428v-11.423
		H49.007V286.3c1.89,0,11.483-0.865,12.864,2.772c0.473,1.256,0.687,2.168,0.687,4.847c0,2.028,0.005,55.043,0.005,55.043
		c0,1.925,0.156,4.148-0.51,5.33c-0.949,1.665-2.14,2.716-13.075,2.716c0,4.633,0.029,11.154,0.029,11.154h83.684v-39.787
		l-9.816,0.027c-0.549,7.136-1.149,15.945-2.898,21.015C116.977,358.097,103.842,356.749,83.028,356.833 M466.652,97.021
		c0.056-2.503,0.339-4.67,0.953-6.558c0.665-2.052,1.67-3.944,3.228-6.275c-0.032,2.671-0.465,4.838-1.14,6.912
		C469.117,92.905,468.242,94.695,466.652,97.021 M554.406,145.152c0.66-2.684,0.158-4.674-1.925-7.6l-0.095-0.153
		c-3.58-5.335-12.46-18.55-17.511-26.029c-6.372-9.409-12.382-18.302-15.028-22.437c-5.362-8.377-9.046-14.935-11.27-20.052
		c-0.391-0.888-0.651-1.6-0.754-2.423c-0.716-5.856,4.805-15.303,5.437-16.363c0.425-0.731,0.322-1.609-0.255-2.182
		c-0.53-0.516-1.461-0.627-2.116-0.246c-0.977,0.572-2.027,1.26-3.153,2c-3.981,2.609-8.939,5.861-13.875,5.861
		c-1.145,0-2.577-0.168-3.655-0.438c-0.605-0.14-1.61-0.488-2.768-0.949c-0.042-0.013-0.237-0.102-0.517-0.227
		c-0.847-0.368-2.833-1.242-3.675-1.568c-11.386-4.446-24.298-9.484-43.517-9.484c-18.044,0-37.214,6.084-53.989,17.13
		c-5.153,3.396-10.039,7.029-15.442,11.085c-6.367,4.776-12.949,9.721-19.889,13.837c-7.483,4.451-17.555,9.558-29.09,9.558
		c-0.777,0-1.559-0.023-2.331-0.065c-1.004-0.065-3.128-0.321-4.682-0.609c-0.971-0.177-1.867,0.469-2.039,1.414
		c-0.17,0.944,0.463,1.856,1.407,2.027c2.075,0.382,3.232,0.484,4.352,0.592l0.72,0.064c1.951,0.195,3.909,0.294,5.819,0.294
		c19.409,0,34.88-10.038,53.087-23.155l0.495-0.358c4.254-3.064,9.547-6.883,14.38-9.697c11.393-6.647,29.381-15.484,53.928-15.484
		c16.093,0,28.87,3.609,36.754,6.642c0.335,0.125,1.758,0.739,2.702,1.144c0.442,0.19,0.786,0.34,0.88,0.377
		c0.967,0.395,1.916,0.73,2.995,1.051c1.145,0.33,2.8,0.577,4.121,0.614c0.372,0.005,0.726,0.014,1.069,0.014
		c3.917,0,6.884-0.591,9.805-1.958c-0.423,2.362-0.958,6.381-0.609,10.055c0.801,8.308,3.81,16.614,8.954,24.689
		c3.414,5.359,12.158,16.247,19.182,24.996l0.279,0.34c3.506,4.372,12.721,16.116,13.865,17.632c0.716,0.954,2.232,3.13,2.884,4.056
		l0.288,0.405c1.637,2.311,1.749,3.297,1.386,4.763c-0.074,0.32-0.223,0.665-0.428,1.042c-0.382,0.679-1.395,1.772-1.702,2.092
		l-0.177,0.201c-3.433,3.758-5.642,4.688-6.897,4.809c-1.014,0.098-1.964,0.061-2.755-0.098c-7.042-1.469-13.422-6.246-15.283-7.967
		c-2.279-2.098-5.521-4.688-9.628-7.689c-3.274-2.39-7.386-4.804-11.587-6.786c-1.641-0.772-6.851-3.349-10.297-5.056l-1.893-0.939
		c-0.772-0.382-1.572-0.768-2.34-1.135l-0.117-0.056c-0.618-0.302-1.223-0.595-1.776-0.865l-0.734-0.359
		c-4.54-2.223-9.233-4.525-12.41-8.404c-2.911-3.311-4.763-7.693-5.204-12.34c1.911-2.526,3.433-5.571,4.409-8.814
		c0.409-1.377,0.81-3.958,0.907-5.869c0.111-1.531,0.093-2.634-0.065-3.684c-0.098-0.67-0.465-1.168-1.037-1.405
		c-0.581-0.247-1.187-0.182-1.726,0.181c-5.954,4.042-9.517,11.586-9.303,19.726c-1.693,1.038-3.563,1.795-5.488,2.544
		c-1.675,0.651-4.251,1.214-6.986,1.805c-3.46,0.754-7.377,1.6-10.558,2.87c-9.609,3.827-17.472,9.93-24.041,18.651
		c-3.963,5.265-6.844,11.312-8.556,17.973c-0.237,0.925,0.326,1.879,1.254,2.125c0.132,0.033,0.271,0.052,0.409,0.052
		c0.795,0,1.535-0.568,1.725-1.312c0.228-0.893,0.719-2.624,1.096-3.661c1.314-3.632,3.223-7.283,5.237-10.009
		c6.735-9.131,14.726-14.935,25.155-18.27c1.437-0.461,3.571-1.024,5.832-1.619c3.931-1.028,8.381-2.2,10.726-3.246
		c1.404-0.633,3.21-1.475,4.889-2.503c0.665,2.824,1.814,5.489,3.325,7.73c4.475,6.652,11.461,9.908,17.698,12.22
		c1.112,0.409,2.601,0.934,4.205,1.497l0.646,0.223c6.4,2.233,10.902,3.954,13.767,5.256c3.856,1.754,7.377,3.814,10.773,6.298
		c3.098,2.265,6.623,4.902,9.293,7.423c0.148,0.14,0.335,0.321,0.567,0.549c2.483,2.409,9.061,8.809,16.232,10.024
		c0.791,0.13,1.563,0.199,2.345,0.199c0.604,0,1.199-0.041,1.842-0.12c4.172-0.503,7.251-4.679,9.278-7.447
		c0.605-0.814,1.619-2.381,2.046-3.186C554.071,146.217,554.249,145.771,554.406,145.152"/>
	<path clip-path="url(#SVGID_2_)" fill="#FFFFFF" d="M333.163,523.528c0,9.462-6.056,14.572-17.663,14.572h-25.863v16.148h-11.101
		v-45.67h37.406C326.35,508.579,333.163,514.634,333.163,523.528 M322.187,523.465c0-3.911-2.649-6.118-7.507-6.118h-25.043v11.984
		h25.107C319.412,529.332,322.187,527.061,322.187,523.465"/>
	<path clip-path="url(#SVGID_2_)" fill="#FFFFFF" d="M384.763,554.249l-5.237-9.841h-29.268l-5.236,9.841h-11.228l24.286-45.67
		h13.687l24.223,45.67H384.763z M364.829,516.906L354.8,535.639h20.059L364.829,516.906z"/>
	<path clip-path="url(#SVGID_2_)" fill="#FFFFFF" d="M451.617,554.249L440.389,538.1h-21.006v16.148h-11.102v-45.67h37.407
		c10.408,0,17.221,6.056,17.221,14.949c0,7.192-3.532,11.859-10.408,13.751l11.606,16.97H451.617z M451.933,523.213
		c0-3.47-2.775-5.866-7.507-5.866h-25.043v11.984h25.106C449.22,529.332,451.933,526.998,451.933,523.213"/>
	<rect x="480.186" y="508.579" clip-path="url(#SVGID_2_)" fill="#FFFFFF" width="11.103" height="45.67"/>
	<path clip-path="url(#SVGID_2_)" fill="#FFFFFF" d="M536.008,516.337c-9.524,0-14.445,1.829-14.445,4.794
		c0,1.577,1.325,2.648,3.975,3.28c4.353,1.071,10.219,0.757,17.283,1.388c14.319,1.325,21.195,4.794,21.195,13.752
		c0,9.903-9.336,15.769-26.683,15.769c-11.418,0-20.88-2.522-29.647-8.579l6.056-7.442c7.821,4.794,15.579,7.064,24.097,7.064
		c9.209,0,14.382-2.648,14.382-6.371c0-4.036-5.93-4.036-15.644-4.478c-17.789-0.757-26.557-4.29-26.557-13.437
		c0-8.957,8.957-14.636,25.484-14.636c11.165,0,20.186,2.272,26.872,6.688l-6.309,7.316
		C549.634,517.978,543.137,516.337,536.008,516.337"/>
</g>
</svg>
